<?xml version="1.0" encoding="UTF-8"?>
<svg width="1366px" height="768px" viewBox="0 0 1366 768" version="1.1" xmlns="http://www.w3.org/2000/svg" xmlns:xlink="http://www.w3.org/1999/xlink">
    <!-- Generator: Sketch 61 (89581) - https://sketch.com -->
    <title>bg3_desktop</title>
    <desc>Created with Sketch.</desc>
    <g id="bg3_desktop" stroke="none" stroke-width="1" fill="none" fill-rule="evenodd">
        <rect id="footer-bg" fill="#F3F7BC" x="-63" y="615" width="1492" height="196"></rect>
        <path d="M1184.7,606 C1184.84497,607.428247 1184.94115,608.870848 1185,610.323497 L1185,610.323497 L1110.32493,685 C1108.87228,684.941148 1107.42968,684.843539 1106,684.699996 L1106,684.699996 Z M1184,622 C1183.74552,623.90569 1183.41586,625.785354 1183.01679,627.640438 L1183.01679,627.640438 L1127.64044,683.016791 C1125.78535,683.415858 1123.90424,683.745522 1122,684 L1122,684 Z M1181.99078,592 C1182.35934,593.196383 1182.69335,594.405724 1183,595.628022 L1183,595.628022 L1095.62946,683 C1094.40716,682.693346 1093.19638,682.357898 1092,681.989337 L1092,681.989337 Z M1177.47494,580 C1178.00741,581.031642 1178.51673,582.077753 1179,583.135439 L1179,583.135439 L1083.13548,679 C1082.07489,678.515287 1081.03021,678.007425 1080,677.474964 L1080,677.474964 Z M1176,647 C1169.34714,659.245405 1159.2454,669.347144 1147,676 L1147,676 Z M1171.05846,570 C1171.72537,570.887769 1172.37207,571.791417 1173,572.709501 L1173,572.709501 L1072.7095,673 C1071.78997,672.372066 1070.88633,671.726809 1070,671.058456 L1070,671.058456 Z M1162.68413,561 C1163.47382,561.755155 1164.24626,562.527571 1165,563.317248 L1165,563.317248 L1063.31587,665 C1062.52618,664.244845 1061.75374,663.472429 1061,662.682752 L1061,662.682752 Z M1153.2905,553 C1154.21003,553.626491 1155.11367,554.273191 1156,554.940101 L1156,554.940101 L1054.94154,656 C1054.27463,655.112231 1053.62793,654.208583 1053,653.289056 L1053,653.289056 Z M1142.86452,547 C1143.92366,547.484713 1144.96979,547.992575 1146,548.525036 L1146,548.525036 L1048.52506,646 C1047.99259,644.968358 1047.48327,643.922247 1047,642.863114 L1047,642.863114 Z M1130.3706,543 C1131.59287,543.305215 1132.8022,543.642102 1134,544.009224 L1134,544.009224 L1044.01065,634 C1043.64209,632.803617 1043.30665,631.592836 1043,630.371978 L1043,630.371978 Z M1115.67507,541 C1117.12772,541.058852 1118.57032,541.156461 1120,541.300004 L1120,541.300004 L1041.3,620 C1041.15503,618.571753 1041.05885,617.129152 1041,615.676503 L1041,615.676503 Z M1104,542 L1042,604 C1042.25448,602.09431 1042.58414,600.214646 1042.98321,598.359562 L1042.98321,598.359562 L1098.35956,542.983209 C1100.21465,542.584142 1102.09576,542.254478 1104,542 L1104,542 Z M1079,550 L1050,579 C1056.65286,566.753987 1066.7546,556.653187 1079,550 L1079,550 Z" id="Combined-Shape" fill="#89D8DE"></path>
        <path d="M1312,234 C1077.27898,234 887,424.278981 887,659 C887,893.721019 1077.27898,1084 1312,1084 C1546.72102,1084 1737,893.721019 1737,659 C1737,424.278981 1546.72102,234 1312,234 Z M1312,404 C1452.83261,404 1567,518.167389 1567,659 C1567,799.832611 1452.83261,914 1312,914 C1171.16739,914 1057,799.832611 1057,659 C1057,518.167389 1171.16739,404 1312,404 Z" id="Oval" fill="#D8E321" fill-rule="nonzero" opacity="0.75"></path>
    </g>
</svg>