<?xml version="1.0" encoding="UTF-8"?>
<svg width="144px" height="36px" viewBox="0 0 144 36" version="1.1" xmlns="http://www.w3.org/2000/svg" xmlns:xlink="http://www.w3.org/1999/xlink">
    <!-- Generator: Sketch 61 (89581) - https://sketch.com -->
    <title>btn_start</title>
    <desc>Created with Sketch.</desc>
    <g id="btn_start" stroke="none" stroke-width="1" fill="none" fill-rule="evenodd">
        <path d="M4.644,32.936 C5.472,32.936 6.336,32.828 7.056,32.468 C7.776,32.216 8.496,32.108 9.324,32 C11.448,32 19.404,31.496 20.484,31.496 C21.564,31.496 22.644,31.496 23.724,31.388 C26.064,31.316 32.472,30.992 32.472,30.992 C33.408,30.884 33.696,30.308 33.804,29.804 L33.588,28.976 C32.004,28.616 30.24,28.256 28.116,28.148 C25.992,28.04 22.392,27.644 20.7,27.536 L22.392,25.736 C23.256,24.872 23.832,24.044 24.336,23.072 C24.696,22.244 25.056,21.272 25.308,20.3 C25.524,19.328 25.776,18.392 26.028,17.312 L25.524,15.476 L23.004,14.288 L23.004,14.036 C23.832,13.928 24.804,13.82 25.668,13.568 C26.496,13.316 29.232,12.848 30.096,12.704 L30.456,12.128 L30.096,11.048 C29.736,10.688 29.124,10.436 28.512,10.436 L21.708,10.652 L20.448,10.688 L20.664,5.612 C20.808,5 20.664,4.532 20.448,4.172 C19.836,3.56 18.972,3.2 18.036,3.344 L17.424,3.452 C16.704,3.812 15.984,4.28 15.372,4.892 L15.48,5.972 L16.092,6.476 C16.452,6.944 16.956,8.384 17.172,9.464 L17.064,11.156 C15.84,11.516 12.276,11.876 11.088,12.236 C8.136,12.632 6.948,12.884 5.616,13.136 L6.336,14.936 C6.444,15.512 6.804,16.016 7.416,16.124 L10.98,15.62 L11.556,15.836 C11.916,16.952 12.168,18.248 12.168,19.58 C12.168,20.912 12.276,22.244 12.528,23.432 C12.636,24.764 12.888,25.952 13.248,27.176 L13.248,27.896 C12.276,28.004 11.412,28.22 9.504,28.328 C8.136,28.328 7.164,28.724 6.336,28.976 C5.364,29.228 4.536,29.588 3.672,29.948 C3.312,29.804 2.844,29.948 2.484,30.056 C2.592,30.884 3.096,31.748 3.816,32.468 L4.644,32.936 Z M15.552,27.428 L15.768,26.312 L16.272,17.42 C16.38,16.592 16.128,15.98 15.552,15.476 L15.66,15.116 L20.484,14.288 L20.952,14.396 C21.06,14.9 21.204,15.368 21.42,15.728 C21.42,16.592 21.42,17.42 21.312,18.14 C21.204,18.968 20.952,19.688 20.844,20.444 C20.592,21.272 20.34,21.992 20.232,22.82 C19.872,23.432 19.512,24.152 19.152,24.764 C18.684,25.376 18.072,25.952 17.46,26.456 L16.632,27.644 L16.488,27.788 C16.128,27.896 15.768,27.788 15.552,27.428 Z M41.4,28.04 C42.48,27.788 43.452,27.536 44.532,27.284 C45.612,27.176 46.584,26.924 47.664,26.564 C48.636,26.204 49.608,25.736 50.436,25.016 L51.156,25.016 L51.768,26.816 L52.596,27.644 L53.46,27.428 L53.928,25.736 C53.82,24.908 53.676,24.044 53.46,23.216 C53.1,22.496 52.848,21.776 52.488,20.912 C52.128,20.192 51.66,19.472 51.156,18.752 L48.996,17.312 L47.916,17.312 C48.276,17.924 48.528,18.392 48.888,19.004 C49.248,19.58 49.464,20.192 49.716,20.804 C49.824,21.416 49.608,21.992 49.248,22.352 C48.384,22.856 47.412,23.216 46.476,23.324 C45.504,23.432 44.532,23.684 43.56,23.936 L42.984,23.576 C42.984,22.712 43.452,16.448 43.812,15.728 C44.532,15.512 45.252,15.548 47.052,15.44 C47.772,15.332 48.492,15.224 49.212,15.008 C49.932,14.864 50.724,14.684 51.264,13.928 C51.624,13.1 51.84,12.128 51.984,11.048 C52.092,10.076 52.2,9.104 52.452,8.168 C52.704,7.196 52.956,6.224 53.172,5.252 L52.956,4.172 C52.596,3.704 52.2,3.344 51.732,3.236 C51.12,3.092 50.652,2.984 50.184,2.876 L42.948,3.452 L41.292,3.452 C40.68,3.344 40.068,3.452 39.708,3.956 L40.068,4.892 C39.96,6.944 39.852,9.104 39.708,11.156 C39.492,13.208 39.24,15.26 39.132,17.312 C38.88,19.364 38.52,21.416 38.052,23.432 C38.16,24.044 38.412,24.656 38.772,25.124 C39.132,25.736 39.492,26.204 39.708,26.816 L41.4,28.04 Z M57.132,33.764 L57.744,33.62 C58.464,32.144 58.572,30.92 58.932,29.588 C59.004,28.22 59.004,26.816 59.256,25.376 C59.472,24.044 59.544,22.424 59.508,21.128 L59.364,18.068 L59.364,15.656 L59.364,15.656 C59.274,15.056 59.259,14.456 59.2565,13.7935 L59.256,13.388 C59.256,12.668 59.364,8.096 59.364,8.096 C60.084,7.736 63.828,7.592 64.296,7.952 L64.296,9.536 L64.296,9.536 C64.188,10.148 63.828,12.776 63.828,13.604 C63.828,14.576 63.72,15.404 63.36,16.268 L60.804,15.656 L60.084,15.656 L61.668,18.896 C62.244,19.508 62.748,20.012 63.36,20.372 C63.936,20.84 64.548,21.2 65.16,21.56 L65.988,21.452 C66.6,19.76 67.068,18.068 67.32,16.268 C67.572,14.468 67.788,12.776 68.148,10.976 C68.508,9.896 69.12,8.312 69.948,6.764 L69.372,5.54 C68.76,5.072 68.148,4.82 67.572,4.712 C66.96,4.604 66.24,4.604 65.52,4.46 C64.656,4.712 60.228,5.18 58.032,4.82 L56.952,4.82 C56.376,4.712 55.764,4.82 55.152,5.072 L55.62,7.844 L55.8,14.936 C55.8,16.628 55.872,18.428 55.764,20.012 C55.62,21.56 55.404,27.284 55.548,28.94 C55.548,29.768 55.692,30.488 55.8,31.208 C55.908,31.928 56.16,32.648 56.412,33.368 L57.132,33.764 Z M43.704,8.168 L43.704,5.612 L48.348,5.612 C48.708,6.368 48.78,6.872 48.96,7.484 L48.6,8.096 L43.704,8.168 Z M43.704,13.1 L43.704,11.084 L44.28,10.616 L48.672,10.724 L48.276,12.884 L43.704,13.1 Z M105.228,33.404 C105.804,33.26 106.236,32.972 106.344,32.396 C106.236,31.568 106.092,30.848 105.984,29.984 C105.876,29.156 105.876,28.436 105.732,27.572 L106.092,21.668 L105.876,15.44 C105.876,14.108 105.984,12.884 106.092,11.696 C106.236,10.472 106.236,9.284 106.236,7.952 C106.236,6.62 106.344,5.432 106.488,4.244 L105.912,3.236 L103.176,3.488 L103.284,5.072 L102.78,13.352 L103.176,26.132 C103.176,26.672 102.996,27.032 102.528,27.32 C101.52,27.428 100.728,27.212 99.9,26.6 L98.712,26.6 L98.856,28.148 L101.304,30.776 C101.916,31.388 102.528,32.072 103.14,32.432 C103.716,32.792 104.436,33.152 105.228,33.404 Z M84.672,24.548 C85.392,24.152 86.22,24.368 87.048,24.26 C87.876,24.116 88.596,23.972 89.532,23.72 C90.288,23.432 91.044,23.684 91.764,23.252 L93.384,24.152 L94.464,24.044 L95.148,20.552 L95.148,19.544 C95.148,17.888 95.148,16.232 95.004,14.576 C94.896,13.028 94.788,11.516 94.428,10.04 C94.068,8.492 93.708,7.088 93.348,5.576 C92.664,5.108 91.98,4.856 91.26,4.856 C90.54,5 89.82,5 89.208,4.856 L84.168,5.144 C84.168,5.144 83.52,5.036 82.764,5.252 C82.296,5.936 82.8,8.24 82.8,8.24 L82.8,12.344 L82.8,12.344 C82.692,13.604 82.548,19.184 82.368,20.228 C82.26,20.876 82.044,23.216 82.656,23.756 L84.672,24.548 Z M98.136,16.88 L98.892,16.448 L98.748,16.016 C99,15.008 99.36,13.928 99.72,12.848 C100.08,11.876 100.332,10.724 100.584,9.644 C100.692,8.564 101.052,7.556 101.412,6.512 L101.412,5.828 L100.296,5.288 L96.48,5.9 L96.66,6.404 L96.084,11.948 L96.444,15.008 C96.804,15.728 97.344,16.34 98.136,16.88 Z M77.652,10.58 L78.876,10.292 L80.172,10.436 L81,10.328 L80.316,8.42 C79.668,7.664 79.056,7.304 78.336,7.052 C77.616,6.908 76.896,6.656 76.104,6.476 C75.24,6.476 74.448,6.656 73.656,7.052 L73.764,7.664 C74.448,8.24 75.06,8.744 75.6,9.5 C76.248,10.22 76.86,10.436 77.652,10.58 Z M86.472,10.832 L86.004,9.428 L86.292,8.744 L87.768,8.06 C88.668,7.952 89.64,8.06 90.396,8.384 L91.116,9.536 L90.864,10.544 L86.472,10.832 Z M86.724,16.232 L86.472,13.856 L90.18,13.28 L91.44,13.388 L91.728,14.216 L91.584,15.8 C91.152,15.944 90.432,15.944 89.82,15.944 C89.208,16.124 88.488,16.232 86.724,16.232 Z M77.652,17.42 C78.336,17.168 78.948,16.7 79.488,15.98 L79.128,14.396 L78.012,13.928 C77.184,13.928 76.464,13.928 75.744,14.072 C75.024,14.18 74.196,14.36 73.548,14.612 L73.656,15.476 C74.34,16.016 74.952,16.484 75.528,16.772 C76.14,17.024 76.86,17.276 77.652,17.42 Z M78.84,30.452 L79.74,30.344 L80.244,28.94 L80.244864,28.249952 C80.24832,27.3848 80.2656,26.7224 80.352,26.06 C80.352,25.196 80.64,24.368 81.072,23.72 L80.928,21.308 C81.072,20.192 80.928,19.22 80.46,18.356 L79.632,18.392 C79.416,19.328 78.984,20.372 78.408,21.308 C77.868,22.316 77.472,23.144 77.04,24.08 C76.644,25.124 76.068,26.168 75.636,27.248 L74.124,28.868 L74.34,29.228 C75.06,29.66 75.708,29.948 76.5,30.056 C77.184,30.2 78.012,30.308 78.84,30.452 Z M86.508,21.2 L86.364,19.508 C87.012,19.076 90.144,19.112 91.656,18.68 C91.908,19.796 91.728,19.976 91.44,20.588 L86.508,21.2 Z M84.168,32.288 C84.816,32.144 85.428,31.892 85.932,31.496 C86.4,31.1 86.868,30.776 87.372,30.308 C88.02,29.696 88.38,29.012 88.524,28.004 L88.524,27.608 C88.092,27.068 87.516,26.816 86.94,26.816 C86.328,26.816 85.716,26.672 85.104,26.564 L83.736,26.672 C83.124,27.068 82.584,27.644 82.224,28.472 L82.224,29.804 C82.584,30.992 83.232,31.784 84.168,32.288 Z M94.428,31.46 L95.796,31.28 L96.048,31.064 C96.048,30.164 95.76,29.264 95.364,28.652 C95.076,27.464 94.356,26.708 93.24,26.708 L89.856,27.356 L90.036,27.716 C90.72,28.544 91.404,29.264 92.088,29.876 C92.772,30.56 93.564,31.136 94.428,31.46 Z M128.556,22.64 C129.924,22.64 131.04,22.388 132.156,21.74 L132.516,20.876 L132.156,19.904 C132.66,18.968 133.02,18.032 133.236,16.88 C132.372,15.98 131.256,15.62 129.924,15.62 C128.844,15.512 127.836,15.764 127.044,16.484 L126.612,16.268 C126.756,15.008 127.368,13.928 128.124,13.028 C129.636,14.072 131.616,14.432 133.668,14.324 C134.64,14.216 135.576,13.964 136.62,13.856 L136.512,13.136 C135.396,12.488 134.136,12.272 132.804,12.128 C131.508,12.02 130.176,11.876 128.952,11.768 C129.744,10.544 131.724,7.268 131.724,7.268 C132.912,8.528 134.244,9.5 135.792,10.364 C137.34,11.192 138.816,12.164 140.148,13.244 L140.94,12.74 L140.832,11.336 C139.608,10.328 138.384,9.356 137.052,8.528 C135.756,7.664 134.676,6.62 133.596,5.468 L133.992,4.604 L133.848,3.632 C133.2,3.128 132.444,2.804 131.508,2.516 L130.14,2.984 C128.88,4.964 127.692,6.872 126.612,8.924 C125.532,10.976 124.668,13.028 124.092,15.332 L124.812,17.096 L125.892,17.528 C126.108,18.932 126.468,20.444 127.08,21.74 L128.556,22.64 Z M122.832,32.936 C123.948,31.28 124.452,29.3 124.308,27.104 C124.092,24.908 124.56,23.036 125.784,21.308 L125.532,20.228 C124.416,19.184 123.192,18.536 121.86,18.428 C120.528,18.248 119.196,18.032 118.08,17.672 L118.44,16.484 C119.484,16.088 120.924,15.692 121.932,15.008 L121.788,14.396 C120.888,14.288 119.592,14.144 118.8,13.784 L118.908,12.2 C120.276,11.912 121.14,11.624 121.644,10.868 L121.536,10.292 L120.996,10.04 L119.16,9.248 L119.268,7.448 C120.42,6.944 121.356,6.728 122.364,6.584 C122.904,6.296 122.58,5.684 122.256,5.108 C120.42,4.46 118.224,4.064 116.208,3.956 C115.632,3.2 114.768,2.804 113.76,2.984 L112.428,3.596 C111.528,5.18 111.42,6.62 111.42,8.564 C111.42,10.472 111.312,12.272 111.168,14.216 C111.168,15.62 111.312,16.952 111.672,18.068 L110.952,18.824 L111.06,19.4 C111.708,20.084 112.284,20.588 113.04,20.768 L115.596,20.48 C117.396,20.336 119.196,20.48 120.96,20.768 L121.284,21.488 C121.428,22.064 121.284,22.676 121.068,23.288 C120.312,22.64 119.484,22.172 118.584,21.884 L117.792,22.208 C117.936,22.892 118.152,23.432 118.548,23.792 C119.268,24.728 120.132,25.268 120.96,25.664 L121.536,26.24 C121.644,27.608 121.536,28.724 121.068,29.732 C120.132,30.128 119.16,30.524 117.972,30.92 L120.6,33.368 C121.5,33.512 122.256,33.368 122.832,32.936 Z M115.776,9.284 L115.092,9.176 L115.128,7.16 L116.1,7.34 L115.776,9.284 Z M114.696,13.748 L114.912,11.948 L115.92,12.02 L115.956,13.604 L114.696,13.748 Z M135.9,22.496 C137.268,22.496 138.6,22.28 139.824,21.92 L140.724,21.164 L140.472,20.516 C140.94,19.58 141.336,18.608 141.696,17.636 L141.444,16.376 C140.796,15.872 140.148,15.62 139.32,15.62 L138.852,15.764 C137.52,15.872 136.188,15.764 135,15.512 L133.956,16.268 C133.848,17.852 133.956,19.436 134.316,20.912 C134.676,21.632 135.324,22.136 135.9,22.496 Z M116.028,17.888 L114.66,17.888 L114.876,16.376 L115.92,16.376 L116.244,17.456 L116.028,17.888 Z M129.276,20.48 L128.844,17.528 L130.104,17.348 L129.96,20.444 L129.276,20.48 Z M136.728,20.12 L136.872,18.248 L137.52,17.708 L138.42,18.14 C138.276,18.932 138.168,19.652 137.952,20.192 C137.952,20.192 137.016,20.336 136.728,20.12 Z M117.72,26.924 L118.512,26.816 L118.908,25.808 C118.548,24.224 117.54,23.144 116.172,22.532 L114.984,22.964 C115.632,24.476 116.46,25.736 117.72,26.924 Z M134.856,34.088 L135.396,33.944 L137.412,29.768 C138.816,30.812 140.364,31.784 141.984,32.612 L142.884,32.108 L142.884,31.424 C141.516,30.092 140.076,28.796 138.564,27.464 L138.672,26.816 L139.392,26.204 L140.004,24.98 L139.644,23.72 L138.024,22.964 C137.376,22.856 136.872,22.964 136.512,23.252 C135.864,24.08 135.396,25.052 135.144,26.06 C134.928,27.104 134.568,28.076 134.244,28.976 C133.092,28.616 132.012,28.148 131.004,27.5 L131.94,26.564 L132.3,25.808 L132.048,24.764 L129.096,24.044 L128.196,24.296 C127.332,25.412 126.72,26.492 126.36,27.572 C125.892,28.796 125.532,29.984 125.172,31.244 L125.28,32.36 L126.144,33.224 L126.72,33.116 C127.584,31.748 128.304,30.308 128.988,29.012 C130.608,29.624 132.3,30.2 133.956,30.776 L133.848,31.712 C133.704,32.684 133.956,33.44 134.856,34.088 Z M110.484,29.372 L111.06,29.192 C111.744,28.76 111.996,27.284 112.176,25.808 L112.176,25.232 L110.808,23.612 C110.124,23.756 109.62,24.188 109.26,24.872 C109.116,26.636 109.476,28.112 110.484,29.372 Z M115.02,28.328 L115.704,28.004 C115.812,26.924 115.56,26.024 115.2,25.124 C114.84,24.476 114.336,24.044 113.616,23.648 L112.824,23.648 L112.428,24.188 L112.644,25.7 C113.148,26.852 113.904,27.644 115.02,28.328 Z" id="立即測驗" fill="#4A5141" fill-rule="nonzero"></path>
    </g>
</svg>