<?xml version="1.0" encoding="UTF-8"?>
<svg width="45px" height="36px" viewBox="0 0 45 36" version="1.1" xmlns="http://www.w3.org/2000/svg" xmlns:xlink="http://www.w3.org/1999/xlink">
    <!-- Generator: Sketch 61 (89581) - https://sketch.com -->
    <title>btn_fb</title>
    <desc>Created with Sketch.</desc>
    <g id="btn_fb" stroke="none" stroke-width="1" fill="none" fill-rule="evenodd">
        <path d="M4.896,31.748 C5.328,31.172 5.688,30.452 6.012,29.588 C6.336,28.868 6.588,28.292 6.768,27.5 C6.912,26.708 7.164,25.988 7.236,25.376 C7.344,24.764 7.38,23.972 7.524,23.252 C7.524,22.064 7.632,21.38 7.956,20.768 C9.144,20.516 11.124,20.444 11.124,20.444 C12.384,20.444 13.644,20.228 14.868,19.724 C16.308,19.652 17.136,18.896 18.144,18.284 L17.928,17.456 L17.136,16.952 L9.648,17.24 L8.064,17.204 L7.704,15.512 C7.848,14.684 7.848,13.856 7.848,12.992 C7.848,12.092 7.848,11.192 8.172,10.472 C9.18,10.004 10.44,9.932 11.484,10.22 C12.744,10.076 14.796,9.86 15.948,9.644 C17.064,9.392 18.396,8.996 19.44,8.78 L20.376,7.7 L20.088,6.836 L18.54,6.224 L12.852,5.972 C11.952,5.9 10.584,5.828 9.828,5.792 C8.892,5.576 7.632,5.54 6.588,5.288 C5.796,5.072 4.896,5.072 3.996,5.072 C3.168,5.072 2.484,5.324 1.98,5.684 C2.304,6.296 2.484,7.016 2.808,7.34 C3.06,8.06 3.168,8.78 3.168,9.608 C3.168,10.436 3.168,11.192 3.276,11.912 L3.276,12.74 C3.384,14.18 3.384,15.62 3.276,16.952 C3.168,18.284 3.06,19.724 2.952,21.056 C2.736,22.388 2.484,23.684 2.304,25.016 C2.304,26.096 2.304,27.068 2.376,28.04 C2.376,29.012 2.484,29.948 2.628,30.92 L3.384,32 C3.996,32.108 4.428,32 4.896,31.748 Z M26.1,31.784 C27.756,31.316 29.412,30.956 31.176,30.704 C32.94,30.488 34.668,29.984 36.324,29.408 C37.836,28.796 39.564,28.328 41.4,28.076 C41.832,27.824 42.3,27.464 42.696,26.996 C43.02,26.492 43.272,26.024 43.668,25.556 L43.668,23.612 L43.668,23.612 C43.668,23 43.524,22.424 43.272,21.812 C42.912,20.948 42.516,20.228 41.868,19.4 C41.256,18.68 40.536,18.068 39.816,17.492 C39.024,16.988 38.34,16.52 37.512,16.016 L37.584,15.548 C38.16,15.296 38.88,15.08 39.456,14.828 C40.104,14.576 40.716,14.216 41.184,13.748 C41.976,13.028 42.3,12.164 42.3,11.228 L41.4,9.176 C40.464,8.204 39.384,7.304 38.376,6.836 C37.26,6.476 36.072,6.08 34.74,5.864 C33.48,5.72 32.292,5.612 30.996,5.504 L30.42,5.36 C29.736,5.36 28.98,5.288 28.404,5.288 C27.756,5.036 27.072,5.252 26.496,5 C25.848,5.072 25.236,5.324 24.696,5.684 L24.408,11.336 L24.408,25.052 C24.408,25.052 24.228,26.132 24.192,26.78 C23.976,27.824 23.832,28.688 23.832,28.688 C23.724,29.264 23.94,29.768 24.3,30.128 C24.66,30.488 25.02,30.956 25.236,31.316 L26.1,31.784 Z M27.504,14.648 L27.432,11.408 L27.684,9.464 L30.06,8.924 L32.184,8.924 L32.184,8.924 C32.832,9.068 33.552,9.068 34.236,9.212 C35.388,9.32 35.928,9.968 36.504,10.076 L36.36,10.616 C35.964,11.264 35.712,11.696 35.244,11.984 C34.74,12.524 33.876,12.812 33.084,12.992 C31.14,13.712 30.06,14.144 28.836,14.252 L27.504,14.648 Z M28.512,27.5 L28.152,27.356 L27.864,25.088 L27.936,18.356 L28.944,17.96 C29.628,17.96 30.312,18.104 32.292,18.248 C33.228,18.104 34.128,18.248 34.884,18.464 C35.82,18.86 36.576,19.22 37.296,19.76 C37.656,20.156 38.016,20.516 38.412,20.912 C38.664,21.416 38.844,21.92 38.988,22.424 C38.988,22.928 38.736,23.288 38.412,23.576 C37.296,24.044 36.324,24.584 35.172,24.98 C34.128,25.448 33.012,25.988 31.932,26.492 C30.78,26.996 29.664,27.356 28.512,27.5 Z" id="FB" fill="#4A5141" fill-rule="nonzero"></path>
    </g>
</svg>