<?xml version="1.0" encoding="UTF-8"?>
<svg width="108px" height="36px" viewBox="0 0 108 36" version="1.1" xmlns="http://www.w3.org/2000/svg" xmlns:xlink="http://www.w3.org/1999/xlink">
    <!-- Generator: Sketch 61 (89581) - https://sketch.com -->
    <title>btn_next</title>
    <desc>Created with Sketch.</desc>
    <g id="btn_next" stroke="none" stroke-width="1" fill="none" fill-rule="evenodd">
        <path d="M18.288,33.368 C18.648,32.504 18.9,31.712 19.008,30.668 C19.152,29.732 19.152,28.796 19.26,27.824 C19.152,21.812 19.152,20.876 19.26,20.012 C19.368,19.22 19.368,18.248 19.368,17.348 C19.26,16.52 19.512,15.692 19.368,13.316 C19.368,12.488 19.512,11.588 19.728,10.76 C19.872,9.968 20.232,9.248 20.592,8.6 C21.564,8.24 22.5,7.988 23.616,7.88 C25.668,7.736 26.604,7.628 27.684,7.52 C28.8,7.376 29.736,7.16 30.816,7.052 L31.932,6.044 L31.536,4.748 L29.376,3.884 L28.188,3.884 C25.524,4.028 21.924,4.136 19.368,4.244 C16.848,4.388 14.22,4.604 11.664,4.964 C9.144,5.324 6.624,5.9 4.212,6.764 L4.32,7.268 C4.932,7.52 5.436,7.736 5.904,8.096 C6.264,8.456 6.876,8.708 7.452,8.708 L10.944,8.6 C12.024,8.456 12.996,8.6 13.86,8.78 L14.328,11.372 L14.04,19.904 C13.968,21.38 14.148,22.532 14.22,23.864 C14.22,25.268 14.328,26.672 14.436,27.932 C14.58,29.336 14.94,30.668 15.408,31.856 C15.768,32.648 16.272,33.26 16.992,33.872 C17.568,33.98 17.928,33.728 18.288,33.368 Z M29.628,20.3 L30.456,19.58 L30.456,19.112 C30.096,18.212 29.484,17.672 28.764,17.06 C28.044,16.484 27.324,15.872 26.712,15.296 C25.992,14.72 25.272,14 24.696,13.316 L23.616,12.704 C23.004,12.812 22.5,12.812 21.924,12.956 C21.312,13.064 20.88,13.28 20.412,13.496 L20.34,15.008 L21.312,16.088 C22.14,16.628 23.004,17.24 23.832,17.744 C24.696,18.284 25.524,18.788 26.352,19.148 C27.216,19.616 28.188,19.94 29.124,20.3 L29.628,20.3 Z M60.048,21.38 C61.2,21.272 62.388,21.272 63.648,21.272 C64.8,21.272 65.916,21.164 67.068,21.02 C68.076,20.912 69.084,20.552 69.84,19.688 L69.948,18.968 C67.788,18.428 65.952,17.996 63.792,17.672 C61.632,17.348 59.112,17.168 56.88,17.024 C54.72,16.88 52.992,16.952 50.292,16.988 C48.852,16.88 47.376,17.168 45.972,17.276 C44.568,17.42 43.344,17.456 41.94,17.672 C40.536,17.888 39.312,18.248 38.16,18.86 L38.448,19.472 C39.168,19.58 39.744,19.832 40.32,20.192 C40.752,20.552 41.328,20.912 41.868,21.272 L45.036,21.164 L48.204,21.02 L52.2,21.02 L52.2,21.02 C53.46,21.164 54.936,21.164 56.196,21.164 C57.492,21.164 58.788,21.272 60.048,21.38 Z M95.58,23.144 C96.444,23.144 97.38,23 98.244,22.892 C99.072,22.784 99.792,22.64 100.656,22.424 C101.484,22.172 104.364,21.812 104.364,21.812 C104.724,21.452 105.084,20.984 105.336,20.372 C105.444,19.868 105.588,19.292 105.588,18.68 C105.444,17.852 105.444,16.88 105.444,16.016 C105.444,15.188 105.444,14.216 105.336,13.388 C105.228,12.524 104.976,11.804 104.616,10.976 C104.148,10.364 103.536,9.896 102.816,9.644 C102.096,9.536 101.376,9.284 100.656,9.176 C96.66,9.176 95.94,9.032 95.364,8.816 L95.364,8.456 L96.804,7.124 C97.38,6.512 98.1,6.152 98.964,5.9 C100.836,5.72 101.556,5.612 102.384,5.468 L103.428,4.028 L103.176,3.308 L99.036,2.768 C98.172,2.768 97.452,2.768 96.624,2.876 C95.796,3.02 95.04,3.02 94.32,3.128 C92.7,3.308 91.98,3.56 91.152,3.668 L91.26,4.172 C91.8,5.144 92.52,5.504 94.032,5.792 C93.888,6.404 93.528,7.016 93.168,7.484 C92.7,8.096 92.232,8.564 91.872,9.176 C91.98,9.752 92.7,16.736 92.592,17.492 L92.592,18.572 C92.7,19.292 92.7,20.012 92.7,20.732 C92.7,21.452 92.808,22.172 93.06,22.784 L93.312,22.892 L93.4252276,22.892992 C93.8089197,22.8982825 95.0646316,22.9317895 95.58,23.144 Z M80.532,16.952 L84.168,16.448 C84.78,16.34 85.356,16.448 85.716,16.808 L86.328,16.592 C86.94,15.836 87.3,15.008 87.408,13.928 C87.408,12.848 87.516,11.876 87.66,10.904 C87.768,9.824 87.66,8.852 87.624,7.16 C87.516,6.188 87.156,5.216 86.688,4.388 C86.076,3.884 80.424,3.092 79.596,2.984 C78.984,3.092 77.364,3.632 76.896,3.884 C77.472,4.712 77.292,5.864 77.436,6.944 C77.544,7.772 77.292,10.796 77.184,11.516 C77.04,12.344 76.932,13.1 76.68,13.676 C76.824,14.648 77.04,15.476 77.436,16.34 C77.904,16.592 78.372,16.7 78.984,16.7 C79.596,16.7 80.064,16.808 80.532,16.952 Z M83.412,8.6 L80.496,8.24 L79.956,7.196 C79.956,6.692 79.884,6.224 80.244,6.008 L82.728,6.584 C83.196,6.692 83.556,7.052 83.628,8.024 L83.412,8.6 Z M84.024,13.82 L80.784,13.676 L80.064,12.956 L80.244,11.588 L83.808,11.516 L84.276,12.236 C84.384,12.848 84.276,13.316 84.024,13.82 Z M100.872,13.244 L99.936,13.136 L99.072,13.244 C98.352,13.136 97.632,13.136 96.912,13.028 C96.192,13.028 95.472,12.884 94.86,12.668 L95.22,11.948 L97.38,11.948 L97.38,11.948 C98.1,12.056 98.856,12.056 99.576,12.056 C100.296,12.056 100.872,12.164 101.484,12.524 L101.376,13.028 L100.872,13.244 Z M95.724,16.628 L95.832,16.16 L100.656,15.8 L102.204,15.908 L102.096,16.52 L97.164,16.88 C96.552,16.988 96.084,16.88 95.724,16.628 Z M100.764,34.772 C101.484,34.628 102.204,34.52 102.96,34.268 L103.788,33.548 L103.536,32.72 L97.056,31.64 L97.056,31.64 C94.86,31.388 92.844,30.884 90.792,30.308 C88.74,29.696 86.58,29.084 84.528,28.364 L84.528,26.564 C85.14,26.456 88.128,26.204 88.848,26.096 C89.568,25.952 90.288,25.952 91.008,25.844 L91.62,25.124 L91.368,24.044 C90.54,23.54 89.712,23.324 88.632,23.324 L86.94,23.432 C85.86,23.54 84.996,23.432 84.276,22.964 L84.78,21.272 C85.356,20.912 86.076,20.66 86.94,20.552 C87.768,20.444 88.488,20.3 89.208,20.192 L90.18,19.328 L90.072,18.752 C89.928,18.248 89.568,17.888 89.1,17.78 C87.408,17.78 85.716,17.78 84.024,17.888 C82.368,18.032 80.676,18.248 79.092,18.392 C77.544,18.608 75.96,18.968 74.412,19.472 L74.664,20.3 C75.024,20.912 75.6,21.164 76.212,21.164 C76.824,21.164 77.436,21.272 78.012,21.38 L80.532,21.38 L81.144,26.096 C81.288,26.672 81.144,27.032 80.784,27.428 C79.956,27.284 79.092,27.032 78.372,26.672 C78.012,25.448 77.796,24.728 77.544,24.008 L76.212,23.18 C75.6,23.036 75.132,23.18 74.664,23.54 L74.772,24.008 C74.88,24.98 74.772,25.808 74.52,27.176 C74.304,28.004 74.16,28.976 74.052,29.804 C73.944,30.776 73.8,31.748 73.692,32.576 C73.548,33.296 73.692,33.908 74.304,34.268 L75.24,34.016 L77.292,30.308 C79.344,30.884 81.396,31.64 83.448,32.216 C85.5,32.936 87.516,33.548 89.568,33.908 C91.62,34.376 93.78,34.772 96.084,34.88 L98.496,34.88 C99.324,34.88 100.044,34.88 100.764,34.772 Z M97.632,20.012 L96.3,20.012 L96.444,19.508 C97.164,19.292 97.992,19.148 98.856,19.148 C99.684,19.148 100.404,19.04 101.124,18.788 L102.204,18.932 L102.096,19.292 C101.376,19.4 100.656,19.508 99.936,19.652 C99.072,19.76 98.352,19.868 97.632,20.012 Z M92.448,29.624 L93.06,29.516 C93.78,29.156 94.5,28.688 95.22,28.184 C95.94,27.716 96.552,27.104 97.164,26.492 L97.632,25.664 L97.524,24.476 L94.86,23.612 L93.168,23.864 C92.592,24.476 92.34,25.052 92.232,25.916 C92.088,26.744 91.872,27.464 91.728,28.184 L91.728,28.904 L92.448,29.624 Z M104.544,29.552 C105.12,29.444 105.768,28.904 106.092,28.508 L105.12,26.528 C104.4,25.844 103.68,25.448 102.996,25.052 C102.096,24.764 101.268,24.512 100.404,24.224 L99.468,24.368 L101.016,26.996 L104.544,29.552 Z" id="下一題" fill="#4A5141" fill-rule="nonzero"></path>
    </g>
</svg>