<?xml version="1.0" encoding="UTF-8"?>
<svg width="215px" height="87px" viewBox="0 0 215 87" version="1.1" xmlns="http://www.w3.org/2000/svg" xmlns:xlink="http://www.w3.org/1999/xlink">
    <!-- Generator: Sketch 61 (89581) - https://sketch.com -->
    <title>des2</title>
    <desc>Created with Sketch.</desc>
    <g id="des2" stroke="none" stroke-width="1" fill="none" fill-rule="evenodd" opacity="0.753699">
        <path d="M18.266,22.8 L18.608,22.746 C18.788,22.512 18.896,22.206 18.968,21.9 C18.968,21.594 19.04,21.234 19.094,20.946 L19.04,20.388 C19.094,20.1 19.094,19.74 19.166,19.38 C19.166,19.074 19.166,18.714 19.22,18.354 C19.22,18.048 19.31,17.688 19.382,17.382 C19.76,17.202 20.156,17.148 20.534,17.148 L21.002,16.716 L20.876,16.428 C20.642,16.068 20.336,15.816 19.922,15.762 C19.508,15.708 19.094,15.582 18.716,15.456 L18.5,15.096 C18.428,14.79 18.5,14.502 18.662,14.196 L19.58,13.782 C19.634,13.35 19.76,12.936 19.976,12.504 C20.21,12.144 20.354,11.73 20.408,11.298 L21.074,10.704 C21.074,10.398 20.948,10.11 20.786,9.93 C20.462,9.678 20.084,9.552 19.58,9.498 C19.13,9.498 18.716,9.444 18.266,9.372 C17.582,9.498 17.042,9.444 16.646,9.264 L16.844,8.652 L17.78,8.652 C18.266,8.652 18.68,8.598 19.004,8.418 L18.698,7.698 C18.428,7.446 18.122,7.338 17.726,7.338 C17.726,7.338 17.258,7.302 16.88,7.248 C16.7,7.068 16.628,6.834 16.628,6.528 C16.628,6.222 16.574,5.988 16.466,5.736 L15.152,5.52 L14.9,5.592 L15.242,6.258 L15.152,7.212 L13.334,7.446 L12.218,7.518 L12.218,7.752 C12.434,8.184 12.74,8.544 13.064,8.832 C13.28,8.904 13.55,8.832 14.954,8.724 L15.296,9.012 L15.242,9.498 L12.902,9.93 L12.542,9.858 L12.254,9.984 C12.434,10.344 12.56,10.704 12.65,11.118 C12.722,11.55 12.776,12.036 12.866,12.45 C12.866,12.864 12.992,13.296 13.172,13.656 C13.172,13.656 13.676,14.268 14.324,14.376 L16.646,14.25 C16.88,14.43 17.042,14.682 17.096,14.97 L17.042,15.528 C16.358,15.636 15.746,15.708 15.152,15.762 C14.504,15.816 13.91,15.888 13.28,15.942 C12.704,15.996 12.092,16.176 11.552,16.356 L11.408,17.094 C11.354,17.382 11.408,17.688 11.57,17.922 L12.326,18.12 C12.326,18.12 12.686,18.12 13.046,17.994 C13.406,17.814 13.82,17.688 14.324,17.634 C14.702,17.634 15.152,17.562 15.548,17.508 C15.944,17.454 16.358,17.382 16.79,17.328 L17.294,17.382 L17.438,18.354 L17.438,19.434 L17.438,19.434 C17.438,19.848 17.384,20.208 17.114,20.514 L16.286,20.388 C16.286,20.388 14.702,20.478 14.45,20.694 L14.468,21.126 C14.792,21.306 15.26,21.54 15.656,21.774 C16.052,22.026 16.448,22.206 16.934,22.386 C17.384,22.566 17.816,22.692 18.266,22.8 Z M21.29,7.752 C21.29,7.446 21.2,7.158 21.146,6.852 C21.02,6.546 20.876,6.312 20.768,6.006 L19.976,5.646 C19.67,5.592 19.256,5.592 18.932,5.646 C18.608,5.7 18.302,5.772 18.068,5.88 L18.536,6.672 C18.842,6.978 19.184,7.212 19.526,7.392 C19.868,7.626 20.264,7.806 20.66,7.878 C20.912,7.932 21.128,7.878 21.29,7.752 Z M9.842,21.234 C10.022,20.946 10.148,20.64 10.22,20.208 C10.274,19.794 10.328,19.434 10.472,19.074 C10.598,18.714 10.652,18.354 10.724,17.922 C10.598,17.022 10.706,15.726 10.796,15.042 C10.742,14.664 10.85,14.25 10.85,13.962 C10.796,13.656 10.796,13.278 10.904,12.468 L11.984,12.162 C11.984,12.162 12.29,12.054 12.254,11.694 C12.254,11.388 11.894,11.1 11.894,11.1 L10.832,10.938 L10.49,10.47 C10.436,10.11 10.364,9.732 10.364,9.318 C10.292,8.958 10.166,8.652 9.914,8.364 C9.266,8.292 8.852,8.364 8.564,8.544 C8.69,8.832 8.744,9.138 8.816,9.444 C8.888,9.804 8.888,10.164 8.942,10.47 L8.888,10.83 L7.718,11.01 C7.412,11.064 7.142,11.118 6.908,11.298 C6.638,11.478 6.278,11.658 6.17,11.838 C6.242,12.378 7.538,12.756 7.538,12.756 L9.032,12.558 L9.014,14.79 L8.816,19.074 L8.816,19.92 L8.816,19.92 C8.816,20.208 8.888,20.514 8.996,20.766 L9.428,21.234 L9.842,21.234 Z M18.302,11.37 L16.862,11.28 L16.808,10.83 L17.06,10.758 C17.492,10.704 18.158,10.758 18.464,11.01 L18.302,11.37 Z M15.188,11.478 L14.414,11.37 L14.486,10.884 L14.756,10.83 L15.278,10.884 L15.188,11.478 Z M15.26,13.044 L14.576,13.026 L14.612,12.63 L14.918,12.576 L15.314,12.63 L15.44,12.81 L15.26,13.044 Z M16.952,12.936 L16.826,12.612 L18.266,12.63 L18.266,12.99 L18.014,13.044 C17.636,13.116 17.312,13.044 16.952,12.936 Z M14,19.974 L14.63,19.848 L15.602,19.92 C15.89,19.974 16.052,19.92 16.196,19.74 L16.106,19.434 C15.962,19.2 15.71,19.074 15.386,19.02 C15.026,18.948 14.666,18.894 14.396,18.714 L13.19,18.84 L13.064,18.894 L13.064,19.074 L14,19.974 Z M39.146,21.324 C39.56,20.478 39.794,19.506 39.794,18.426 C39.74,17.4 39.794,16.32 39.92,15.294 C40.046,14.268 40.154,13.314 40.334,12.288 C40.406,11.928 40.334,11.622 40.154,11.316 C39.614,11.028 39.02,10.776 38.354,10.596 C37.688,10.416 37.04,10.362 36.374,10.308 C35.708,10.308 35.042,10.182 34.448,9.948 L34.682,8.85 L34.682,7.95 L34.682,7.95 C34.682,7.644 34.628,7.41 34.448,7.176 L33.908,6.996 L33.296,7.05 C33.116,7.536 32.99,8.022 32.81,8.49 C32.63,8.976 32.45,9.462 32.27,9.876 C32.09,10.362 31.784,10.812 31.406,11.244 L31.118,10.758 C30.884,10.578 30.47,10.542 30.164,10.488 C29.804,10.488 29.498,10.416 29.21,10.362 C29.03,10.128 28.958,9.822 29.066,9.012 L29.066,8.058 L29.066,8.058 L28.634,7.572 C28.166,7.518 27.734,7.572 27.32,7.698 L27.248,7.806 L27.554,8.526 L27.518,10.182 L27.158,10.596 L26.744,10.416 L26.978,9.57 L26.798,8.562 C26.492,8.256 26.132,8.13 25.718,8.076 C25.412,8.022 25.178,8.076 24.926,8.202 L24.998,8.49 C24.998,9.03 24.926,9.57 24.746,10.056 C24.566,10.542 24.386,11.028 24.26,11.514 C24.08,11.982 23.972,12.468 23.9,13.008 C23.846,13.44 23.9,13.8 24.026,14.088 C24.152,14.448 24.332,14.808 24.512,15.114 L24.998,14.934 C25.286,14.574 25.538,14.16 25.718,13.728 C25.898,13.314 26.006,12.882 26.204,12.468 L26.672,12.234 C26.924,12.162 27.104,12.288 27.284,12.468 C27.338,12.828 27.104,14.214 27.032,14.52 C26.744,14.754 26.438,14.934 26.078,14.988 C25.718,15.114 25.358,15.24 25.052,15.366 C24.746,15.546 24.386,15.654 24.026,15.78 L23.612,16.32 L23.972,16.68 C24.458,16.86 24.818,17.112 25.178,17.292 C25.592,17.22 26.006,17.04 26.438,16.806 L26.744,16.86 L26.924,17.652 C27.032,18.12 26.924,18.606 26.78,18.984 C26.96,19.398 27.032,19.632 27.212,20.046 C27.392,20.478 27.644,20.838 27.878,21.252 L28.238,21.198 L28.67,20.226 C28.67,19.452 28.724,18.966 28.778,18.552 C28.778,18.12 28.778,17.652 28.85,17.166 C28.85,16.734 28.958,16.32 29.138,15.906 C29.444,15.654 29.75,15.474 30.056,15.294 C30.344,15.186 30.596,14.988 30.83,14.754 L31.01,14.808 L31.496,15.654 L31.73,15.6 L33.728,11.874 L33.962,11.928 C33.782,12.522 33.548,13.134 33.242,13.674 C32.936,14.268 32.576,14.88 32.27,15.42 C31.91,15.96 31.622,16.554 31.316,17.166 C31.316,17.472 31.37,17.76 31.424,18.066 C31.496,18.372 31.622,18.606 31.73,18.912 L32.396,18.48 C32.882,17.832 33.296,17.112 33.728,16.374 C34.142,15.654 34.502,14.934 34.916,14.214 C35.294,13.494 35.582,12.702 35.762,11.928 L36.068,11.928 L36.338,12.054 C36.158,12.774 35.942,13.62 35.708,14.268 C35.474,14.934 35.222,15.6 34.916,16.266 C34.628,16.932 34.322,17.58 33.962,18.192 L34.088,18.426 C34.448,18.246 34.808,18.066 35.096,17.832 C35.582,17.22 36.014,16.626 36.374,15.96 C36.662,15.294 36.968,14.628 37.148,13.908 C37.328,13.26 37.508,12.522 37.634,11.802 L37.94,11.802 L38.3,12.234 C38.3,12.882 38.3,13.548 38.228,14.214 C38.174,14.88 38.174,15.546 38.174,16.194 C38.12,16.86 38.048,17.526 37.94,18.12 C37.634,18.3 37.328,18.426 36.968,18.48 C36.608,18.552 36.248,18.552 35.888,18.552 C35.474,18.552 35.096,18.606 34.736,18.678 L35.582,19.812 C35.888,20.118 36.194,20.298 36.554,20.406 C36.914,20.532 37.274,20.712 37.58,20.892 C37.868,21.072 38.228,21.252 38.588,21.324 L39.146,21.324 Z M29.264,13.854 L29.408,12.18 C29.714,11.928 30.884,11.982 31.064,12.108 C31.01,12.414 30.956,12.648 30.884,12.954 C30.83,13.26 30.704,13.548 30.524,13.854 L29.876,14.034 C29.624,14.088 29.444,14.034 29.264,13.854 Z M49.19,22.08 L49.55,22.008 L49.856,21.468 C49.856,21.054 49.856,20.694 49.784,20.262 C49.73,19.902 49.55,19.542 49.37,19.182 C49.136,18.894 48.884,18.516 48.704,18.228 L48.11,17.868 L47.192,17.922 L47.39,18.156 L47.858,19.074 L47.678,19.362 C47.444,19.308 45.644,20.028 45.338,20.082 L44.852,20.028 C44.726,19.434 44.798,19.074 44.852,18.642 C44.906,18.282 45.032,17.922 45.158,17.562 C45.446,17.328 45.752,17.202 46.184,17.202 C46.598,17.256 47.156,17.364 47.462,17.184 C47.768,17.004 48.074,16.896 48.29,16.662 C48.65,16.356 48.884,15.942 48.938,15.51 C49.01,15.096 49.064,14.61 49.136,14.196 C49.064,13.89 49.01,13.656 48.938,13.35 C48.884,13.044 48.704,12.81 48.524,12.63 C48.344,12.45 48.11,12.324 47.804,12.27 C47.498,12.27 47.264,12.198 47.084,12.09 L47.192,10.884 C47.264,10.578 47.192,10.344 47.084,10.164 L46.238,9.858 C45.932,9.804 45.698,9.858 45.518,9.984 L45.878,11.298 L45.698,12.144 L44.546,12.324 C44.366,12.378 44.186,12.324 44.078,12.144 C44.258,11.73 44.978,10.218 45.158,9.804 C45.338,9.426 45.518,9.066 45.752,8.706 C46.184,8.886 46.544,9.192 46.904,9.498 C47.192,9.804 47.57,10.092 47.984,10.272 C48.398,10.524 48.758,10.758 49.19,10.938 L49.55,10.812 L49.784,10.272 C49.856,9.984 49.784,9.678 49.604,9.498 C49.316,9.138 48.938,8.832 48.578,8.598 C48.218,8.346 46.904,7.32 46.472,7.14 L46.184,6.852 L44.978,6.42 C44.726,6.366 44.492,6.42 44.312,6.546 C44.294,7.41 44.078,8.526 43.646,9.318 C43.232,10.092 42.8,10.938 42.386,11.73 C41.9,12.504 41.594,13.404 41.54,14.304 L41.666,15.276 C41.666,15.276 42.08,15.438 42.206,15.222 C42.386,15.024 42.98,14.394 43.232,13.944 L43.592,14.664 C43.646,15.222 43.592,15.69 43.52,16.176 C43.412,16.662 43.34,17.148 43.34,17.688 C43.34,18.228 43.286,18.714 43.232,19.182 C43.34,19.488 43.412,19.848 43.412,20.154 C43.412,20.514 43.466,20.82 43.592,21.108 L44.132,21.72 C44.672,21.774 45.158,21.72 45.644,21.54 C46.058,21.414 46.544,21.288 46.958,21.18 L48.2,20.406 C48.254,20.712 48.524,21.054 48.704,21.288 C48.83,21.594 49.01,21.828 49.19,22.08 Z M55.004,21.648 L56.498,21.288 C56.57,20.856 56.714,20.316 56.84,19.884 C56.894,19.47 57.074,18.768 57.128,18.336 L57.02,17.922 C56.714,17.688 56.354,17.508 55.994,17.436 C55.634,17.382 55.274,17.382 54.842,17.328 C54.428,17.256 54.068,17.202 53.564,17.112 L53.582,16.41 L54.554,16.41 L54.554,16.41 C54.842,16.482 55.094,16.41 55.328,16.356 C55.562,16.05 55.742,15.69 55.922,15.276 C56.048,14.916 56.228,14.556 56.408,14.196 C56.588,13.89 56.66,13.476 56.66,13.044 L57.128,13.224 L57.488,13.098 L58.028,12.018 L58.028,12.018 C58.226,11.73 58.334,11.352 58.406,10.938 C58.46,10.524 58.406,10.218 58.226,9.912 C57.794,9.606 57.38,9.498 56.894,9.426 C55.904,9.39 54.662,9.372 54.428,9.246 C54.608,9.012 54.734,8.706 54.788,8.418 C54.788,8.112 54.842,7.752 54.914,7.446 L54.914,7.086 C54.482,6.78 53.996,6.672 53.456,6.726 L53.222,6.78 L53.42,7.896 C53.42,8.346 53.312,8.706 53.204,9.336 C52.844,9.39 51.476,9.552 51.116,9.606 C50.756,9.678 50.396,9.858 50.09,10.038 C50.144,10.452 50.216,10.812 50.27,11.172 C50.324,11.604 50.396,11.964 50.45,12.378 C50.504,12.81 50.63,13.17 50.756,13.53 L51.242,14.07 L51.656,13.944 L51.836,13.35 L51.71,10.992 C52.142,10.884 52.61,10.812 53.168,10.812 L56.354,10.992 L56.714,11.73 L56.714,12.198 L56.282,12.504 C55.922,12.504 55.49,12.324 55.112,12.198 C54.806,12.144 53.636,11.964 53.348,11.91 C52.988,11.838 52.538,11.91 52.232,12.018 L52.286,13.584 C52.232,14.196 52.178,14.664 52.106,15.096 C52.052,15.51 51.998,15.996 51.998,16.41 C51.998,16.896 51.692,18.336 51.692,18.642 C51.638,19.344 51.692,19.65 51.602,20.802 C51.728,21.108 51.908,21.342 52.142,21.522 L55.004,21.648 Z M53.906,15.006 L53.492,14.718 C53.546,14.286 53.78,13.278 53.78,13.278 C54.086,13.332 54.608,13.296 54.842,13.53 C54.914,14.07 54.806,14.538 54.518,14.718 L53.906,15.006 Z M45.446,14.196 L45.626,13.836 C46.472,13.764 46.904,13.836 47.264,14.07 L47.138,14.304 C46.652,14.376 45.878,14.304 45.446,14.196 Z M45.32,15.906 L45.374,15.564 C45.968,15.456 47.318,15.582 47.57,15.762 L47.39,16.068 C46.724,16.176 45.572,16.014 45.32,15.906 Z M55.004,20.046 L53.312,19.866 L53.564,18.246 L55.094,18.462 L55.454,18.822 C55.49,19.434 55.364,19.614 55.184,19.92 L55.004,20.046 Z M68.252,21.486 C68.504,21.486 68.684,21.432 68.864,21.252 L69.17,20.532 L69.17,19.632 L68.972,18.66 L69.098,17.04 L68.972,12.216 C68.972,11.802 68.972,11.442 69.044,11.01 L69.0448438,10.2396562 C69.047375,9.602625 69.0575,9.3225 69.098,9.012 C69.098,8.634 69.17,8.274 69.278,7.914 L69.17,7.266 C68.972,7.014 68.738,6.888 68.432,6.834 C67.964,6.834 67.478,6.96 67.046,7.14 L67.352,7.986 L67.298,11.262 L67.352,13.008 C67.424,13.494 67.424,13.962 67.352,14.394 C67.298,14.862 67.298,15.348 67.298,15.834 C67.244,16.32 67.172,16.788 67.118,17.22 L66.506,17.526 L64.76,17.4 L64.346,17.526 C64.472,17.814 64.652,17.994 64.886,18.174 C65.12,18.354 65.372,18.534 65.606,18.732 L65.858,19.272 C66.038,19.56 66.272,19.812 66.578,20.1 C66.866,20.406 67.118,20.658 67.424,20.838 L67.838,21.18225 C67.973,21.2925 68.108,21.396 68.252,21.486 Z M62.114,17.04 C62.384,16.734 62.654,16.428 62.906,16.068 C63.122,15.78 63.392,15.42 63.644,15.114 C63.95,14.934 64.274,14.682 64.58,14.448 L64.742,14.088 C64.814,13.548 64.742,13.116 64.49,12.756 L62.96,11.856 L62.654,11.982 L62.024,11.802 C61.664,12.054 61.592,12.522 61.43,12.828 C61.214,13.116 61.052,13.494 60.908,13.782 C60.908,14.142 60.908,14.502 60.962,14.808 C61.016,15.168 61.052,15.528 61.16,15.834 C61.214,16.14 61.322,16.5 61.484,16.788 L61.79,17.04 L62.114,17.04 Z M74.246,16.896 L74.606,16.824 L75.092,15.87 C75.038,15.438 74.912,15.024 74.732,14.664 C74.498,14.304 74.246,13.944 73.958,13.638 C73.652,13.332 73.346,12.972 73.112,12.612 L72.032,12.126 L70.826,12.306 C70.88,12.558 71.006,12.792 71.114,13.044 C71.24,13.278 71.312,13.512 71.366,13.764 C71.6,14.178 71.906,14.538 72.212,14.898 C72.5,15.33 72.806,15.69 73.166,15.978 C73.472,16.356 73.832,16.644 74.246,16.896 Z M91.256,21.918 C91.688,21.918 92.048,21.792 92.426,21.486 C92.624,21.306 92.804,21.072 92.876,20.406 C92.93,20.172 93.002,19.938 93.002,19.632 L92.75,17.094 L92.408,16.734 L91.94,16.806 L91.624,17.526 C91.57,17.646 91.514,17.766 91.454,17.886 C91.256,18.3 91.058,18.66 91.004,19.02 C90.878,19.452 90.68,19.812 90.464,20.172 L89.438,20.352 L86.63,20.352 L86.63,20.352 C86.18,20.352 85.712,20.226 85.298,20.046 L84.956,19.578 C84.866,19.02 85.01,18.606 85.298,18.192 C85.892,17.76 86.54,17.472 87.278,17.166 C87.926,16.86 88.646,16.68 89.366,16.5 C90.05,16.32 90.788,16.14 91.472,15.906 C91.706,15.726 91.814,15.42 91.814,15.114 L91.76,14.808 C91.418,14.628 91.058,14.448 90.59,14.34 C90.122,14.214 89.654,14.034 89.348,13.728 C88.862,13.674 88.412,13.8 88.034,14.034 C87.584,14.268 87.206,14.52 86.9,14.808 L85.694,15.726 L85.694,15.726 L85.37,15.654 L85.01,15.06 L85.01,14.808 L86.504,13.854 C87.044,13.854 87.476,13.8 87.926,13.602 C88.358,13.494 88.862,13.422 89.384,13.422 C89.87,13.422 90.32,13.314 90.644,13.134 L90.536,12.702 C90.302,12.414 89.996,12.288 89.636,12.234 C89.186,12.234 88.79,12.162 88.394,11.982 L88.394,11.802 C88.754,11.496 89.006,11.136 89.33,10.776 C89.582,10.488 89.906,10.182 90.302,9.93 C90.626,9.696 90.932,9.39 91.742,8.652 L91.598,8.184 C91.346,8.004 91.112,7.878 90.842,7.806 C90.536,7.752 90.248,7.698 89.96,7.626 C89.456,7.698 88.412,8.256 88.016,8.562 C87.62,8.49 87.224,8.49 86.792,8.562 C86.288,8.616 85.964,8.49 85.604,8.31 L85.658,7.464 L85.604,6.69 L85.208,6.384 C84.884,6.438 84.506,6.438 84.164,6.384 C83.858,6.33 83.57,6.438 83.426,6.69 L83.606,7.356 L83.534,8.742 L81.986,9.102 C81.572,9.156 81.212,9.03 80.906,8.85 L80.78,8.976 L81.356,10.002 C81.608,10.308 81.914,10.416 82.22,10.416 C82.814,10.488 83.21,10.542 83.588,10.596 L83.93,11.568 L83.714,12.162 C83.408,12.342 82.85,12.36 82.526,12.378 C81.572,12.432 81.068,12.522 80.618,12.522 C80.204,12.522 79.79,12.738 79.52,12.918 L79.574,13.278 C79.826,13.656 80.312,13.584 80.888,13.656 C81.41,13.71 82.598,13.746 83.336,13.8 L83.336,13.98 C82.994,14.52 82.544,14.934 82.094,15.348 C81.572,15.78 81.032,16.194 80.528,16.626 C80.006,17.04 79.466,17.4 78.998,17.832 L78.998,18.012 C79.358,17.832 79.808,17.652 80.24,17.472 C80.654,17.274 81.086,17.094 81.554,16.914 C82.022,16.806 82.454,16.626 82.976,16.446 L82.922,17.4 C82.85,17.832 82.922,18.3 82.976,18.732 C83.048,19.146 83.084,19.686 83.264,20.064 C83.444,20.442 83.678,21.09 84.056,21.36 C84.596,21.756 85.1,21.792 85.55,21.846 C86,21.918 86.378,21.918 86.828,21.972 L87.548,21.918 L89.762,21.972 C90.266,21.972 90.806,21.972 91.256,21.918 Z M85.82,11.568 L85.442,11.496 C85.604,11.082 85.82,10.722 86.18,10.416 L86.864,10.524 L85.82,11.568 Z M100.652,21.702 C100.958,21.324 101.192,20.748 101.264,20.082 C101.318,19.452 101.318,18.804 101.372,18.174 C101.444,17.508 101.444,16.86 101.444,16.248 L101.372,16.05 L101.372,14.844 L101.372,14.844 C101.372,14.466 101.282,13.494 101.48,13.116 C101.894,13.332 102.344,13.584 102.704,13.944 L102.992,13.818 L103.01,13.44 C102.938,13.008 102.758,12.702 102.524,12.36 C102.218,12.036 101.984,11.73 101.75,11.388 L101.804,11.118 L103.55,10.794 L104.09,10.398 L104.036,10.092 C103.856,9.786 103.55,9.66 103.19,9.66 L102.038,9.66 L102.038,9.66 C101.678,9.66 101.318,9.606 101.012,9.444 C100.778,9.048 100.652,8.598 100.598,8.148 C100.544,7.68 100.364,7.248 100.184,6.87 L99.698,6.618 L99.266,6.708 L99.212,6.78 L99.518,9.408 C99.23,9.4512 98.942,9.45984 98.617136,9.461568 L97.16,9.462 L97.16,9.462 C96.746,9.552 96.386,9.606 96.08,9.714 L96.152,9.858 C96.44,10.29 96.8,10.542 97.232,10.74 C97.592,10.938 97.952,11.19 98.366,11.388 C98.186,12.108 97.952,12.738 97.7,13.332 C97.412,13.98 97.106,14.61 96.8,15.204 C96.44,15.78 96.152,16.446 95.846,17.022 L95.9,17.616 L96.26,17.958 L96.926,17.904 L99.392,15.24 C99.446,15.96 99.518,16.536 99.518,17.184 C99.518,17.832 99.572,18.426 99.626,19.002 C99.698,19.596 99.752,20.154 99.932,20.748 C100.112,21.162 100.364,21.486 100.652,21.702 Z M105.296,21.198 C105.656,21.054 106.016,20.928 106.376,20.874 C106.736,20.694 107.042,20.424 107.348,20.028 C107.636,19.722 107.942,19.398 108.248,19.128 C108.662,19.308 109.022,19.506 109.382,19.776 C109.742,20.1 110.102,20.298 110.534,20.478 C110.894,20.676 111.254,20.874 111.668,21 C111.848,21.054 112.028,21 112.154,20.838 C111.92,20.496 111.614,20.19 111.254,19.848 C110.84,19.524 110.534,19.218 110.228,18.75 C109.922,18.372 109.634,17.976 109.328,17.562 C109.454,17.076 109.634,16.68 109.814,16.302 C109.994,15.906 110.174,15.528 110.228,15.078 L111.128,14.214 C111.488,13.962 111.668,13.656 111.614,13.224 C111.668,12.9 111.614,12.594 111.434,12.396 C111.02,12.162 110.588,11.964 110.174,11.91 C109.688,11.838 109.202,11.784 108.734,11.73 C108.356,11.64 108.068,11.73 107.762,11.838 C107.276,11.91 106.862,11.838 106.502,11.55 L106.556,10.578 C106.61,10.29 106.79,10.056 107.042,9.984 L107.708,10.056 C108.176,9.984 110.912,9.984 111.236,9.66 L111.056,9.048 C110.768,8.886 110.462,8.832 110.102,8.742 C108.968,8.67 108.608,8.616 108.302,8.562 L105.296,8.67 L104.45,8.796 L104.45,8.922 L104.99,9.498 C104.81,10.596 104.576,11.604 104.27,12.594 C103.91,13.62 103.55,14.646 103.244,15.636 C102.938,16.662 102.578,17.706 102.164,18.66 L102.29,19.74 L102.83,20.352 C103.118,20.352 103.37,20.226 103.55,20.028 C103.784,19.632 104.036,19.272 104.216,18.84 C104.396,18.372 104.576,17.994 104.81,17.526 C105.044,17.148 105.242,16.752 105.35,16.266 L105.656,16.266 L106.448,17.04 C106.016,17.922 105.782,18.228 105.476,18.696 C105.17,19.128 104.81,19.596 104.396,19.902 C103.964,20.298 103.604,20.64 103.19,20.856 C103.424,21.072 103.73,21.252 104.144,21.306 C104.576,21.378 104.936,21.306 105.296,21.198 Z M107.042,15.42 C106.79,15.204 106.682,14.844 106.61,14.52 C106.556,14.196 106.43,13.962 106.196,13.764 L106.25,13.386 L106.862,13.17 C107.564,13.098 107.87,13.152 108.104,13.44 C108.104,13.782 108.05,14.124 107.924,14.43 C107.798,14.754 107.618,15.024 107.042,15.42 Z M123.008,22.476 L123.746,22.35 L123.908,22.116 C124.592,21.036 125.474,19.182 125.996,17.58 C126.554,15.996 126.968,15.042 127.598,13.512 C128.246,12 129.794,7.5 130.046,6.492 C130.01,6.204 129.776,6.006 129.524,5.754 L129.182,5.826 C128.264,7.698 127.472,9.444 126.662,11.244 C125.798,13.044 125.186,15.006 124.61,16.266 C123.908,18.156 123.188,19.992 122.702,22.206 L123.008,22.476 Z M150.206,22.386 C150.386,22.08 150.476,21.72 150.53,21.288 C150.53,20.928 150.584,20.568 150.674,20.208 L150.728,17.328 C150.674,16.662 150.8,16.23 150.998,15.816 L151.862,15.6 L152.582,15.51 L153.32,14.988 L153.968,13.674 C154.418,13.494 154.904,13.314 155.354,13.134 L155.624,12.648 L155.48,12.288 C155.3,12.108 155.03,12.036 154.706,12.036 C154.364,12.036 154.112,11.982 153.842,11.928 C153.716,11.622 153.59,11.262 153.446,10.956 L152.654,10.596 L151.448,10.524 L150.674,10.578 L150.476,10.092 L150.53,9.732 C150.998,9.552 151.448,9.498 151.988,9.498 C152.438,9.498 152.978,9.444 153.428,9.372 C153.896,9.318 154.346,9.246 154.886,9.246 L155.336,8.778 L155.264,8.292 L154.49,7.986 L150.386,8.058 C150.08,8.112 149.81,8.058 149.612,7.932 C149.684,7.446 150.008,7.05 150.008,7.05 C150.008,6.744 149.882,6.438 149.684,6.204 L149.09,5.898 C148.478,5.844 147.974,6.024 147.578,6.33 C147.83,6.744 148.028,7.158 147.974,8.238 C147.506,8.418 146.498,8.58 145.616,8.598 C145.13,8.616 144.356,8.76 143.69,9.012 C143.24,9.066 142.754,9.318 142.448,9.984 L142.448,11.19 L141.98,15.222 L141.98,17.256 L141.98,17.256 C141.926,17.922 141.98,18.588 142.106,19.254 C142.25,19.902 142.448,20.514 142.79,21.054 L143.24,20.928 C143.564,20.64 143.762,20.208 143.816,19.794 C143.888,19.362 143.888,18.894 143.96,18.462 C143.96,18.048 143.96,17.562 144.014,17.148 L143.96,16.482 C143.96,15.762 144.014,15.042 144.086,14.304 C144.158,13.656 144.212,12.936 144.284,12.198 C144.356,11.55 144.554,10.884 144.878,10.272 C145.346,10.092 145.796,10.038 146.318,9.984 C146.858,9.912 147.38,9.858 147.83,9.804 L148.478,9.912 L148.964,10.398 L148.892,10.794 C148.424,10.974 147.902,11.1 147.308,11.1 C146.714,11.1 146.192,11.226 145.724,11.406 L145.724,11.73 C146.066,12.108 146.39,12.234 146.786,12.288 C147.182,12.342 147.398,12.432 148.028,12.468 C148.658,12.504 148.964,12.504 148.964,12.504 L148.892,12.684 C148.478,12.864 148.1,12.99 147.632,13.044 C147.182,13.116 146.714,13.17 146.264,13.224 C145.796,13.296 145.4,13.476 145.076,13.764 L145.148,13.944 C145.58,14.34 146.264,14.43 146.264,14.43 L148.37,14.376 L148.82,14.43 L148.82,14.808 L146.228,15.15 L146.192,15.546 C146.498,15.888 146.984,15.924 147.344,16.014 C148.082,16.14 148.478,16.05 148.82,16.122 L149.018,16.536 C148.964,17.022 148.964,17.508 148.964,17.976 C148.964,18.534 148.91,19.128 148.784,19.56 L147.974,19.524 L147.632,20.028 C147.65,20.676 147.884,20.964 148.1,21.324 C148.316,21.684 148.694,22.116 148.694,22.116 L149.486,22.494 C149.738,22.566 150.008,22.494 150.206,22.386 Z M152.096,12.612 L150.854,12.432 L151.142,11.838 L152.258,12.018 L152.204,12.522 L152.096,12.612 Z M151.898,14.322 L150.926,14.286 L150.926,13.944 L151.772,13.908 L152.132,14.052 L151.898,14.322 Z M152.888,17.706 C153.23,17.706 153.626,17.652 153.95,17.58 C154.274,17.526 154.598,17.472 154.94,17.346 L155.66,16.374 L155.66,16.194 C155.336,15.906 154.94,15.654 154.472,15.474 L153.752,15.546 L152.852,15.834 L152.24,16.032 L151.736,16.356 L151.268,17.112 L151.322,17.472 C151.772,17.58 152.294,17.652 152.888,17.706 Z M146.606,17.976 L147.38,17.904 L147.92,17.436 L147.776,16.77 C147.578,16.59 147.326,16.482 147.074,16.41 C146.786,16.32 146.462,16.104 146.084,16.104 L145.616,16.23 L145.022,16.644 L145.094,17.004 C145.364,17.058 145.634,17.22 145.868,17.436 C146.102,17.652 146.354,17.85 146.606,17.976 Z M155.48,21.558 L155.966,21.342 L156.146,20.55 L155.948,20.19 C155.444,19.956 154.994,19.686 154.562,19.434 C154.058,19.2 153.572,18.93 153.086,18.696 C152.582,18.462 152.24,18.336 151.772,18.21 L151.412,18.282 C151.718,19.11 152.168,19.398 152.582,19.776 C152.942,20.19 153.428,20.568 153.95,20.874 C154.472,21.162 154.994,21.378 155.48,21.558 Z M146.192,20.82 L147.578,19.668 L148.37,19.002 C148.424,18.714 148.37,18.534 148.172,18.354 C147.704,18.408 147.254,18.534 146.786,18.642 C146.318,18.822 145.922,18.948 145.544,19.074 C145.076,19.254 144.662,19.434 144.284,19.722 L144.284,19.848 C144.608,19.902 144.95,20.028 145.202,20.28 C145.4,20.514 145.67,20.694 145.994,20.82 L146.192,20.82 Z M166.748,22.512 L167.324,22.386 C167.54,21.9 167.756,21.432 167.918,20.892 L168.224,18.786 C169.106,19.146 169.934,19.56 170.744,19.974 C171.572,20.406 172.436,20.766 173.318,21.072 L173.822,20.946 L173.768,20.712 C172.85,20.1 171.914,19.506 171.05,18.84 C170.15,18.174 169.142,17.688 168.152,17.274 L168.116,17.094 L168.26,16.554 C168.8,16.428 169.358,16.302 169.916,16.248 C170.456,16.194 170.996,16.068 171.554,15.942 L171.752,15.654 L171.734,15.114 C171.212,14.736 170.564,14.502 169.898,14.448 C169.178,14.376 168.458,14.376 168.008,14.322 C167.828,13.908 167.684,13.476 167.612,12.882 L168.206,12.738 L168.926,13.116 C169.25,12.936 169.448,12.576 169.52,12.162 C169.52,11.496 169.556,10.884 169.592,10.236 C169.592,9.624 169.448,9.084 169.106,8.544 C168.692,8.274 168.26,8.022 167.594,8.004 L166.712,7.95 L166.712,7.77 L166.982,7.644 C167.522,7.518 167.954,7.284 168.332,6.978 L168.08,6.312 C167.666,6.258 167.252,6.078 166.838,5.898 L166.604,5.898 C166.154,6.312 165.758,6.672 165.38,7.032 C164.948,7.392 164.444,7.824 164.12,8.238 C164.372,8.958 164.444,9.75 164.444,10.524 C164.462,11.37 164.516,12.162 164.786,12.882 C165.182,12.882 165.362,12.756 166.028,12.702 C166.262,13.062 166.352,13.476 166.388,13.962 L166.28,14.376 C165.326,14.556 164.336,14.682 163.436,14.862 C162.464,15.042 161.474,15.222 160.556,15.528 L160.826,16.122 L161.96,16.914 C162.59,16.734 163.256,16.662 163.922,16.662 C164.282,16.608 164.57,16.662 164.876,16.788 C164.642,17.58 164.228,18.354 163.76,19.074 C163.292,19.794 162.824,20.532 162.464,21.306 L162.464,22.206 L162.806,22.512 C163.058,22.458 163.508,22.152 163.58,21.846 C163.58,21.846 164.642,20.658 165.074,20.046 C165.542,19.398 165.884,18.84 166.478,18.354 L166.478,20.478 C166.352,21.252 166.604,21.846 166.748,22.512 Z M164.246,13.8 L164.48,13.602 L163.454,11.622 L162.5,10.938 C162.194,10.884 161.96,10.938 161.78,11.082 L161.888,11.622 L160.736,12.018 L160.934,11.694 L161.888,10.614 C162.32,10.272 162.554,9.858 162.608,9.372 L162.374,8.778 L161.888,8.508 C161.6,8.508 161.294,8.652 161.06,8.976 L160.88,8.904 L160.88,8.706 L161.888,7.752 L162.14,7.086 L161.96,6.546 L161.348,6.132 C160.898,5.808 160.52,6.06 160.088,6.078 C160.034,6.672 159.854,7.14 159.422,7.608 C159.314,8.544 159.584,9.102 159.908,9.588 L160.268,9.786 C159.962,10.47 159.602,11.082 159.062,11.694 L159.062,12.432 L159.368,13.512 C159.908,13.386 161.978,13.008 162.5,12.54 L164.246,13.8 Z M174.812,13.728 L174.938,13.152 C174.758,12.576 174.578,11.982 174.326,11.406 C174.146,11.082 173.912,10.884 173.606,10.776 L173.138,10.956 L173.192,11.604 L171.824,11.82 C172.364,11.046 173.066,10.308 173.858,9.858 C173.912,9.534 173.786,9.282 173.606,9.084 C173.318,8.886 173.012,8.706 172.706,8.616 C172.4,8.706 172.112,8.886 171.86,9.192 L171.446,9.084 L172.526,8.112 L172.76,7.59 L172.76,7.212 L171.986,6.438 C171.572,6.312 171.158,6.24 170.726,6.348 C170.6,6.87 170.366,7.32 170.06,7.788 C170.006,8.31 170.06,8.814 170.186,9.282 L170.906,10.11 C170.78,10.578 170.546,11.028 170.186,11.406 C170.114,11.982 170.186,12.504 170.42,12.954 C172.4,13.026 173.012,12.846 173.552,12.504 L173.786,12.504 L174.578,13.728 L174.812,13.728 Z M167.792,9.75 L165.812,9.696 L165.668,8.976 L167.72,8.976 L167.792,9.75 Z M165.938,11.712 L165.92,10.65 L167.954,10.758 L167.9,11.64 L165.938,11.712 Z M184.928,13.296 L185.288,13.17 C185.54,12.756 185.72,12.342 185.9,11.91 L186.26,10.65 L186.26,10.65 C186.386,10.236 186.548,9.372 186.602,8.94 C186.908,8.526 187.322,8.292 187.808,8.112 L188.24,8.292 L188.168,9.66 C188.168,10.038 188.168,10.398 188.24,10.686 C188.294,11.046 188.348,11.406 188.528,11.712 C188.654,12.018 188.834,12.324 189.068,12.558 C189.32,12.738 189.626,12.864 189.914,12.972 C190.22,13.098 190.526,13.152 190.814,13.152 C191.174,13.224 191.552,13.152 191.84,13.098 C192.146,13.044 192.452,12.972 192.74,12.918 L193.298,12.432 C193.298,11.964 193.226,11.532 193.046,11.118 C192.866,10.686 192.74,10.272 192.686,9.858 L191.912,9.12 L191.246,9.12 C191.246,9.606 191.174,10.092 191.12,10.506 C190.994,10.938 190.886,11.406 190.814,11.838 L190.454,11.892 C190.094,11.712 189.806,11.478 189.626,11.118 C189.806,10.686 189.86,10.272 189.86,9.732 C189.86,9.246 189.914,8.76 190.094,8.346 C190.22,7.932 190.346,7.5 190.526,7.086 L190.526,6.78 L190.274,6.6 L189.32,6.726 L188.708,6.654 C188.294,6.726 187.808,6.834 187.394,6.906 C186.908,7.014 186.422,7.086 185.954,7.086 C185.396,7.086 184.982,7.14 184.568,7.32 L184.676,7.626 L184.28,10.776 L184.28,11.856 L184.28,11.856 C184.28,12.27 184.334,12.63 184.46,12.936 L184.928,13.296 Z M182.444,21.72 C182.786,21.72 183.344,21.486 183.344,21.486 L183.704,20.226 C183.65,15.096 183.65,14.376 183.596,13.602 C183.524,12.882 183.416,12.162 183.344,11.37 C183.29,10.65 183.164,9.93 183.11,9.21 L183.29,8.184 L183.164,7.698 L182.696,7.464 C182.264,7.518 181.904,7.572 181.49,7.572 C181.058,7.572 180.644,7.644 180.284,7.824 C179.618,7.95 178.736,8.058 178.43,7.878 L178.25,7.878 C178.376,8.292 178.61,8.724 178.592,9.21 C178.592,9.624 178.592,9.984 178.538,10.344 C178.466,10.704 178.466,11.064 178.412,11.424 C178.358,11.856 177.944,13.836 177.818,14.52 C177.62,15.6 177.422,16.536 177.206,17.67 C177.08,18.39 176.972,19.11 176.846,19.776 C176.72,20.316 176.846,20.748 177.152,21.036 L177.746,20.802 C177.926,20.388 178.178,19.902 178.412,19.416 C178.592,19.002 178.826,18.516 179.024,18.03 C179.204,17.544 179.312,16.194 179.438,15.708 C179.798,15.654 181.868,15.276 181.868,15.276 C181.868,15.276 182.174,17.994 182.03,18.894 C181.724,19.074 181.364,19.146 180.95,19.146 L180.338,19.074 L180.212,19.074 C180.392,19.506 180.644,19.866 180.95,20.154 C181.238,20.514 181.544,20.892 181.778,21.306 C181.778,21.306 182.102,21.666 182.444,21.72 Z M180.284,11.406 L180.338,9.498 L181.058,9.21 C181.238,9.498 181.31,9.876 181.364,10.236 C181.418,10.596 181.49,10.956 181.418,11.28 L180.284,11.406 Z M179.906,13.818 L180.032,12.954 L181.49,12.612 L181.724,12.9 L181.742,13.782 C180.284,14.232 179.906,13.818 179.906,13.818 Z M193.064,21.612 L193.19,21.324 L193.136,21 C192.884,20.694 192.488,20.424 192.182,20.118 C191.804,19.794 191.426,19.542 191.12,19.218 C190.724,18.894 190.364,18.57 189.986,18.264 C190.274,17.832 190.472,17.382 190.706,16.968 C190.922,16.554 191.246,16.086 191.462,15.618 C191.696,15.204 191.984,14.79 192.254,14.394 L192.218,14.088 L191.246,13.8 C190.526,13.71 189.896,13.782 189.266,13.926 C188.672,14.142 185.936,14.538 185.36,14.682 C185.18,14.844 185.468,15.276 185.468,15.276 L186.548,15.402 L188.51,15.222 L188.978,15.42 C188.888,15.726 188.762,15.996 188.762,15.996 C188.6,16.302 188.438,16.518 188.168,16.77 C187.646,16.482 187.232,16.356 186.638,16.32 L185.576,16.302 L186.386,17.436 L187.214,18.336 L187.196,18.57 C186.962,18.858 186.656,19.146 186.44,19.452 C186.152,19.722 185.792,20.01 185.45,20.226 L184.82,21.108 L184.82,21.342 L185.018,21.54 C185.306,21.54 185.54,21.504 185.81,21.342 C186.098,21.234 186.368,21.126 186.638,21.09 C186.98,20.928 187.304,20.766 187.574,20.46 C187.862,20.244 188.132,20.01 188.546,19.794 C188.978,19.992 189.374,20.244 189.752,20.46 C190.13,20.73 190.49,20.928 190.94,21.126 C191.318,21.342 191.768,21.54 192.2,21.612 L193.064,21.612 Z M210.542,21.972 C210.596,21.846 210.47,21.54 210.47,21.54 C210.272,21.126 209.948,20.766 209.606,20.46 C209.21,20.154 208.814,19.92 208.346,19.614 C207.842,19.38 207.428,19.074 206.906,18.786 L207.374,18.246 C208.04,17.49 208.13,17.526 208.292,17.346 L208.508,16.806 C208.508,16.446 207.932,16.014 207.59,15.924 L206.222,16.374 L205.448,17.004 L204.944,17.454 C204.368,17.328 203.936,17.148 203.558,16.842 C203.234,16.554 202.838,16.374 202.478,16.194 C202.046,16.194 201.686,16.302 201.398,16.482 C201.47,16.914 201.74,17.22 202.064,17.454 C202.406,17.76 202.766,18.048 203.09,18.534 L200.732,19.29 L200.102,19.29 C200.102,19.29 200.174,18.264 200.12,17.958 C200.048,17.652 200.138,15.654 200.354,15.384 C200.84,15.384 201.128,15.348 201.632,15.348 C202.046,15.348 202.46,15.402 202.874,15.474 L208.616,15.294 C208.832,15.222 208.994,15.042 209.138,14.808 L208.958,14.196 C208.526,13.728 207.968,13.476 207.266,13.476 C206.024,13.476 205.304,13.422 204.566,13.368 C200.624,13.296 200.336,13.332 199.922,13.152 C199.922,13.152 200.012,12.738 200.174,12.612 L201.704,12.756 C203.99,12.774 204.404,12.774 204.908,12.774 C205.268,12.774 205.574,12.648 205.88,12.468 L206.15,12.108 L206.06,11.748 C205.754,11.568 205.34,11.514 204.89,11.442 L204.30617,11.4412534 C203.838917,11.4398432 203.089308,11.4357692 201.524,11.424 C201.056,11.424 200.642,11.334 200.12,11.154 L200.372,10.704 L203.63,10.884 C204.044,10.956 204.404,10.956 204.836,10.884 C205.25,10.83 205.646,10.83 206.042,10.776 C206.384,10.704 206.726,10.596 206.996,10.416 L207.14,10.056 L207.068,9.678 C206.672,9.498 206.15,9.39 205.52,9.318 C204.926,9.264 204.368,9.264 203.774,9.264 L202.528614,9.26336608 C201.339128,9.26121074 200.830182,9.25172727 200.246,9.21 L200.12,8.652 C200.552,8.472 203.324,8.274 203.648,8.202 L207.356,8.274 C207.68,8.328 208.13,8.364 208.22,8.148 L208.382,7.842 L207.932,7.086 C207.662,6.852 207.356,6.672 206.96,6.6 C206.492,6.546 206.06,6.492 205.646,6.42 C205.25,6.366 204.836,6.366 204.404,6.294 L200.714,6.366 L199.436,6.24 L198.662,6.366 L198.536,7.716 L198.77,8.202 L198.302,13.404 L196.304,13.548 C196.304,13.548 195.494,13.566 195.458,14.088 C195.422,14.484 195.998,14.916 195.998,14.916 C196.322,15.168 196.682,15.294 197.114,15.222 C197.636,15.168 197.852,15.258 198.374,15.384 L198.338,19.74 L198.536,20.82 C198.734,21.252 199.112,21.666 199.544,21.972 L200.138,21.972 C200.57,21.792 201.02,21.486 201.344,21.126 C201.704,20.766 201.956,20.406 202.226,20.046 C202.514,19.686 202.874,19.326 203.396,19.02 C204.224,19.38 204.944,19.794 205.7,20.226 C206.384,20.712 207.122,21.126 207.878,21.486 C208.616,21.9 209.228,22.152 210.092,22.224 C210.092,22.224 210.452,22.35 210.542,21.972 Z M8.564,42.926 C9.104,42.314 9.5,41.504 10.04,40.82 C10.526,40.19 11.048,39.506 11.516,38.786 C11.984,38.156 12.578,37.472 13.154,36.878 C13.73,37.364 14.558,37.904 15.296,38.498 C16.052,39.11 16.79,39.596 17.672,39.956 C18.482,40.37 19.292,40.856 20.03,41.342 C20.03,41.342 20.678,41.63 20.966,41.162 C21.002,40.73 20.894,40.37 20.696,40.064 C20.3,39.542 19.832,39.146 19.31,38.786 C18.806,38.444 18.284,38.174 17.762,37.832 C17.24,37.562 16.646,37.274 16.124,37.058 C15.854,36.842 15.494,36.644 15.206,36.428 C14.918,36.23 14.576,36.032 14.27,35.834 C13.91,35.618 13.694,35.366 13.55,35.006 C13.136,34.718 12.74,34.448 12.326,34.43 C11.75,34.862 11.354,36.23 10.742,36.968 C10.148,37.76 9.536,38.57 9.068,39.398 C8.51,40.262 8.078,41.144 7.736,42.008 C7.646,42.314 7.682,42.62 8.078,42.908 L8.564,42.926 Z M19.274,51.26 L20.048,51.134 L20.48,50.774 C20.534,50.54 20.48,50.288 20.282,50.108 C19.868,49.928 19.454,49.748 19.022,49.568 C18.608,49.388 18.176,49.154 17.816,48.848 L17.816,48.614 C18.068,48.488 18.302,48.434 18.608,48.362 C18.842,48.362 19.094,48.362 19.382,48.308 L19.742,47.768 C19.814,47.462 19.742,47.156 19.634,46.922 C19.202,46.796 18.734,46.688 18.302,46.616 C17.888,46.562 17.402,46.508 16.808,46.508 L16.61,46.976 C16.376,47.408 16.016,47.768 15.602,48.074 C15.242,48.002 14.936,47.948 14.63,47.768 C14.324,47.588 13.964,47.462 13.676,47.336 L12.704,47.39 L12.65,47.714 L13.064,48.488 L11.318,48.83 C11.318,48.128 11.39,47.768 11.444,47.336 C11.498,46.976 11.624,46.688 11.804,46.382 L14.162,46.526 C14.666,46.49 15.368,46.526 15.8,46.4 L16.52,46.436 C16.754,46.202 17.096,45.554 17.24,44.636 C17.24,44.222 17.24,43.844 17.186,43.484 C17.114,43.124 17.06,42.764 16.988,42.35 C16.934,41.99 16.808,41.63 16.628,41.324 C16.214,41.09 15.8,40.838 14.72,40.604 L14.792,39.938 L14.666,39.092 L13.406,38.498 L13.154,38.498 L13.334,38.912 L12.614,40.73 C12.2,40.784 10.778,41.09 10.364,41.198 L9.824,41.63 L10.058,42.35 C10.058,42.89 10.058,43.43 10.004,43.97 C9.932,44.51 9.824,45.05 9.752,45.59 C9.698,46.148 9.572,46.688 9.518,47.228 C9.518,47.858 9.518,48.29 9.572,48.704 C9.644,49.118 9.698,49.55 9.824,49.964 C10.004,50.324 10.022,50.738 10.472,50.936 C10.904,50.864 11.39,50.756 11.804,50.63 C12.218,50.576 13.91,49.694 14.324,49.514 C14.864,49.694 15.476,49.874 16.016,50.054 C16.556,50.288 17.096,50.54 17.636,50.72 C18.176,50.9 18.734,51.08 19.274,51.26 Z M11.57,43.304 L11.57,43.07 L12.038,42.53 L14.828,42.584 L15.368,42.836 L15.314,43.43 L13.856,43.376 L12.164,43.484 C11.93,43.556 11.75,43.484 11.57,43.304 Z M15.548,45.356 L11.984,45.356 L11.984,44.996 L12.65,44.762 C13.064,44.816 13.55,44.816 14.036,44.762 C14.828,44.762 15.206,44.69 15.548,44.852 L15.548,45.356 Z M29.138,41.756 L30.56,41.846 C31.028,41.9 31.514,41.9 31.946,41.846 C32.36,41.774 32.846,41.774 33.26,41.72 C33.692,41.666 34.16,41.594 34.592,41.54 L35.672,41.666 L35.978,41.666 L36.698,40.964 C36.878,40.622 37.004,40.244 37.112,39.848 C37.184,39.452 37.292,39.092 37.418,38.732 L37.238,37.148 L36.086,36.572 L35.438,36.68 L34.772,36.572 L34.232,35.348 C33.926,35.096 33.566,34.916 33.206,34.862 L33.026,34.916 L33.26,35.87 C33.332,36.158 33.26,36.446 33.026,36.626 C32.486,36.68 32.054,36.626 31.64,36.446 L31.802,35.69 L31.748,35.402 L30.416,34.862 L30.236,34.952 C30.236,35.528 30.074,36.446 29.948,36.752 C29.714,36.914 27.572,37.13 27.572,37.13 L26.942,37.31 L26.492,37.958 C26.672,38.354 26.78,38.714 26.96,39.128 C27.14,39.542 27.212,39.938 27.266,40.352 C27.266,40.838 27.392,41.234 27.572,41.63 L28.058,42.17 C28.472,42.224 28.832,42.062 29.138,41.756 Z M31.406,38.552 L31.514,38.156 L32.306,37.922 C32.594,37.85 32.774,37.922 32.954,38.102 C33.026,38.318 32.936,38.552 32.738,38.768 C32.324,38.84 31.766,38.732 31.406,38.552 Z M35.24,38.714 L34.484,38.678 L34.574,38.048 L35.564,38.084 C35.564,38.084 35.528,38.534 35.24,38.714 Z M29.534,38.858 L28.832,38.768 L29.012,38.174 L29.678,38.21 L29.534,38.858 Z M32.414,40.73 L31.19,40.622 L31.19,40.028 L31.622,39.794 L32.774,39.902 L32.774,40.622 L32.414,40.73 Z M29.066,40.712 L28.958,40.19 L29.012,39.83 L29.588,39.848 L29.714,40.19 L29.588,40.676 L29.066,40.712 Z M34.7,40.55 L34.16,40.424 L34.304,40.01 C34.556,39.956 35.294,39.902 35.42,40.082 L35.24,40.424 L34.7,40.55 Z M25.43,51.026 L26.042,50.738 C26.582,50.09 27.122,49.46 27.536,48.758 C27.968,48.056 28.328,47.3 28.634,46.526 C28.922,45.77 29.102,44.996 29.282,44.186 C29.948,44.006 30.668,43.898 31.406,43.826 C32.126,43.772 32.846,43.718 33.566,43.646 C34.286,43.592 35.006,43.538 36.086,43.538 C36.392,43.484 36.644,43.484 36.932,43.43 C37.238,43.43 37.472,43.376 37.724,43.25 L37.652,42.728 C37.364,42.548 37.058,42.422 36.752,42.368 C36.446,42.314 36.086,42.314 35.726,42.242 C34.646,42.242 33.62,42.314 32.594,42.422 C31.586,42.602 30.488,42.728 29.48,42.89 C28.454,43.07 27.428,43.196 26.402,43.304 L26.996,44.474 C26.942,45.248 26.816,45.896 26.582,46.526 C26.348,47.174 26.096,47.822 25.916,48.47 C25.682,49.1 25.376,49.748 24.962,50.324 L25.07,50.846 L25.43,51.026 Z M30.02,46.13 C30.614,46.004 31.226,45.896 31.82,45.824 C32.414,45.77 33.026,45.644 33.692,45.59 C34.286,45.518 34.898,45.482 35.492,45.356 L35.906,44.996 L35.798,44.6 L34.952,44.366 L32.54,44.366 L32.54,44.366 C32.126,44.42 31.766,44.474 31.406,44.546 C30.974,44.6 30.56,44.546 30.128,44.42 L29.588,44.474 L29.354,44.996 C29.408,45.428 29.66,45.824 30.02,46.13 Z M30.524,51.44 C31.1,51.44 31.406,51.332 31.694,51.152 C32,50.954 32.306,50.774 32.594,50.612 C32.774,50.432 32.954,50.198 33.08,49.982 C33.206,49.748 33.332,49.514 33.44,49.28 C33.98,49.46 34.52,49.748 35.078,50.036 C35.546,50.378 36.032,50.684 36.572,50.9 C37.112,51.152 37.652,51.332 38.264,51.386 C38.57,51.44 38.858,51.332 39.038,51.08 L39.038,50.846 C38.804,50.612 38.57,50.378 38.264,50.198 C37.958,50.036 37.724,49.856 37.418,49.694 C37.112,49.514 36.878,49.28 36.572,49.046 L36.644,48.866 C37.112,48.704 37.544,48.524 37.958,48.218 L37.904,48.002 L36.338,47.228 L34.7,48.218 C34.412,48.164 34.106,48.164 33.8,48.128 C33.512,48.128 33.206,48.056 32.9,47.948 L32.774,47.948 C32.72,48.398 32.846,48.812 33.152,49.1 L33.08,49.352 L32,49.856 L31.64,49.856 L31.586,49.694 C31.586,49.352 31.586,48.992 31.64,48.65 C31.694,48.344 31.766,48.056 31.874,47.768 C32.18,47.588 34.772,47.408 35.078,47.354 C35.366,47.3 35.618,47.174 35.798,46.994 L35.672,46.4 L35.312,46.22 C34.898,46.166 34.52,46.166 34.16,46.22 C33.746,46.292 33.386,46.292 33.026,46.346 C32.594,46.4 32.234,46.472 31.586,46.472 C31.154,46.472 30.668,46.472 30.254,46.526 C29.84,46.58 29.408,46.688 28.994,46.742 L28.814,47.228 C28.994,47.588 29.282,47.696 29.696,47.588 L29.984,47.948 L29.876,49.748 L30.11,51.08 L30.524,51.44 Z M44.816,50.972 L45.572,50.792 C45.914,50.036 46.346,49.244 46.724,48.416 C47.084,47.678 47.462,46.85 47.804,46.094 C48.164,45.338 48.596,44.582 49.136,43.844 L49.442,43.862 L50.378,44.978 C50.99,45.734 51.656,46.508 52.322,47.228 C53.006,47.948 53.726,48.614 54.482,49.208 C55.202,49.802 56.012,50.288 56.894,50.648 C57.056,50.738 57.254,50.63 57.398,50.45 L57.416,50.09 C56.75,49.334 56.102,48.56 55.418,47.768 C54.752,46.994 54.104,46.166 53.492,45.32 C52.916,44.51 52.232,43.718 51.656,42.872 L51.728,42.638 C52.214,42.548 54.338,42.566 54.878,42.584 C55.418,42.584 55.904,42.602 56.444,42.584 L56.894,42.152 L56.84,41.522 C56.534,41.324 56.192,41.18 55.76,41.072 C55.364,41 55.004,40.964 54.572,40.874 L51.206,40.658 C50.72,40.676 50.288,40.586 49.946,40.388 C49.982,39.956 50.09,39.488 50.288,39.074 C50.504,38.66 50.72,38.336 51.062,37.994 C51.386,37.724 51.656,37.382 51.854,37.04 L51.728,36.482 L50.036,35.438 L49.298,35.564 C49.136,36.158 48.974,36.68 48.758,37.202 C48.542,37.724 48.308,38.318 48.092,38.84 C47.858,39.38 47.642,39.956 47.39,40.496 C47.03,40.568 45.5,40.784 45.068,40.856 C44.654,40.91 44.294,41.018 43.916,41.054 L43.394,40.946 L42.962,40.91 L42.89,41.036 L43.448,42.476 L43.556,42.53 L44.402,42.602 L45.788,42.53 C46.04,42.494 46.274,42.566 46.454,42.71 C46.274,43.34 46.04,44.006 45.806,44.672 C45.518,45.302 45.302,45.878 45.068,46.544 C44.834,47.192 44.6,47.894 44.366,48.542 C44.33,48.902 44.222,49.28 44.204,49.64 C44.168,50 44.276,50.27 44.438,50.576 L44.816,50.972 Z M71.888,51.674 L72.194,51.602 C72.428,50.936 72.608,50.216 72.68,49.496 C72.734,48.776 72.734,48.056 72.788,47.264 C72.86,46.49 72.914,46.022 72.968,45.302 C72.968,45.302 74.462,45.122 74.876,45.05 L75.29,44.924 C75.596,44.618 75.722,44.204 75.776,43.772 C75.848,43.358 75.848,42.872 75.902,42.458 C75.956,42.026 75.956,41.558 75.956,41.126 L75.848,39.272 C75.65,38.966 75.362,38.786 75.002,38.66 C74.642,38.534 74.282,38.426 73.976,38.3 C73.616,38.246 73.04,38.174 72.68,38.12 L72.428,35.42 L71.582,34.628 L70.502,34.682 C70.628,35.06 70.682,35.42 70.754,35.834 C70.754,36.248 70.754,36.68 70.808,37.094 C70.862,37.526 70.808,37.94 70.574,38.246 C70.052,38.174 69.8,38.12 69.566,37.994 C69.26,37.886 69.026,37.76 68.792,37.634 L68.36,37.634 L68.306,38.426 L68,40.892 L68,42.332 C68,42.818 68,43.304 68.072,43.718 C68.126,44.204 68.18,44.69 68.252,45.104 C68.666,45.338 69.026,45.59 69.44,45.77 L69.998,45.644 L70.448,45.77 L70.394,47.93 C70.394,48.362 70.394,48.722 70.448,49.082 C70.448,49.442 70.502,49.802 70.574,50.162 C70.628,50.522 70.808,50.828 70.988,51.116 L71.888,51.674 Z M64.382,38.354 L64.922,38.174 L65.102,38.246 L65.642,38.174 L66.128,37.58 L65.948,37.04 C65.642,36.806 65.282,36.68 64.85,36.68 C64.436,36.68 64.004,36.554 63.716,36.374 C63.356,36.194 62.996,36.014 62.564,35.96 L62.33,36.068 L62.384,36.374 C62.564,36.806 62.87,37.166 63.23,37.454 C63.59,37.76 63.95,38.066 64.382,38.354 Z M63.896,50.468 L64.436,50.342 C64.616,49.928 64.742,49.496 64.796,49.082 C64.85,48.65 64.85,48.182 64.922,47.696 C64.922,47.264 64.976,46.796 65.03,46.13 L65.21,44.87 L66.902,45.104 C67.136,45.158 67.388,45.104 67.568,44.978 C67.388,44.69 67.208,44.384 66.902,44.204 C66.596,44.024 66.308,43.844 66.128,43.592 C65.876,43.358 65.57,43.178 65.282,42.998 C65.39,42.584 65.642,42.152 65.948,41.738 C66.236,41.378 66.596,41.018 66.956,40.658 L66.902,40.28 C66.722,40.1 66.488,39.92 66.308,39.812 C66.056,39.74 65.822,39.632 65.57,39.506 L64.256,39.38 C63.896,39.452 63.536,39.452 63.104,39.506 C62.69,39.56 62.33,39.632 62.024,39.812 L61.844,39.74 L60.044,39.866 L60.152,40.226 C60.53,40.586 60.944,40.766 61.484,40.838 L62.87,40.586 C63.176,40.532 63.464,40.586 63.644,40.766 C63.464,41.432 63.176,42.026 62.816,42.638 C62.456,43.232 62.024,43.844 61.61,44.384 C61.178,44.924 60.71,45.518 60.278,46.076 L60.404,46.976 L60.764,47.336 C61.124,47.264 61.484,47.084 61.79,46.796 C62.078,46.544 62.456,46.364 62.996,46.184 L63.05,46.364 L62.924,47.822 L62.924,48.722 L62.924,48.722 C62.924,49.01 62.996,49.316 63.104,49.622 L63.896,50.468 Z M73.616,41.306 L73.04,41.252 C73.04,41.252 72.734,40.892 72.734,40.586 C72.734,40.172 72.788,39.74 72.968,39.38 L73.22,39.452 C73.616,39.866 73.724,40.28 73.724,40.766 C73.796,40.946 73.724,41.126 73.616,41.306 Z M69.872,40.838 C69.746,40.28 69.71,39.83 70.016,39.47 L70.628,39.506 L70.808,40.172 C70.862,40.478 70.808,40.766 70.628,40.946 C70.178,41.072 69.998,41.018 69.872,40.838 Z M70.106,43.898 L69.998,42.638 L70.106,42.404 L70.682,42.584 C70.754,42.998 70.682,43.412 70.574,43.844 L70.106,43.898 Z M73.85,43.772 L73.04,43.592 C72.968,43.124 72.968,42.782 73.148,42.422 L73.67,42.404 L73.922,43.412 L73.85,43.772 Z M87.008,51.476 L87.746,51.35 L87.908,51.116 C88.592,50.036 89.474,48.182 89.996,46.58 C90.554,44.996 90.968,44.042 91.598,42.512 C92.246,41 93.794,36.5 94.046,35.492 C94.01,35.204 93.776,35.006 93.524,34.754 L93.182,34.826 C92.264,36.698 91.472,38.444 90.662,40.244 C89.798,42.044 89.186,44.006 88.61,45.266 C87.908,47.156 87.188,48.992 86.702,51.206 L87.008,51.476 Z M110.444,38.768 L110.768,38.534 L110.696,37.688 L113.594,37.382 L113.684,37.94 C113.738,38.21 113.936,38.426 114.206,38.606 L114.422,38.624 C114.818,38.498 114.998,38.192 115.43,37.508 C116.24,37.13 117.104,36.914 118.13,36.95 C119.066,36.986 120.11,36.968 120.812,36.428 L120.74,36.158 C120.272,35.942 119.822,35.798 119.264,35.78 L117.122,35.762 L116.69,35.168 L115.862,34.574 L115.34,34.556 C114.926,34.844 114.638,35.366 114.476,35.78 C113.774,35.906 110.588,36.068 110.588,36.068 L110.39,35.528 C110.21,35.15 109.94,34.826 109.598,34.628 L108.968,34.682 L108.446,35.096 L108.446,36.23 C107.906,36.302 107.402,36.41 106.844,36.446 C106.268,36.554 105.746,36.716 105.224,36.896 L105.296,37.292 L105.8,37.778 L108.896,37.706 L109.13,38.102 C109.4,38.462 109.814,38.858 110.156,38.75 L110.444,38.768 Z M119.012,45.842 L119.696,45.662 C119.876,44.744 120.182,43.844 120.632,42.98 L120.452,42.476 C120.218,42.242 120.002,42.116 119.696,42.224 L118.49,43.844 L118.274,43.79 C117.932,43.358 118.058,42.872 117.968,42.386 C118.058,41.774 118.166,41.252 118.436,40.694 L118.292,40.136 L117.878,39.938 L115.916,39.938 L116.096,39.308 L116.042,38.804 C115.826,38.606 115.556,38.498 115.232,38.426 L114.908,38.552 C114.512,39.11 114.242,39.65 114.134,40.244 L112.964,40.604 L112.892,40.748 C112.946,41.126 113.216,41.45 113.864,41.738 L113.774,41.99 L112.856,42.116 C112.802,42.638 112.928,43.07 113.684,43.538 L113.36,45.23 C113.414,45.482 113.63,45.68 113.9,45.752 L114.17,45.68 C114.512,45.248 114.962,44.51 115.124,44.096 L115.538,44.222 L116.15,44.024 L116.096,43.502 C115.898,43.142 115.646,42.836 115.34,42.602 L115.574,41.558 L116.474,41.396 L116.456,41.954 C116.402,42.494 116.456,43.034 116.636,43.538 C116.834,44.078 117.086,44.51 117.41,44.924 C117.86,45.428 118.436,45.734 119.012,45.842 Z M106.988,44.096 C107.708,43.862 108.392,43.502 108.986,42.998 C109.04,42.692 109.166,42.458 109.22,42.17 L109.418,42.188 C109.49,42.566 109.616,43.052 109.796,43.484 C110.138,43.79 110.534,43.916 110.966,43.97 C111.416,44.042 111.866,43.916 112.244,43.736 L112.64,43.16 L112.586,42.89 C111.974,42.818 111.434,42.71 110.948,42.422 L110.966,42.062 C111.488,42.008 112.262,41.846 112.712,41.522 L112.694,41.036 L112.37,40.784 L111.2,40.892 C110.912,40.964 110.606,40.892 110.372,40.802 L110.426,40.532 L111.56,40.1 L111.506,39.704 C111.11,39.452 110.642,39.326 110.228,39.326 L109.598,38.732 L109.076,38.552 L108.716,38.606 L108.41,39.506 C107.942,39.632 107.42,39.758 106.952,39.956 C106.898,40.208 106.952,40.406 107.15,40.604 C107.762,40.784 108.32,40.856 108.86,40.91 L108.86,41.018 L106.538,41.378 L106.196,41.702 L106.268,42.152 C106.538,42.422 106.862,42.53 107.204,42.584 L106.7,43.376 C106.646,43.7 106.7,43.952 106.988,44.096 Z M107.744,47.228 C108.554,47.156 109.31,47.102 110.084,46.922 C110.858,46.796 111.542,46.436 112.136,45.824 C112.064,45.536 111.92,45.338 111.596,45.284 L110.138,45.428 L110.12,45.23 L110.966,44.996 L111.308,44.672 L111.308,44.402 C110.966,44.204 110.516,44.078 110.102,44.078 L109.31,43.412 L108.914,43.538 L108.536,44.078 L107.348,44.438 L107.258,44.6 L107.384,45.104 C107.726,45.356 108.05,45.536 108.32,45.59 L108.266,45.77 C107.852,45.824 107.528,46.004 107.204,46.328 L107.204,46.724 C107.348,46.904 107.51,47.138 107.744,47.228 Z M113.504,47.858 C114.206,47.858 114.908,47.678 115.502,47.354 L115.304,46.904 C115.088,46.706 114.764,46.58 114.404,46.58 C113.756,46.634 113.126,46.634 112.442,46.634 C111.74,46.634 111.092,46.76 110.498,47.012 L110.696,47.534 L111.344,47.912 C112.064,47.912 112.82,47.912 113.504,47.858 Z M118.058,51.764 L118.868,51.656 C118.76,51.296 118.58,51.062 118.31,50.81 C117.626,50.072 116.996,49.676 116.078,49.496 L115.538,49.532 C115.394,49.766 115.322,49.964 115.376,50.162 C114.53,50.342 113.612,50.306 113.054,50.198 L113.72,49.55 C114.134,49.37 116.798,49.37 117.68,49.424 L118.364,49.37 L118.652,49.028 L118.472,48.47 L118.058,48.272 L115.268,48.2 C114.08,48.2 112.874,48.2 111.686,48.272 C110.48,48.326 109.328,48.326 108.14,48.506 L108.302,49.046 C108.824,49.37 109.634,49.478 110.192,49.442 L109.49,50.036 C109.274,50.36 109.22,50.756 109.166,51.08 L109.256,51.458 L109.526,51.584 C110.606,51.53 114.08,51.404 114.08,51.404 C114.764,51.404 115.394,51.35 116.042,51.17 C116.636,51.404 117.356,51.584 118.058,51.764 Z M132.656,37.616 L133.16,37.544 L133.664,36.932 C133.61,36.572 133.43,36.248 133.16,35.996 C132.926,35.726 132.62,35.546 132.35,35.402 C131.954,35.348 131.612,35.276 131.306,35.204 L130.82,35.204 C131.108,35.6 131.342,35.978 131.594,36.284 C131.774,36.662 131.99,37.076 132.278,37.418 L132.656,37.616 Z M123.062,42.08 L123.62,41.954 C123.944,41.486 124.304,41.09 124.574,40.622 C124.88,40.244 125.132,39.794 125.348,39.344 C125.582,38.894 125.834,38.516 126.122,38.048 L126.014,37.382 C125.834,36.986 125.546,36.716 125.114,36.572 L124.61,36.626 C124.52,37.238 124.34,37.76 124.16,38.228 C123.908,38.732 123.692,39.236 123.386,39.686 C123.098,40.154 122.864,40.658 122.684,41.198 L122.684,41.738 L123.062,42.08 Z M130.19,49.874 C130.748,49.604 131,49.136 131.054,48.524 C131.126,47.948 131.18,47.426 131.234,46.85 L131.306,45.428 L131.126,42.908 L131.126,41.81 L131.126,41.81 C131.054,41.432 131.126,41.108 131.234,40.784 C131.63,40.604 131.972,40.352 132.368,40.082 L132.386,39.434 C132.17,39.164 131.882,39.038 131.612,39.038 L130.874,39.038 L130.478,36.896 C130.478,36.896 129.65,36.572 129.38,36.896 L129.452,37.598 C129.506,37.976 129.452,38.3 129.38,39.02 C129.11,39.128 128.786,39.182 128.516,39.182 C128.12,39.272 127.724,39.416 127.724,39.416 L127.688,40.244 C127.688,40.244 127.958,40.406 128.282,40.496 C128.57,40.55 128.822,40.55 129.02,40.604 C129.254,40.676 129.38,40.856 129.452,41.09 L129.452,42.962 L129.452,42.962 C129.38,43.61 129.38,44.258 129.38,44.834 C129.38,45.482 129.344,46.13 129.218,46.706 C129.164,47.228 129.218,47.678 129.344,48.074 C129.452,48.542 129.632,48.92 129.866,49.316 L130.19,49.874 Z M136.238,38.282 C136.544,38.21 136.886,38.21 137.174,38.138 C137.462,38.138 137.804,38.012 138.074,37.796 L138.02,37.382 C137.678,37.094 137.408,36.968 136.994,36.896 C136.598,36.896 136.238,36.896 135.878,36.824 L134.402,36.968 L134.402,37.184 C134.726,37.868 135.878,38.282 136.238,38.282 Z M125.402,50.684 C125.906,50.36 126.086,49.946 126.14,49.334 C126.14,48.74 126.194,48.236 126.302,47.66 C126.356,47.138 126.428,46.616 126.482,46.04 C126.4415,45.7565 126.431375,45.462875 126.428844,45.1667188 L126.428,43.646 L126.428,43.646 C126.356,43.25 126.302,42.872 126.248,42.566 C126.428,42.116 126.608,41.738 126.788,41.288 C126.968,40.82 127.076,40.424 127.256,39.992 C127.364,39.524 127.49,39.092 127.616,38.624 L127.616,38.444 C127.436,37.904 127.094,37.562 126.59,37.364 L126.338,37.418 C126.212,38.552 125.996,39.488 125.582,40.478 C125.168,41.45 124.682,42.35 124.232,43.232 C123.764,44.222 123.224,45.05 122.576,45.914 L122.576,46.184 L122.846,46.4 L123.566,46.274 L124.646,45.194 L124.808,45.284 L124.682,47.084 L124.682,48.488 L124.682,48.488 C124.628,48.992 124.682,49.46 124.808,49.928 C124.934,50.252 125.15,50.486 125.402,50.684 Z M136.886,51.098 L137.642,50.954 L138.038,50.108 C138.038,49.208 138.038,48.29 137.984,47.39 C137.93,46.508 137.93,45.59 137.858,44.672 C137.804,43.772 137.588,41.342 137.624,41.018 C137.912,40.964 138.272,40.91 138.47,40.838 C138.866,40.784 139.154,40.64 139.496,40.37 L139.388,39.812 C139.064,39.596 138.758,39.47 138.434,39.416 C138.092,39.362 137.732,39.362 137.444,39.272 C137.138,39.218 136.778,39.218 136.436,39.164 C135.95,39.092 135.554,39.092 135.122,39.164 C134.726,39.218 134.24,39.272 133.844,39.272 C133.412,39.362 132.98,39.47 132.98,39.47 L132.962,40.316 C132.962,40.316 133.34,40.712 133.772,40.784 C134.186,40.838 134.582,40.838 135.014,40.838 C135.41,40.838 136.04,40.964 136.04,40.964 C136.112,41.342 136.292,42.818 136.292,43.196 C136.292,43.646 136.292,44.042 136.346,44.42 C136.346,44.924 136.346,45.464 136.4,45.986 C136.4,46.562 136.346,47.084 136.166,47.498 C135.896,47.804 135.554,48.002 135.194,48.128 C134.798,48.326 134.438,48.452 134.06,48.596 L134.114,48.884 C134.438,49.19 134.834,49.298 135.194,49.37 C135.554,49.622 135.824,49.928 135.986,50.252 C136.166,50.63 136.508,50.9 136.886,51.098 Z M127.184,47.516 L127.688,47.39 C128.012,47.066 128.3,46.67 128.498,46.22 C128.66,45.824 128.822,45.392 128.948,44.888 C128.894,44.366 128.714,43.916 128.444,43.52 C128.156,43.268 127.814,43.124 127.418,43.178 L127.094,43.34 L127.274,43.808 L126.752,46.076 C126.716,46.652 126.86,47.12 127.184,47.516 Z M133.61,47.174 L133.952,46.706 C133.898,46.238 133.844,45.77 133.646,45.32 C133.466,44.852 133.25,44.474 132.98,44.06 L131.936,43.538 L131.522,43.61 C131.576,44.114 131.756,44.51 131.918,44.888 C132.098,45.356 132.278,45.752 132.53,46.058 C132.692,46.436 132.926,46.832 133.268,47.174 L133.61,47.174 Z M143.186,42.548 L143.618,42.062 L143.492,40.622 L143.618,40.082 C144.266,39.902 145.004,39.722 145.778,39.668 C146.498,39.596 147.218,39.596 148.01,39.542 C148.784,39.542 150.476,39.488 151.214,39.416 C151.628,39.362 151.988,39.416 152.348,39.542 L152.6,40.028 C152.654,40.514 152.6,40.928 152.294,41.234 L152.294,41.522 C152.456,42.026 152.618,42.332 153.014,42.512 L153.734,42.188 C154.04,41.882 154.22,41.468 154.274,41.054 C154.346,40.514 154.346,40.028 154.274,39.542 C154.22,39.056 154.04,38.642 153.734,38.282 C153.554,38.102 153.32,37.922 153.068,37.85 C152.834,37.796 152.6,37.67 152.348,37.616 L150.854,37.67 L148.424,37.616 C148.316,37.256 148.244,36.896 148.19,36.464 C148.136,36.05 148.01,35.69 147.83,35.33 C147.578,35.024 147.29,34.79 146.93,34.718 L145.778,35.024 L145.598,35.384 L145.652,35.69 L146.138,35.744 L146.57,36.59 L146.75,37.742 L143.618,38.282 C143.078,38.336 142.646,38.21 142.34,37.85 L141.386,38.156 C141.566,38.516 141.746,38.876 141.8,39.236 C141.872,39.668 141.98,40.028 142.052,40.442 C142.106,40.874 142.16,41.288 142.232,41.702 L143.006,42.548 L143.186,42.548 Z M149.27,51.584 L149.576,51.53 C149.684,51.224 149.882,50.918 150.116,50.612 C150.296,50.378 150.476,50.144 150.656,49.838 C150.656,49.478 150.602,49.118 150.53,48.812 C150.476,48.506 150.35,48.146 150.242,47.858 L150.242,47.606 L150.476,47.606 L151.016,48.218 C151.43,48.632 151.916,48.938 152.456,49.226 C152.942,49.532 153.428,49.784 153.968,49.964 C154.508,50.144 155.048,50.324 155.66,50.378 C155.66,50.378 156.362,50.432 156.614,49.964 L156.434,49.478 C155.948,49.172 155.48,48.866 154.922,48.686 C154.382,48.506 153.914,48.272 153.428,47.966 C152.888,47.678 152.402,47.372 151.988,47.012 L151.628,46.292 C151.808,46.04 151.988,45.86 152.276,45.68 C152.582,45.5 152.816,45.32 153.068,45.14 L153.374,44.42 L153.248,43.934 C152.888,43.88 152.528,43.7 151.988,43.52 C151.736,43.808 151.502,44.06 151.196,44.366 C150.89,44.654 150.602,44.906 150.296,45.14 C149.99,45.374 149.684,45.68 149.504,45.986 C149.27,45.806 149.036,45.5 148.856,45.194 C148.604,44.906 148.37,44.654 148.136,44.42 C147.83,44.186 147.578,43.934 147.29,43.7 C147.344,43.394 147.524,43.214 147.83,43.088 C148.298,42.764 148.694,42.152 149.216,42.008 C151.052,41.972 151.304,41.918 151.484,41.738 L151.232,40.73 L148.784,40.514 L147.344,40.514 C146.858,40.514 146.444,40.586 146.012,40.64 C145.598,40.694 144.554,40.838 144.14,40.892 L144.068,41.27 C144.446,41.648 144.788,41.81 145.472,41.828 C145.184,42.368 144.824,42.908 144.392,43.448 C143.978,43.988 143.618,44.474 143.186,45.014 C142.772,45.554 142.538,46.166 142.466,46.832 L142.592,47.372 L143.132,47.606 C143.546,47.3 144.032,47.012 144.464,46.706 C144.878,46.4 145.238,46.04 145.652,45.626 C146.012,45.194 146.39,44.78 146.678,44.366 L146.93,44.366 L147.758,45.194 L147.758,45.446 L147.218,45.266 L147.038,45.266 C146.804,45.554 146.57,45.86 146.264,46.112 C145.958,46.346 145.598,46.58 145.292,46.76 C145.004,46.94 144.698,47.246 144.464,47.552 L144.518,48.038 L145.184,48.578 C145.832,48.326 146.21,48.146 146.57,47.912 C146.858,47.732 147.218,47.48 147.578,47.192 C147.884,46.94 148.19,46.706 148.496,46.4 L148.73,46.544 C148.316,46.832 147.668,47.39 147.416,47.588 C147.056,47.894 146.696,48.128 146.336,48.308 C145.976,48.542 145.616,48.794 145.256,48.974 L145.31,49.262 C145.31,49.262 145.868,49.532 146.174,49.442 L146.876,49.208 C147.236,49.028 148.568,48.29 149.324,47.696 C149.324,47.696 149.45,48.092 149.576,48.452 C149.63,48.866 149.576,49.226 149.324,49.532 L146.75,49.406 L146.516,49.604 C146.822,49.73 147.02,49.946 147.164,50.252 C147.47,50.504 147.83,50.738 148.19,50.972 C148.55,51.224 148.91,51.404 149.27,51.584 Z M9.248,72.682 C10.112,72.538 10.976,72.466 11.822,72.376 C12.668,72.304 13.586,72.214 14.432,72.196 C16.34,72.178 17.114,71.908 17.87,71.422 L17.834,71.062 C17.438,70.81 17.024,70.738 16.538,70.72 C15.026,70.684 14.54,70.666 14.144,70.63 C14.198,70.378 14.54,68.92 14.648,68.614 C14.954,68.524 15.8,68.416 16.628,68.38 C17.024,68.344 17.42,68.362 17.852,68.326 C18.248,68.344 18.608,68.182 18.986,67.84 L19.004,67.426 L17.978,66.958 L14.918,66.976 C14.576,67.012 14.432,66.958 14.252,66.814 L14.324,66.634 L14.216,65.5 C13.856,65.248 13.622,65.122 13.298,65.05 C13.028,64.87 12.812,64.654 12.308,64.654 C12.308,64.654 12.344,65.158 12.47,65.482 C12.452,65.77 12.452,66.076 12.452,66.796 L12.344,67.102 L9.266,67.606 C8.762,67.642 8.402,67.516 7.862,67.318 L7.502,67.48 L7.484,67.84 C7.61,68.128 7.682,68.38 7.862,68.632 C8.006,68.956 8.24,69.19 8.582,69.334 C9.086,69.298 9.608,69.208 10.13,69.1 C10.67,69.082 11.21,68.974 11.732,68.938 L12.218,69.082 L12.506,69.964 C12.542,70.324 12.47,70.576 12.38,70.792 C11.858,70.954 11.318,70.972 10.814,71.026 C10.238,71.08 9.788,71.152 8.924,71.224 L8.06,71.44 L8.096,72.034 C8.42,72.394 8.762,72.592 9.248,72.682 Z M21.11,74.23 L21.47,74.122 L22.064,73.276 L21.938,72.844 C21.65,72.61 21.29,72.484 20.858,72.43 L20.084,72.43 C19.724,72.61 19.292,72.664 18.878,72.664 L18.932,72.844 C19.292,73.15 19.652,73.384 20.012,73.636 C20.318,73.87 20.678,74.05 21.11,74.23 Z M16.646,79.648 C17.006,79.648 17.312,79.594 17.618,79.468 C17.906,79.36 18.212,79.234 18.518,79.108 C18.752,78.802 18.932,78.514 19.058,78.154 C19.184,77.848 19.292,77.488 19.418,77.128 L19.364,75.688 L18.518,75.436 L18.266,75.49 C18.266,75.796 18.212,76.048 18.086,76.228 C17.978,76.462 17.798,76.696 17.618,76.876 C17.258,77.236 16.826,77.488 16.34,77.668 C15.926,77.668 15.566,77.614 15.206,77.542 C14.774,77.488 14.414,77.434 14.054,77.308 C13.694,77.182 13.406,77.002 13.1,76.768 C12.92,76.336 12.794,75.976 12.614,75.562 C12.434,75.13 12.38,74.716 12.308,74.302 C11.948,73.942 11.534,73.744 11.048,73.69 L9.788,73.564 L9.554,73.564 C9.842,73.996 10.022,74.41 10.094,74.842 C10.148,75.256 10.274,75.742 10.454,76.156 C10.634,76.588 10.814,77.002 11.102,77.362 C11.66,77.848 12.2,78.262 12.794,78.568 C13.334,78.928 14,79.162 14.666,79.36 C15.332,79.54 15.98,79.594 16.646,79.648 Z M15.926,75.994 C16.25,75.922 16.448,75.742 16.592,75.328 L16.394,74.446 C15.998,74.014 15.53,73.816 15.044,73.816 L13.748,73.816 L14.126,74.626 C14.378,74.878 14.702,75.148 15.044,75.4 C15.35,75.67 15.62,75.85 15.926,75.994 Z M7.142,78.622 L7.43,78.514 C7.736,78.208 7.988,77.902 8.096,77.542 C8.222,77.182 8.348,76.822 8.402,76.408 C8.456,75.976 8.528,75.616 8.582,75.256 L8.456,74.842 L7.988,74.536 L7.43,74.536 L6.476,74.716 L6.116,74.662 L5.936,74.716 L6.17,75.202 L6.116,75.742 L6.17,77.488 C6.422,77.902 6.71,78.334 7.142,78.622 Z M38.804,78.208 C39.164,78.118 39.524,78.064 39.83,77.974 C39.776,77.524 39.596,77.056 39.29,76.588 C38.75,76.084 38.084,75.724 37.418,75.508 C36.77,75.292 36.032,75.22 35.312,75.166 C34.592,75.076 33.872,75.004 33.152,74.914 L33.08,74.464 C33.206,73.87 33.278,73.276 33.332,72.664 C33.386,72.052 33.512,71.44 33.746,70.9 C33.998,70.45 34.178,69.946 34.358,69.37 C34.538,69.028 35.816,68.866 36.122,68.812 L36.968,68.812 L36.968,68.812 L37.454,68.398 L37.094,67.39 C36.788,67.066 36.428,66.904 36.014,66.85 C34.592,66.688 34.178,66.562 33.746,66.472 C33.332,66.418 32.9,66.346 32.486,66.346 L27.554,66.112 L26.888,66.112 L26.168,66.778 L26.168,66.886 C26.654,67.066 26.942,67.606 27.122,68.182 L28.58,69.154 L30.434,69.064 C30.614,69.82 30.686,70.36 30.74,70.918 C30.74,71.53 30.794,72.106 30.866,72.646 C30.92,73.186 30.974,73.708 31.1,74.302 L30.92,75.004 L28.994,74.932 L27.302,74.932 L27.302,74.932 C26.762,75.004 26.168,75.004 25.628,75.004 C25.088,75.076 24.602,75.256 24.188,75.508 L24.368,75.886 C24.728,76.12 25.088,76.444 25.448,76.642 C25.808,76.948 26.222,77.056 26.654,77.146 C27.068,77.218 27.554,77.29 27.968,77.362 C28.94,77.434 29.408,77.524 29.84,77.596 C30.254,77.668 30.74,77.668 31.226,77.758 C31.64,77.812 32.126,77.812 32.54,77.884 L32.846,77.812 C33.512,77.884 34.178,77.884 34.826,77.884 C35.492,77.974 36.212,77.974 36.878,77.974 C37.544,77.974 38.138,78.046 38.804,78.208 Z M51.008,80.476 L51.746,80.35 L51.908,80.116 C52.592,79.036 53.474,77.182 53.996,75.58 C54.554,73.996 54.968,73.042 55.598,71.512 C56.246,70 57.794,65.5 58.046,64.492 C58.01,64.204 57.776,64.006 57.524,63.754 L57.182,63.826 C56.264,65.698 55.472,67.444 54.662,69.244 C53.798,71.044 53.186,73.006 52.61,74.266 C51.908,76.156 51.188,77.992 50.702,80.206 L51.008,80.476 Z M70.142,77.632 L70.61,77.452 C70.934,76.642 71.204,75.868 71.546,75.022 C71.834,74.23 72.104,73.402 72.392,72.61 C72.662,71.836 73.652,68.452 73.796,68.02 C73.85,67.606 73.994,67.192 74.084,66.778 L74.462,66.49 C74.912,66.436 75.29,66.49 75.614,66.652 C75.56,67.156 74.516,68.668 73.688,69.694 C73.688,69.694 73.328,70.108 73.49,70.468 C73.814,70.99 74.192,70.702 74.192,70.702 L75.11,70.252 L75.2,71.89 L75.542,72.034 L76.172,71.764 L76.55,70.45 L77.198,69.982 L77.666,70.036 L77.288,71.638 L77.558,72.682 L79.394,72.934 L81.068,72.934 L81.068,72.934 C81.572,72.934 82.112,72.934 82.616,72.862 C83.102,72.862 83.66,72.808 84.092,72.754 L84.218,72.412 L84.182,72.142 C83.804,72.07 83.372,72.016 82.958,71.962 C82.526,71.962 82.094,71.89 81.716,71.728 L81.788,71.314 C82.67,71.08 82.868,70.9 83.084,70.756 L83.066,70.414 L81.698,70.216 L81.788,69.928 L83.21,69.82 L83.21,69.496 L81.572,69.19 L81.644,69.01 C82.022,68.902 82.454,68.83 82.868,68.776 C83.246,68.722 83.57,68.596 83.858,68.398 L83.822,68.038 C83.372,67.984 82.814,67.858 82.166,67.804 L82.238,67.678 C82.328,67.3 82.256,66.976 82.076,66.742 L81.986,66.652 L80.924,66.832 C80.924,67.228 80.834,67.696 80.636,68.02 L80.258,68.164 C79.862,68.218 79.556,68.164 79.232,68.056 L80.078,67.12 L79.88,66.742 L79.88,66.544 C80.492,66.49 81.068,66.436 81.698,66.436 C82.256,66.436 82.814,66.364 83.264,66.256 L83.66,65.806 L83.66,65.104 L83.012,64.906 L80.708,65.032 C80.384,65.032 79.178,65.032 78.8,64.924 L78.908,64.438 L78.836,64.06 C78.692,63.754 78.44,63.502 78.116,63.376 C77.558,63.358 76.91,63.628 76.91,63.628 L77.162,65.05 C76.478,65.104 74.786,65.266 74.174,65.338 C73.472,65.392 72.752,65.518 72.212,65.572 L72.248,66.148 C72.05,67.354 71.78,68.542 71.402,69.694 C71.078,70.828 70.718,72.034 70.43,73.258 C70.142,74.464 69.944,75.67 69.8,76.876 L69.8,77.254 L70.142,77.632 Z M76.784,68.758 L76.316,68.758 L76.226,68.614 L77.27,67.426 L77.162,66.958 L76.586,66.796 L76.586,66.544 L78.278,66.616 L78.332,66.76 C78.278,67.102 78.044,67.462 77.702,67.75 C77.36,68.056 77.072,68.416 76.874,68.704 L76.784,68.758 Z M79.898,69.19 L79.8445004,69.1893509 C79.6921157,69.1864298 79.2516364,69.1703636 79.016,69.082 L79.304,68.83 C79.304,68.83 79.826,68.83 80.096,68.992 L80.042,69.118 L79.898,69.19 Z M80.06,70.09 C79.646,70.09 79.358,70.036 79.016,69.928 L79.214,69.748 L80.366,69.802 L80.294,69.982 L80.06,70.09 Z M79.394,71.962 L78.476,71.782 C78.476,71.512 78.62,71.224 78.962,71.008 C80.258,71.008 80.546,71.062 80.78,71.224 L80.78,71.44 L80.33,71.782 L79.394,71.962 Z M82.238,80.944 L82.634,80.692 C82.976,80.314 83.084,79.882 83.174,79.396 C83.228,78.91 83.318,78.442 83.372,78.01 L83.246,77.488 L82.364,77.182 C81.914,77.182 81.446,77.164 80.942,77.218 C80.474,77.29 77.684,77.668 76.19,77.794 L76.28,77.524 L78.656,77.254 C79.178,77.056 79.628,77.128 79.934,76.876 L79.862,76.462 C79.556,76.516 79.124,76.516 78.782,76.516 C78.368,76.516 77.072,76.642 76.262,76.588 L76.262,76.354 L77.18,76.354 L79.736,76.12 C79.988,75.796 80.204,75.436 80.402,75.076 C80.618,74.77 80.762,74.41 80.942,74.086 L80.888,73.348 L79.898,73.222 C79.43,73.276 79.016,73.348 78.494,73.348 L76.046,73.51 L76.046,73.384 L77.018,72.916 C77.018,72.592 76.892,72.268 76.73,72.016 L75.632,72.43 C75.308,72.502 75.11,72.7 75.038,73.024 C74.984,73.294 74.894,73.546 74.84,73.852 L74.696,77.884 L74.696,78.154 L75.2,78.586 C76.226,78.658 76.64,78.586 77.072,78.532 C77.396,78.478 79.16,78.37 80.906,78.136 L81.716,78.244 C81.716,78.64 81.662,79.036 81.536,79.36 L80.87,79.594 C80.312,79.594 79.826,79.72 79.466,79.918 L79.466,80.08 C79.88,80.278 80.33,80.404 80.816,80.512 C81.302,80.692 81.824,80.818 82.238,80.944 Z M76.226,74.572 L76.316,74.302 L78.422,74.068 C78.818,74.068 79.124,73.978 79.358,74.104 L79.358,74.356 C78.8,74.428 77.18,74.482 76.766,74.536 L76.226,74.572 Z M76.172,75.562 L76.172,75.454 L78.35,75.148 C78.638,75.094 78.872,75.148 79.142,75.256 L79.052,75.382 L76.172,75.562 Z M80.546,79.54 L81.068,79.288 L81.014,78.874 C81.014,78.874 80.726,78.442 80.078,78.262 C79.736,78.262 79.466,78.352 79.466,78.352 L78.98,78.694 L79.016,78.91 C79.394,79.324 79.97,79.486 80.546,79.54 Z M72.788,80.278 L73.058,80.134 L73.652,78.982 L73.724,78.532 L72.644,78.28 L72.068,78.406 L71.978,78.982 C72.032,79.63 72.194,79.972 72.788,80.278 Z M78.926,79.774 C78.926,79.774 78.908,79.198 78.638,79.036 C78.386,78.73 77.648,78.64 77.648,78.64 L77.054,78.82 C77.054,78.82 77.648,79.792 78.134,79.918 C78.62,80.008 78.926,79.774 78.926,79.774 Z M76.208,79.918 C76.442,79.846 76.676,79.72 76.73,79.522 L76.586,79.198 C76.154,78.946 75.596,78.82 74.966,78.766 L74.534,78.766 L74.534,79 C74.966,79.414 75.578,79.738 76.208,79.918 Z M94.55,79.018 C95.018,78.694 95.378,78.316 95.792,77.902 C96.098,77.506 96.404,77.11 96.638,76.606 L96.638,76.354 L95.216,76.75 C95.09,76.804 94.964,76.75 94.838,76.624 C94.838,76.624 94.892,75.958 94.946,75.49 C95.018,74.608 95.072,74.158 95.126,73.69 C95.198,73.222 95.252,72.808 95.306,72.376 C95.612,72.214 95.972,72.07 96.35,72.016 C96.71,71.926 97.952,71.62 98.258,71.332 C98.798,71.476 99.608,71.188 99.716,70.216 L99.626,67.948 C99.554,67.624 99.59,66.868 99.59,66.472 C99.59,66.148 99.464,65.77 99.284,65.518 C98.996,65.14 98.69,65.014 98.276,64.942 C97.61,65.014 97.016,65.068 96.404,65.158 C95.738,65.212 95.144,65.356 94.604,65.536 C94.064,65.716 93.47,65.824 92.822,66.166 C93.056,66.706 93.164,67.12 93.236,68.002 C93.29,68.542 93.29,71.026 93.29,71.764 C93.236,72.466 93.236,73.222 93.164,73.96 C93.11,74.698 92.984,75.832 92.876,76.552 L92.93,77.326 C92.93,77.326 93.38,78.568 94.1,78.928 L94.55,79.018 Z M91.094,76.3 L91.508,76.498 L91.94,76.372 L92.246,75.742 L92.12,73.816 L92.174,71.566 C92.174,71.08 92.174,70.54 92.12,70.018 C92.066,69.532 91.994,69.01 91.94,68.56 C91.814,68.038 91.634,67.642 91.454,67.228 C91.166,66.868 90.86,66.688 90.5,66.616 C90.14,66.562 89.78,66.562 89.42,66.562 C89.06,66.562 88.718,66.31 88.16,66.256 C88.16,66.256 87.332,66.526 86.918,67.03 C87.098,67.624 87.332,68.146 87.386,68.74 C87.386,69.424 87.386,70.072 87.458,70.666 C87.458,71.368 87.458,72.016 87.512,72.664 L87.458,74.5 L87.512,75.742 C87.512,75.742 87.926,77.02 88.574,77.146 L89.312,77.2 C89.6,77.272 89.906,77.146 91.094,76.3 Z M95.288,68.38 L95.09,68.308 C94.982,67.84 94.802,67.372 94.766,66.922 L97.304,66.724 L97.574,68.02 C97.574,68.02 95.648,68.236 95.288,68.38 Z M90.212,69.676 L89.114,69.568 L88.988,68.344 L89.564,68.164 L89.978,68.254 C90.104,68.56 90.284,69.55 90.212,69.676 Z M95.63,70.486 L95.252,70.414 L95.126,70.144 L95.162,69.478 C95.342,69.424 97.646,69.622 97.646,69.622 L97.628,70.288 L95.63,70.486 Z M90.338,72.016 C89.852,72.016 89.42,71.908 89.06,71.746 C88.988,71.476 89.06,71.296 89.186,71.134 C89.186,71.134 90.212,71.134 90.392,71.404 L90.338,72.016 Z M102.56,79.36 L103.082,79.018 L103.082,78.658 C102.668,78.28 102.308,77.884 101.876,77.488 C101.462,77.146 101.03,76.804 100.67,76.408 C100.256,76.012 99.932,75.616 99.59,75.166 L99.59,74.968 C99.842,74.824 100.076,74.518 100.382,74.23 C100.67,73.978 100.922,73.708 101.21,73.438 C101.462,73.186 101.696,73.024 102.056,72.772 L102.056,72.34 C101.588,72.106 101.156,71.908 100.436,71.584 L100.202,71.584 C99.968,71.926 99.788,72.214 99.608,72.502 C99.428,72.862 99.248,73.132 99.068,73.474 C98.834,73.816 98.636,74.032 98.402,74.194 L97.124,73.114 L95.63,73.222 L95.63,73.546 L96.116,73.906 L97.016,74.806 C97.556,75.454 98.168,76.066 98.762,76.66 C99.302,77.254 99.914,77.776 100.508,78.262 C101.12,78.73 101.786,79.108 102.56,79.36 Z M89.114,74.968 L89.24,73.672 L90.5,73.492 L90.644,74.824 L89.456,75.094 C89.312,75.148 89.186,75.094 89.114,74.968 Z M108.482,68.038 L108.536,67.102 L110.102,67.012 C110.156,67.192 110.282,67.426 110.336,67.66 L110.912,67.75 L111.866,66.76 L112.748,66.526 C113.288,66.472 113.828,66.4 114.386,66.22 L115.034,65.5 L114.98,65.266 C114.08,65.014 113.108,64.834 112.154,64.78 L112.208,64.42 L112.154,63.988 L111.668,63.754 C111.254,63.754 110.894,63.808 110.588,63.988 L110.336,64.906 L108.968,65.14 L108.536,65.086 L108.41,64.06 L107.996,63.754 C107.582,63.754 107.15,63.808 106.79,63.934 L106.736,65.374 C105.944,65.554 105.17,65.806 104.378,66.112 L104.378,66.22 C104.882,66.598 105.188,67.012 106.016,67.3 L106.772,67.138 C107.15,67.786 107.456,68.092 107.762,68.398 C108.122,68.452 108.356,68.326 108.482,68.038 Z M114.044,80.314 C114.35,80.008 114.638,79.774 114.998,79.522 L116.384,76.696 L116.636,76.75 C116.816,77.668 117.23,78.442 117.842,79.108 C118.256,79.522 118.796,79.774 119.39,79.828 C120.128,79.882 120.776,79.828 121.334,79.522 L121.622,78.982 L121.568,78.748 C121.568,78.748 121.442,76.696 121.442,76.21 L121.136,75.922 L120.848,75.922 C120.668,76.696 120.416,77.416 120.056,78.082 C119.948,78.388 119.768,78.676 119.516,78.874 L118.85,78.622 C118.436,78.208 118.202,77.776 118.13,77.236 C118.076,76.57 118.202,76.03 118.49,75.562 L118.796,75.67 L119.39,75.49 C119.696,75.076 119.876,74.644 119.948,74.104 C120.002,73.564 120.056,73.078 120.128,72.538 C120.056,71.818 120.002,71.098 119.948,70.324 C119.876,69.586 119.696,68.938 119.39,68.272 L116.564,67.786 L116.096,67.84 L115.844,67.786 L115.664,67.3 L115.43,67.192 C114.998,67.246 114.584,67.372 114.278,67.66 C114.098,68.632 114.044,69.586 113.972,70.612 C113.918,71.638 113.864,72.61 113.792,73.636 L113.918,75.31 C114.044,75.742 114.35,76.102 114.764,76.282 L113.558,79.414 C113.504,79.774 113.612,80.062 113.864,80.314 L114.044,80.314 Z M110.714,71.638 L113.108,71.224 C113.288,70.378 113.54,69.784 113.774,69.118 L113.72,68.758 C113.108,68.398 112.46,68.146 111.668,68.092 C110.948,68.038 110.336,68.218 109.796,68.632 L109.976,70.558 C110.102,70.918 110.336,71.224 110.714,71.638 Z M106.484,71.89 L107.042,71.71 L108.086,71.746 C108.572,71.638 108.842,71.53 109.148,71.35 L109.562,70.27 L109.508,69.298 C109.022,68.884 108.41,68.704 107.69,68.704 L106.556,68.758 L106.25,68.704 C106.016,68.704 105.764,68.758 105.53,68.884 C105.584,69.424 105.656,69.964 105.836,70.45 C105.944,70.99 106.196,71.476 106.484,71.89 Z M117.284,70.792 L115.844,70.684 L115.844,68.992 L117.176,69.118 L117.284,70.792 Z M112.028,70.324 L111.362,70.198 L111.434,69.244 L112.082,69.406 L112.028,70.324 Z M107.132,70.792 L107.042,69.514 L107.852,69.532 C108.158,70.126 108.104,70.432 107.978,70.72 L107.132,70.792 Z M115.538,72.97 C115.43,72.358 115.484,71.944 115.79,71.638 L117.59,71.944 C117.662,72.25 117.59,72.538 117.464,72.844 L115.538,72.97 Z M108.896,80.548 C109.508,80.548 110.102,80.494 110.714,80.422 C111.254,80.368 112.406,80.17 112.946,79.99 L113.072,79.756 L113.018,79.522 L112.892,79.45 L112.1,79.522 L110.642,79.522 C110.714,79.108 110.822,78.892 111.002,78.586 L112.226,78.208 L112.46,77.92 C112.532,77.596 112.46,77.416 112.28,77.29 L111.002,77.236 L111.038,76.876 L111.956,76.696 L112.1,76.138 L111.992,75.85 L110.948,75.616 L111.002,75.436 L112.748,74.95 L112.892,74.464 C112.784,74.158 112.532,73.978 111.578,74.032 C111.614,73.33 111.434,72.79 111.128,72.358 C110.516,72.304 110.048,72.358 109.616,72.664 L109.616,72.97 L110.282,74.104 L108.176,74.284 C108.356,73.924 108.662,73.33 109.076,72.79 L109.022,72.538 L108.23,72.196 C107.762,72.322 107.24,72.466 107.096,72.664 C106.664,73.51 106.304,74.356 105.89,75.13 C105.476,75.976 105.17,76.876 104.99,77.776 C104.918,78.262 104.99,78.676 105.296,78.982 L105.584,78.982 L106.196,78.496 L106.484,77.776 L106.736,77.848 C106.844,78.622 107.096,79.414 107.51,80.134 C107.942,80.368 108.41,80.494 108.896,80.548 Z M115.718,75.13 L115.304,74.95 L115.358,74.104 L117.536,73.69 L117.716,73.744 L117.896,74.59 L115.718,75.13 Z M108.896,75.976 L108.482,75.85 L108.482,75.364 L109.202,75.31 L109.148,75.85 L108.896,75.976 Z M108.536,77.668 C108.482,77.362 108.536,77.128 108.716,76.948 L109.508,77.128 L109.436,77.542 L108.536,77.668 Z M109.148,79.702 L108.59,79.648 L108.41,79.108 L108.59,78.748 L109.616,78.802 L109.796,79.234 L109.796,79.594 L109.148,79.702 Z M130.91,80.26 C131.432,80.224 131.648,79.63 131.648,79.63 L132.008,77.902 C132.008,77.902 132.116,76.984 132.098,76.57 L132.368,76.966 C132.908,77.452 133.502,77.866 134.114,78.172 C134.708,78.46 135.302,78.766 135.968,78.946 C136.634,79.198 137.228,79.432 137.894,79.612 L138.434,79.612 L138.74,79.306 C138.794,79.072 138.74,78.838 138.56,78.64 C138.074,78.352 137.606,78.1 137.12,77.866 C136.58,77.632 136.094,77.38 135.554,77.146 C135.014,76.966 134.528,76.66 134.042,76.354 L134.114,76.066 L135.194,75.526 C135.68,75.58 136.148,75.634 136.58,75.814 L136.868,75.76 L137.228,75.346 L137.174,74.194 C136.76,74.068 136.4,73.888 136.04,73.654 C135.68,73.474 135.302,73.294 134.888,73.114 L134.294,73.474 C133.988,73.834 133.682,74.194 133.376,74.5 C133.088,74.86 132.782,75.22 132.602,75.634 L132.062,75.454 C131.882,75.094 131.81,74.68 131.81,74.248 C132.296,73.834 132.728,73.654 133.088,73.348 L133.502,72.754 L133.808,72.502 L136.22,72.574 L138.146,72.394 C138.56,72.214 138.866,71.908 139.154,71.548 L139.046,71.116 C138.74,70.936 138.38,70.828 138.02,70.756 C137.606,70.756 137.228,70.756 136.814,70.702 C136.4,70.702 136.04,70.648 135.734,70.468 C135.914,70.036 136.148,69.676 136.328,69.262 C136.508,68.83 136.688,68.416 136.814,68.002 L136.688,67.516 C136.4,67.264 136.094,67.156 135.68,67.084 C135.248,67.03 134.888,67.03 134.528,66.976 L131.162,66.976 L131.162,66.976 C130.622,67.03 130.064,67.084 129.524,67.21 C129.236,67.264 128.984,67.21 128.75,67.084 L128.75,66.976 C129.056,66.904 129.596,66.688 130.604,66.31 L131.144,66.13 L131.54,65.68 L131.54,65.446 C131.36,65.212 131.108,65.032 130.82,64.852 C130.514,64.672 130.208,64.474 130.028,64.186 L129.308,64.06 L129.128,64.06 L128.264,65.338 C127.958,65.644 127.724,65.878 127.418,66.13 C127.13,66.364 126.878,66.616 126.572,66.85 C126.284,67.156 125.924,67.336 125.564,67.39 L125.258,68.236 C125.258,68.596 125.312,68.956 125.438,69.262 C125.492,69.622 125.618,69.982 125.744,70.288 C125.798,70.576 125.924,70.936 126.032,71.242 L125.978,71.602 C125.672,71.782 125.384,71.854 125.078,71.908 C124.718,71.962 124.358,72.034 124.052,72.088 C123.746,72.142 123.386,72.214 123.026,72.268 L122.846,72.754 C122.9,73.042 123.098,73.348 123.386,73.6 C123.818,73.654 124.178,73.6 124.538,73.474 C124.844,73.348 125.204,73.294 125.618,73.294 C125.978,73.294 126.986,73.114 127.274,73.24 C127.166,73.546 127.004,73.888 126.752,74.14 C126.518,74.428 126.032,74.968 125.816,75.22 C125.636,75.418 125.204,75.688 124.988,76.012 L125.078,76.444 L125.636,76.426 L126.608,76.246 C127.31,75.76 127.598,75.526 127.904,75.274 C128.21,75.094 128.444,74.86 128.696,74.554 C128.93,74.32 129.164,74.068 129.416,73.78 L129.344,73.474 L128.984,73.294 L128.984,72.988 L129.47,72.934 C129.776,72.862 130.01,72.934 130.19,73.042 C130.064,73.42 129.884,73.708 129.596,74.014 C129.29,74.32 129.056,74.554 128.804,74.86 C128.516,75.166 128.21,75.454 127.904,75.706 L127.904,75.94 L128.318,76.3 C128.696,76.246 129.056,76.174 129.344,75.994 C129.65,75.886 129.884,75.706 130.19,75.526 L130.172,78.172 C130.172,78.532 130.226,78.892 130.298,79.198 C130.298,79.198 130.316,80.134 130.91,80.26 Z M133.556,70.756 C133.268,70.756 132.71,70.756 132.404,70.648 C132.404,70.216 132.53,69.856 132.764,69.55 C132.944,69.262 133.07,68.902 133.07,68.47 L133.25,68.362 C133.538,68.362 134.474,68.416 134.762,68.47 L134.834,68.65 C134.834,69.01 134.762,69.37 134.708,69.676 C134.654,69.982 134.474,70.288 134.294,70.576 L133.556,70.756 Z M127.184,71.296 C127.004,70.936 126.95,70.522 126.95,70.108 C126.878,69.676 126.824,69.316 126.644,68.956 L126.698,68.776 C127.058,68.542 127.49,68.416 128.192,68.434 L128.372,71.08 L127.184,71.296 Z M130.334,71.008 L129.596,70.828 C129.65,70.396 129.704,69.982 129.884,69.55 C130.01,69.19 130.19,68.83 130.37,68.47 L131,68.47 L131.054,68.65 C131,69.082 131,69.442 130.946,69.802 C130.874,70.216 130.694,70.576 130.514,70.882 L130.334,71.008 Z M126.428,80.152 C126.806,80.044 127.652,79.684 127.976,79.396 C128.3,79.144 128.588,78.856 128.894,78.586 C129.146,78.37 129.38,78.118 129.632,77.92 C130.082,77.578 129.794,76.534 129.398,76.228 L129.074,76.48 C128.57,76.876 128.12,77.272 127.652,77.722 C127.184,78.172 126.68,78.64 126.32,78.964 L125.744,79.45 C125.78,79.756 126.122,80.134 126.428,80.152 Z" id="///" fill="#4A5141" fill-rule="nonzero"></path>
    </g>
</svg>