<?xml version="1.0" encoding="UTF-8"?>
<svg width="28px" height="28px" viewBox="0 0 28 28" version="1.1" xmlns="http://www.w3.org/2000/svg" xmlns:xlink="http://www.w3.org/1999/xlink">
    <!-- Generator: Sketch 61 (89581) - https://sketch.com -->
    <title>icon_check</title>
    <desc>Created with Sketch.</desc>
    <g id="icon_check" stroke="none" stroke-width="1" fill="none" fill-rule="evenodd">
        <path d="M14,0 C6.28009036,0 0,6.28009036 0,14 C0,21.7199096 6.28009036,28 14,28 C21.7199096,28 28,21.7199096 28,14 C28,6.28009036 21.7199096,0 14,0 Z M21.0957031,11.0332031 L13.5122986,18.616394 C13.28479,18.8439026 12.986145,18.9584046 12.6875,18.9584046 C12.388855,18.9584046 12.09021,18.8439026 11.8627014,18.616394 L8.07110598,14.8247986 C7.61480716,14.3687134 7.61480716,13.6312866 8.07110598,13.1752014 C8.52719115,12.7189026 9.2644043,12.7189026 9.72070312,13.1752014 L12.6875,16.1419983 L19.446106,9.38360598 C19.9021911,8.92730716 20.6394043,8.92730716 21.0957031,9.38360598 C21.5517883,9.83969115 21.5517883,10.5769043 21.0957031,11.0332031 Z" id="Shape-Copy" fill="#4A5141" fill-rule="nonzero"></path>
    </g>
</svg>