<?xml version="1.0" encoding="UTF-8"?>
<svg width="576px" height="36px" viewBox="0 0 576 36" version="1.1" xmlns="http://www.w3.org/2000/svg" xmlns:xlink="http://www.w3.org/1999/xlink">
    <!-- Generator: Sketch 61 (89581) - https://sketch.com -->
    <title>des1</title>
    <desc>Created with Sketch.</desc>
    <g id="des1" stroke="none" stroke-width="1" fill="none" fill-rule="evenodd">
        <path d="M5.592,32.72 C6.672,32 7.356,31.208 8.184,29.876 C9.336,27.5 10.596,23.936 11.676,20.192 C12.612,16.52 14.196,12.92 16.176,9.644 C18.732,9.212 21.288,9.032 23.808,8.996 C26.328,8.96 28.776,8.42 30.828,7.268 C31.224,6.548 31.512,5.72 31.512,4.748 L32.628,3.308 L32.52,2.588 C31.476,1.256 30.144,0.752 28.596,0.932 C25.932,0.716 23.412,0.896 21,1.184 C18.588,1.508 16.14,2.048 13.872,2.588 L13.152,2.408 L12.54,2.66 L12.504,3.272 L12.864,3.38 C10.92,9.248 9.588,13.784 8.364,18.32 C7.14,22.856 5.592,27.284 4.44,30.668 C4.44,31.496 4.62,32.108 5.232,32.684 L5.592,32.72 Z M19.308,6.8 L18.444,6.692 C18.228,6.044 17.904,5.576 17.544,5.072 L17.544,4.604 C18.66,4.388 27.552,3.92 27.552,3.92 L28.236,5.612 L27.984,6.116 L19.308,6.8 Z M29.928,35.42 L29.028,33.332 C28.452,32.504 27.624,32 26.796,31.712 L25.572,31.928 L25.428,32.648 L24.96,32.648 L25.104,31.424 L27.66,30.884 C28.38,30.884 28.956,30.704 29.496,30.2 L30.252,28.94 L30,27.968 C28.956,27.68 27.768,27.428 26.544,27.14 L26.652,26.636 L31.044,26.168 L32.124,26.312 L32.556,27.176 C32.52,28.508 32.376,29.948 32.088,31.244 C31.26,31.604 30.288,31.82 29.28,32.036 C29.496,33.116 30.108,34.088 30.9,34.952 L32.124,35.6 C32.952,35.744 33.564,35.636 34.176,35.312 C34.32,33.728 34.608,32.036 34.896,30.488 C35.076,28.94 35.472,27.5 35.868,26.06 L35.544,25.088 L33.708,24.584 L24.204,24.764 L24.78,22.64 C26.688,22.316 30.18,21.956 32.088,21.488 C32.304,20.156 32.664,19.004 33.276,17.924 L33.096,16.952 C32.376,16.304 31.548,16.088 30.576,16.052 C26.832,16.088 25.32,16.124 24.708,15.728 L25.104,10.616 L25.104,9.896 L24.528,9.356 C23.664,9.5 22.836,9.572 22.08,9.896 C22.512,11.012 22.404,12.236 22.368,13.568 L22.332,16.124 C21.216,16.484 17.22,17.24 16.104,17.348 L15.312,18.968 L15.924,19.616 L16.86,21.272 C17.22,21.884 17.58,22.496 19.056,22.712 C18.552,24.044 17.904,25.304 17.04,26.528 C16.212,27.68 15.564,29.012 15.132,30.416 C14.988,30.92 15.24,31.28 15.6,31.532 L16.212,31.532 L17.688,29.876 C18.804,28.616 20.172,27.68 21.612,27.104 L22.224,27.14 L22.08,27.644 L20.856,27.968 L19.884,28.868 L20.208,30.2 C20.64,30.956 21.252,31.46 22.224,31.352 L22.944,31.388 L22.908,32.612 C21.936,32.684 20.496,32.972 19.128,33.404 L19.128,33.764 L19.848,34.556 L26.256,34.232 C27.048,34.844 28.02,35.348 28.812,35.744 C29.316,35.888 29.676,35.78 29.928,35.42 Z M26.004,11.552 C27.84,11.516 29.64,11.192 31.368,10.652 L31.224,10.256 C30.612,9.788 29.82,9.5 28.992,9.392 L27.156,9.572 C26.544,9.932 26.184,10.292 25.824,10.724 L26.004,11.552 Z M21.216,11.948 L20.964,11.228 C20.388,10.688 19.776,10.472 19.056,10.292 C17.976,10.4 16.896,10.58 16.032,11.084 L16.5,12.164 L18.264,12.92 C19.488,13.064 20.46,12.74 21.216,11.948 Z M27.624,14.756 C29.424,14.216 31.152,13.64 32.844,12.848 L32.772,12.272 L31.44,11.732 C29.496,11.804 27.696,12.236 25.968,12.776 L26.076,13.64 L27.624,14.756 Z M16.644,15.656 L20.136,15.152 L21.144,14.36 L21.144,14 L20.316,13.352 C18.768,13.316 17.148,13.532 15.816,13.964 L16.032,15.044 L16.644,15.656 Z M30,19.904 L27.912,19.76 L27.876,18.356 L30.252,18.608 L30,19.904 Z M25.752,20.48 L24.348,20.336 L24.6,18.608 L25.716,18.68 L25.752,20.48 Z M19.92,20.372 L19.92,19.364 L21.576,19.04 L22.188,20.048 L22.044,20.48 C21.252,20.84 20.748,20.624 19.92,20.372 Z M26.832,29.552 L26.004,29.552 L26.112,28.796 L26.868,28.94 L26.832,29.552 Z M22.908,29.984 L22.044,29.876 L22.296,29.084 L22.98,29.3 L22.908,29.984 Z M55.38,21.308 C56.496,20.552 57.576,19.4 58.548,18.068 C59.448,16.7 60.276,15.368 61.212,13.964 C61.968,12.668 62.796,11.264 63.696,9.68 C64.596,11.084 66.432,13.28 68.736,15.656 C69.888,16.844 71.472,17.96 72.912,18.536 L73.812,18.356 L74.028,17.348 C73.452,15.872 72.552,14.864 71.544,13.964 C70.536,13.064 66.792,8.528 65.964,7.16 C66.36,6.584 66.54,5.972 66.576,5.54 L66.468,4.712 C65.676,4.136 64.776,3.704 63.84,3.344 L63.012,3.272 C62.652,3.416 61.068,4.784 60.276,6.62 C59.664,8.024 59.016,9.428 58.368,10.652 C57.72,11.984 56.928,13.388 56.208,14.612 C55.452,15.908 54.804,17.312 54.372,18.752 C54.48,19.688 54.732,20.624 55.38,21.308 Z M53.508,32.36 C53.868,31.676 54.264,30.848 54.516,30.164 C54.948,29.12 55.2,27.824 55.308,26.312 C55.2,25.376 55.056,24.404 54.948,23.612 C54.84,22.856 54.48,22.172 53.976,21.488 C53.4,20.696 52.68,20.12 51.924,19.724 C51.096,19.4 50.268,19.256 49.404,18.968 L49.872,17.024 C50.34,16.124 50.952,15.332 51.672,15.08 C52.284,14.936 53.004,14.612 53.724,14.468 C54.444,14.324 55.164,14.072 55.776,13.928 L55.992,13.424 L56.064,12.164 L52.32,12.272 L49.692,12.272 L50.232,11.48 C50.592,10.796 50.952,10.04 51.204,9.32 C51.42,8.492 51.78,7.556 52.14,7.088 L51.924,6.116 C51.42,5.648 50.952,5.216 50.34,4.964 C49.764,4.82 49.152,4.46 48.54,4.352 L48.072,4.388 L48.54,5.612 C48.324,7.988 47.208,10.904 46.488,12.704 C44.508,12.812 42.276,13.1 41.556,13.1 L41.988,14.54 L45.156,16.016 C44.436,18.788 43.968,20.516 43.5,21.956 C42.888,23.576 42.42,25.196 41.916,26.672 C41.448,28.292 40.836,29.768 40.008,31.064 L40.476,31.748 L41.304,31.64 C42.42,30.884 43.356,29.984 44.076,28.724 C44.688,27.392 45.408,26.096 46.272,24.8 C46.992,23.504 47.712,22.208 48.288,20.66 C49.26,20.876 50.124,21.596 50.952,22.712 L51.564,24.512 L51.312,26.672 C50.52,28.508 50.052,28.976 49.44,28.976 C48.828,29.084 48.36,29.264 47.748,29.408 L46.416,29.084 L45.948,29.084 L46.416,29.876 C47.28,30.38 48.108,31.1 48.972,31.712 C49.8,32.396 50.772,32.864 51.6,33.332 C51.6,33.332 52.968,33.296 53.508,32.36 Z M68.088,23.972 L69.672,23.396 L69.564,22.388 C68.88,21.74 68.052,21.02 67.26,20.408 C66.288,19.904 65.496,19.58 64.596,19.328 C63.588,19.076 62.652,18.644 61.644,18.392 L60.924,18.32 L60.168,18.716 L61.068,20.912 C61.788,21.488 62.472,22.136 63.264,22.46 C63.912,22.82 64.848,23 65.784,23.144 C66.504,23.216 67.296,23.54 68.088,23.972 Z M65.64,31.568 L68.016,31.532 L69.564,30.488 L69.42,29.84 C68.664,29.3 67.908,28.796 67.26,28.292 C66.468,27.932 65.676,27.608 64.848,27.356 C63.876,27.068 63.048,26.852 62.256,26.6 C61.572,26.42 60.924,26.492 60.276,26.744 C60.204,27.392 60.42,28.184 61.212,28.724 C61.788,29.336 62.472,29.948 63.264,30.272 C63.912,30.812 64.704,31.244 65.64,31.568 Z M120.396,24.512 C121.116,24.296 121.836,24.044 122.556,23.792 L123.78,23.936 L124.5,23.684 C124.86,22.964 125.076,22.1 125.22,21.272 C125.328,20.444 125.328,19.688 125.436,18.86 C125.328,18.248 125.22,17.672 125.328,16.952 C125.436,16.34 125.328,15.728 125.364,13.064 C125.508,12.452 125.364,11.84 125.148,11.228 C124.536,10.868 123.924,10.508 123.312,10.4 C122.592,10.292 120.108,10.076 119.496,9.716 C119.784,8.636 120.396,7.916 121.224,7.304 C121.944,6.692 122.556,6.116 123.024,5.36 L123.024,4.532 C122.808,3.92 122.304,3.452 121.728,3.092 L119.172,2.984 L117.876,3.56 C117.732,4.64 117.516,5.756 117.012,6.692 C116.436,7.664 115.932,8.636 115.464,9.464 C114.852,10.436 114.6,11.516 114.6,12.704 C114.744,15.368 114.744,16.088 114.744,16.808 C114.744,17.528 114.744,18.248 114.852,18.86 C114.96,19.58 114.96,20.3 115.104,21.02 L114.96,21.884 L116.04,24.404 L118.092,24.764 C118.956,24.872 119.676,24.764 120.396,24.512 Z M138.936,34.52 L139.908,33.188 L139.764,32.108 C140.124,30.056 140.628,28.004 141.204,25.952 C141.708,23.936 142.176,21.884 142.536,19.688 C142.896,17.672 143.76,15.728 145.056,14.036 L144.84,12.956 C143.76,12.128 142.68,11.516 141.348,11.264 C140.016,11.048 138.684,10.796 137.352,10.688 C136.056,10.544 134.724,10.328 133.5,9.968 C133.752,9.212 134.112,8.492 134.472,7.916 C134.832,7.304 135.192,6.692 135.696,6.116 L135.696,5.612 L134.472,4.424 C133.5,4.28 132.672,4.424 131.844,4.784 C131.34,5.972 130.872,7.196 130.26,8.384 C129.648,9.608 129.072,10.796 128.46,11.876 C127.74,13.1 126.876,14.18 126.048,15.26 L126.156,16.952 C126.516,17.528 127.02,17.888 127.632,18.14 L127.992,18.14 C128.568,17.528 129.18,16.952 129.792,16.196 C130.368,15.62 130.872,14.9 131.232,14.036 C131.592,13.316 132.42,12.704 132.42,12.704 C133.392,12.812 134.688,12.668 135.66,12.812 C136.596,12.92 137.46,13.28 138.288,13.784 C138.468,14.396 138.324,15.368 138.216,16.196 C137.964,17.06 137.856,18.032 137.712,18.86 C137.604,19.832 136.776,23.792 136.632,24.656 C136.524,25.484 136.272,26.204 136.056,27.032 L135.336,27.428 L134.364,27.284 C133.5,27.284 132.78,27.428 132.204,27.536 C131.484,27.788 130.728,28.004 130.008,28.256 L130.008,28.616 C130.62,28.976 131.34,29.336 132.06,29.696 C132.672,30.056 133.392,30.416 134.004,30.884 C134.616,31.388 135.084,32 135.444,32.72 C135.912,33.08 136.416,33.296 136.884,33.656 C137.244,34.016 137.712,34.376 138.324,34.52 L138.936,34.52 Z M121.116,15.584 L118.596,15.332 L117.984,14.756 L118.236,12.848 L118.596,12.704 C119.424,12.596 120.144,12.704 120.864,13.1 L121.296,14.756 L121.116,15.584 Z M117.876,21.632 L117.984,17.996 C118.596,18.104 120.864,18.248 121.368,18.356 C121.836,19.184 122.088,20.552 122.088,20.552 C122.196,20.912 122.088,21.272 121.728,21.524 C118.704,22.1 118.236,21.992 117.876,21.632 Z M133.752,22.388 L136.164,22.136 L136.416,21.56 L135.912,20.696 C135.336,20.336 134.724,19.976 134.112,19.724 C133.392,19.508 132.672,19.256 132.06,19.148 C131.34,19.004 130.62,18.896 130.008,18.644 C129.18,18.536 128.352,18.644 127.74,19.004 C128.352,19.508 128.928,20.084 129.54,20.84 C130.152,21.308 130.872,21.668 131.592,21.776 C132.312,21.92 133.032,22.136 133.752,22.388 Z M173.532,35.6 L174.216,35.492 C174.576,35.024 174.792,34.412 174.936,33.8 C174.936,33.188 175.08,32.468 175.188,31.892 L175.08,30.776 C175.188,30.2 175.188,29.48 175.332,28.76 C175.332,28.148 175.332,27.428 175.44,26.708 C175.44,26.096 175.62,25.376 175.764,24.764 C176.52,24.404 177.312,24.296 178.068,24.296 L179.004,23.432 L178.752,22.856 C178.284,22.136 177.672,21.632 176.844,21.524 C176.016,21.416 175.188,21.164 174.432,20.912 L174,20.192 C173.856,19.58 174,19.004 174.324,18.392 L176.16,17.564 C176.268,16.7 176.52,15.872 176.952,15.008 C177.42,14.288 177.708,13.46 177.816,12.596 L179.148,11.408 C179.148,10.796 178.896,10.22 178.572,9.86 C177.924,9.356 177.168,9.104 176.16,8.996 C175.26,8.996 174.432,8.888 173.532,8.744 C172.164,8.996 171.084,8.888 170.292,8.528 L170.688,7.304 L172.56,7.304 C173.532,7.304 174.36,7.196 175.008,6.836 L174.396,5.396 C173.856,4.892 173.244,4.676 172.452,4.676 C172.452,4.676 171.516,4.604 170.76,4.496 C170.4,4.136 170.256,3.668 170.256,3.056 C170.256,2.444 170.148,1.976 169.932,1.472 L167.304,1.04 L166.8,1.184 L167.484,2.516 L167.304,4.424 L163.668,4.892 L161.436,5.036 L161.436,5.504 C161.868,6.368 162.48,7.088 163.128,7.664 C163.56,7.808 164.1,7.664 166.908,7.448 L167.592,8.024 L167.484,8.996 L162.804,9.86 L162.084,9.716 L161.508,9.968 C161.868,10.688 162.12,11.408 162.3,12.236 C162.444,13.1 162.552,14.072 162.732,14.9 C162.732,15.728 162.984,16.592 163.344,17.312 C163.344,17.312 164.352,18.536 165.648,18.752 L170.292,18.5 C170.76,18.86 171.084,19.364 171.192,19.94 L171.084,21.056 C169.716,21.272 168.492,21.416 167.304,21.524 C166.008,21.632 164.82,21.776 163.56,21.884 C162.408,21.992 161.184,22.352 160.104,22.712 L159.816,24.188 C159.708,24.764 159.816,25.376 160.14,25.844 L161.652,26.24 L161.688693,26.2394027 C161.844,26.23552 162.468,26.2064 163.092,25.988 C163.812,25.628 164.64,25.376 165.648,25.268 C166.404,25.268 167.304,25.124 168.096,25.016 C168.888,24.908 169.716,24.764 170.58,24.656 L171.588,24.764 L171.876,26.708 L171.876,28.868 L171.876,28.868 C171.876,29.696 171.768,30.416 171.228,31.028 L169.572,30.776 C169.572,30.776 166.404,30.956 165.9,31.388 L165.936,32.252 C166.584,32.612 167.52,33.08 168.312,33.548 C169.104,34.052 169.896,34.412 170.868,34.772 C171.768,35.132 172.632,35.384 173.532,35.6 Z M179.58,5.504 C179.58,4.892 179.4,4.316 179.292,3.704 C179.04,3.092 178.752,2.624 178.536,2.012 L176.952,1.292 C176.34,1.184 175.512,1.184 174.864,1.292 C174.216,1.4 173.604,1.544 173.136,1.76 L174.072,3.344 C174.684,3.956 175.368,4.424 176.052,4.784 C176.736,5.252 177.528,5.612 178.32,5.756 C178.824,5.864 179.256,5.756 179.58,5.504 Z M156.684,32.468 C157.044,31.892 157.296,31.28 157.44,30.416 C157.548,29.588 157.656,28.868 157.944,28.148 C158.196,27.428 158.304,26.708 158.448,25.844 C158.196,24.044 158.412,21.452 158.592,20.084 C158.484,19.328 158.7,18.5 158.7,17.924 C158.592,17.312 158.592,16.556 158.808,14.936 L160.968,14.324 C160.968,14.324 161.58,14.108 161.508,13.388 C161.508,12.776 160.788,12.2 160.788,12.2 L158.664,11.876 L157.98,10.94 C157.872,10.22 157.728,9.464 157.728,8.636 C157.584,7.916 157.332,7.304 156.828,6.728 C155.532,6.584 154.704,6.728 154.128,7.088 C154.38,7.664 154.488,8.276 154.632,8.888 C154.776,9.608 154.776,10.328 154.884,10.94 L154.776,11.66 L152.436,12.02 C151.824,12.128 151.284,12.236 150.816,12.596 C150.276,12.956 149.556,13.316 149.34,13.676 C149.484,14.756 152.076,15.512 152.076,15.512 L155.064,15.116 L155.028,19.58 L154.632,28.148 L154.632,29.84 L154.632,29.84 C154.632,30.416 154.776,31.028 154.992,31.532 L155.856,32.468 L156.684,32.468 Z M173.604,12.74 L170.724,12.56 L170.616,11.66 L171.12,11.516 C171.984,11.408 173.316,11.516 173.928,12.02 L173.604,12.74 Z M167.376,12.956 L165.828,12.74 L165.972,11.768 L166.512,11.66 L167.556,11.768 L167.376,12.956 Z M167.52,16.088 L166.152,16.052 L166.224,15.26 L166.836,15.152 L167.628,15.26 L167.88,15.62 L167.52,16.088 Z M170.904,15.872 L170.652,15.224 L173.532,15.26 L173.532,15.98 L173.028,16.088 C172.272,16.232 171.624,16.088 170.904,15.872 Z M165,29.948 L166.26,29.696 L168.204,29.84 C168.78,29.948 169.104,29.84 169.392,29.48 L169.212,28.868 C168.924,28.4 168.42,28.148 167.772,28.04 C167.052,27.896 166.332,27.788 165.792,27.428 L163.38,27.68 L163.128,27.788 L163.128,28.148 L165,29.948 Z M215.292,32.648 C216.12,30.956 216.588,29.012 216.588,26.852 C216.48,24.8 216.588,22.64 216.84,20.588 C217.092,18.536 217.308,16.628 217.668,14.576 C217.812,13.856 217.668,13.244 217.308,12.632 C216.228,12.056 215.04,11.552 213.708,11.192 C212.376,10.832 211.08,10.724 209.748,10.616 C208.416,10.616 207.084,10.364 205.896,9.896 L206.364,7.7 L206.364,5.9 L206.364,5.9 C206.364,5.288 206.256,4.82 205.896,4.352 L204.816,3.992 L203.592,4.1 C203.232,5.072 202.98,6.044 202.62,6.98 C202.26,7.952 201.9,8.924 201.54,9.752 C201.18,10.724 200.568,11.624 199.812,12.488 L199.236,11.516 C198.768,11.156 197.94,11.084 197.328,10.976 C196.608,10.976 195.996,10.832 195.42,10.724 C195.06,10.256 194.916,9.644 195.132,8.024 L195.132,6.116 L195.132,6.116 L194.268,5.144 C193.332,5.036 192.468,5.144 191.64,5.396 L191.496,5.612 L192.108,7.052 L192.036,10.364 L191.316,11.192 L190.488,10.832 L190.956,9.14 L190.596,7.124 C189.984,6.512 189.264,6.26 188.436,6.152 C187.824,6.044 187.356,6.152 186.852,6.404 L186.996,6.98 C186.996,8.06 186.852,9.14 186.492,10.112 C186.132,11.084 185.772,12.056 185.52,13.028 C185.16,13.964 184.944,14.936 184.8,16.016 C184.692,16.88 184.8,17.6 185.052,18.176 C185.304,18.896 185.664,19.616 186.024,20.228 L186.996,19.868 C187.572,19.148 188.076,18.32 188.436,17.456 C188.796,16.628 189.012,15.764 189.408,14.936 L190.344,14.468 C190.848,14.324 191.208,14.576 191.568,14.936 C191.676,15.656 191.208,18.428 191.064,19.04 C190.488,19.508 189.876,19.868 189.156,19.976 C188.436,20.228 187.716,20.48 187.104,20.732 C186.492,21.092 185.772,21.308 185.052,21.56 L184.224,22.64 L184.944,23.36 C185.916,23.72 186.636,24.224 187.356,24.584 C188.184,24.44 189.012,24.08 189.876,23.612 L190.488,23.72 L190.848,25.304 C191.064,26.24 190.848,27.212 190.56,27.968 C190.92,28.796 191.064,29.264 191.424,30.092 C191.784,30.956 192.288,31.676 192.756,32.504 L193.476,32.396 L194.34,30.452 C194.34,28.904 194.448,27.932 194.556,27.104 C194.556,26.24 194.556,25.304 194.7,24.332 C194.7,23.468 194.916,22.64 195.276,21.812 C195.888,21.308 196.5,20.948 197.112,20.588 C197.688,20.372 198.192,19.976 198.66,19.508 L199.02,19.616 L199.992,21.308 L200.46,21.2 L204.456,13.748 L204.924,13.856 C204.564,15.044 204.096,16.268 203.484,17.348 C202.872,18.536 202.152,19.76 201.54,20.84 C200.82,21.92 200.244,23.108 199.632,24.332 C199.632,24.944 199.74,25.52 199.848,26.132 C199.992,26.744 200.244,27.212 200.46,27.824 L201.792,26.96 C202.764,25.664 203.592,24.224 204.456,22.748 C205.284,21.308 206.004,19.868 206.832,18.428 C207.588,16.988 208.164,15.404 208.524,13.856 L209.136,13.856 L209.676,14.108 C209.316,15.548 208.884,17.24 208.416,18.536 C207.948,19.868 207.444,21.2 206.832,22.532 C206.256,23.864 205.644,25.16 204.924,26.384 L205.176,26.852 C205.896,26.492 206.616,26.132 207.192,25.664 C208.164,24.44 209.028,23.252 209.748,21.92 C210.324,20.588 210.936,19.256 211.296,17.816 C211.656,16.52 212.016,15.044 212.268,13.604 L212.88,13.604 L213.6,14.468 C213.6,15.764 213.6,17.096 213.456,18.428 C213.348,19.76 213.348,21.092 213.348,22.388 C213.24,23.72 213.096,25.052 212.88,26.24 C212.268,26.6 211.656,26.852 210.936,26.96 C210.216,27.104 209.496,27.104 208.776,27.104 C207.948,27.104 207.192,27.212 206.472,27.356 L208.164,29.624 C208.776,30.236 209.388,30.596 210.108,30.812 C210.828,31.064 211.548,31.424 212.16,31.784 C212.736,32.144 213.456,32.504 214.176,32.648 L215.292,32.648 Z M195.528,17.708 L195.816,14.36 C196.428,13.856 198.768,13.964 199.128,14.216 C199.02,14.828 198.912,15.296 198.768,15.908 C198.66,16.52 198.408,17.096 198.048,17.708 L196.752,18.068 C196.248,18.176 195.888,18.068 195.528,17.708 Z M235.38,34.16 L236.1,34.016 L236.712,32.936 C236.712,32.108 236.712,31.388 236.568,30.524 C236.46,29.804 236.1,29.084 235.74,28.364 C235.272,27.788 234.768,27.032 234.408,26.456 L233.22,25.736 L231.384,25.844 L231.78,26.312 L232.716,28.148 L232.356,28.724 C231.888,28.616 228.288,30.056 227.676,30.164 L226.704,30.056 C226.452,28.868 226.596,28.148 226.704,27.284 C226.812,26.564 227.064,25.844 227.316,25.124 C227.892,24.656 228.504,24.404 229.368,24.404 C230.196,24.512 231.312,24.728 231.924,24.368 C232.536,24.008 233.148,23.792 233.58,23.324 C234.3,22.712 234.768,21.884 234.876,21.02 C235.02,20.192 235.128,19.22 235.272,18.392 C235.128,17.78 235.02,17.312 234.876,16.7 C234.768,16.088 234.408,15.62 234.048,15.26 C233.688,14.9 233.22,14.648 232.608,14.54 C231.996,14.54 231.528,14.396 231.168,14.18 L231.384,11.768 C231.528,11.156 231.384,10.688 231.168,10.328 L229.476,9.716 C228.864,9.608 228.396,9.716 228.036,9.968 L228.756,12.596 L228.396,14.288 L226.092,14.648 C225.732,14.756 225.372,14.648 225.156,14.288 C225.516,13.46 226.956,10.436 227.316,9.608 C227.676,8.852 228.036,8.132 228.504,7.412 C229.368,7.772 230.088,8.384 230.808,8.996 C231.384,9.608 232.14,10.184 232.968,10.544 C233.796,11.048 234.516,11.516 235.38,11.876 L236.1,11.624 L236.568,10.544 C236.712,9.968 236.568,9.356 236.208,8.996 C235.632,8.276 234.876,7.664 234.156,7.196 C233.436,6.692 230.808,4.64 229.944,4.28 L229.368,3.704 L226.956,2.84 C226.452,2.732 225.984,2.84 225.624,3.092 C225.588,4.82 225.156,7.052 224.292,8.636 C223.464,10.184 222.6,11.876 221.772,13.46 C220.8,15.008 220.188,16.808 220.08,18.608 L220.332,20.552 C220.332,20.552 221.16,20.876 221.412,20.444 C221.772,20.048 222.96,18.788 223.464,17.888 L224.184,19.328 C224.292,20.444 224.184,21.38 224.04,22.352 C223.824,23.324 223.68,24.296 223.68,25.376 C223.68,26.456 223.572,27.428 223.464,28.364 C223.68,28.976 223.824,29.696 223.824,30.308 C223.824,31.028 223.932,31.64 224.184,32.216 L225.264,33.44 C226.344,33.548 227.316,33.44 228.288,33.08 C229.116,32.828 230.088,32.576 230.916,32.36 L233.4,30.812 C233.508,31.424 234.048,32.108 234.408,32.576 C234.66,33.188 235.02,33.656 235.38,34.16 Z M247.008,33.296 L249.996,32.576 C250.14,31.712 250.428,30.632 250.68,29.768 C250.788,28.94 251.148,27.536 251.256,26.672 L251.04,25.844 C250.428,25.376 249.708,25.016 248.988,24.872 C248.268,24.764 247.548,24.764 246.684,24.656 C245.856,24.512 245.136,24.404 244.128,24.224 L244.164,22.82 L246.108,22.82 L246.108,22.82 C246.684,22.964 247.188,22.82 247.656,22.712 C248.124,22.1 248.484,21.38 248.844,20.552 C249.096,19.832 249.456,19.112 249.816,18.392 C250.176,17.78 250.32,16.952 250.32,16.088 L251.256,16.448 L251.976,16.196 L253.056,14.036 L253.056,14.036 C253.452,13.46 253.668,12.704 253.812,11.876 C253.92,11.048 253.812,10.436 253.452,9.824 C252.588,9.212 251.76,8.996 250.788,8.852 C248.808,8.78 246.324,8.744 245.856,8.492 C246.216,8.024 246.468,7.412 246.576,6.836 C246.576,6.224 246.684,5.504 246.828,4.892 L246.828,4.172 C245.964,3.56 244.992,3.344 243.912,3.452 L243.444,3.56 L243.84,5.792 C243.84,6.692 243.624,7.412 243.408,8.672 C242.688,8.78 239.952,9.104 239.232,9.212 C238.512,9.356 237.792,9.716 237.18,10.076 C237.288,10.904 237.432,11.624 237.54,12.344 C237.648,13.208 237.792,13.928 237.9,14.756 C238.008,15.62 238.26,16.34 238.512,17.06 L239.484,18.14 L240.312,17.888 L240.672,16.7 L240.42,11.984 C241.284,11.768 242.22,11.624 243.336,11.624 L249.708,11.984 L250.428,13.46 L250.428,14.396 L249.564,15.008 C248.844,15.008 247.98,14.648 247.224,14.396 C246.612,14.288 244.272,13.928 243.696,13.82 C242.976,13.676 242.076,13.82 241.464,14.036 L241.572,17.168 C241.464,18.392 241.356,19.328 241.212,20.192 C241.104,21.02 240.996,21.992 240.996,22.82 C240.996,23.792 240.384,26.672 240.384,27.284 C240.276,28.688 240.384,29.3 240.204,31.604 C240.456,32.216 240.816,32.684 241.284,33.044 L247.008,33.296 Z M244.812,20.012 L243.984,19.436 C244.092,18.572 244.56,16.556 244.56,16.556 C245.172,16.664 246.216,16.592 246.684,17.06 C246.828,18.14 246.612,19.076 246.036,19.436 L244.812,20.012 Z M227.892,18.392 L228.252,17.672 C229.944,17.528 230.808,17.672 231.528,18.14 L231.276,18.608 C230.304,18.752 228.756,18.608 227.892,18.392 Z M227.64,21.812 L227.748,21.128 C228.936,20.912 231.636,21.164 232.14,21.524 L231.78,22.136 C230.448,22.352 228.144,22.028 227.64,21.812 Z M247.008,30.092 L243.624,29.732 L244.128,26.492 L247.188,26.924 L247.908,27.644 C247.98,28.868 247.728,29.228 247.368,29.84 L247.008,30.092 Z M284.736,34.448 L285.24,33.836 C284.844,32.036 284.448,30.2 284.34,28.4 C284.088,26.6 283.908,24.692 283.8,23.612 C283.656,21.812 283.548,20.012 283.152,18.212 L283.152,15.692 L283.152,15.692 C283.044,14.828 283.26,14 283.656,13.388 L283.44,12.416 C282.828,11.84 282.072,11.336 281.136,11.228 C280.308,11.12 279.228,11.12 278.292,10.976 L276.276,11.12 L275.088,10.76 C275.628,10.148 276.168,9.644 276.708,9.068 C277.284,8.564 277.824,8.096 278.472,7.484 C278.976,7.016 279.696,6.656 280.308,6.404 L280.74,5.576 L280.416,4.496 C279.804,3.884 278.904,3.416 278.004,3.272 C277.104,3.164 276.06,3.056 275.16,3.056 L274.116,3.164 C272.892,3.272 271.812,3.164 270.732,3.056 C269.688,2.912 268.608,2.552 267.708,2.192 L266.16,2.3 C265.944,3.164 265.512,3.884 265.008,4.604 C264.468,5.324 263.928,6.044 263.424,6.764 C262.74,7.484 262.38,8.204 262.02,9.068 L262.02,10.04 L263.172,10.976 L263.748,10.976 C264.468,10.616 265.116,10.148 265.476,9.536 C265.872,8.924 266.268,8.456 266.772,7.844 C267.384,7.376 267.852,6.908 268.248,6.296 C268.932,5.432 269.94,5.072 271.164,5.072 C272.172,4.964 272.964,5.216 273.756,5.576 C273.576,6.296 273.324,7.016 273.036,7.628 C272.676,8.204 272.28,8.816 271.884,9.428 C271.308,10.04 270.804,10.616 270.408,11.228 C269.832,11.588 269.256,11.84 268.536,11.948 C267.924,12.056 267.276,12.2 266.52,12.308 L265.26,11.948 L263.928,12.416 L263.568,14.108 L263.676,15.548 C263.568,17.132 263.46,18.68 263.064,20.12 C262.632,21.596 262.38,23.036 261.66,26.42 C261.408,28.004 261.156,29.444 260.76,30.992 L261.048,32.936 L262.488,33.764 L263.1,33.548 C263.856,32.576 264.54,31.604 264.9,30.524 C265.296,29.444 265.692,28.364 265.944,27.284 C266.196,26.204 267.06,23.936 267.456,23.144 C268.752,22.928 273.54,22.568 274.728,22.424 C275.952,22.316 276.96,22.208 278.148,22.064 L279.372,22.316 L280.2,25.988 L280.092,27.572 C279.156,27.932 278.292,28.04 277.356,27.932 C276.456,27.824 275.592,27.932 274.98,28.184 L275.016,28.652 L277.5,30.092 C278.04,30.452 278.544,30.812 279.156,31.316 C279.552,31.784 279.912,32.252 280.164,32.756 C280.92,33.476 281.712,34.052 282.576,34.448 L284.736,34.448 Z M275.16,14.936 L275.736,13.928 L277.752,13.568 L278.508,14.54 L278.076,16.016 C276.852,16.124 275.556,16.196 275.16,14.936 Z M269.256,16.232 L268.284,15.872 L268.752,14.468 L270.984,14.648 L270.84,16.016 L269.256,16.232 Z M274.296,19.724 L274.728,18.644 L275.988,18.068 C276.996,17.924 277.968,18.068 278.832,18.284 L279.3,19.148 L278.976,19.976 C278.04,20.084 277.248,20.084 276.564,20.084 C275.772,20.228 275.088,20.084 274.296,19.724 Z M268.104,20.084 L268.212,18.788 C269.472,18.536 270.048,18.644 270.66,18.896 L271.128,19.616 L270.804,20.228 L269.508,20.444 C268.896,20.588 268.392,20.444 268.104,20.084 Z M319.656,34.016 L320.376,32.828 L320.628,28.616 C320.736,27.608 320.628,26.636 320.484,25.664 C320.376,24.836 320.016,23.972 319.404,23.252 L319.044,23.396 L316.776,27.896 C316.416,28.256 315.444,30.164 314.976,30.524 C313.644,30.524 312.42,30.416 311.232,30.308 C309.9,30.164 308.712,29.948 307.488,29.804 C306.3,29.696 304.392,30.128 303.708,29.912 C302.844,29.552 302.088,28.976 301.98,28.328 C301.872,27.68 302.304,26.168 303.348,24.908 L307.956,24.728 L314.364,24.62 C314.94,24.26 315.66,23.684 316.02,23.072 C316.272,22.496 317.64,20.912 318.108,20.048 C318.612,19.328 318.972,18.608 319.332,17.78 C319.584,16.952 319.8,16.088 320.052,15.26 C320.16,14.288 320.052,13.46 319.692,12.704 C319.08,12.128 318.36,11.768 317.532,11.516 C316.668,11.408 314.22,11.516 313.392,11.408 C313.5,10.796 313.86,9.716 314.22,9.104 C314.616,8.492 314.976,8.024 315.444,7.412 C315.912,6.944 316.272,6.332 316.524,5.756 C316.632,5.144 316.524,4.532 316.164,4.064 C315.336,3.452 314.472,3.092 313.5,2.84 L313.032,2.984 L304.14,3.56 C303.528,3.56 303.024,3.56 302.556,3.452 C301.944,3.452 301.476,3.344 301.008,3.2 L300.144,3.2 C299.532,3.704 298.956,4.28 298.596,5 C298.092,5.756 297.624,6.332 297.156,6.944 C296.544,7.556 296.04,8.276 295.572,8.996 L295.464,10.292 L295.68,11.876 C296.292,11.984 296.76,12.452 297.264,12.596 C298.524,12.452 299.316,11.408 300.036,10.688 C300.756,10.076 301.476,9.356 302.196,8.636 C302.916,7.916 303.636,7.196 304.356,6.476 L305.796,5.972 L307.632,5.972 C308.568,5.972 309.432,6.224 310.26,6.584 C310.26,7.412 310.152,8.276 310.008,9.104 C309.9,9.968 309.54,10.796 309.18,11.516 C308.1,12.128 306.876,12.488 305.58,12.596 C304.248,12.704 302.916,12.848 301.584,13.1 C299.712,13.532 298.488,13.748 297.156,13.892 L298.128,16.16 L299.244,17.42 C299.1,18.248 297.912,24.476 297.768,25.34 C297.66,26.168 297.768,26.888 297.912,27.608 C298.02,28.472 298.128,29.192 298.38,29.768 C298.632,30.38 298.992,31.1 299.352,31.712 C300.9,33.044 302.592,33.764 304.536,33.98 C307.128,33.656 309.072,33.908 310.98,34.016 C312.924,34.268 314.832,34.52 316.776,34.628 C317.856,34.772 318.828,34.52 319.656,34.016 Z M313.32,21.164 L310.872,21.164 C310.872,20.3 311.124,19.688 311.484,19.112 C311.844,18.5 311.916,17.852 312.276,17.276 L312.42,15.836 L314.4,15.836 C314.508,16.808 314.508,17.528 314.4,18.14 C314.256,18.752 314.04,19.328 313.32,21.164 Z M303.816,20.156 L304.392,16.664 L305.58,16.088 C306.156,15.98 306.66,16.088 307.02,16.448 C307.128,17.42 306.912,19.364 306.3,20.084 L304.752,20.66 C304.392,20.768 304.032,20.516 303.816,20.156 Z M331.824,19.688 L334.344,18.356 C334.704,17.888 335.064,17.384 335.424,16.916 C335.784,16.448 336.324,15.656 336.324,15.656 L336.504,16.448 L336.756,17.024 C337.584,17.168 338.304,17.024 338.916,16.808 C338.916,16.196 339.024,15.692 339.384,15.224 L343.02,16.196 C343.488,16.304 343.848,16.196 344.208,15.836 L344.1,15.116 C343.488,14.252 342.768,13.676 341.94,13.316 C341.076,12.956 340.356,12.56 339.528,12.2 L339.636,11.624 C340.464,11.48 341.328,11.264 342.156,11.012 C343.02,10.76 343.74,10.544 344.568,10.292 C345.18,10.184 345.54,9.824 345.9,9.32 C345.792,8.708 345.54,8.492 344.928,8.492 C344.1,8.492 343.236,8.6 342.408,8.708 C341.58,8.96 340.608,9.212 339.744,9.32 L339.276,9.068 L339.384,8.6 L339.888,8.348 C340.608,7.772 341.328,7.16 342.156,6.548 C343.02,5.972 343.74,5.36 344.46,4.748 L344.208,4.136 C343.596,3.56 342.876,3.308 342.048,3.2 C341.22,3.2 340.464,3.056 339.744,2.84 L339.384,2.948 C339.168,3.56 338.916,4.28 338.808,5 L338.448,4.856 L338.304,4.388 C338.088,3.92 337.836,3.416 337.584,2.948 C337.224,2.588 336.864,2.228 336.252,2.12 C335.676,1.976 335.064,2.228 334.704,2.588 C334.956,3.056 335.172,3.56 335.316,4.028 C335.424,4.496 335.676,6.908 335.676,7.628 C335.676,8.348 335.532,9.068 335.316,9.68 C334.596,9.932 333.876,10.184 333.12,10.292 L332.256,10.42736 C331.824,10.49216 331.392,10.544 330.96,10.544 C330.132,10.652 329.412,10.76 328.692,10.904 L328.8,11.372 C329.412,11.732 330.132,11.984 330.96,12.092 C331.68,12.2 332.4,12.452 333.12,12.56 C333.012,13.424 332.652,14.252 332.04,14.864 C331.464,15.584 331.104,16.304 330.744,17.168 L330.852,18.716 L331.824,19.688 Z M347.448,27.032 C348.42,26.888 349.392,26.78 350.472,26.78 C351.444,26.78 355.044,26.348 355.908,25.988 C356.736,25.844 357.168,25.988 357.708,26.42 L358.284,26.312 L358.896,24.728 L358.536,23.396 C358.788,21.74 358.788,20.516 358.644,19.328 C358.536,18.104 358.284,16.916 358.068,15.692 C357.708,14.612 357.456,13.424 357.096,12.344 C356.484,11.84 355.764,11.48 354.936,11.372 C354.072,11.264 353.244,11.264 352.416,11.12 C351.552,11.12 350.724,11.012 349.86,10.76 L351.444,8.492 C352.164,7.628 352.776,6.692 353.64,6.188 C354.468,5.72 355.656,5.612 356.484,5.216 C357.348,4.856 358.284,4.64 359.256,4.28 L359.148,3.92 C358.536,3.416 357.816,3.2 356.988,3.056 C356.124,2.948 355.296,2.84 354.432,2.696 C353.604,2.588 350.58,2.696 349.86,2.84 C349.14,2.948 348.42,3.2 347.7,3.308 L346.98,3.2 L346.008,3.416 L346.62,4.748 C347.448,5 348.312,5.468 349.032,6.08 L347.952,8.492 L346.512,9.824 L346.08,11.012 C345.828,13.28 346.656,15.116 346.512,15.836 L346.62,19.796 L346.62,23.036 L346.62,23.036 C346.62,23.792 346.512,24.512 346.368,25.088 L346.116,26.168 L347.448,27.032 Z M334.092,7.88 L334.596,7.628 L334.956,6.692 C335.064,5.612 334.956,4.748 334.452,4.136 L331.32,4.388 L330.024,5.36 L330.024,5.828 L330.6,6.332 C331.788,6.332 332.112,6.656 332.472,7.016 C332.832,7.376 333.624,7.52 334.092,7.88 Z M353.856,16.448 L349.752,16.052 L349.608,14.18 L353.604,14.216 C353.676,14.936 354.36,15.944 353.856,16.448 Z M333.372,34.376 C334.092,34.232 334.704,34.016 335.316,33.512 C335.676,32.936 335.892,32.216 336.252,31.496 C336.504,30.74 336.756,30.02 336.972,29.3 C337.116,28.58 337.476,27.86 337.836,27.284 C338.556,27.392 340.86,29.3 341.436,29.66 C342.048,30.02 342.66,30.38 343.236,30.74 L344.136,30.344 L344.136,29.84 C343.668,29.264 343.2,28.544 342.696,27.932 C342.12,27.32 339.708,25.268 339.096,24.8 L339.024,24.368 C339.636,23.792 340.248,23.288 341.076,23.18 L342.156,22.1 L342.048,21.596 L339.888,20.66 L340.608,19.436 C340.464,18.608 340.104,17.996 339.528,17.636 C338.916,17.528 338.304,17.528 337.728,17.636 C337.116,17.744 336.504,17.996 336.036,18.248 C335.424,18.716 335.172,19.328 335.172,20.048 C335.064,20.768 334.956,21.488 334.704,22.1 C333.984,22.676 333.264,23.036 332.4,23.18 C331.572,23.396 330.744,23.792 330.024,24.368 L330.24,25.088 C330.744,25.7 331.212,26.06 331.824,26.168 C332.4,26.42 332.904,26.672 333.516,26.888 C333.372,27.644 333.264,28.364 333.12,28.94 C333.012,29.66 332.76,30.38 332.544,30.992 C332.184,31.712 331.824,32.324 331.464,32.936 L331.68,33.656 L333.372,34.376 Z M349.788,19.76 L349.86,18.824 L350.22,18.716 L352.416,18.716 L352.416,18.716 C353.136,18.716 353.856,18.824 354.432,18.968 L354.324,19.436 C353.712,19.544 352.992,19.688 352.416,19.688 C351.696,19.688 350.976,20.012 349.788,19.76 Z M350.94,23.9 L349.644,23.792 L349.86,22.568 L350.832,22.82 C351.444,22.676 352.164,22.676 352.776,22.568 C353.352,22.46 353.856,22.316 354.432,22.1 C354.792,21.956 355.188,22.208 355.404,22.568 L355.188,23.036 L350.94,23.9 Z M347.232,34.232 C347.952,34.016 348.564,33.512 349.032,32.936 C349.5,32.324 350.112,31.712 350.724,31.352 C351.3,30.992 352.056,30.632 352.776,30.524 C353.352,30.272 353.856,29.912 354.216,29.3 L354.216,28.472 C353.856,27.86 353.352,27.5 352.776,27.284 L349.86,27.284 L349.86,27.284 C348.924,27.284 348.06,27.5 347.34,28.112 C346.98,28.724 346.62,29.3 346.368,29.912 C346.152,30.524 346.008,31.244 345.9,31.964 C346.26,32.792 346.62,33.512 347.232,34.232 Z M360.696,34.628 L361.308,34.232 C360.948,33.656 360.696,32.936 360.48,32.324 C360.12,31.712 359.76,30.992 359.148,30.38 C358.536,29.804 358.068,29.3 357.456,28.832 C356.376,28.58 355.404,28.832 354.684,29.444 L354.684,29.912 C355.296,30.524 356.016,31.136 356.628,31.712 C357.204,32.324 357.924,32.936 358.644,33.296 C359.256,33.764 359.976,34.232 360.696,34.628 Z M393.96,22.82 L394.428,22.712 C394.788,21.632 395.148,20.552 395.292,19.328 C395.4,18.248 395.4,17.06 395.508,15.836 L395.508667,15.2315 C395.512,14.194 395.532,12.944 395.652,10.544 C395.652,9.716 395.652,8.96 395.508,8.132 C395.4,7.304 395.292,6.584 394.932,5.972 C394.572,5.36 394.068,4.64 393.6,4.028 L392.016,3.452 L391.656,3.56 C392.016,4.388 392.16,5.36 392.016,7.52 L392.016,16.304 L391.656,17.636 C391.188,17.996 390.576,18.248 389.964,18.356 C389.388,18.5 388.668,18.716 388.056,18.86 L388.164,19.22 C388.884,19.58 389.604,19.94 390.216,20.3 C390.828,20.66 391.44,21.128 392.016,21.632 C392.628,22.208 393.24,22.568 393.96,22.82 Z M386.724,14.144 L387.696,13.928 C387.804,13.064 388.056,12.344 388.416,11.624 C388.776,10.904 389.028,10.184 389.136,9.32 C389.244,8.6 389.496,7.88 389.856,7.16 C389.856,6.332 389.604,5.468 389.244,4.748 L387.696,4.172 L385.752,4.028 L385.284,4.172 L384.312,8.852 C384.312,9.716 384.456,10.544 384.672,11.372 C384.924,12.236 385.176,13.064 385.536,13.784 L386.724,14.144 Z M377.58,20.552 L378.66,20.3 C379.02,19.436 379.128,18.5 379.272,17.42 C379.272,16.304 379.524,15.368 379.884,14.504 C380.46,14.144 381.324,14.036 382.152,14.144 C382.98,14.288 383.592,14.036 384.204,13.676 L383.952,12.596 C383.376,12.092 382.62,11.876 381.792,11.732 C380.964,11.732 380.244,11.624 379.524,11.516 C379.524,10.292 379.632,9.572 379.992,7.916 C380.82,7.556 381.684,7.448 382.512,7.448 L383.124,6.836 L382.872,6.224 C382.26,5.864 381.54,5.504 380.82,5.288 C380.1,5.036 379.38,4.928 378.66,4.784 L375.636,4.784 L375.636,4.784 C374.7,4.784 373.728,4.928 372.756,5.036 C371.784,5.288 370.056,5.576 369.192,5.828 L369.264,6.728 L371.676,7.916 L371.064,11.624 C370.344,11.984 369.624,12.092 368.796,12.236 C367.932,12.344 367.212,12.452 365.052,12.596 L364.692,13.532 L366.132,14.504 C368.04,14.612 369.624,14.648 370.128,15.008 L369.768,17.996 L369.876,19.328 L370.848,20.408 L372.396,20.048 C373.008,19.22 373.476,18.356 373.836,17.42 C374.196,16.556 374.736,14.72 374.736,14.72 L375.852,14.792 L376.608,19.328 C376.752,19.796 377.112,20.156 377.58,20.552 Z M374.988,10.94 L374.88,10.58 C374.88,9.86 375.096,8.312 375.636,7.808 L376.248,7.916 C376.392,9.572 376.248,10.184 375.78,10.904 L374.988,10.94 Z M394.68,32.468 L394.572,31.748 C393.6,30.884 392.52,30.416 391.332,30.164 C391.332,30.164 390,30.056 388.812,29.912 C387.48,29.804 386.256,29.552 384.924,29.336 C384.528,27.536 384.42,26.636 384.78,26.024 C385.392,25.664 386.256,25.592 387.12,25.592 C387.84,25.7 388.56,25.592 389.172,25.232 L389.028,24.512 C388.416,24.152 387.696,23.792 386.976,23.648 C386.148,23.54 385.428,23.432 384.564,23.288 C384.204,22.82 383.988,22.352 383.844,21.74 C383.628,21.128 383.376,20.66 383.124,20.048 C383.124,20.048 382.872,18.932 382.008,19.004 C381.396,19.184 381.324,19.58 381.324,19.58 C380.964,20.156 380.244,21.884 379.884,23.36 C378.948,23.576 377.58,23.648 376.644,23.648 C375.564,23.648 374.592,23.792 373.62,24.044 L373.728,24.404 C374.232,24.98 374.844,25.232 375.564,25.34 C376.14,25.484 376.86,25.592 377.58,25.592 L380.352,25.844 C380.964,26.672 381.036,27.536 381.288,29.084 C380.208,29.336 379.272,29.444 378.192,29.444 C376.284,29.552 375.204,29.696 374.124,29.804 C373.008,30.056 371.928,30.416 370.848,30.776 L370.992,31.136 C371.568,31.964 372.432,32.324 373.512,32.216 L376.392,32.216 L376.392,32.216 C378.084,32.324 379.056,32.324 379.992,32.468 L384.42,32.432 L391.584,32.684 L393.24,32.684 L393.24,32.684 C393.744,32.828 394.212,32.684 394.68,32.468 Z M411.996,32.18 C413.076,32.036 414.156,31.784 415.128,31.208 C415.992,30.704 416.928,30.236 417.9,29.624 C418.872,29.156 419.844,28.688 420.672,28.076 C421.752,28.544 422.724,29.048 423.804,29.516 C424.884,30.128 425.964,30.596 427.044,30.956 C428.124,31.316 429.348,31.676 430.428,31.928 C431.04,31.784 431.508,31.676 431.976,31.316 C432.12,30.704 431.868,30.344 431.508,29.984 C430.896,29.408 430.32,29.048 429.708,28.688 C429.096,28.328 428.376,28.076 427.656,27.824 C426.936,27.356 426.216,26.852 425.496,26.384 C424.632,25.916 423.912,25.304 423.336,24.692 C423.696,23.504 424.272,22.28 424.884,21.092 C425.496,20.012 426.072,18.788 426.468,17.492 C426.828,16.268 427.404,15.08 428.124,14 C428.268,13.136 428.016,12.416 427.548,11.804 C426.936,11.444 426.216,11.084 425.496,10.976 C424.776,10.868 424.056,10.868 423.192,10.724 C422.364,10.724 421.644,10.616 420.924,10.508 C421.032,9.536 421.5,8.816 422.364,8.204 L423.336,7.592 C423.336,6.872 423.192,6.152 422.832,5.54 C422.364,4.964 421.752,4.712 421.032,4.604 C420.204,4.604 419.484,4.604 418.728,4.46 C417.54,4.604 416.352,4.604 415.128,4.712 C413.94,4.82 412.716,5.072 411.636,5.324 C410.448,5.54 409.368,5.9 407.568,6.512 C406.848,6.656 406.272,6.512 405.66,6.26 L405.048,6.656 C405.3,7.376 405.66,8.096 406.272,8.672 C406.992,9.176 407.82,9.392 409.476,9.392 C408.864,11.588 408.144,13.748 407.316,15.8 C406.452,17.852 405.516,19.868 404.544,21.92 C403.464,23.972 402.6,26.132 402.024,28.184 C401.88,28.796 402.024,29.408 402.24,29.876 C402.384,30.488 402.744,30.956 403.104,31.424 L403.824,31.928 L404.652,31.676 C405.264,30.488 405.876,29.264 406.596,27.932 C407.172,26.744 407.784,25.556 408.396,24.224 C408.864,23 409.476,21.812 410.196,20.588 L410.664,20.588 L416.46,25.304 C416.1,26.132 415.74,26.852 415.128,27.572 C414.516,28.328 413.796,29.048 413.076,29.624 C412.356,30.236 411.636,30.956 411.024,31.568 L411.168,31.928 L411.996,32.18 Z M418.728,22.064 C417.792,21.812 416.928,21.452 416.1,20.84 C415.236,20.228 414.516,19.652 413.688,19.04 C412.86,18.428 412.14,17.96 411.276,17.348 C411.528,16.52 411.744,15.548 412.14,14.72 C412.5,13.856 412.716,13.028 413.076,12.164 C413.436,11.336 413.688,10.616 414.048,9.752 L413.94,8.816 L414.048,8.204 L415.488,7.844 L416.352,8.096 L415.74,9.392 C415.74,10.112 415.992,10.724 416.352,11.336 C416.712,11.948 416.928,12.524 417.288,13.136 C417.9,13.748 418.728,14 419.7,13.856 C420.672,13.748 421.5,13.856 422.22,14.216 C422.004,15.188 421.752,16.016 421.392,16.88 C421.032,17.708 420.78,18.68 420.42,19.508 C420.06,20.372 419.484,21.2 418.728,22.064 Z M450.948,33.98 C450.948,33.98 451.74,33.944 452.352,33.368 C452.82,32.648 453.36,31.928 453.972,31.208 C454.62,30.596 455.124,29.876 455.52,29.156 C456.816,29.264 457.932,29.624 459.12,29.984 C460.128,30.488 461.136,30.848 462.288,31.208 C463.476,31.568 464.628,31.928 465.744,32.036 C465.744,32.036 466.932,32.144 467.292,31.568 C467.544,31.064 466.68,30.596 466.68,30.596 C465.78,29.984 464.736,29.408 463.872,28.796 C462.864,28.184 461.82,27.716 460.848,27.248 C459.768,26.744 458.868,26.132 457.932,25.304 C458.04,24.692 458.184,24.116 458.616,23.504 C458.976,23 459.192,22.532 459.66,21.92 C460.524,21.344 461.424,20.84 462.504,20.624 C463.152,19.976 462.54,17.852 462.54,17.852 C461.928,17.24 461.208,16.772 460.308,16.412 C459.444,16.16 458.508,15.8 457.716,15.296 L456.384,15.296 C455.592,15.188 455.016,15.296 454.332,15.548 L452.316,15.548 L452.316,15.548 C451.668,15.548 450.948,15.44 450.336,15.08 L451.416,12.524 C452.64,11.948 453.828,11.588 455.232,11.588 C456.636,11.588 457.896,11.444 459.192,11.228 C460.452,11.084 461.568,10.508 462.432,9.644 L462.432,9.14 C462.036,8.42 461.388,7.952 460.848,7.592 L457.536,7.808 C456.888,7.7 453.792,7.592 453.036,7.232 L454.08,5.072 C453.936,4.244 453.54,3.524 453.108,2.804 L451.776,2.3 L449.184,3.02 L449.292,3.632 C449.184,4.352 448.536,6.98 448.14,7.592 C447.024,7.952 446.052,8.168 444.864,8.312 C443.676,8.42 442.668,8.528 441.66,8.672 C440.544,8.888 439.5,9.14 438.456,9.392 L438.6,10.328 C439.356,10.724 442.344,10.94 443.244,11.084 C444.18,11.228 445.404,11.336 446.304,11.588 L446.484,11.948 C446.124,13.388 445.584,14.828 444.972,16.16 C444.324,17.492 443.64,18.932 443.28,20.264 C442.776,21.56 442.236,23 441.768,24.476 L441.876,27.356 C441.876,27.356 442.056,28.292 442.668,28.436 L443.46,28.184 C444,27.608 444.432,27.104 444.756,26.492 C445.152,25.916 445.368,25.304 445.62,24.692 C445.908,24.116 446.304,23.612 446.844,23 C447.816,23.36 448.644,23.864 449.4,24.584 C450.012,25.304 450.768,25.916 451.596,26.492 C451.488,27.356 451.236,28.076 450.804,28.796 C450.444,29.624 450.048,30.344 449.688,31.1 C449.292,31.928 448.788,32.648 448.176,33.26 L448.284,33.728 L449.364,34.196 C449.94,34.34 450.444,34.196 450.948,33.98 Z M452.964,23 C451.992,22.892 451.02,22.532 450.408,21.92 C449.652,21.452 448.896,20.984 448.068,20.48 L449.184,18.896 C450.012,18.896 451.272,18.932 452.136,18.932 C452.892,18.932 453.576,19.148 454.332,19.652 L452.964,23 Z M493.788,34.988 L494.364,34.844 C494.976,33.764 495.444,32.684 495.696,31.496 C495.84,30.272 495.948,29.084 495.948,27.752 C495.948,26.528 496.056,25.34 496.308,24.152 L497.028,23.432 L501.6,23.648 L504.732,23.288 L504.84,21.956 L504.624,21.236 C503.904,20.66 503.04,20.156 502.212,20.048 C501.24,19.94 500.268,19.94 499.332,19.796 C498.36,19.688 497.388,19.688 496.416,19.544 C496.056,19.076 495.948,18.464 496.056,17.888 L495.948,16.196 L496.2,15.224 C497.028,14.756 497.856,14.396 498.828,14.252 C499.8,14.144 500.772,13.892 501.6,13.532 L501.492,12.2 C500.988,11.984 498.936,11.84 498.468,11.732 L496.416,12.2 C496.056,12.344 495.696,12.2 495.444,11.84 L495.696,11.12 C496.2,10.904 499.188,8.708 499.188,8.708 C499.548,8.24 500.052,7.988 500.628,7.88 L500.988,6.44 L500.88,5.612 C500.268,5.252 499.548,5 498.936,4.64 C498.36,4.388 497.64,4.28 496.92,4.136 L496.56,4.28 C496.56,5.252 496.2,6.08 495.444,6.692 L495.084,6.692 L495.444,2.948 L495.444,2.336 L494.724,1.616 C494.148,1.724 493.644,1.724 493.176,1.832 C492.564,1.976 492.096,2.084 491.592,2.444 C491.736,3.164 491.844,3.776 492.096,4.388 C492.204,4.964 492.456,5.612 492.456,5.612 L492.456,10.76 L492.456,10.76 C492.348,11.624 492.204,12.452 492.096,13.316 L487.632,13.676 L487.38,13.532 L486.552,14.144 L486.552,14.756 L489.072,16.916 C489.792,16.448 490.656,16.088 492.528,16.088 L492.816,19.796 C491.844,20.156 486.912,21.02 486.912,21.02 C485.832,21.236 485.004,21.74 484.14,22.316 C484.032,23.432 484.392,24.26 485.004,24.98 C485.724,24.62 491.016,23.9 491.844,23.792 L492.564,23.9 L492.636,25.772 C492.384,32.396 492.924,32.936 493.068,33.512 C493.176,34.124 493.428,34.628 493.788,34.988 Z M481.512,32.792 L481.98,32.684 C482.448,31.856 482.7,30.884 482.808,29.804 C482.952,28.832 483.06,27.86 483.168,26.78 C483.312,25.808 483.42,23.36 483.528,22.28 L483.168,14.936 L483.312,14.072 C483.42,13.46 483.168,13.1 482.808,12.74 C482.952,12.02 483.312,11.3 483.672,10.724 C484.032,10.112 484.5,9.608 485.004,9.032 C485.472,8.42 485.832,7.808 485.94,7.088 L485.832,6.116 L483.528,5.18 L481.008,5.648 C480.288,7.34 479.46,9.032 478.596,10.58 C477.768,12.164 476.904,13.856 476.076,15.404 C475.248,16.952 474.276,18.644 473.304,20.228 C473.196,21.056 473.412,21.776 473.772,22.388 C474.168,23 474.528,23.72 474.996,24.296 L475.608,24.296 L478.956,19.364 L479.46,19.508 C479.568,20.804 479.676,22.28 479.82,23.576 C479.928,26.42 480.036,27.86 480.18,29.192 C480.288,30.524 480.648,31.712 481.512,32.792 Z M491.016,10.76 C491.736,10.4 491.7,9.536 491.484,8.384 C491.664,7.52 491.34,6.944 491.34,6.944 C491.34,6.944 489.792,6.296 489.036,6.368 C488.316,6.368 487.056,6.656 487.056,6.656 L487.056,7.088 C487.812,7.52 488.568,8.024 489.288,8.672 C490.008,9.32 490.44,9.968 490.872,10.688 L491.016,10.76 Z M519.204,15.044 C520.068,15.188 526.8,15.404 527.664,15.296 L530.796,15.188 L532.128,15.404 L533.064,15.188 C533.424,14.216 533.676,13.136 533.784,12.056 C533.928,10.976 534.036,9.896 534.288,8.78 C534.504,7.7 534.864,6.764 535.224,5.684 L535.008,4.712 C534.396,3.848 533.568,3.38 532.704,3.128 C531.876,3.02 530.904,2.912 529.932,2.768 L528.996,2.912 L526.584,2.66 L517.764,2.768 C517.044,2.912 516.324,3.02 515.712,3.38 L514.992,3.128 L514.272,3.272 C514.524,4.712 514.632,6.152 514.74,7.592 C514.884,9.14 515.1,10.472 515.712,11.804 C516.18,13.136 516.936,14.468 517.764,15.548 C518.376,15.656 518.844,15.548 519.204,15.044 Z M519.096,8.204 L518.736,6.62 C518.592,6.152 518.736,5.792 519.096,5.54 L519.924,5.792 L529.572,5.54 L530.292,6.404 L530.184,7.232 L530.184,7.484 C528.384,7.34 521.148,7.952 519.096,8.204 Z M530.292,12.776 C529.824,12.632 521.724,12.632 521.724,12.632 L519.204,12.524 L519.096,11.696 L519.096,10.004 L521.508,10.472 L528.24,10.364 L530.184,10.472 L530.652,11.696 L530.436,12.632 L530.292,12.776 Z M536.124,33.944 C536.7,33.944 537.204,33.836 537.816,33.728 C538.284,33.584 538.752,33.368 539.256,33.116 L539.112,32.504 C537.816,31.784 536.484,31.208 535.152,30.812 C533.712,30.452 532.272,29.984 530.616,29.516 C529.284,29.012 527.952,28.436 526.656,27.824 C526.764,27.104 527.052,25.268 527.52,24.656 L533.424,25.268 L533.892,25.412 C534.504,25.412 535.116,25.268 535.584,24.908 L535.44,23.504 C534.828,23.036 534.216,22.676 533.64,22.532 C533.028,22.424 528.204,22.064 527.844,21.704 L528.096,19.976 C528.816,19.868 533.1,19.688 533.82,19.544 C534.54,19.436 535.26,19.184 535.872,18.968 L535.62,17.888 C535.008,17.276 534.432,16.916 533.712,16.808 C532.848,16.664 528.564,16.736 527.736,16.736 C526.872,16.736 526.152,16.628 525.432,16.52 C524.1,16.628 522.66,16.736 521.328,16.88 C519.888,16.988 518.448,16.988 517.152,17.204 C515.82,17.132 513.84,17.24 512.256,17.528 C511.86,17.42 511.212,17.744 511.104,18.104 L511.356,18.824 C511.716,19.184 512.184,19.544 512.688,19.688 C513.156,19.94 513.624,20.156 514.236,20.3 L520.392,20.228 L521.94,20.372 L522.048,20.732 L521.832,26.852 L518.556,25.88 C518.556,25.052 518.34,24.224 517.836,23.468 L516.396,22.532 C515.424,22.748 514.488,23 513.516,23.108 L513.624,23.972 C513.516,24.944 513.156,25.88 512.796,26.744 C512.436,27.572 512.076,28.544 511.824,29.516 C511.716,30.344 511.824,30.956 512.184,31.568 C512.544,32.144 513.048,32.756 513.516,33.368 L514.704,33.944 L515.064,33.836 C515.316,33.008 515.676,32.144 516.036,31.316 C516.396,30.452 516.9,29.732 517.368,29.012 C519.312,29.732 521.22,30.452 523.164,31.064 C524.964,31.676 526.872,32.288 528.924,32.756 C530.868,33.368 533.208,33.728 535.26,33.944 L536.124,33.944 Z M556.608,24.044 C557.436,23 558.408,22.064 559.38,21.056 C560.352,20.156 561.432,19.364 562.512,18.536 C563.592,17.744 564.78,17.06 566.004,16.484 C566.472,16.16 566.976,15.692 567.336,15.116 C567.696,14.648 567.912,14.18 568.056,13.568 C568.164,12.524 568.056,11.48 567.696,10.58 C567.336,9.752 566.724,8.96 566.004,8.132 C565.14,7.34 564.204,6.512 563.232,5.828 C562.152,5.288 561.18,4.676 560.1,4.244 C559.02,3.884 557.796,3.632 556.5,3.632 L555.276,3.632 C554.448,3.632 553.728,3.632 553.008,3.74 C552.144,3.884 551.532,4.1 550.956,4.604 C551.172,5.252 551.424,5.72 551.784,6.224 C552.144,6.836 552.504,7.196 553.116,7.556 L555.384,7.016 L557.076,7.016 L557.076,7.016 C557.58,7.088 558.048,7.196 558.516,7.34 C559.128,7.7 559.848,7.88 560.46,8.24 C561.072,8.6 561.54,8.924 562.152,9.284 C562.728,9.716 563.232,10.292 563.592,10.868 L563.592,11.156 C563.232,11.912 562.62,12.488 562.008,13.028 C561.288,13.604 560.568,14.324 559.848,14.9 C559.128,15.62 558.516,16.304 557.94,16.952 C557.328,17.744 556.716,18.428 556.356,19.256 C555.888,20.048 555.528,20.984 555.384,21.92 L555.528,23.216 L556.248,24.044 L556.608,24.044 Z M560.208,31.28 C560.928,30.776 561.432,30.092 561.648,29.264 L561.432,28.184 C560.928,27.896 560.352,27.608 559.74,27.5 C559.02,27.392 558.408,27.212 557.832,26.996 C557.22,26.924 556.716,26.6 556.248,26.168 L555.6,26.6 C555.528,27.212 555.6,27.68 555.888,28.184 C556.248,28.724 556.428,29.192 556.536,29.66 C556.824,30.092 557.148,30.488 557.436,30.884 C557.724,31.28 558.048,31.604 558.516,31.892 C559.236,32 559.74,31.784 560.208,31.28 Z" id="屬於的博物館角色類型及友伴是？" fill="#4A5141" fill-rule="nonzero"></path>
        <path d="M94.8910891,2 C95.4178218,2.15177479 95.9069307,2.41738066 96.5465347,2.68298654 C97.0356436,2.98653611 97.5623762,3.32802938 97.9386139,3.70746634 L97.9386139,3.70746634 L98.0514851,4.31456548 C97.6752475,4.84577723 97.2990099,5.41493268 97.0356436,6.09791922 C96.809901,6.81884945 96.6594059,7.46389229 96.5465347,8.22276622 C97.0356436,8.71603427 100.308911,8.18482252 101.324752,8.07099143 C102.378218,8.07099143 103.544554,7.80538556 104.372277,8.18482252 L104.372277,8.18482252 L106.10297,8.29865361 L108.887129,8.94369645 L109,9.5128519 C108.360396,10.00612 107.607921,10.3096695 106.855446,10.4235006 C105.990099,10.5373317 105.237624,10.7270502 104.485149,10.9926561 C104.221782,11.8653611 104.108911,12.7380661 103.958416,13.6487148 C103.958416,13.6487148 103.356436,25.1456548 103.205941,26.1321909 C103.093069,27.2325581 102.980198,28.3329253 103.093069,29.5471236 L103.093069,29.5471236 L103.205941,32.127295 L102.453465,32.8861689 L101.324752,33 C100.572277,32.620563 99.819802,32.2411261 99.180198,31.6719706 C98.4277228,31.2166463 97.6752475,30.6854345 97.0356436,30.002448 C96.6594059,29.2056304 96.170297,28.5226438 95.4178218,27.9155447 L95.4178218,27.9155447 L94.0257426,27.2705018 L93.9128713,26.625459 L94.5148515,26.3977968 C95.5683168,26.3598531 96.5465347,26.3219094 97.9386139,26.0942472 C98.6534653,22.6034272 99.3306931,14.4075887 99.3306931,11.372093 C99.3306931,11.372093 95.6811881,11.372093 95.3049505,11.8274174 C95.0415842,12.7001224 94.7782178,13.49694 94.4019802,14.1419829 C94.0257426,14.8249694 93.5366337,15.5458996 92.8970297,16.2288862 L92.8970297,16.2288862 L91.7683168,16.6842105 C91.1287129,16.0771114 90.639604,15.4320685 90.2633663,14.4455324 L90.2633663,14.4455324 L90,12.0550796 C90.1128713,11.1064871 90.3762376,10.3096695 90.7524752,9.4369645 C90.7524752,9.4369645 92.0316832,5.2252142 92.0316832,4.20073439 L92.0316832,4.20073439 L91.7683168,3.44186047 L92.5207921,2.68298654 C93.2732673,2.41738066 94.0257426,2.15177479 94.8910891,2 Z M86.3933568,2 L88.4011766,3.2097561 L89,4.91097561 C88.4011766,5.89390244 88.0489275,6.9902439 87.6966784,8.04878049 C87.3444293,9.33414634 86.8865055,10.3926829 86.3933568,11.5268293 C85.935433,12.5853659 85.5831839,13.7573171 85.3366095,15.0426829 C85.4775092,15.95 85.4422843,17.1219512 85.5831839,18.104878 C85.6888586,19.05 85.7945333,20.1085366 85.7945333,21.2426829 L85.7945333,21.2426829 L85.6888586,26.7243902 C85.4775092,27.6317073 85.3718344,28.7280488 85.1252601,29.7487805 C84.773011,30.845122 84.7377861,31.7902439 84.4207619,32.8109756 L84.4207619,32.8109756 L83.7162637,33 C83.3640147,32.5841463 83.1174403,32.1682927 82.8708659,31.752439 C82.6242916,31.147561 82.4129421,30.6182927 82.060693,30.2402439 C81.708444,29.2195122 81.5675443,28.35 81.4618696,27.404878 C81.3561949,26.4219512 81.2152952,24.6073171 81.3561949,23.6621951 L81.3561949,23.6621951 L81.4618696,22.6414634 L80.8630462,21.9609756 C80.5107971,22.7170732 80.0528733,23.2463415 79.4540498,23.7 C78.8552264,24.0780488 78.3973026,24.6073171 77.7984791,25.0609756 L77.7984791,25.0609756 L76.5303824,25.3634146 C76.0372337,24.7207317 75.931559,23.9268293 76.0372337,23.0195122 C77.2348806,20.6756098 78.5029773,18.4829268 79.8062989,16.3280488 C81.1096205,14.2109756 82.2720425,11.8670732 83.3640147,9.52317073 C84.4207619,7.17926829 85.2309348,4.68414634 85.8297582,2.18902439 L85.8297582,2.18902439 L86.3933568,2 Z M91.625,18 C92.15,18.3292683 92.6375,18.7682927 93.275,18.8780488 C93.875,19.1707317 94.4,19.5 94.8875,19.8658537 L94.8875,19.8658537 L95,21.3292683 C94.775,22.3536585 94.4,23.195122 93.7625,24 C93.125,24.9146341 92.375,25.7560976 91.775,26.597561 L91.775,26.597561 L90.0125,27 C89.375,26.2682927 89,25.3536585 89,24.3292683 C89.1125,23.7073171 89.375,22.9390244 89.75,22.2439024 C90.0125,21.6219512 90.2375,20.8536585 90.6125,20.1585366 C90.9875,19.4634146 91.1375,18.7682927 91.1375,18.0731707 L91.1375,18.0731707 Z M105.796095,20 C106.574911,20.3386977 107.282925,20.6435257 107.955539,21.0838327 C108.628152,21.5241398 109.159163,22.0321864 109.690174,22.8450609 C109.902578,23.1837587 110.221184,23.6918053 110.539791,24.1321123 C110.822996,24.6062891 110.893798,25.080466 111,25.520773 C110.433589,26.0288196 109.725574,26.0965592 108.946759,25.8933405 L108.946759,25.8933405 L107.070521,24.2675914 C106.645712,23.6240657 106.220903,22.9466703 105.689893,22.3031446 C105.158882,21.6257491 104.875676,20.8806141 105.05268,20.1354791 L105.05268,20.1354791 Z" id="Combined-Shape" fill="#4A5141" fill-rule="nonzero"></path>
    </g>
</svg>