<?xml version="1.0" encoding="UTF-8"?>
<svg width="400px" height="36px" viewBox="0 0 400 36" version="1.1" xmlns="http://www.w3.org/2000/svg" xmlns:xlink="http://www.w3.org/1999/xlink">
    <!-- Generator: Sketch 61 (89581) - https://sketch.com -->
    <title>title1</title>
    <desc>Created with Sketch.</desc>
    <g id="title1" stroke="none" stroke-width="1" fill="none" fill-rule="evenodd">
        <path d="M6.744,26.492 L8.22,26.024 C9.444,24.188 10.452,22.136 11.316,20.084 C12.072,18.032 12.9,16.124 14.124,14.324 C14.772,13.208 15.528,12.272 16.428,11.444 L16.86,11.588 C19.344,11.696 21.684,11.588 23.988,11.444 C26.328,11.336 28.488,11.084 30.648,10.616 C31.368,9.356 31.98,8.168 32.484,6.836 C32.952,5.504 33.6,4.316 34.248,3.092 L32.952,1.796 L26.832,2.264 C24.096,2.408 14.16,3.74 11.388,3.74 L10.956,4.352 C10.812,4.892 11.028,5.396 11.496,5.756 C10.992,9.212 10.164,12.416 9.12,15.692 C7.896,18.932 6.96,22.352 6.24,25.7 L6.744,26.492 Z M17.112,8.744 C17.832,7.88 18.192,6.764 18.264,5.9 C20.388,5.54 28.02,4.712 29.568,5.072 C29.532,6.152 29.352,7.232 28.992,8.492 L17.112,8.744 Z M25.68,34.844 L26.112,34.736 C26.436,33.404 26.796,32.108 26.868,30.632 C26.904,29.336 27.228,28.004 27.732,26.672 C29.028,26.42 30.468,26.312 31.908,26.204 C33.204,26.06 34.5,25.844 35.796,25.34 L35.364,24.008 C33.06,23.648 30.684,23.432 28.2,23.288 C29.172,22.1 29.64,20.768 29.82,19.22 L29.568,18.5 C28.596,18.356 27.408,18.14 26.364,17.996 C27.3,16.808 28.416,15.836 29.928,15.116 L30.216,14.756 L30,13.676 L28.056,12.956 L26.868,12.956 L24.996,13.316 C24.996,15.116 24.564,16.808 23.628,18.248 C22.224,18.608 20.748,18.86 19.128,18.968 C17.58,19.076 15.888,19.328 14.268,19.436 L14.304,19.796 L16.14,21.128 L16.212,22.568 L16.068,24.26 L10.164,25.484 L10.992,26.312 C12.324,26.924 13.8,27.392 15.456,27.644 L15.024,32.108 C14.916,32.828 15.096,33.404 15.456,34.016 L15.996,34.016 C16.716,33.044 17.328,31.964 17.832,30.884 C18.192,29.804 18.732,28.616 19.056,27.5 C19.884,26.924 20.892,26.672 23.664,26.924 C24.168,28.004 24.528,32.36 25.032,34.016 L25.68,34.844 Z M20.136,18.248 L20.856,17.996 C20.748,16.952 20.496,15.908 21.216,14.864 L20.82,14.036 L17.436,13.424 C16.788,13.928 16.068,14.288 15.348,14.396 L15.564,14.864 C17.508,16.088 18.768,17.168 20.136,18.248 Z M23.664,23.54 L21.252,23.54 C21.468,22.712 21.972,22.1 22.584,21.344 L24.06,21.488 C24.312,22.1 24.096,22.928 23.664,23.54 Z M58.152,35.492 C58.62,34.88 59.016,34.052 59.124,33.188 C59.232,32.36 59.412,31.532 59.52,31.028 L59.52,28.904 L59.52,28.904 C61.032,29.12 62.22,29.48 63.156,30.092 C64.164,30.704 65.136,31.28 66.468,31.748 C67.512,32.252 68.628,32.612 69.6,32.972 L70.284,32.864 C70.572,31.784 70.356,30.884 69.96,30.308 C68.988,29.696 68.16,29.084 67.26,28.508 C66.216,27.896 64.704,27.284 63.732,26.708 C62.796,26.204 61.608,25.736 60.492,25.124 L60.708,24.656 C61.86,24.296 62.868,24.044 64.164,23.936 C65.244,23.936 66.36,23.792 67.188,23.684 C67.476,23.072 67.62,22.352 67.764,21.524 C67.908,20.696 68.052,19.94 68.448,17.204 C68.628,16.232 68.448,15.368 68.196,14.288 C68.196,13.46 68.052,12.74 67.692,12.02 C67.008,11.408 66.252,10.94 65.388,10.796 C64.452,10.688 63.48,10.688 62.508,10.688 C61.464,10.688 60.456,10.436 59.34,10.076 L60.024,8.744 C60.852,8.384 62.904,8.276 63.588,8.168 C64.272,8.168 65.028,8.024 65.604,7.916 L66.144,7.304 C66.144,6.584 66,6.008 65.676,5.504 C65.064,5.144 64.416,4.892 63.552,5.036 C62.544,5.144 60.204,5.036 59.34,4.784 L58.512,3.956 L58.728,3.236 C58.836,2.624 58.764,2.12 58.404,1.76 C58.404,1.76 58.224,1.364 57.756,1.148 C56.928,1.112 55.308,1.904 55.308,1.904 L55.668,3.092 C55.848,3.812 55.668,4.424 55.308,5.036 C54.192,5.144 50.52,5.612 49.584,5.756 C48.612,5.864 47.82,6.224 46.38,6.476 L46.236,6.476 L46.236,7.088 C46.56,7.664 47.1,8.024 47.964,8.168 C48.792,8.384 49.62,8.636 50.376,8.744 L51.636,8.636 L55.308,8.744 L55.668,9.464 L55.56,10.436 C54.984,10.796 54.3,11.048 53.652,10.94 C53.04,10.94 52.572,11.048 51.996,11.3 C51.168,11.408 50.34,11.156 49.944,10.796 C49.224,10.688 48.576,10.796 47.928,10.94 C47.244,11.048 46.704,11.3 46.308,11.516 L46.632,12.74 L46.488,13.208 C46.632,14.648 46.632,16.088 46.632,17.672 C46.632,19.22 46.884,20.696 47.28,21.992 C47.748,23.324 48.396,24.656 49.548,25.736 L49.548,26.096 L45.264,29.48 C44.904,29.84 44.652,30.308 44.292,30.668 C43.932,31.136 43.86,31.64 43.86,32.252 L43.932,32.972 L44.472,33.548 C45.444,33.44 46.488,33.08 47.46,32.612 C48.396,32.252 49.404,31.64 50.34,31.028 C51.348,30.416 52.284,29.84 53.328,29.48 L55.2,29.444 L55.668,32.612 C55.92,33.188 56.928,35.24 57.9,35.492 L58.152,35.492 Z M59.772,15.512 L60.168,14.072 L61.212,13.82 L63.228,14.072 L63.876,15.152 L63.696,15.98 C62.292,16.124 60.852,15.98 59.772,15.512 Z M51.456,16.448 L50.16,15.98 L50.52,14.9 C51.06,14.54 51.672,14.288 52.428,14.18 C53.004,14.18 53.544,14.18 54.12,14.072 L55.056,14.072 L55.884,14.648 L55.596,15.8 L51.456,16.448 Z M51.456,21.524 L50.16,21.164 L50.52,19.832 L52.86,19.364 L55.56,19.472 L55.56,21.056 L51.456,21.524 Z M61.968,20.804 L60.456,20.804 L60.276,20.444 L60.6,19.724 L64.128,19.472 L63.948,20.444 L61.968,20.804 Z M84.216,17.636 L89.4,17.06 L90.408,16.844 C90.732,15.512 91.164,14.144 91.56,12.92 C91.848,11.588 92.028,10.256 92.064,8.78 C91.992,7.34 91.56,5.828 90.768,4.748 C89.148,3.2 87.204,2.66 85.152,2.732 C84.036,2.732 83.1,3.092 82.2,3.776 L82.488,4.676 L81.552,12.596 C81.516,14.144 81.696,15.62 82.164,17.096 C82.74,17.528 83.496,17.708 84.216,17.636 Z M103.62,32.864 L104.7,31.712 C104.7,30.092 104.7,28.544 104.592,26.924 C104.484,25.376 104.124,23.864 103.764,22.46 L103.764,21.056 L104.7,20.192 L105.204,20.192 C105.816,21.164 106.644,21.992 107.472,22.568 L108.084,22.352 L108.444,21.704 L107.292,18.176 C106.824,17.528 105.708,16.664 104.952,16.88 L104.34,17.024 L103.98,18.284 L100.992,19.436 C100.272,19.544 99.66,19.436 99.048,19.184 L99.192,18.788 C100.02,18.14 100.992,17.636 101.82,17.132 C102.684,16.736 103.62,16.376 104.592,15.98 L105.312,14.828 L105.204,14.072 L103.872,12.668 L100.848,13.604 L100.128,13.604 L100.272,12.668 C101.568,11.804 102.972,11.408 104.448,11.408 C105.096,10.544 104.592,9.284 103.98,8.78 L103.98,8.384 L106.644,8.24 L107.724,6.98 L106.896,5.468 L105.672,4.712 L104.952,3.956 C103.872,3.704 102.9,3.416 101.82,3.2 C100.632,3.704 99.408,4.172 98.22,4.712 C96.996,5.324 95.916,5.972 94.836,6.872 C94.224,7.484 93.864,8.24 94.008,9.14 C93.864,9.752 94.008,10.4 94.476,10.796 C95.448,10.292 96.42,9.752 97.356,9.392 L97.968,9.644 L97.5,12.38 L98.076,14.468 L98.076,15.116 L96.78,16.124 C96.168,16.736 95.808,17.636 95.808,18.536 C95.916,19.436 96.06,20.3 96.276,21.164 C97.716,21.812 99.3,22.208 100.992,22.1 C101.352,23.864 101.568,25.772 101.712,27.68 C101.712,29.552 102.18,31.352 103.26,32.864 L103.62,32.864 Z M85.188,7.196 C85.08,6.764 85.152,5.972 85.62,5.324 C86.34,5.252 87.06,5.468 87.708,5.72 L88.032,7.088 L85.188,7.196 Z M88.392,10.904 L85.08,10.796 L85.152,10.148 C85.872,9.788 88.284,9.356 88.428,9.608 C88.572,10.184 88.5,10.58 88.392,10.904 Z M86.16,33.944 C87.06,33.836 87.564,33.152 87.924,32.504 C87.924,30.776 87.78,29.192 87.672,27.608 C87.564,25.988 87.312,24.44 87.06,22.244 C88.212,21.956 90.264,21.848 91.956,21.668 L93.072,20.624 L92.964,19.832 C92.244,19.004 91.416,18.824 90.732,18.752 L85.332,18.86 C83.532,19.004 81.984,18.464 80.796,17.708 C80.22,16.376 79.968,15.08 80.22,12.812 L79.968,11.516 L78.852,10.796 L76.728,11.084 L76.368,14.144 C76.26,15.584 76.692,17.168 77.412,18.464 C78.276,20.012 79.392,20.876 80.472,21.56 C81.552,22.172 82.812,22.244 83.748,22.352 C84.216,23.792 84.432,25.484 84.432,27.356 C84.324,29.3 84.576,31.028 85.188,32.9 L86.16,33.944 Z M84.648,14.576 L84.72,13.856 C84.72,13.856 87.996,13.244 88.284,13.496 L88.068,14.504 C88.068,14.504 85.512,14.792 84.648,14.576 Z M99.768,30.956 C99.912,30.308 99.696,29.264 100.38,26.528 C100.488,26.024 100.38,25.52 100.02,25.124 C99.3,24.368 98.472,23.972 97.5,23.864 C96.996,24.62 96.636,25.52 96.276,26.528 L96.78,29.336 C97.14,30.2 97.716,31.064 98.472,31.712 C99.192,31.856 99.66,31.604 99.768,30.956 Z M80.508,32.18 C81.66,30.992 82.164,29.948 82.344,28.652 L82.74,26.24 C82.524,25.196 81.948,24.476 81.084,24.044 L80.184,24.188 L79.248,27.608 C78.636,29.444 78.96,31.064 80.508,32.18 Z M92.712,29.48 L93.612,28.436 C93.576,27.824 93.684,27.284 92.856,26.42 C91.992,25.592 90.912,25.088 89.688,24.98 L89.04,24.98 L89.184,26.564 C89.904,27.752 90.984,28.58 92.064,29.48 L92.712,29.48 Z M108.912,30.488 L109.776,29.192 C109.668,28.328 109.524,27.536 109.164,26.78 C108.444,25.952 107.688,25.7 106.896,25.88 C106.392,25.772 106.032,25.88 105.816,26.276 L105.816,26.78 C106.644,28.148 107.724,29.336 108.912,30.488 Z" id="屏東縣" fill="#659605" fill-rule="nonzero"></path>
    </g>
</svg>