<?xml version="1.0" encoding="UTF-8"?>
<svg width="1366px" height="1024px" viewBox="0 0 1366 1024" version="1.1" xmlns="http://www.w3.org/2000/svg" xmlns:xlink="http://www.w3.org/1999/xlink">
    <!-- Generator: Sketch 61 (89581) - https://sketch.com -->
    <title>bg1</title>
    <desc>Created with Sketch.</desc>
    <g id="bg1" stroke="none" stroke-width="1" fill="none" fill-rule="evenodd" opacity="0.05">
        <g fill="#000000" fill-rule="nonzero" id="bg">
            <g transform="translate(0.000000, 722.000000)">
                <path d="M131.001716,0.132986056 L0.501716124,75.1329861 C0.191348333,75.3113583 0,75.6420268 0,76 L0,226 C0,226.357973 0.191348333,226.688642 0.501716124,226.867014 L131.001716,301.867014 C131.310244,302.044329 131.689756,302.044329 131.998284,301.867014 L262.498284,226.867014 C262.808652,226.688642 263,226.357973 263,226 L263,76 C263,75.6420268 262.808652,75.3113583 262.498284,75.1329861 L131.998284,0.132986056 C131.689756,-0.0443286853 131.310244,-0.0443286853 131.001716,0.132986056 Z M131.5,1 L262,76 L262,226 L131.5,301 L1,226 L1,76 L131.5,1 Z" id="Rectangle"></path>
                <path d="M261.750858,75.566493 C261.990277,75.4288957 262.29591,75.5114388 262.433507,75.7508581 C262.555816,75.9636752 262.504186,76.2288088 262.323051,76.381739 L262.249142,76.433507 L1.24914194,226.433507 C1.00972265,226.571104 0.704090321,226.488561 0.566493028,226.249142 C0.444184323,226.036325 0.495813657,225.771191 0.676948646,225.618261 L0.750858062,225.566493 L261.750858,75.566493 Z" id="Path-Copy-2"></path>
                <path d="M24.5038552,44.4268251 C24.6770774,44.2529154 24.9464631,44.2330967 25.1415982,44.3677065 L25.2109605,44.4254247 L238.494744,256.866069 C238.690393,257.060945 238.69102,257.377526 238.496145,257.573175 C238.322923,257.747085 238.053537,257.766903 237.858402,257.632293 L237.789039,257.574575 L24.5052556,45.1339305 C24.3096071,44.9390555 24.3089801,44.6224736 24.5038552,44.4268251 Z" id="Path-Copy-3" transform="translate(131.500000, 151.000000) rotate(-15.000000) translate(-131.500000, -151.000000) "></path>
                <path d="M131.5,0.5 C131.74546,0.5 131.949608,0.676875161 131.991944,0.910124368 L132,1 L132,301 C132,301.276142 131.776142,301.5 131.5,301.5 C131.25454,301.5 131.050392,301.323125 131.008056,301.089876 L131,301 L131,1 C131,0.723857625 131.223858,0.5 131.5,0.5 Z" id="Path-Copy"></path>
            </g>
            <g>
                <path d="M131.001716,0.132986056 L0.501716124,75.1329861 C0.191348333,75.3113583 0,75.6420268 0,76 L0,226 C0,226.357973 0.191348333,226.688642 0.501716124,226.867014 L131.001716,301.867014 C131.310244,302.044329 131.689756,302.044329 131.998284,301.867014 L262.498284,226.867014 C262.808652,226.688642 263,226.357973 263,226 L263,76 C263,75.6420268 262.808652,75.3113583 262.498284,75.1329861 L131.998284,0.132986056 C131.689756,-0.0443286853 131.310244,-0.0443286853 131.001716,0.132986056 Z M131.5,1 L262,76 L262,226 L131.5,301 L1,226 L1,76 L131.5,1 Z" id="Rectangle"></path>
                <path d="M261.750858,75.566493 C261.990277,75.4288957 262.29591,75.5114388 262.433507,75.7508581 C262.555816,75.9636752 262.504186,76.2288088 262.323051,76.381739 L262.249142,76.433507 L1.24914194,226.433507 C1.00972265,226.571104 0.704090321,226.488561 0.566493028,226.249142 C0.444184323,226.036325 0.495813657,225.771191 0.676948646,225.618261 L0.750858062,225.566493 L261.750858,75.566493 Z" id="Path-Copy-2"></path>
                <path d="M24.5038552,44.4268251 C24.6770774,44.2529154 24.9464631,44.2330967 25.1415982,44.3677065 L25.2109605,44.4254247 L238.494744,256.866069 C238.690393,257.060945 238.69102,257.377526 238.496145,257.573175 C238.322923,257.747085 238.053537,257.766903 237.858402,257.632293 L237.789039,257.574575 L24.5052556,45.1339305 C24.3096071,44.9390555 24.3089801,44.6224736 24.5038552,44.4268251 Z" id="Path-Copy-3" transform="translate(131.500000, 151.000000) rotate(-15.000000) translate(-131.500000, -151.000000) "></path>
                <path d="M131.5,0.5 C131.74546,0.5 131.949608,0.676875161 131.991944,0.910124368 L132,1 L132,301 C132,301.276142 131.776142,301.5 131.5,301.5 C131.25454,301.5 131.050392,301.323125 131.008056,301.089876 L131,301 L131,1 C131,0.723857625 131.223858,0.5 131.5,0.5 Z" id="Path-Copy"></path>
            </g>
            <g transform="translate(262.000000, 722.000000)">
                <path d="M131.001716,0.132986056 L0.501716124,75.1329861 C0.191348333,75.3113583 0,75.6420268 0,76 L0,226 C0,226.357973 0.191348333,226.688642 0.501716124,226.867014 L131.001716,301.867014 C131.310244,302.044329 131.689756,302.044329 131.998284,301.867014 L262.498284,226.867014 C262.808652,226.688642 263,226.357973 263,226 L263,76 C263,75.6420268 262.808652,75.3113583 262.498284,75.1329861 L131.998284,0.132986056 C131.689756,-0.0443286853 131.310244,-0.0443286853 131.001716,0.132986056 Z M131.5,1 L262,76 L262,226 L131.5,301 L1,226 L1,76 L131.5,1 Z" id="Rectangle"></path>
                <path d="M261.750858,75.566493 C261.990277,75.4288957 262.29591,75.5114388 262.433507,75.7508581 C262.555816,75.9636752 262.504186,76.2288088 262.323051,76.381739 L262.249142,76.433507 L1.24914194,226.433507 C1.00972265,226.571104 0.704090321,226.488561 0.566493028,226.249142 C0.444184323,226.036325 0.495813657,225.771191 0.676948646,225.618261 L0.750858062,225.566493 L261.750858,75.566493 Z" id="Path-Copy-2"></path>
                <path d="M24.5038552,44.4268251 C24.6770774,44.2529154 24.9464631,44.2330967 25.1415982,44.3677065 L25.2109605,44.4254247 L238.494744,256.866069 C238.690393,257.060945 238.69102,257.377526 238.496145,257.573175 C238.322923,257.747085 238.053537,257.766903 237.858402,257.632293 L237.789039,257.574575 L24.5052556,45.1339305 C24.3096071,44.9390555 24.3089801,44.6224736 24.5038552,44.4268251 Z" id="Path-Copy-3" transform="translate(131.500000, 151.000000) rotate(-15.000000) translate(-131.500000, -151.000000) "></path>
                <path d="M131.5,0.5 C131.74546,0.5 131.949608,0.676875161 131.991944,0.910124368 L132,1 L132,301 C132,301.276142 131.776142,301.5 131.5,301.5 C131.25454,301.5 131.050392,301.323125 131.008056,301.089876 L131,301 L131,1 C131,0.723857625 131.223858,0.5 131.5,0.5 Z" id="Path-Copy"></path>
            </g>
            <g transform="translate(131.000000, 496.000000)">
                <path d="M131.001716,0.132986056 L0.501716124,75.1329861 C0.191348333,75.3113583 0,75.6420268 0,76 L0,226 C0,226.357973 0.191348333,226.688642 0.501716124,226.867014 L131.001716,301.867014 C131.310244,302.044329 131.689756,302.044329 131.998284,301.867014 L262.498284,226.867014 C262.808652,226.688642 263,226.357973 263,226 L263,76 C263,75.6420268 262.808652,75.3113583 262.498284,75.1329861 L131.998284,0.132986056 C131.689756,-0.0443286853 131.310244,-0.0443286853 131.001716,0.132986056 Z M131.5,1 L262,76 L262,226 L131.5,301 L1,226 L1,76 L131.5,1 Z" id="Rectangle"></path>
                <path d="M261.750858,75.566493 C261.990277,75.4288957 262.29591,75.5114388 262.433507,75.7508581 C262.555816,75.9636752 262.504186,76.2288088 262.323051,76.381739 L262.249142,76.433507 L1.24914194,226.433507 C1.00972265,226.571104 0.704090321,226.488561 0.566493028,226.249142 C0.444184323,226.036325 0.495813657,225.771191 0.676948646,225.618261 L0.750858062,225.566493 L261.750858,75.566493 Z" id="Path-Copy-2"></path>
                <path d="M24.5038552,44.4268251 C24.6770774,44.2529154 24.9464631,44.2330967 25.1415982,44.3677065 L25.2109605,44.4254247 L238.494744,256.866069 C238.690393,257.060945 238.69102,257.377526 238.496145,257.573175 C238.322923,257.747085 238.053537,257.766903 237.858402,257.632293 L237.789039,257.574575 L24.5052556,45.1339305 C24.3096071,44.9390555 24.3089801,44.6224736 24.5038552,44.4268251 Z" id="Path-Copy-3" transform="translate(131.500000, 151.000000) rotate(-15.000000) translate(-131.500000, -151.000000) "></path>
                <path d="M131.5,0.5 C131.74546,0.5 131.949608,0.676875161 131.991944,0.910124368 L132,1 L132,301 C132,301.276142 131.776142,301.5 131.5,301.5 C131.25454,301.5 131.050392,301.323125 131.008056,301.089876 L131,301 L131,1 C131,0.723857625 131.223858,0.5 131.5,0.5 Z" id="Path-Copy"></path>
            </g>
            <g transform="translate(262.000000, 0.000000)">
                <path d="M131.001716,0.132986056 L0.501716124,75.1329861 C0.191348333,75.3113583 0,75.6420268 0,76 L0,226 C0,226.357973 0.191348333,226.688642 0.501716124,226.867014 L131.001716,301.867014 C131.310244,302.044329 131.689756,302.044329 131.998284,301.867014 L262.498284,226.867014 C262.808652,226.688642 263,226.357973 263,226 L263,76 C263,75.6420268 262.808652,75.3113583 262.498284,75.1329861 L131.998284,0.132986056 C131.689756,-0.0443286853 131.310244,-0.0443286853 131.001716,0.132986056 Z M131.5,1 L262,76 L262,226 L131.5,301 L1,226 L1,76 L131.5,1 Z" id="Rectangle"></path>
                <path d="M261.750858,75.566493 C261.990277,75.4288957 262.29591,75.5114388 262.433507,75.7508581 C262.555816,75.9636752 262.504186,76.2288088 262.323051,76.381739 L262.249142,76.433507 L1.24914194,226.433507 C1.00972265,226.571104 0.704090321,226.488561 0.566493028,226.249142 C0.444184323,226.036325 0.495813657,225.771191 0.676948646,225.618261 L0.750858062,225.566493 L261.750858,75.566493 Z" id="Path-Copy-2"></path>
                <path d="M24.5038552,44.4268251 C24.6770774,44.2529154 24.9464631,44.2330967 25.1415982,44.3677065 L25.2109605,44.4254247 L238.494744,256.866069 C238.690393,257.060945 238.69102,257.377526 238.496145,257.573175 C238.322923,257.747085 238.053537,257.766903 237.858402,257.632293 L237.789039,257.574575 L24.5052556,45.1339305 C24.3096071,44.9390555 24.3089801,44.6224736 24.5038552,44.4268251 Z" id="Path-Copy-3" transform="translate(131.500000, 151.000000) rotate(-15.000000) translate(-131.500000, -151.000000) "></path>
                <path d="M131.5,0.5 C131.74546,0.5 131.949608,0.676875161 131.991944,0.910124368 L132,1 L132,301 C132,301.276142 131.776142,301.5 131.5,301.5 C131.25454,301.5 131.050392,301.323125 131.008056,301.089876 L131,301 L131,1 C131,0.723857625 131.223858,0.5 131.5,0.5 Z" id="Path-Copy"></path>
            </g>
            <g transform="translate(524.000000, 722.000000)">
                <path d="M131.001716,0.132986056 L0.501716124,75.1329861 C0.191348333,75.3113583 0,75.6420268 0,76 L0,226 C0,226.357973 0.191348333,226.688642 0.501716124,226.867014 L131.001716,301.867014 C131.310244,302.044329 131.689756,302.044329 131.998284,301.867014 L262.498284,226.867014 C262.808652,226.688642 263,226.357973 263,226 L263,76 C263,75.6420268 262.808652,75.3113583 262.498284,75.1329861 L131.998284,0.132986056 C131.689756,-0.0443286853 131.310244,-0.0443286853 131.001716,0.132986056 Z M131.5,1 L262,76 L262,226 L131.5,301 L1,226 L1,76 L131.5,1 Z" id="Rectangle"></path>
                <path d="M261.750858,75.566493 C261.990277,75.4288957 262.29591,75.5114388 262.433507,75.7508581 C262.555816,75.9636752 262.504186,76.2288088 262.323051,76.381739 L262.249142,76.433507 L1.24914194,226.433507 C1.00972265,226.571104 0.704090321,226.488561 0.566493028,226.249142 C0.444184323,226.036325 0.495813657,225.771191 0.676948646,225.618261 L0.750858062,225.566493 L261.750858,75.566493 Z" id="Path-Copy-2"></path>
                <path d="M24.5038552,44.4268251 C24.6770774,44.2529154 24.9464631,44.2330967 25.1415982,44.3677065 L25.2109605,44.4254247 L238.494744,256.866069 C238.690393,257.060945 238.69102,257.377526 238.496145,257.573175 C238.322923,257.747085 238.053537,257.766903 237.858402,257.632293 L237.789039,257.574575 L24.5052556,45.1339305 C24.3096071,44.9390555 24.3089801,44.6224736 24.5038552,44.4268251 Z" id="Path-Copy-3" transform="translate(131.500000, 151.000000) rotate(-15.000000) translate(-131.500000, -151.000000) "></path>
                <path d="M131.5,0.5 C131.74546,0.5 131.949608,0.676875161 131.991944,0.910124368 L132,1 L132,301 C132,301.276142 131.776142,301.5 131.5,301.5 C131.25454,301.5 131.050392,301.323125 131.008056,301.089876 L131,301 L131,1 C131,0.723857625 131.223858,0.5 131.5,0.5 Z" id="Path-Copy"></path>
            </g>
            <g transform="translate(524.000000, 0.000000)">
                <path d="M131.001716,0.132986056 L0.501716124,75.1329861 C0.191348333,75.3113583 0,75.6420268 0,76 L0,226 C0,226.357973 0.191348333,226.688642 0.501716124,226.867014 L131.001716,301.867014 C131.310244,302.044329 131.689756,302.044329 131.998284,301.867014 L262.498284,226.867014 C262.808652,226.688642 263,226.357973 263,226 L263,76 C263,75.6420268 262.808652,75.3113583 262.498284,75.1329861 L131.998284,0.132986056 C131.689756,-0.0443286853 131.310244,-0.0443286853 131.001716,0.132986056 Z M131.5,1 L262,76 L262,226 L131.5,301 L1,226 L1,76 L131.5,1 Z" id="Rectangle"></path>
                <path d="M261.750858,75.566493 C261.990277,75.4288957 262.29591,75.5114388 262.433507,75.7508581 C262.555816,75.9636752 262.504186,76.2288088 262.323051,76.381739 L262.249142,76.433507 L1.24914194,226.433507 C1.00972265,226.571104 0.704090321,226.488561 0.566493028,226.249142 C0.444184323,226.036325 0.495813657,225.771191 0.676948646,225.618261 L0.750858062,225.566493 L261.750858,75.566493 Z" id="Path-Copy-2"></path>
                <path d="M24.5038552,44.4268251 C24.6770774,44.2529154 24.9464631,44.2330967 25.1415982,44.3677065 L25.2109605,44.4254247 L238.494744,256.866069 C238.690393,257.060945 238.69102,257.377526 238.496145,257.573175 C238.322923,257.747085 238.053537,257.766903 237.858402,257.632293 L237.789039,257.574575 L24.5052556,45.1339305 C24.3096071,44.9390555 24.3089801,44.6224736 24.5038552,44.4268251 Z" id="Path-Copy-3" transform="translate(131.500000, 151.000000) rotate(-15.000000) translate(-131.500000, -151.000000) "></path>
                <path d="M131.5,0.5 C131.74546,0.5 131.949608,0.676875161 131.991944,0.910124368 L132,1 L132,301 C132,301.276142 131.776142,301.5 131.5,301.5 C131.25454,301.5 131.050392,301.323125 131.008056,301.089876 L131,301 L131,1 C131,0.723857625 131.223858,0.5 131.5,0.5 Z" id="Path-Copy"></path>
            </g>
            <g transform="translate(786.000000, 722.000000)">
                <path d="M131.001716,0.132986056 L0.501716124,75.1329861 C0.191348333,75.3113583 0,75.6420268 0,76 L0,226 C0,226.357973 0.191348333,226.688642 0.501716124,226.867014 L131.001716,301.867014 C131.310244,302.044329 131.689756,302.044329 131.998284,301.867014 L262.498284,226.867014 C262.808652,226.688642 263,226.357973 263,226 L263,76 C263,75.6420268 262.808652,75.3113583 262.498284,75.1329861 L131.998284,0.132986056 C131.689756,-0.0443286853 131.310244,-0.0443286853 131.001716,0.132986056 Z M131.5,1 L262,76 L262,226 L131.5,301 L1,226 L1,76 L131.5,1 Z" id="Rectangle"></path>
                <path d="M261.750858,75.566493 C261.990277,75.4288957 262.29591,75.5114388 262.433507,75.7508581 C262.555816,75.9636752 262.504186,76.2288088 262.323051,76.381739 L262.249142,76.433507 L1.24914194,226.433507 C1.00972265,226.571104 0.704090321,226.488561 0.566493028,226.249142 C0.444184323,226.036325 0.495813657,225.771191 0.676948646,225.618261 L0.750858062,225.566493 L261.750858,75.566493 Z" id="Path-Copy-2"></path>
                <path d="M24.5038552,44.4268251 C24.6770774,44.2529154 24.9464631,44.2330967 25.1415982,44.3677065 L25.2109605,44.4254247 L238.494744,256.866069 C238.690393,257.060945 238.69102,257.377526 238.496145,257.573175 C238.322923,257.747085 238.053537,257.766903 237.858402,257.632293 L237.789039,257.574575 L24.5052556,45.1339305 C24.3096071,44.9390555 24.3089801,44.6224736 24.5038552,44.4268251 Z" id="Path-Copy-3" transform="translate(131.500000, 151.000000) rotate(-15.000000) translate(-131.500000, -151.000000) "></path>
                <path d="M131.5,0.5 C131.74546,0.5 131.949608,0.676875161 131.991944,0.910124368 L132,1 L132,301 C132,301.276142 131.776142,301.5 131.5,301.5 C131.25454,301.5 131.050392,301.323125 131.008056,301.089876 L131,301 L131,1 C131,0.723857625 131.223858,0.5 131.5,0.5 Z" id="Path-Copy"></path>
            </g>
            <g transform="translate(786.000000, 0.000000)">
                <path d="M131.001716,0.132986056 L0.501716124,75.1329861 C0.191348333,75.3113583 0,75.6420268 0,76 L0,226 C0,226.357973 0.191348333,226.688642 0.501716124,226.867014 L131.001716,301.867014 C131.310244,302.044329 131.689756,302.044329 131.998284,301.867014 L262.498284,226.867014 C262.808652,226.688642 263,226.357973 263,226 L263,76 C263,75.6420268 262.808652,75.3113583 262.498284,75.1329861 L131.998284,0.132986056 C131.689756,-0.0443286853 131.310244,-0.0443286853 131.001716,0.132986056 Z M131.5,1 L262,76 L262,226 L131.5,301 L1,226 L1,76 L131.5,1 Z" id="Rectangle"></path>
                <path d="M261.750858,75.566493 C261.990277,75.4288957 262.29591,75.5114388 262.433507,75.7508581 C262.555816,75.9636752 262.504186,76.2288088 262.323051,76.381739 L262.249142,76.433507 L1.24914194,226.433507 C1.00972265,226.571104 0.704090321,226.488561 0.566493028,226.249142 C0.444184323,226.036325 0.495813657,225.771191 0.676948646,225.618261 L0.750858062,225.566493 L261.750858,75.566493 Z" id="Path-Copy-2"></path>
                <path d="M24.5038552,44.4268251 C24.6770774,44.2529154 24.9464631,44.2330967 25.1415982,44.3677065 L25.2109605,44.4254247 L238.494744,256.866069 C238.690393,257.060945 238.69102,257.377526 238.496145,257.573175 C238.322923,257.747085 238.053537,257.766903 237.858402,257.632293 L237.789039,257.574575 L24.5052556,45.1339305 C24.3096071,44.9390555 24.3089801,44.6224736 24.5038552,44.4268251 Z" id="Path-Copy-3" transform="translate(131.500000, 151.000000) rotate(-15.000000) translate(-131.500000, -151.000000) "></path>
                <path d="M131.5,0.5 C131.74546,0.5 131.949608,0.676875161 131.991944,0.910124368 L132,1 L132,301 C132,301.276142 131.776142,301.5 131.5,301.5 C131.25454,301.5 131.050392,301.323125 131.008056,301.089876 L131,301 L131,1 C131,0.723857625 131.223858,0.5 131.5,0.5 Z" id="Path-Copy"></path>
            </g>
            <g transform="translate(917.000000, 226.000000)">
                <path d="M131.001716,0.132986056 L0.501716124,75.1329861 C0.191348333,75.3113583 0,75.6420268 0,76 L0,226 C0,226.357973 0.191348333,226.688642 0.501716124,226.867014 L131.001716,301.867014 C131.310244,302.044329 131.689756,302.044329 131.998284,301.867014 L262.498284,226.867014 C262.808652,226.688642 263,226.357973 263,226 L263,76 C263,75.6420268 262.808652,75.3113583 262.498284,75.1329861 L131.998284,0.132986056 C131.689756,-0.0443286853 131.310244,-0.0443286853 131.001716,0.132986056 Z M131.5,1 L262,76 L262,226 L131.5,301 L1,226 L1,76 L131.5,1 Z" id="Rectangle"></path>
                <path d="M261.750858,75.566493 C261.990277,75.4288957 262.29591,75.5114388 262.433507,75.7508581 C262.555816,75.9636752 262.504186,76.2288088 262.323051,76.381739 L262.249142,76.433507 L1.24914194,226.433507 C1.00972265,226.571104 0.704090321,226.488561 0.566493028,226.249142 C0.444184323,226.036325 0.495813657,225.771191 0.676948646,225.618261 L0.750858062,225.566493 L261.750858,75.566493 Z" id="Path-Copy-2"></path>
                <path d="M24.5038552,44.4268251 C24.6770774,44.2529154 24.9464631,44.2330967 25.1415982,44.3677065 L25.2109605,44.4254247 L238.494744,256.866069 C238.690393,257.060945 238.69102,257.377526 238.496145,257.573175 C238.322923,257.747085 238.053537,257.766903 237.858402,257.632293 L237.789039,257.574575 L24.5052556,45.1339305 C24.3096071,44.9390555 24.3089801,44.6224736 24.5038552,44.4268251 Z" id="Path-Copy-3" transform="translate(131.500000, 151.000000) rotate(-15.000000) translate(-131.500000, -151.000000) "></path>
                <path d="M131.5,0.5 C131.74546,0.5 131.949608,0.676875161 131.991944,0.910124368 L132,1 L132,301 C132,301.276142 131.776142,301.5 131.5,301.5 C131.25454,301.5 131.050392,301.323125 131.008056,301.089876 L131,301 L131,1 C131,0.723857625 131.223858,0.5 131.5,0.5 Z" id="Path-Copy"></path>
            </g>
            <g transform="translate(1048.000000, 722.000000)">
                <path d="M131.001716,0.132986056 L0.501716124,75.1329861 C0.191348333,75.3113583 0,75.6420268 0,76 L0,226 C0,226.357973 0.191348333,226.688642 0.501716124,226.867014 L131.001716,301.867014 C131.310244,302.044329 131.689756,302.044329 131.998284,301.867014 L262.498284,226.867014 C262.808652,226.688642 263,226.357973 263,226 L263,76 C263,75.6420268 262.808652,75.3113583 262.498284,75.1329861 L131.998284,0.132986056 C131.689756,-0.0443286853 131.310244,-0.0443286853 131.001716,0.132986056 Z M131.5,1 L262,76 L262,226 L131.5,301 L1,226 L1,76 L131.5,1 Z" id="Rectangle"></path>
                <path d="M261.750858,75.566493 C261.990277,75.4288957 262.29591,75.5114388 262.433507,75.7508581 C262.555816,75.9636752 262.504186,76.2288088 262.323051,76.381739 L262.249142,76.433507 L1.24914194,226.433507 C1.00972265,226.571104 0.704090321,226.488561 0.566493028,226.249142 C0.444184323,226.036325 0.495813657,225.771191 0.676948646,225.618261 L0.750858062,225.566493 L261.750858,75.566493 Z" id="Path-Copy-2"></path>
                <path d="M24.5038552,44.4268251 C24.6770774,44.2529154 24.9464631,44.2330967 25.1415982,44.3677065 L25.2109605,44.4254247 L238.494744,256.866069 C238.690393,257.060945 238.69102,257.377526 238.496145,257.573175 C238.322923,257.747085 238.053537,257.766903 237.858402,257.632293 L237.789039,257.574575 L24.5052556,45.1339305 C24.3096071,44.9390555 24.3089801,44.6224736 24.5038552,44.4268251 Z" id="Path-Copy-3" transform="translate(131.500000, 151.000000) rotate(-15.000000) translate(-131.500000, -151.000000) "></path>
                <path d="M131.5,0.5 C131.74546,0.5 131.949608,0.676875161 131.991944,0.910124368 L132,1 L132,301 C132,301.276142 131.776142,301.5 131.5,301.5 C131.25454,301.5 131.050392,301.323125 131.008056,301.089876 L131,301 L131,1 C131,0.723857625 131.223858,0.5 131.5,0.5 Z" id="Path-Copy"></path>
            </g>
            <g transform="translate(1048.000000, 0.000000)">
                <path d="M131.001716,0.132986056 L0.501716124,75.1329861 C0.191348333,75.3113583 0,75.6420268 0,76 L0,226 C0,226.357973 0.191348333,226.688642 0.501716124,226.867014 L131.001716,301.867014 C131.310244,302.044329 131.689756,302.044329 131.998284,301.867014 L262.498284,226.867014 C262.808652,226.688642 263,226.357973 263,226 L263,76 C263,75.6420268 262.808652,75.3113583 262.498284,75.1329861 L131.998284,0.132986056 C131.689756,-0.0443286853 131.310244,-0.0443286853 131.001716,0.132986056 Z M131.5,1 L262,76 L262,226 L131.5,301 L1,226 L1,76 L131.5,1 Z" id="Rectangle"></path>
                <path d="M261.750858,75.566493 C261.990277,75.4288957 262.29591,75.5114388 262.433507,75.7508581 C262.555816,75.9636752 262.504186,76.2288088 262.323051,76.381739 L262.249142,76.433507 L1.24914194,226.433507 C1.00972265,226.571104 0.704090321,226.488561 0.566493028,226.249142 C0.444184323,226.036325 0.495813657,225.771191 0.676948646,225.618261 L0.750858062,225.566493 L261.750858,75.566493 Z" id="Path-Copy-2"></path>
                <path d="M24.5038552,44.4268251 C24.6770774,44.2529154 24.9464631,44.2330967 25.1415982,44.3677065 L25.2109605,44.4254247 L238.494744,256.866069 C238.690393,257.060945 238.69102,257.377526 238.496145,257.573175 C238.322923,257.747085 238.053537,257.766903 237.858402,257.632293 L237.789039,257.574575 L24.5052556,45.1339305 C24.3096071,44.9390555 24.3089801,44.6224736 24.5038552,44.4268251 Z" id="Path-Copy-3" transform="translate(131.500000, 151.000000) rotate(-15.000000) translate(-131.500000, -151.000000) "></path>
                <path d="M131.5,0.5 C131.74546,0.5 131.949608,0.676875161 131.991944,0.910124368 L132,1 L132,301 C132,301.276142 131.776142,301.5 131.5,301.5 C131.25454,301.5 131.050392,301.323125 131.008056,301.089876 L131,301 L131,1 C131,0.723857625 131.223858,0.5 131.5,0.5 Z" id="Path-Copy"></path>
            </g>
            <g transform="translate(1310.000000, 722.000000)">
                <path d="M131.001716,0.132986056 L0.501716124,75.1329861 C0.191348333,75.3113583 0,75.6420268 0,76 L0,226 C0,226.357973 0.191348333,226.688642 0.501716124,226.867014 L131.001716,301.867014 C131.310244,302.044329 131.689756,302.044329 131.998284,301.867014 L262.498284,226.867014 C262.808652,226.688642 263,226.357973 263,226 L263,76 C263,75.6420268 262.808652,75.3113583 262.498284,75.1329861 L131.998284,0.132986056 C131.689756,-0.0443286853 131.310244,-0.0443286853 131.001716,0.132986056 Z M131.5,1 L262,76 L262,226 L131.5,301 L1,226 L1,76 L131.5,1 Z" id="Rectangle"></path>
                <path d="M261.750858,75.566493 C261.990277,75.4288957 262.29591,75.5114388 262.433507,75.7508581 C262.555816,75.9636752 262.504186,76.2288088 262.323051,76.381739 L262.249142,76.433507 L1.24914194,226.433507 C1.00972265,226.571104 0.704090321,226.488561 0.566493028,226.249142 C0.444184323,226.036325 0.495813657,225.771191 0.676948646,225.618261 L0.750858062,225.566493 L261.750858,75.566493 Z" id="Path-Copy-2"></path>
                <path d="M24.5038552,44.4268251 C24.6770774,44.2529154 24.9464631,44.2330967 25.1415982,44.3677065 L25.2109605,44.4254247 L238.494744,256.866069 C238.690393,257.060945 238.69102,257.377526 238.496145,257.573175 C238.322923,257.747085 238.053537,257.766903 237.858402,257.632293 L237.789039,257.574575 L24.5052556,45.1339305 C24.3096071,44.9390555 24.3089801,44.6224736 24.5038552,44.4268251 Z" id="Path-Copy-3" transform="translate(131.500000, 151.000000) rotate(-15.000000) translate(-131.500000, -151.000000) "></path>
                <path d="M131.5,0.5 C131.74546,0.5 131.949608,0.676875161 131.991944,0.910124368 L132,1 L132,301 C132,301.276142 131.776142,301.5 131.5,301.5 C131.25454,301.5 131.050392,301.323125 131.008056,301.089876 L131,301 L131,1 C131,0.723857625 131.223858,0.5 131.5,0.5 Z" id="Path-Copy"></path>
            </g>
            <g transform="translate(1310.000000, 0.000000)">
                <path d="M131.001716,0.132986056 L0.501716124,75.1329861 C0.191348333,75.3113583 0,75.6420268 0,76 L0,226 C0,226.357973 0.191348333,226.688642 0.501716124,226.867014 L131.001716,301.867014 C131.310244,302.044329 131.689756,302.044329 131.998284,301.867014 L262.498284,226.867014 C262.808652,226.688642 263,226.357973 263,226 L263,76 C263,75.6420268 262.808652,75.3113583 262.498284,75.1329861 L131.998284,0.132986056 C131.689756,-0.0443286853 131.310244,-0.0443286853 131.001716,0.132986056 Z M131.5,1 L262,76 L262,226 L131.5,301 L1,226 L1,76 L131.5,1 Z" id="Rectangle"></path>
                <path d="M261.750858,75.566493 C261.990277,75.4288957 262.29591,75.5114388 262.433507,75.7508581 C262.555816,75.9636752 262.504186,76.2288088 262.323051,76.381739 L262.249142,76.433507 L1.24914194,226.433507 C1.00972265,226.571104 0.704090321,226.488561 0.566493028,226.249142 C0.444184323,226.036325 0.495813657,225.771191 0.676948646,225.618261 L0.750858062,225.566493 L261.750858,75.566493 Z" id="Path-Copy-2"></path>
                <path d="M24.5038552,44.4268251 C24.6770774,44.2529154 24.9464631,44.2330967 25.1415982,44.3677065 L25.2109605,44.4254247 L238.494744,256.866069 C238.690393,257.060945 238.69102,257.377526 238.496145,257.573175 C238.322923,257.747085 238.053537,257.766903 237.858402,257.632293 L237.789039,257.574575 L24.5052556,45.1339305 C24.3096071,44.9390555 24.3089801,44.6224736 24.5038552,44.4268251 Z" id="Path-Copy-3" transform="translate(131.500000, 151.000000) rotate(-15.000000) translate(-131.500000, -151.000000) "></path>
                <path d="M131.5,0.5 C131.74546,0.5 131.949608,0.676875161 131.991944,0.910124368 L132,1 L132,301 C132,301.276142 131.776142,301.5 131.5,301.5 C131.25454,301.5 131.050392,301.323125 131.008056,301.089876 L131,301 L131,1 C131,0.723857625 131.223858,0.5 131.5,0.5 Z" id="Path-Copy"></path>
            </g>
        </g>
    </g>
</svg>