<?xml version="1.0" encoding="UTF-8"?>
<svg width="1440px" height="900px" viewBox="0 0 1440 900" version="1.1" xmlns="http://www.w3.org/2000/svg" xmlns:xlink="http://www.w3.org/1999/xlink">
    <!-- Generator: Sketch 61 (89581) - https://sketch.com -->
    <title>bg2</title>
    <desc>Created with Sketch.</desc>
    <g id="bg2" stroke="none" stroke-width="1" fill="none" fill-rule="evenodd" opacity="0.038486">
        <g transform="translate(-53.000000, -4.000000)">
            <path d="M528.7838,834.964 C528.7838,853.452 513.7978,868.44 495.3078,868.44 C476.8198,868.44 461.8298,853.452 461.8298,834.964 C461.8298,816.474 476.8198,801.488 495.3078,801.488 C513.7978,801.488 528.7838,816.474 528.7838,834.964 Z" id="Stroke-1" stroke="#000000" stroke-width="6.904" stroke-dasharray="2.197999954223633,2.930000066757202"></path>
            <path d="M539.8386,826.0128 C539.8386,844.5028 524.8506,859.4888 506.3626,859.4888 C487.8746,859.4888 472.8846,844.5028 472.8846,826.0128 C472.8846,807.5248 487.8746,792.5368 506.3626,792.5368 C524.8506,792.5368 539.8386,807.5248 539.8386,826.0128 Z" id="Stroke-3" stroke="#17103C" stroke-width="4" stroke-linecap="round" stroke-linejoin="round"></path>
            <path d="M864.231,104.1426 C864.231,121.3946 850.245,135.3786 832.995,135.3786 C815.743,135.3786 801.759,121.3946 801.759,104.1426 C801.759,86.8926 815.743,72.9066 832.995,72.9066 C850.245,72.9066 864.231,86.8926 864.231,104.1426 Z" id="Stroke-5" stroke="#000000" stroke-width="6.904" stroke-dasharray="2.211999893188477,2.950000047683716"></path>
            <path d="M874.5456,95.792 C874.5456,113.042 860.5596,127.028 843.3096,127.028 C826.0576,127.028 812.0736,113.042 812.0736,95.792 C812.0736,78.542 826.0576,64.556 843.3096,64.556 C860.5596,64.556 874.5456,78.542 874.5456,95.792 Z" id="Stroke-7" stroke="#17103C" stroke-width="4" stroke-linecap="round" stroke-linejoin="round"></path>
            <path d="M1292.5454,720.669 C1292.5454,737.919 1278.5594,751.905 1261.3094,751.905 C1244.0574,751.905 1230.0734,737.919 1230.0734,720.669 C1230.0734,703.417 1244.0574,689.433 1261.3094,689.433 C1278.5594,689.433 1292.5454,703.417 1292.5454,720.669 Z" id="Stroke-9" stroke="#00BCD4" stroke-width="6.904" stroke-dasharray="2.211999893188477,2.950000047683716"></path>
            <path d="M1302.86,712.3176 C1302.86,729.5696 1288.874,743.5536 1271.624,743.5536 C1254.372,743.5536 1240.388,729.5696 1240.388,712.3176 C1240.388,695.0676 1254.372,681.0816 1271.624,681.0816 C1288.874,681.0816 1302.86,695.0676 1302.86,712.3176 Z" id="Stroke-11" stroke="#17103C" stroke-width="4" stroke-linecap="round" stroke-linejoin="round"></path>
            <path d="M1035.2818,190.381 C1035.2818,203.497 1024.6518,214.129 1011.5358,214.129 C998.4198,214.129 987.7878,203.497 987.7878,190.381 C987.7878,177.265 998.4198,166.633 1011.5358,166.633 C1024.6518,166.633 1035.2818,177.265 1035.2818,190.381" id="Fill-13" fill="#000000"></path>
            <path d="M1027.8892,195.9454 C1027.8892,208.5314 1017.6852,218.7374 1005.0992,218.7374 C992.5132,218.7374 982.3092,208.5314 982.3092,195.9454 C982.3092,183.3594 992.5132,173.1554 1005.0992,173.1554 C1017.6852,173.1554 1027.8892,183.3594 1027.8892,195.9454 Z" id="Stroke-15" stroke="#17103C" stroke-width="4" stroke-linecap="round" stroke-linejoin="round"></path>
            <path d="M228.235,458.088 C228.235,470.674 218.031,480.878 205.445,480.878 C192.859,480.878 182.655,470.674 182.655,458.088 C182.655,445.502 192.859,435.298 205.445,435.298 C218.031,435.298 228.235,445.502 228.235,458.088 Z" id="Stroke-19" stroke="#17103C" stroke-width="4" stroke-linecap="round" stroke-linejoin="round"></path>
            <polygon id="Stroke-23" stroke="#17103C" stroke-width="4" stroke-linecap="round" stroke-linejoin="round" points="629.5846 753.1164 674.1066 676.0024 585.0626 676.0024"></polygon>
            <line x1="713.2976" y1="202.6662" x2="713.2976" y2="214.6202" id="Stroke-25" stroke="#000000" stroke-width="4" stroke-linecap="round" stroke-linejoin="round"></line>
            <line x1="719.274" y1="208.6436" x2="707.32" y2="208.6436" id="Stroke-27" stroke="#000000" stroke-width="4" stroke-linecap="round" stroke-linejoin="round"></line>
            <line x1="739.1432" y1="202.6662" x2="739.1432" y2="214.6202" id="Stroke-29" stroke="#000000" stroke-width="4" stroke-linecap="round" stroke-linejoin="round"></line>
            <line x1="745.1198" y1="208.6436" x2="733.1658" y2="208.6436" id="Stroke-31" stroke="#000000" stroke-width="4" stroke-linecap="round" stroke-linejoin="round"></line>
            <line x1="764.989" y1="202.6662" x2="764.989" y2="214.6202" id="Stroke-33" stroke="#000000" stroke-width="4" stroke-linecap="round" stroke-linejoin="round"></line>
            <line x1="770.9636" y1="208.6436" x2="759.0096" y2="208.6436" id="Stroke-35" stroke="#000000" stroke-width="4" stroke-linecap="round" stroke-linejoin="round"></line>
            <line x1="1395.938" y1="777.7492" x2="1407.892" y2="777.7492" id="Stroke-37" stroke="#000000" stroke-width="4" stroke-linecap="round" stroke-linejoin="round"></line>
            <line x1="1401.9146" y1="771.7726" x2="1401.9146" y2="783.7266" id="Stroke-39" stroke="#000000" stroke-width="4" stroke-linecap="round" stroke-linejoin="round"></line>
            <line x1="1395.938" y1="751.9054" x2="1407.892" y2="751.9054" id="Stroke-41" stroke="#000000" stroke-width="4" stroke-linecap="round" stroke-linejoin="round"></line>
            <line x1="1401.9146" y1="745.9288" x2="1401.9146" y2="757.8828" id="Stroke-43" stroke="#000000" stroke-width="4" stroke-linecap="round" stroke-linejoin="round"></line>
            <line x1="1395.938" y1="726.0596" x2="1407.892" y2="726.0596" id="Stroke-45" stroke="#000000" stroke-width="4" stroke-linecap="round" stroke-linejoin="round"></line>
            <line x1="1401.9146" y1="720.0832" x2="1401.9146" y2="732.0372" id="Stroke-47" stroke="#000000" stroke-width="4" stroke-linecap="round" stroke-linejoin="round"></line>
            <line x1="898.2956" y1="217.1114" x2="898.2956" y2="229.0654" id="Stroke-49" stroke="#17103C" stroke-width="4" stroke-linecap="round" stroke-linejoin="round"></line>
            <line x1="904.2722" y1="223.088" x2="892.3182" y2="223.088" id="Stroke-51" stroke="#17103C" stroke-width="4" stroke-linecap="round" stroke-linejoin="round"></line>
            <line x1="512.3386" y1="440.0782" x2="512.3386" y2="452.0322" id="Stroke-53" stroke="#17103C" stroke-width="4" stroke-linecap="round" stroke-linejoin="round"></line>
            <line x1="518.315" y1="446.0558" x2="506.361" y2="446.0558" id="Stroke-55" stroke="#17103C" stroke-width="4" stroke-linecap="round" stroke-linejoin="round"></line>
            <line x1="424.8268" y1="673.0246" x2="424.8268" y2="684.9786" id="Stroke-57" stroke="#000000" stroke-width="4" stroke-linecap="round" stroke-linejoin="round"></line>
            <line x1="430.8034" y1="679.001" x2="418.8494" y2="679.001" id="Stroke-59" stroke="#000000" stroke-width="4" stroke-linecap="round" stroke-linejoin="round"></line>
            <line x1="787.6646" y1="534.6906" x2="787.6646" y2="546.6446" id="Stroke-61" stroke="#000000" stroke-width="4" stroke-linecap="round" stroke-linejoin="round"></line>
            <line x1="793.6412" y1="540.6672" x2="781.6872" y2="540.6672" id="Stroke-63" stroke="#000000" stroke-width="4" stroke-linecap="round" stroke-linejoin="round"></line>
            <line x1="1028.2466" y1="390.6954" x2="1028.2466" y2="402.6494" id="Stroke-65" stroke="#000000" stroke-width="4" stroke-linecap="round" stroke-linejoin="round"></line>
            <line x1="1034.2232" y1="396.672" x2="1022.2692" y2="396.672" id="Stroke-67" stroke="#000000" stroke-width="4" stroke-linecap="round" stroke-linejoin="round"></line>
            <line x1="869.4146" y1="0" x2="869.4146" y2="11.954" id="Stroke-69" stroke="#000000" stroke-width="4" stroke-linecap="round" stroke-linejoin="round"></line>
            <line x1="875.3912" y1="5.9766" x2="863.4372" y2="5.9766" id="Stroke-71" stroke="#000000" stroke-width="4" stroke-linecap="round" stroke-linejoin="round"></line>
            <line x1="1348.1236" y1="149.3086" x2="1348.1236" y2="161.2626" id="Stroke-73" stroke="#000000" stroke-width="4" stroke-linecap="round" stroke-linejoin="round"></line>
            <line x1="1354.1002" y1="155.2852" x2="1342.1462" y2="155.2852" id="Stroke-75" stroke="#000000" stroke-width="4" stroke-linecap="round" stroke-linejoin="round"></line>
            <line x1="620.983" y1="893.759" x2="620.983" y2="905.713" id="Stroke-77" stroke="#000000" stroke-width="4" stroke-linecap="round" stroke-linejoin="round"></line>
            <line x1="626.9596" y1="899.7354" x2="615.0056" y2="899.7354" id="Stroke-79" stroke="#000000" stroke-width="4" stroke-linecap="round" stroke-linejoin="round"></line>
            <line x1="319.8404" y1="358.9912" x2="319.8404" y2="370.9452" id="Stroke-81" stroke="#000000" stroke-width="4" stroke-linecap="round" stroke-linejoin="round"></line>
            <line x1="325.817" y1="364.9678" x2="313.863" y2="364.9678" id="Stroke-83" stroke="#000000" stroke-width="4" stroke-linecap="round" stroke-linejoin="round"></line>
            <line x1="506.362" y1="179.0948" x2="506.362" y2="191.0488" id="Stroke-85" stroke="#17103C" stroke-width="4" stroke-linecap="round" stroke-linejoin="round"></line>
            <line x1="512.3386" y1="185.0714" x2="500.3846" y2="185.0714" id="Stroke-87" stroke="#17103C" stroke-width="4" stroke-linecap="round" stroke-linejoin="round"></line>
            <line x1="911.444" y1="716.4932" x2="911.444" y2="728.4472" id="Stroke-89" stroke="#17103C" stroke-width="4" stroke-linecap="round" stroke-linejoin="round"></line>
            <line x1="917.4206" y1="722.4698" x2="905.4666" y2="722.4698" id="Stroke-91" stroke="#17103C" stroke-width="4" stroke-linecap="round" stroke-linejoin="round"></line>
            <line x1="937.2878" y1="716.4932" x2="937.2878" y2="728.4472" id="Stroke-93" stroke="#17103C" stroke-width="4" stroke-linecap="round" stroke-linejoin="round"></line>
            <line x1="943.2642" y1="722.4698" x2="931.3102" y2="722.4698" id="Stroke-95" stroke="#17103C" stroke-width="4" stroke-linecap="round" stroke-linejoin="round"></line>
            <line x1="963.1334" y1="716.4932" x2="963.1334" y2="728.4472" id="Stroke-97" stroke="#17103C" stroke-width="4" stroke-linecap="round" stroke-linejoin="round"></line>
            <line x1="969.11" y1="722.4698" x2="957.156" y2="722.4698" id="Stroke-99" stroke="#17103C" stroke-width="4" stroke-linecap="round" stroke-linejoin="round"></line>
            <line x1="151.3658" y1="320.4542" x2="151.3658" y2="332.4082" id="Stroke-101" stroke="#000000" stroke-width="4" stroke-linecap="round" stroke-linejoin="round"></line>
            <line x1="157.3444" y1="326.4308" x2="145.3904" y2="326.4308" id="Stroke-103" stroke="#000000" stroke-width="4" stroke-linecap="round" stroke-linejoin="round"></line>
            <path d="M1329.8228,454.8272 C1329.8228,460.6612 1325.0948,465.3892 1319.2628,465.3892 C1313.4308,465.3892 1308.7008,460.6612 1308.7008,454.8272 C1308.7008,448.9952 1313.4308,444.2672 1319.2628,444.2672 C1325.0948,444.2672 1329.8228,448.9952 1329.8228,454.8272 Z" id="Stroke-117" stroke="#000000" stroke-width="4" stroke-linecap="round" stroke-linejoin="round"></path>
            <path d="M793.7818,716.214 C793.7818,722.046 789.0538,726.774 783.2218,726.774 C777.3878,726.774 772.6578,722.046 772.6578,716.214 C772.6578,710.38 777.3878,705.652 783.2218,705.652 C789.0538,705.652 793.7818,710.38 793.7818,716.214 Z" id="Stroke-119" stroke="#000000" stroke-width="4" stroke-linecap="round" stroke-linejoin="round"></path>
            <path d="M998.3482,53.6564 C998.3482,59.4904 993.6222,64.2184 987.7882,64.2184 C981.9562,64.2184 977.2262,59.4904 977.2262,53.6564 C977.2262,47.8244 981.9562,43.0964 987.7882,43.0964 C993.6222,43.0964 998.3482,47.8244 998.3482,53.6564 Z" id="Stroke-121" stroke="#17103C" stroke-width="4" stroke-linecap="round" stroke-linejoin="round"></path>
            <path d="M1383.5592,644.759 C1383.5592,650.591 1378.8292,655.319 1372.9972,655.319 C1367.1652,655.319 1362.4352,650.591 1362.4352,644.759 C1362.4352,638.925 1367.1652,634.197 1372.9972,634.197 C1378.8292,634.197 1383.5592,638.925 1383.5592,644.759 Z" id="Stroke-123" stroke="#17103C" stroke-width="4" stroke-linecap="round" stroke-linejoin="round"></path>
            <path d="M922.0046,413.21 C922.0046,419.044 917.2766,423.772 911.4446,423.772 C905.6106,423.772 900.8806,419.044 900.8806,413.21 C900.8806,407.376 905.6106,402.648 911.4446,402.648 C917.2766,402.648 922.0046,407.376 922.0046,413.21 Z" id="Stroke-125" stroke="#17103C" stroke-width="4" stroke-linecap="round" stroke-linejoin="round"></path>
            <path d="M119.5592,578.0636 C119.5592,583.8976 114.8312,588.6236 108.9992,588.6236 C103.1672,588.6236 98.4372,583.8976 98.4372,578.0636 C98.4372,572.2316 103.1672,567.5036 108.9992,567.5036 C114.8312,567.5036 119.5592,572.2316 119.5592,578.0636 Z" id="Stroke-127" stroke="#17103C" stroke-width="4" stroke-linecap="round" stroke-linejoin="round"></path>
            <path d="M394.901,562.55 C398.915,558.536 404.571,564.192 408.587,560.178 C412.603,556.164 406.945,550.506 410.961,546.49 C414.979,542.472 420.637,548.128 424.655,544.11 C428.673,540.092 423.017,534.434 427.033,530.418 C431.051,526.4 436.707,532.056 440.727,528.038 C444.747,524.018 439.089,518.362 443.109,514.342 C447.123,510.326 452.781,515.984 456.797,511.966 C460.819,507.946 455.163,502.288 459.183,498.268 C463.205,494.246 468.861,499.902 472.885,495.878" id="Stroke-129" stroke="#000000" stroke-width="4" stroke-linecap="round" stroke-linejoin="round"></path>
            <path d="M233.444,110.3908 C237.458,106.3768 243.116,112.0328 247.13,108.0188 C251.146,104.0028 245.488,98.3468 249.504,94.3308 C253.524,90.3108 259.18,95.9688 263.198,91.9508 C267.216,87.9328 261.56,82.2748 265.576,78.2588 C269.594,74.2388 275.252,79.8968 279.27,75.8788 C283.29,71.8588 277.632,66.2028 281.652,62.1828 C285.668,58.1668 291.324,63.8228 295.342,59.8068 C299.362,55.7868 293.706,50.1288 297.726,46.1088 C301.748,42.0868 307.404,47.7428 311.428,43.7208" id="Stroke-131" stroke="#000000" stroke-width="4" stroke-linecap="round" stroke-linejoin="round"></path>
            <path d="M853.3268,642.712 C857.3408,638.696 862.9988,644.354 867.0128,640.338 C871.0288,636.324 865.3708,630.668 869.3868,626.652 C873.4048,622.632 879.0628,628.29 883.0808,624.27 C887.0988,620.254 881.4428,614.596 885.4588,610.58 C889.4768,606.56 895.1348,612.218 899.1528,608.2 C903.1728,604.18 897.5148,598.522 901.5348,594.504 C905.5508,590.488 911.2068,596.144 915.2248,592.128 C919.2448,588.106 913.5888,582.45 917.6088,578.428 C921.6308,574.408 927.2868,580.064 931.3108,576.04" id="Stroke-133" stroke="#000000" stroke-width="4" stroke-linecap="round" stroke-linejoin="round"></path>
            <path d="M1313.145,586.9738 C1317.159,582.9598 1322.815,588.6158 1326.831,584.6018 C1330.847,580.5878 1325.189,574.9318 1329.205,570.9138 C1333.223,566.8958 1338.881,572.5518 1342.899,568.5338 C1346.917,564.5158 1341.261,558.8598 1345.277,554.8418 C1349.295,550.8238 1354.951,556.4798 1358.971,552.4618 C1362.989,548.4418 1357.333,542.7858 1361.353,538.7658 C1365.369,534.7518 1371.025,540.4078 1375.043,536.3898 C1379.063,532.3698 1373.407,526.7118 1377.427,522.6918 C1381.449,518.6698 1387.105,524.3278 1391.129,520.3038" id="Stroke-135" stroke="#000000" stroke-width="4" stroke-linecap="round" stroke-linejoin="round"></path>
            <path d="M1154.8052,166.9054 C1158.8192,162.8914 1164.4772,168.5474 1168.4912,164.5334 C1172.5072,160.5174 1166.8492,154.8614 1170.8652,150.8454 C1174.8852,146.8254 1180.5412,152.4834 1184.5592,148.4654 C1188.5772,144.4474 1182.9212,138.7894 1186.9372,134.7734 C1190.9552,130.7534 1196.6132,136.4114 1200.6312,132.3934 C1204.6512,128.3734 1198.9932,122.7174 1203.0132,118.6974 C1207.0292,114.6814 1212.6852,120.3374 1216.7032,116.3214 C1220.7232,112.3014 1215.0672,106.6434 1219.0872,102.6234 C1223.1092,98.6014 1228.7672,104.2574 1232.7892,100.2354" id="Stroke-137" stroke="#000000" stroke-width="4" stroke-linecap="round" stroke-linejoin="round"></path>
            <polygon id="Stroke-139" stroke="#17103C" stroke-width="4" stroke-linecap="round" stroke-linejoin="round" points="134.7468 223.088 120.0788 214.62 120.0788 231.556"></polygon>
            <polygon id="Stroke-141" stroke="#17103C" stroke-width="4" stroke-linecap="round" stroke-linejoin="round" points="166.0338 223.088 151.3678 214.62 151.3678 231.556"></polygon>
            <polygon id="Stroke-143" stroke="#17103C" stroke-width="4" stroke-linecap="round" stroke-linejoin="round" points="197.321 223.088 182.655 214.62 182.655 231.556"></polygon>
            <polygon id="Stroke-145" stroke="#17103C" stroke-width="4" stroke-linecap="round" stroke-linejoin="round" points="1145.8892 345.6994 1131.2232 337.2314 1131.2232 354.1674"></polygon>
            <polygon id="Stroke-147" stroke="#17103C" stroke-width="4" stroke-linecap="round" stroke-linejoin="round" points="1177.1764 345.6994 1162.5104 337.2314 1162.5104 354.1674"></polygon>
            <polygon id="Stroke-149" stroke="#17103C" stroke-width="4" stroke-linecap="round" stroke-linejoin="round" points="1208.4634 345.6994 1193.7974 337.2314 1193.7974 354.1674"></polygon>
            <polygon id="Stroke-151" stroke="#17103C" stroke-width="4" stroke-linecap="round" stroke-linejoin="round" points="620.9244 537.6828 606.2584 529.2148 606.2584 546.1488"></polygon>
            <polygon id="Stroke-153" stroke="#17103C" stroke-width="4" stroke-linecap="round" stroke-linejoin="round" points="342.5728 128.7354 351.0388 114.0694 334.1048 114.0694"></polygon>
            <polygon id="Stroke-155" stroke="#17103C" stroke-width="4" stroke-linecap="round" stroke-linejoin="round" points="951.4322 833.0148 942.9642 847.6808 959.8982 847.6808"></polygon>
            <path d="M253.2136,640.7452 C253.2136,642.9612 251.4176,644.7592 249.1996,644.7592 C246.9836,644.7592 245.1856,642.9612 245.1856,640.7452 C245.1856,638.5292 246.9836,636.7312 249.1996,636.7312 C251.4176,636.7312 253.2136,638.5292 253.2136,640.7452" id="Fill-157" fill="#212121"></path>
            <path d="M280.4634,640.7452 C280.4634,642.9612 278.6674,644.7592 276.4494,644.7592 C274.2334,644.7592 272.4354,642.9612 272.4354,640.7452 C272.4354,638.5292 274.2334,636.7312 276.4494,636.7312 C278.6674,636.7312 280.4634,638.5292 280.4634,640.7452" id="Fill-159" fill="#212121"></path>
            <path d="M307.7134,640.7452 C307.7134,642.9612 305.9174,644.7592 303.6994,644.7592 C301.4834,644.7592 299.6854,642.9612 299.6854,640.7452 C299.6854,638.5292 301.4834,636.7312 303.6994,636.7312 C305.9174,636.7312 307.7134,638.5292 307.7134,640.7452" id="Fill-161" fill="#212121"></path>
            <path d="M253.2136,667.9952 C253.2136,670.2092 251.4176,672.0092 249.1996,672.0092 C246.9836,672.0092 245.1856,670.2092 245.1856,667.9952 C245.1856,665.7792 246.9836,663.9812 249.1996,663.9812 C251.4176,663.9812 253.2136,665.7792 253.2136,667.9952" id="Fill-163" fill="#212121"></path>
            <path d="M280.4634,667.9952 C280.4634,670.2092 278.6674,672.0092 276.4494,672.0092 C274.2334,672.0092 272.4354,670.2092 272.4354,667.9952 C272.4354,665.7792 274.2334,663.9812 276.4494,663.9812 C278.6674,663.9812 280.4634,665.7792 280.4634,667.9952" id="Fill-165" fill="#212121"></path>
            <path d="M307.7134,667.9952 C307.7134,670.2092 305.9174,672.0092 303.6994,672.0092 C301.4834,672.0092 299.6854,670.2092 299.6854,667.9952 C299.6854,665.7792 301.4834,663.9812 303.6994,663.9812 C305.9174,663.9812 307.7134,665.7792 307.7134,667.9952" id="Fill-167" fill="#212121"></path>
            <path d="M253.2136,695.2432 C253.2136,697.4592 251.4176,699.2572 249.1996,699.2572 C246.9836,699.2572 245.1856,697.4592 245.1856,695.2432 C245.1856,693.0272 246.9836,691.2312 249.1996,691.2312 C251.4176,691.2312 253.2136,693.0272 253.2136,695.2432" id="Fill-169" fill="#212121"></path>
            <path d="M280.4634,695.2432 C280.4634,697.4592 278.6674,699.2572 276.4494,699.2572 C274.2334,699.2572 272.4354,697.4592 272.4354,695.2432 C272.4354,693.0272 274.2334,691.2312 276.4494,691.2312 C278.6674,691.2312 280.4634,693.0272 280.4634,695.2432" id="Fill-171" fill="#212121"></path>
            <path d="M307.7134,695.2432 C307.7134,697.4592 305.9174,699.2572 303.6994,699.2572 C301.4834,699.2572 299.6854,697.4592 299.6854,695.2432 C299.6854,693.0272 301.4834,691.2312 303.6994,691.2312 C305.9174,691.2312 307.7134,693.0272 307.7134,695.2432" id="Fill-173" fill="#212121"></path>
            <path d="M1312.4244,362.13 C1313.9924,363.698 1313.9924,366.238 1312.4244,367.806 C1310.8584,369.374 1308.3144,369.374 1306.7484,367.806 C1305.1824,366.238 1305.1824,363.698 1306.7484,362.13 C1308.3164,360.562 1310.8584,360.562 1312.4244,362.13 Z" id="Stroke-175" stroke="#212121" stroke-width="2"></path>
            <path d="M1331.694,342.8614 C1333.26,344.4294 1333.26,346.9714 1331.694,348.5374 C1330.126,350.1054 1327.584,350.1054 1326.018,348.5374 C1324.45,346.9714 1324.45,344.4294 1326.018,342.8614 C1327.584,341.2934 1330.126,341.2934 1331.694,342.8614 Z" id="Stroke-177" stroke="#212121" stroke-width="2"></path>
            <path d="M1350.9616,323.5928 C1352.5276,325.1608 1352.5276,327.7028 1350.9616,329.2688 C1349.3956,330.8368 1346.8516,330.8368 1345.2856,329.2688 C1343.7176,327.7028 1343.7176,325.1608 1345.2856,323.5928 C1346.8516,322.0268 1349.3956,322.0268 1350.9616,323.5928 Z" id="Stroke-179" stroke="#212121" stroke-width="2"></path>
            <path d="M1370.229,304.3244 C1371.797,305.8924 1371.797,308.4344 1370.229,310.0004 C1368.663,311.5684 1366.121,311.5684 1364.553,310.0004 C1362.987,308.4344 1362.987,305.8924 1364.553,304.3244 C1366.121,302.7584 1368.663,302.7584 1370.229,304.3244 Z" id="Stroke-181" stroke="#212121" stroke-width="2"></path>
            <path d="M1389.4986,285.0568 C1391.0646,286.6248 1391.0646,289.1648 1389.4986,290.7328 C1387.9306,292.3008 1385.3886,292.3008 1383.8226,290.7328 C1382.2546,289.1648 1382.2546,286.6248 1383.8226,285.0568 C1385.3886,283.4888 1387.9306,283.4888 1389.4986,285.0568 Z" id="Stroke-183" stroke="#212121" stroke-width="2"></path>
            <path d="M1408.7662,265.7882 C1410.3342,267.3562 1410.3342,269.8962 1408.7662,271.4642 C1407.2002,273.0322 1404.6582,273.0322 1403.0902,271.4642 C1401.5242,269.8962 1401.5242,267.3562 1403.0902,265.7882 C1404.6582,264.2202 1407.2002,264.2202 1408.7662,265.7882 Z" id="Stroke-185" stroke="#212121" stroke-width="2"></path>
            <path d="M1428.0358,246.5196 C1429.6018,248.0876 1429.6018,250.6276 1428.0358,252.1956 C1426.4678,253.7636 1423.9258,253.7636 1422.3598,252.1956 C1420.7918,250.6276 1420.7918,248.0876 1422.3598,246.5196 C1423.9258,244.9516 1426.4678,244.9516 1428.0358,246.5196 Z" id="Stroke-187" stroke="#212121" stroke-width="2"></path>
            <path d="M1331.694,381.3986 C1333.26,382.9666 1333.26,385.5066 1331.694,387.0746 C1330.126,388.6426 1327.584,388.6426 1326.018,387.0746 C1324.45,385.5066 1324.45,382.9666 1326.018,381.3986 C1327.584,379.8306 1330.126,379.8306 1331.694,381.3986 Z" id="Stroke-189" stroke="#212121" stroke-width="2"></path>
            <path d="M1350.9616,362.13 C1352.5276,363.698 1352.5276,366.238 1350.9616,367.806 C1349.3956,369.374 1346.8516,369.374 1345.2856,367.806 C1343.7176,366.238 1343.7176,363.698 1345.2856,362.13 C1346.8516,360.562 1349.3956,360.562 1350.9616,362.13 Z" id="Stroke-191" stroke="#212121" stroke-width="2"></path>
            <path d="M1370.229,342.8614 C1371.797,344.4294 1371.797,346.9714 1370.229,348.5374 C1368.663,350.1054 1366.121,350.1054 1364.553,348.5374 C1362.987,346.9714 1362.987,344.4294 1364.553,342.8614 C1366.121,341.2934 1368.663,341.2934 1370.229,342.8614 Z" id="Stroke-193" stroke="#212121" stroke-width="2"></path>
            <path d="M1389.4986,323.5928 C1391.0646,325.1608 1391.0646,327.7028 1389.4986,329.2688 C1387.9306,330.8368 1385.3886,330.8368 1383.8226,329.2688 C1382.2546,327.7028 1382.2546,325.1608 1383.8226,323.5928 C1385.3886,322.0268 1387.9306,322.0268 1389.4986,323.5928 Z" id="Stroke-195" stroke="#212121" stroke-width="2"></path>
            <path d="M1408.7662,304.3244 C1410.3342,305.8924 1410.3342,308.4344 1408.7662,310.0004 C1407.2002,311.5684 1404.6582,311.5684 1403.0902,310.0004 C1401.5242,308.4344 1401.5242,305.8924 1403.0902,304.3244 C1404.6582,302.7564 1407.2002,302.7564 1408.7662,304.3244 Z" id="Stroke-197" stroke="#212121" stroke-width="2"></path>
            <path d="M1428.0358,285.0568 C1429.6018,286.6248 1429.6018,289.1648 1428.0358,290.7328 C1426.4678,292.3008 1423.9258,292.3008 1422.3598,290.7328 C1420.7918,289.1648 1420.7918,286.6248 1422.3598,285.0568 C1423.9258,283.4888 1426.4678,283.4888 1428.0358,285.0568 Z" id="Stroke-199" stroke="#212121" stroke-width="2"></path>
            <path d="M1447.3034,265.7882 C1448.8714,267.3562 1448.8714,269.8962 1447.3034,271.4642 C1445.7374,273.0322 1443.1954,273.0322 1441.6274,271.4642 C1440.0614,269.8962 1440.0614,267.3562 1441.6274,265.7882 C1443.1954,264.2202 1445.7374,264.2202 1447.3034,265.7882 Z" id="Stroke-201" stroke="#212121" stroke-width="2"></path>
            <path d="M1350.9616,400.6672 C1352.5276,402.2352 1352.5296,404.7752 1350.9616,406.3432 C1349.3956,407.9112 1346.8516,407.9112 1345.2856,406.3432 C1343.7176,404.7752 1343.7176,402.2352 1345.2856,400.6672 C1346.8516,399.0992 1349.3956,399.0992 1350.9616,400.6672 Z" id="Stroke-203" stroke="#212121" stroke-width="2"></path>
            <path d="M1370.229,381.3986 C1371.797,382.9666 1371.797,385.5066 1370.229,387.0746 C1368.663,388.6426 1366.121,388.6426 1364.553,387.0746 C1362.987,385.5066 1362.987,382.9666 1364.553,381.3986 C1366.121,379.8306 1368.663,379.8306 1370.229,381.3986 Z" id="Stroke-205" stroke="#212121" stroke-width="2"></path>
            <path d="M1389.4986,362.13 C1391.0646,363.698 1391.0646,366.238 1389.4986,367.806 C1387.9306,369.374 1385.3886,369.374 1383.8226,367.806 C1382.2546,366.238 1382.2546,363.698 1383.8226,362.13 C1385.3886,360.562 1387.9306,360.562 1389.4986,362.13 Z" id="Stroke-207" stroke="#212121" stroke-width="2"></path>
            <path d="M1408.7662,342.8614 C1410.3342,344.4294 1410.3342,346.9714 1408.7662,348.5374 C1407.2002,350.1054 1404.6582,350.1054 1403.0902,348.5374 C1401.5242,346.9714 1401.5242,344.4294 1403.0902,342.8614 C1404.6582,341.2934 1407.2002,341.2934 1408.7662,342.8614 Z" id="Stroke-209" stroke="#212121" stroke-width="2"></path>
            <path d="M1428.0358,323.5928 C1429.6018,325.1608 1429.6018,327.7028 1428.0358,329.2688 C1426.4678,330.8368 1423.9258,330.8368 1422.3598,329.2688 C1420.7918,327.7028 1420.7918,325.1608 1422.3598,323.5928 C1423.9258,322.0268 1426.4678,322.0268 1428.0358,323.5928 Z" id="Stroke-211" stroke="#212121" stroke-width="2"></path>
            <path d="M1447.3034,304.3244 C1448.8714,305.8924 1448.8714,308.4344 1447.3034,310.0004 C1445.7374,311.5684 1443.1954,311.5684 1441.6274,310.0004 C1440.0614,308.4344 1440.0614,305.8924 1441.6274,304.3244 C1443.1954,302.7564 1445.7374,302.7564 1447.3034,304.3244 Z" id="Stroke-213" stroke="#212121" stroke-width="2"></path>
            <path d="M1466.5728,285.0568 C1468.1388,286.6248 1468.1388,289.1648 1466.5728,290.7328 C1465.0048,292.3008 1462.4628,292.3008 1460.8948,290.7328 C1459.3288,289.1648 1459.3288,286.6248 1460.8948,285.0568 C1462.4628,283.4888 1465.0048,283.4888 1466.5728,285.0568 Z" id="Stroke-215" stroke="#212121" stroke-width="2"></path>
            <path d="M1370.229,419.9356 C1371.797,421.5036 1371.797,424.0436 1370.229,425.6116 C1368.663,427.1796 1366.121,427.1796 1364.553,425.6116 C1362.987,424.0436 1362.987,421.5036 1364.553,419.9356 C1366.121,418.3676 1368.663,418.3676 1370.229,419.9356 Z" id="Stroke-217" stroke="#212121" stroke-width="2"></path>
            <path d="M1389.4986,400.6672 C1391.0646,402.2352 1391.0646,404.7752 1389.4986,406.3432 C1387.9306,407.9112 1385.3886,407.9112 1383.8226,406.3432 C1382.2546,404.7752 1382.2546,402.2352 1383.8226,400.6672 C1385.3886,399.0992 1387.9306,399.0992 1389.4986,400.6672 Z" id="Stroke-219" stroke="#212121" stroke-width="2"></path>
            <path d="M1408.7662,381.3986 C1410.3342,382.9666 1410.3342,385.5066 1408.7662,387.0746 C1407.2002,388.6426 1404.6582,388.6426 1403.0902,387.0746 C1401.5242,385.5066 1401.5242,382.9666 1403.0902,381.3986 C1404.6582,379.8306 1407.2002,379.8306 1408.7662,381.3986 Z" id="Stroke-221" stroke="#212121" stroke-width="2"></path>
            <path d="M1428.0358,362.13 C1429.6018,363.698 1429.6018,366.238 1428.0358,367.806 C1426.4678,369.374 1423.9258,369.374 1422.3598,367.806 C1420.7918,366.238 1420.7918,363.698 1422.3598,362.13 C1423.9258,360.562 1426.4678,360.562 1428.0358,362.13 Z" id="Stroke-223" stroke="#212121" stroke-width="2"></path>
            <path d="M1447.3034,342.8614 C1448.8714,344.4294 1448.8714,346.9714 1447.3034,348.5374 C1445.7374,350.1054 1443.1954,350.1054 1441.6274,348.5374 C1440.0614,346.9714 1440.0614,344.4294 1441.6274,342.8614 C1443.1954,341.2934 1445.7374,341.2934 1447.3034,342.8614 Z" id="Stroke-225" stroke="#212121" stroke-width="2"></path>
            <path d="M1466.5728,323.5928 C1468.1388,325.1608 1468.1388,327.7028 1466.5728,329.2688 C1465.0048,330.8368 1462.4628,330.8368 1460.8948,329.2688 C1459.3288,327.7028 1459.3288,325.1608 1460.8948,323.5928 C1462.4628,322.0268 1465.0048,322.0268 1466.5728,323.5928 Z" id="Stroke-227" stroke="#212121" stroke-width="2"></path>
            <path d="M1485.8404,304.3244 C1487.4064,305.8924 1487.4064,308.4344 1485.8404,310.0004 C1484.2744,311.5684 1481.7304,311.5684 1480.1644,310.0004 C1478.5964,308.4344 1478.5964,305.8924 1480.1644,304.3244 C1481.7304,302.7564 1484.2744,302.7564 1485.8404,304.3244 Z" id="Stroke-229" stroke="#212121" stroke-width="2"></path>
            <path d="M1389.4986,439.2042 C1391.0646,440.7722 1391.0646,443.3122 1389.4986,444.8802 C1387.9306,446.4482 1385.3886,446.4482 1383.8226,444.8802 C1382.2546,443.3122 1382.2546,440.7722 1383.8226,439.2042 C1385.3886,437.6362 1387.9306,437.6362 1389.4986,439.2042 Z" id="Stroke-231" stroke="#212121" stroke-width="2"></path>
            <path d="M1408.7662,419.9356 C1410.3342,421.5036 1410.3342,424.0436 1408.7662,425.6116 C1407.2002,427.1796 1404.6582,427.1796 1403.0902,425.6116 C1401.5242,424.0436 1401.5242,421.5036 1403.0902,419.9356 C1404.6582,418.3676 1407.2002,418.3676 1408.7662,419.9356 Z" id="Stroke-233" stroke="#212121" stroke-width="2"></path>
            <path d="M1428.0358,400.6672 C1429.6018,402.2352 1429.6018,404.7752 1428.0358,406.3432 C1426.4678,407.9112 1423.9258,407.9112 1422.3598,406.3432 C1420.7918,404.7752 1420.7918,402.2352 1422.3598,400.6672 C1423.9258,399.0992 1426.4678,399.0992 1428.0358,400.6672 Z" id="Stroke-235" stroke="#212121" stroke-width="2"></path>
            <path d="M1447.3034,381.3986 C1448.8714,382.9666 1448.8714,385.5066 1447.3034,387.0746 C1445.7374,388.6426 1443.1954,388.6426 1441.6274,387.0746 C1440.0614,385.5066 1440.0614,382.9666 1441.6274,381.3986 C1443.1954,379.8306 1445.7374,379.8306 1447.3034,381.3986 Z" id="Stroke-237" stroke="#212121" stroke-width="2"></path>
            <path d="M1466.5728,362.13 C1468.1388,363.698 1468.1388,366.238 1466.5728,367.806 C1465.0048,369.374 1462.4628,369.374 1460.8948,367.806 C1459.3288,366.238 1459.3288,363.698 1460.8948,362.13 C1462.4628,360.562 1465.0048,360.562 1466.5728,362.13 Z" id="Stroke-239" stroke="#212121" stroke-width="2"></path>
            <path d="M1485.8404,342.8614 C1487.4064,344.4294 1487.4064,346.9714 1485.8404,348.5374 C1484.2744,350.1054 1481.7304,350.1054 1480.1644,348.5374 C1478.5964,346.9714 1478.5964,344.4294 1480.1644,342.8614 C1481.7304,341.2934 1484.2744,341.2934 1485.8404,342.8614 Z" id="Stroke-241" stroke="#212121" stroke-width="2"></path>
            <path d="M1389.4986,439.2042 C1391.0646,440.7722 1391.0646,443.3122 1389.4986,444.8802 C1387.9306,446.4482 1385.3886,446.4482 1383.8226,444.8802 C1382.2546,443.3122 1382.2546,440.7722 1383.8226,439.2042 C1385.3886,437.6362 1387.9306,437.6362 1389.4986,439.2042 Z" id="Stroke-245" stroke="#212121" stroke-width="2"></path>
            <path d="M1408.7662,419.9356 C1410.3342,421.5036 1410.3342,424.0436 1408.7662,425.6116 C1407.2002,427.1796 1404.6582,427.1796 1403.0902,425.6116 C1401.5242,424.0436 1401.5242,421.5036 1403.0902,419.9356 C1404.6582,418.3676 1407.2002,418.3676 1408.7662,419.9356 Z" id="Stroke-247" stroke="#212121" stroke-width="2"></path>
            <path d="M1428.0358,400.6672 C1429.6018,402.2352 1429.6018,404.7752 1428.0358,406.3432 C1426.4678,407.9112 1423.9258,407.9112 1422.3598,406.3432 C1420.7918,404.7752 1420.7918,402.2352 1422.3598,400.6672 C1423.9258,399.0992 1426.4678,399.0992 1428.0358,400.6672 Z" id="Stroke-249" stroke="#212121" stroke-width="2"></path>
            <path d="M1447.3034,381.3986 C1448.8714,382.9666 1448.8714,385.5066 1447.3034,387.0746 C1445.7374,388.6426 1443.1954,388.6426 1441.6274,387.0746 C1440.0614,385.5066 1440.0614,382.9666 1441.6274,381.3986 C1443.1954,379.8306 1445.7374,379.8306 1447.3034,381.3986 Z" id="Stroke-251" stroke="#212121" stroke-width="2"></path>
            <path d="M1466.5728,362.13 C1468.1388,363.698 1468.1388,366.238 1466.5728,367.806 C1465.0048,369.374 1462.4628,369.374 1460.8948,367.806 C1459.3288,366.238 1459.3288,363.698 1460.8948,362.13 C1462.4628,360.562 1465.0048,360.562 1466.5728,362.13 Z" id="Stroke-253" stroke="#212121" stroke-width="2"></path>
            <path d="M1485.8404,342.8614 C1487.4064,344.4294 1487.4064,346.9714 1485.8404,348.5374 C1484.2744,350.1054 1481.7304,350.1054 1480.1644,348.5374 C1478.5964,346.9714 1478.5964,344.4294 1480.1644,342.8614 C1481.7304,341.2934 1484.2744,341.2934 1485.8404,342.8614 Z" id="Stroke-255" stroke="#212121" stroke-width="2"></path>
            <path d="M1408.7662,458.4718 C1410.3342,460.0398 1410.3342,462.5818 1408.7662,464.1478 C1407.2002,465.7158 1404.6582,465.7158 1403.0902,464.1478 C1401.5242,462.5818 1401.5242,460.0398 1403.0902,458.4718 C1404.6582,456.9038 1407.2002,456.9038 1408.7662,458.4718 Z" id="Stroke-259" stroke="#212121" stroke-width="2"></path>
            <path d="M1428.0358,439.2042 C1429.6018,440.7722 1429.6018,443.3122 1428.0358,444.8802 C1426.4678,446.4482 1423.9258,446.4482 1422.3598,444.8802 C1420.7918,443.3122 1420.7918,440.7722 1422.3598,439.2042 C1423.9258,437.6362 1426.4678,437.6362 1428.0358,439.2042 Z" id="Stroke-261" stroke="#212121" stroke-width="2"></path>
            <path d="M1447.3034,419.9356 C1448.8714,421.5036 1448.8714,424.0436 1447.3034,425.6116 C1445.7374,427.1796 1443.1954,427.1796 1441.6274,425.6116 C1440.0614,424.0436 1440.0614,421.5036 1441.6274,419.9356 C1443.1954,418.3676 1445.7374,418.3676 1447.3034,419.9356 Z" id="Stroke-263" stroke="#212121" stroke-width="2"></path>
            <path d="M1466.5728,400.6672 C1468.1388,402.2352 1468.1388,404.7752 1466.5728,406.3432 C1465.0048,407.9112 1462.4628,407.9112 1460.8948,406.3432 C1459.3288,404.7752 1459.3288,402.2352 1460.8948,400.6672 C1462.4628,399.0992 1465.0048,399.0992 1466.5728,400.6672 Z" id="Stroke-265" stroke="#212121" stroke-width="2"></path>
            <path d="M1485.8404,381.3986 C1487.4064,382.9666 1487.4064,385.5066 1485.8404,387.0746 C1484.2744,388.6426 1481.7304,388.6426 1480.1644,387.0746 C1478.5964,385.5066 1478.5964,382.9666 1480.1644,381.3986 C1481.7304,379.8306 1484.2744,379.8306 1485.8404,381.3986 Z" id="Stroke-267" stroke="#212121" stroke-width="2"></path>
            <path d="M1428.0358,477.7414 C1429.6018,479.3074 1429.6018,481.8494 1428.0358,483.4174 C1426.4678,484.9834 1423.9258,484.9834 1422.3598,483.4174 C1420.7918,481.8494 1420.7918,479.3074 1422.3598,477.7414 C1423.9258,476.1734 1426.4678,476.1734 1428.0358,477.7414 Z" id="Stroke-273" stroke="#212121" stroke-width="2"></path>
            <path d="M1447.3034,458.4718 C1448.8714,460.0398 1448.8714,462.5818 1447.3034,464.1478 C1445.7374,465.7158 1443.1954,465.7158 1441.6274,464.1478 C1440.0614,462.5818 1440.0614,460.0398 1441.6274,458.4718 C1443.1954,456.9038 1445.7374,456.9038 1447.3034,458.4718 Z" id="Stroke-275" stroke="#212121" stroke-width="2"></path>
            <path d="M1466.5728,439.2042 C1468.1388,440.7722 1468.1388,443.3122 1466.5728,444.8802 C1465.0048,446.4482 1462.4628,446.4482 1460.8948,444.8802 C1459.3288,443.3122 1459.3288,440.7722 1460.8948,439.2042 C1462.4628,437.6362 1465.0048,437.6362 1466.5728,439.2042 Z" id="Stroke-277" stroke="#212121" stroke-width="2"></path>
            <path d="M1485.8404,419.9356 C1487.4064,421.5036 1487.4064,424.0436 1485.8404,425.6116 C1484.2724,427.1796 1481.7304,427.1796 1480.1644,425.6116 C1478.5964,424.0436 1478.5964,421.5036 1480.1644,419.9356 C1481.7304,418.3676 1484.2724,418.3676 1485.8404,419.9356 Z" id="Stroke-279" stroke="#212121" stroke-width="2"></path>
            <path d="M709.9304,794.751 C709.9304,796.967 708.1344,798.765 705.9164,798.765 C703.7004,798.765 701.9024,796.967 701.9024,794.751 C701.9024,792.535 703.7004,790.737 705.9164,790.737 C708.1344,790.737 709.9304,792.535 709.9304,794.751" id="Fill-287" fill="#212121"></path>
            <path d="M737.1804,794.751 C737.1804,796.967 735.3844,798.765 733.1664,798.765 C730.9504,798.765 729.1524,796.967 729.1524,794.751 C729.1524,792.535 730.9504,790.737 733.1664,790.737 C735.3844,790.737 737.1804,792.535 737.1804,794.751" id="Fill-289" fill="#212121"></path>
            <path d="M764.4284,794.751 C764.4284,796.967 762.6324,798.765 760.4144,798.765 C758.2004,798.765 756.4024,796.967 756.4024,794.751 C756.4024,792.535 758.2004,790.737 760.4144,790.737 C762.6324,790.737 764.4284,792.535 764.4284,794.751" id="Fill-291" fill="#212121"></path>
            <path d="M791.6784,794.751 C791.6784,796.967 789.8824,798.765 787.6644,798.765 C785.4484,798.765 783.6504,796.967 783.6504,794.751 C783.6504,792.535 785.4484,790.737 787.6644,790.737 C789.8824,790.737 791.6784,792.535 791.6784,794.751" id="Fill-293" fill="#212121"></path>
            <path d="M818.9284,794.751 C818.9284,796.967 817.1324,798.765 814.9144,798.765 C812.6984,798.765 810.9004,796.967 810.9004,794.751 C810.9004,792.535 812.6984,790.737 814.9144,790.737 C817.1324,790.737 818.9284,792.535 818.9284,794.751" id="Fill-295" fill="#212121"></path>
            <path d="M846.1784,794.751 C846.1784,796.967 844.3824,798.765 842.1644,798.765 C839.9484,798.765 838.1504,796.967 838.1504,794.751 C838.1504,792.535 839.9484,790.737 842.1644,790.737 C844.3824,790.737 846.1784,792.535 846.1784,794.751" id="Fill-297" fill="#212121"></path>
            <path d="M873.4284,794.751 C873.4284,796.967 871.6324,798.765 869.4144,798.765 C867.1984,798.765 865.4004,796.967 865.4004,794.751 C865.4004,792.535 867.1984,790.737 869.4144,790.737 C871.6324,790.737 873.4284,792.535 873.4284,794.751" id="Fill-299" fill="#212121"></path>
            <path d="M709.9304,822.001 C709.9304,824.215 708.1344,826.013 705.9164,826.013 C703.7004,826.013 701.9024,824.215 701.9024,822.001 C701.9024,819.785 703.7004,817.987 705.9164,817.987 C708.1344,817.987 709.9304,819.785 709.9304,822.001" id="Fill-301" fill="#212121"></path>
            <path d="M737.1804,822.001 C737.1804,824.215 735.3844,826.013 733.1664,826.013 C730.9504,826.013 729.1524,824.215 729.1524,822.001 C729.1524,819.785 730.9504,817.987 733.1664,817.987 C735.3844,817.987 737.1804,819.785 737.1804,822.001" id="Fill-303" fill="#212121"></path>
            <path d="M764.4284,822.001 C764.4284,824.215 762.6324,826.013 760.4144,826.013 C758.2004,826.013 756.4024,824.215 756.4024,822.001 C756.4024,819.785 758.2004,817.987 760.4144,817.987 C762.6324,817.987 764.4284,819.785 764.4284,822.001" id="Fill-305" fill="#212121"></path>
            <path d="M791.6784,822.001 C791.6784,824.215 789.8824,826.013 787.6644,826.013 C785.4484,826.013 783.6504,824.215 783.6504,822.001 C783.6504,819.785 785.4484,817.987 787.6644,817.987 C789.8824,817.987 791.6784,819.785 791.6784,822.001" id="Fill-307" fill="#212121"></path>
            <path d="M818.9284,822.001 C818.9284,824.215 817.1324,826.013 814.9144,826.013 C812.6984,826.013 810.9004,824.215 810.9004,822.001 C810.9004,819.785 812.6984,817.987 814.9144,817.987 C817.1324,817.987 818.9284,819.785 818.9284,822.001" id="Fill-309" fill="#212121"></path>
            <path d="M846.1784,822.001 C846.1784,824.215 844.3824,826.013 842.1644,826.013 C839.9484,826.013 838.1504,824.215 838.1504,822.001 C838.1504,819.785 839.9484,817.987 842.1644,817.987 C844.3824,817.987 846.1784,819.785 846.1784,822.001" id="Fill-311" fill="#212121"></path>
            <path d="M873.4284,822.001 C873.4284,824.215 871.6324,826.013 869.4144,826.013 C867.1984,826.013 865.4004,824.215 865.4004,822.001 C865.4004,819.785 867.1984,817.987 869.4144,817.987 C871.6324,817.987 873.4284,819.785 873.4284,822.001" id="Fill-313" fill="#212121"></path>
            <path d="M709.9304,849.2492 C709.9304,851.4652 708.1344,853.2632 705.9164,853.2632 C703.7004,853.2632 701.9024,851.4652 701.9024,849.2492 C701.9024,847.0332 703.7004,845.2352 705.9164,845.2352 C708.1344,845.2352 709.9304,847.0332 709.9304,849.2492" id="Fill-315" fill="#212121"></path>
            <path d="M737.1804,849.2492 C737.1804,851.4652 735.3844,853.2632 733.1664,853.2632 C730.9504,853.2632 729.1524,851.4652 729.1524,849.2492 C729.1524,847.0332 730.9504,845.2352 733.1664,845.2352 C735.3844,845.2352 737.1804,847.0332 737.1804,849.2492" id="Fill-317" fill="#212121"></path>
            <path d="M764.4284,849.2492 C764.4284,851.4652 762.6324,853.2632 760.4144,853.2632 C758.2004,853.2632 756.4024,851.4652 756.4024,849.2492 C756.4024,847.0332 758.2004,845.2352 760.4144,845.2352 C762.6324,845.2352 764.4284,847.0332 764.4284,849.2492" id="Fill-319" fill="#212121"></path>
            <path d="M791.6784,849.2492 C791.6784,851.4652 789.8824,853.2632 787.6644,853.2632 C785.4484,853.2632 783.6504,851.4652 783.6504,849.2492 C783.6504,847.0332 785.4484,845.2352 787.6644,845.2352 C789.8824,845.2352 791.6784,847.0332 791.6784,849.2492" id="Fill-321" fill="#212121"></path>
            <path d="M818.9284,849.2492 C818.9284,851.4652 817.1324,853.2632 814.9144,853.2632 C812.6984,853.2632 810.9004,851.4652 810.9004,849.2492 C810.9004,847.0332 812.6984,845.2352 814.9144,845.2352 C817.1324,845.2352 818.9284,847.0332 818.9284,849.2492" id="Fill-323" fill="#212121"></path>
            <path d="M846.1784,849.2492 C846.1784,851.4652 844.3824,853.2632 842.1644,853.2632 C839.9484,853.2632 838.1504,851.4652 838.1504,849.2492 C838.1504,847.0332 839.9484,845.2352 842.1644,845.2352 C844.3824,845.2352 846.1784,847.0332 846.1784,849.2492" id="Fill-325" fill="#212121"></path>
            <path d="M873.4284,849.2492 C873.4284,851.4652 871.6324,853.2632 869.4144,853.2632 C867.1984,853.2632 865.4004,851.4652 865.4004,849.2492 C865.4004,847.0332 867.1984,845.2352 869.4144,845.2352 C871.6324,845.2352 873.4284,847.0332 873.4284,849.2492" id="Fill-327" fill="#212121"></path>
            <path d="M709.9304,876.4992 C709.9304,878.7152 708.1344,880.5132 705.9164,880.5132 C703.7004,880.5132 701.9024,878.7152 701.9024,876.4992 C701.9024,874.2832 703.7004,872.4852 705.9164,872.4852 C708.1344,872.4852 709.9304,874.2832 709.9304,876.4992" id="Fill-329" fill="#212121"></path>
            <path d="M737.1804,876.4992 C737.1804,878.7152 735.3844,880.5132 733.1664,880.5132 C730.9504,880.5132 729.1524,878.7152 729.1524,876.4992 C729.1524,874.2832 730.9504,872.4852 733.1664,872.4852 C735.3844,872.4852 737.1804,874.2832 737.1804,876.4992" id="Fill-331" fill="#212121"></path>
            <path d="M764.4284,876.4992 C764.4284,878.7152 762.6324,880.5132 760.4144,880.5132 C758.2004,880.5132 756.4024,878.7152 756.4024,876.4992 C756.4024,874.2832 758.2004,872.4852 760.4144,872.4852 C762.6324,872.4852 764.4284,874.2832 764.4284,876.4992" id="Fill-333" fill="#212121"></path>
            <path d="M791.6784,876.4992 C791.6784,878.7152 789.8824,880.5132 787.6644,880.5132 C785.4484,880.5132 783.6504,878.7152 783.6504,876.4992 C783.6504,874.2832 785.4484,872.4852 787.6644,872.4852 C789.8824,872.4852 791.6784,874.2832 791.6784,876.4992" id="Fill-335" fill="#212121"></path>
            <path d="M818.9284,876.4992 C818.9284,878.7152 817.1324,880.5132 814.9144,880.5132 C812.6984,880.5132 810.9004,878.7152 810.9004,876.4992 C810.9004,874.2832 812.6984,872.4852 814.9144,872.4852 C817.1324,872.4852 818.9284,874.2832 818.9284,876.4992" id="Fill-337" fill="#212121"></path>
            <path d="M846.1784,876.4992 C846.1784,878.7152 844.3824,880.5132 842.1644,880.5132 C839.9484,880.5132 838.1504,878.7152 838.1504,876.4992 C838.1504,874.2832 839.9484,872.4852 842.1644,872.4852 C844.3824,872.4852 846.1784,874.2832 846.1784,876.4992" id="Fill-339" fill="#212121"></path>
            <path d="M873.4284,876.4992 C873.4284,878.7152 871.6324,880.5132 869.4144,880.5132 C867.1984,880.5132 865.4004,878.7152 865.4004,876.4992 C865.4004,874.2832 867.1984,872.4852 869.4144,872.4852 C871.6324,872.4852 873.4284,874.2832 873.4284,876.4992" id="Fill-341" fill="#212121"></path>
            <path d="M709.9304,903.7492 C709.9304,905.9652 708.1344,907.7632 705.9164,907.7632 C703.7004,907.7632 701.9024,905.9652 701.9024,903.7492 C701.9024,901.5332 703.7004,899.7352 705.9164,899.7352 C708.1344,899.7352 709.9304,901.5332 709.9304,903.7492" id="Fill-343" fill="#212121"></path>
            <path d="M737.1804,903.7492 C737.1804,905.9652 735.3844,907.7632 733.1664,907.7632 C730.9504,907.7632 729.1524,905.9652 729.1524,903.7492 C729.1524,901.5332 730.9504,899.7352 733.1664,899.7352 C735.3844,899.7352 737.1804,901.5332 737.1804,903.7492" id="Fill-345" fill="#212121"></path>
            <path d="M764.4284,903.7492 C764.4284,905.9652 762.6324,907.7632 760.4144,907.7632 C758.2004,907.7632 756.4024,905.9652 756.4024,903.7492 C756.4024,901.5332 758.2004,899.7352 760.4144,899.7352 C762.6324,899.7352 764.4284,901.5332 764.4284,903.7492" id="Fill-347" fill="#212121"></path>
            <path d="M791.6784,903.7492 C791.6784,905.9652 789.8824,907.7632 787.6644,907.7632 C785.4484,907.7632 783.6504,905.9652 783.6504,903.7492 C783.6504,901.5332 785.4484,899.7352 787.6644,899.7352 C789.8824,899.7352 791.6784,901.5332 791.6784,903.7492" id="Fill-349" fill="#212121"></path>
            <path d="M818.9284,903.7492 C818.9284,905.9652 817.1324,907.7632 814.9144,907.7632 C812.6984,907.7632 810.9004,905.9652 810.9004,903.7492 C810.9004,901.5332 812.6984,899.7352 814.9144,899.7352 C817.1324,899.7352 818.9284,901.5332 818.9284,903.7492" id="Fill-351" fill="#212121"></path>
            <path d="M846.1784,903.7492 C846.1784,905.9652 844.3824,907.7632 842.1644,907.7632 C839.9484,907.7632 838.1504,905.9652 838.1504,903.7492 C838.1504,901.5332 839.9484,899.7352 842.1644,899.7352 C844.3824,899.7352 846.1784,901.5332 846.1784,903.7492" id="Fill-353" fill="#212121"></path>
            <path d="M873.4284,903.7492 C873.4284,905.9652 871.6324,907.7632 869.4144,907.7632 C867.1984,907.7632 865.4004,905.9652 865.4004,903.7492 C865.4004,901.5332 867.1984,899.7352 869.4144,899.7352 C871.6324,899.7352 873.4284,901.5332 873.4284,903.7492" id="Fill-355" fill="#212121"></path>
            <path d="M62.526,794.751 C62.526,796.967 60.73,798.765 58.512,798.765 C56.296,798.765 54.498,796.967 54.498,794.751 C54.498,792.535 56.296,790.737 58.512,790.737 C60.73,790.737 62.526,792.535 62.526,794.751 Z" id="Stroke-361" stroke="#212121" stroke-width="2"></path>
            <path d="M89.776,794.751 C89.776,796.967 87.98,798.765 85.762,798.765 C83.546,798.765 81.748,796.967 81.748,794.751 C81.748,792.535 83.546,790.737 85.762,790.737 C87.98,790.737 89.776,792.535 89.776,794.751 Z" id="Stroke-363" stroke="#212121" stroke-width="2"></path>
            <path d="M117.026,794.751 C117.026,796.967 115.23,798.765 113.012,798.765 C110.796,798.765 108.998,796.967 108.998,794.751 C108.998,792.535 110.796,790.737 113.012,790.737 C115.23,790.737 117.026,792.535 117.026,794.751 Z" id="Stroke-365" stroke="#212121" stroke-width="2"></path>
            <path d="M62.526,822.001 C62.526,824.215 60.73,826.013 58.512,826.013 C56.296,826.013 54.498,824.215 54.498,822.001 C54.498,819.785 56.296,817.987 58.512,817.987 C60.73,817.987 62.526,819.785 62.526,822.001 Z" id="Stroke-371" stroke="#212121" stroke-width="2"></path>
            <path d="M89.776,822.001 C89.776,824.215 87.98,826.013 85.762,826.013 C83.546,826.013 81.748,824.215 81.748,822.001 C81.748,819.785 83.546,817.987 85.762,817.987 C87.98,817.987 89.776,819.785 89.776,822.001 Z" id="Stroke-373" stroke="#212121" stroke-width="2"></path>
            <path d="M117.026,822.001 C117.026,824.215 115.23,826.013 113.012,826.013 C110.796,826.013 108.998,824.215 108.998,822.001 C108.998,819.785 110.796,817.987 113.012,817.987 C115.23,817.987 117.026,819.785 117.026,822.001 Z" id="Stroke-375" stroke="#212121" stroke-width="2"></path>
            <path d="M62.526,849.2492 C62.526,851.4652 60.73,853.2632 58.512,853.2632 C56.296,853.2632 54.498,851.4652 54.498,849.2492 C54.498,847.0332 56.296,845.2352 58.512,845.2352 C60.73,845.2352 62.526,847.0332 62.526,849.2492 Z" id="Stroke-381" stroke="#212121" stroke-width="2"></path>
            <path d="M89.776,849.2492 C89.776,851.4652 87.98,853.2632 85.762,853.2632 C83.546,853.2632 81.748,851.4652 81.748,849.2492 C81.748,847.0332 83.546,845.2352 85.762,845.2352 C87.98,845.2352 89.776,847.0332 89.776,849.2492 Z" id="Stroke-383" stroke="#212121" stroke-width="2"></path>
            <path d="M117.026,849.2492 C117.026,851.4652 115.23,853.2632 113.012,853.2632 C110.796,853.2632 108.998,851.4652 108.998,849.2492 C108.998,847.0332 110.796,845.2352 113.012,845.2352 C115.23,845.2352 117.026,847.0332 117.026,849.2492 Z" id="Stroke-385" stroke="#212121" stroke-width="2"></path>
            <path d="M62.526,876.4992 C62.526,878.7152 60.73,880.5132 58.512,880.5132 C56.296,880.5132 54.498,878.7152 54.498,876.4992 C54.498,874.2832 56.296,872.4852 58.512,872.4852 C60.73,872.4852 62.526,874.2832 62.526,876.4992 Z" id="Stroke-391" stroke="#212121" stroke-width="2"></path>
            <path d="M89.776,876.4992 C89.776,878.7152 87.98,880.5132 85.762,880.5132 C83.546,880.5132 81.748,878.7152 81.748,876.4992 C81.748,874.2832 83.546,872.4852 85.762,872.4852 C87.98,872.4852 89.776,874.2832 89.776,876.4992 Z" id="Stroke-393" stroke="#212121" stroke-width="2"></path>
            <path d="M117.026,876.4992 C117.026,878.7152 115.23,880.5132 113.012,880.5132 C110.796,880.5132 108.998,878.7152 108.998,876.4992 C108.998,874.2832 110.796,872.4852 113.012,872.4852 C115.23,872.4852 117.026,874.2832 117.026,876.4992 Z" id="Stroke-395" stroke="#212121" stroke-width="2"></path>
            <path d="M62.526,903.7492 C62.526,905.9652 60.73,907.7632 58.512,907.7632 C56.296,907.7632 54.498,905.9652 54.498,903.7492 C54.498,901.5332 56.296,899.7352 58.512,899.7352 C60.73,899.7352 62.526,901.5332 62.526,903.7492 Z" id="Stroke-401" stroke="#212121" stroke-width="2"></path>
            <path d="M89.776,903.7492 C89.776,905.9652 87.98,907.7632 85.762,907.7632 C83.546,907.7632 81.748,905.9652 81.748,903.7492 C81.748,901.5332 83.546,899.7352 85.762,899.7352 C87.98,899.7352 89.776,901.5332 89.776,903.7492 Z" id="Stroke-403" stroke="#212121" stroke-width="2"></path>
            <path d="M117.026,903.7492 C117.026,905.9652 115.23,907.7632 113.012,907.7632 C110.796,907.7632 108.998,905.9652 108.998,903.7492 C108.998,901.5332 110.796,899.7352 113.012,899.7352 C115.23,899.7352 117.026,901.5332 117.026,903.7492 Z" id="Stroke-405" stroke="#212121" stroke-width="2"></path>
            <path d="M62.526,22.3936 C62.526,24.6096 60.73,26.4076 58.512,26.4076 C56.296,26.4076 54.498,24.6096 54.498,22.3936 C54.498,20.1776 56.296,18.3796 58.512,18.3796 C60.73,18.3796 62.526,20.1776 62.526,22.3936" id="Fill-411" fill="#212121"></path>
            <path d="M89.776,22.3936 C89.776,24.6096 87.98,26.4076 85.762,26.4076 C83.546,26.4076 81.748,24.6096 81.748,22.3936 C81.748,20.1776 83.546,18.3796 85.762,18.3796 C87.98,18.3796 89.776,20.1776 89.776,22.3936" id="Fill-413" fill="#212121"></path>
            <path d="M117.026,22.3936 C117.026,24.6096 115.23,26.4076 113.012,26.4076 C110.796,26.4076 108.998,24.6096 108.998,22.3936 C108.998,20.1776 110.796,18.3796 113.012,18.3796 C115.23,18.3796 117.026,20.1776 117.026,22.3936" id="Fill-415" fill="#212121"></path>
            <path d="M144.276,22.3936 C144.276,24.6096 142.48,26.4076 140.262,26.4076 C138.046,26.4076 136.248,24.6096 136.248,22.3936 C136.248,20.1776 138.046,18.3796 140.262,18.3796 C142.48,18.3796 144.276,20.1776 144.276,22.3936" id="Fill-417" fill="#212121"></path>
            <path d="M171.526,22.3936 C171.526,24.6096 169.73,26.4076 167.512,26.4076 C165.296,26.4076 163.498,24.6096 163.498,22.3936 C163.498,20.1776 165.296,18.3796 167.512,18.3796 C169.73,18.3796 171.526,20.1776 171.526,22.3936" id="Fill-419" fill="#212121"></path>
            <path d="M62.526,49.6436 C62.526,51.8596 60.73,53.6576 58.512,53.6576 C56.296,53.6576 54.498,51.8596 54.498,49.6436 C54.498,47.4276 56.296,45.6296 58.512,45.6296 C60.73,45.6296 62.526,47.4276 62.526,49.6436" id="Fill-425" fill="#212121"></path>
            <path d="M89.776,49.6436 C89.776,51.8596 87.98,53.6576 85.762,53.6576 C83.546,53.6576 81.748,51.8596 81.748,49.6436 C81.748,47.4276 83.546,45.6296 85.762,45.6296 C87.98,45.6296 89.776,47.4276 89.776,49.6436" id="Fill-427" fill="#212121"></path>
            <path d="M117.026,49.6436 C117.026,51.8596 115.23,53.6576 113.012,53.6576 C110.796,53.6576 108.998,51.8596 108.998,49.6436 C108.998,47.4276 110.796,45.6296 113.012,45.6296 C115.23,45.6296 117.026,47.4276 117.026,49.6436" id="Fill-429" fill="#212121"></path>
            <path d="M144.276,49.6436 C144.276,51.8596 142.48,53.6576 140.262,53.6576 C138.046,53.6576 136.248,51.8596 136.248,49.6436 C136.248,47.4276 138.046,45.6296 140.262,45.6296 C142.48,45.6296 144.276,47.4276 144.276,49.6436" id="Fill-431" fill="#212121"></path>
            <path d="M171.526,49.6436 C171.526,51.8596 169.73,53.6576 167.512,53.6576 C165.296,53.6576 163.498,51.8596 163.498,49.6436 C163.498,47.4276 165.296,45.6296 167.512,45.6296 C169.73,45.6296 171.526,47.4276 171.526,49.6436" id="Fill-433" fill="#212121"></path>
            <path d="M62.526,76.8936 C62.526,79.1096 60.73,80.9056 58.512,80.9056 C56.296,80.9056 54.498,79.1096 54.498,76.8936 C54.498,74.6776 56.296,72.8796 58.512,72.8796 C60.73,72.8796 62.526,74.6776 62.526,76.8936" id="Fill-439" fill="#212121"></path>
            <path d="M89.776,76.8936 C89.776,79.1096 87.98,80.9056 85.762,80.9056 C83.546,80.9056 81.748,79.1096 81.748,76.8936 C81.748,74.6776 83.546,72.8796 85.762,72.8796 C87.98,72.8796 89.776,74.6776 89.776,76.8936" id="Fill-441" fill="#212121"></path>
            <path d="M117.026,76.8936 C117.026,79.1096 115.23,80.9056 113.012,80.9056 C110.796,80.9056 108.998,79.1096 108.998,76.8936 C108.998,74.6776 110.796,72.8796 113.012,72.8796 C115.23,72.8796 117.026,74.6776 117.026,76.8936" id="Fill-443" fill="#212121"></path>
            <path d="M144.276,76.8936 C144.276,79.1096 142.48,80.9056 140.262,80.9056 C138.046,80.9056 136.248,79.1096 136.248,76.8936 C136.248,74.6776 138.046,72.8796 140.262,72.8796 C142.48,72.8796 144.276,74.6776 144.276,76.8936" id="Fill-445" fill="#212121"></path>
            <path d="M171.526,76.8936 C171.526,79.1096 169.73,80.9056 167.512,80.9056 C165.296,80.9056 163.498,79.1096 163.498,76.8936 C163.498,74.6776 165.296,72.8796 167.512,72.8796 C169.73,72.8796 171.526,74.6776 171.526,76.8936" id="Fill-447" fill="#212121"></path>
            <path d="M62.526,104.1426 C62.526,106.3586 60.73,108.1566 58.512,108.1566 C56.296,108.1566 54.498,106.3586 54.498,104.1426 C54.498,101.9266 56.296,100.1286 58.512,100.1286 C60.73,100.1286 62.526,101.9266 62.526,104.1426" id="Fill-453" fill="#212121"></path>
            <path d="M89.776,104.1426 C89.776,106.3586 87.98,108.1566 85.762,108.1566 C83.546,108.1566 81.748,106.3586 81.748,104.1426 C81.748,101.9266 83.546,100.1286 85.762,100.1286 C87.98,100.1286 89.776,101.9266 89.776,104.1426" id="Fill-455" fill="#212121"></path>
            <path d="M117.026,104.1426 C117.026,106.3586 115.23,108.1566 113.012,108.1566 C110.796,108.1566 108.998,106.3586 108.998,104.1426 C108.998,101.9266 110.796,100.1286 113.012,100.1286 C115.23,100.1286 117.026,101.9266 117.026,104.1426" id="Fill-457" fill="#212121"></path>
            <path d="M144.276,104.1426 C144.276,106.3586 142.48,108.1566 140.262,108.1566 C138.046,108.1566 136.248,106.3586 136.248,104.1426 C136.248,101.9266 138.046,100.1286 140.262,100.1286 C142.48,100.1286 144.276,101.9266 144.276,104.1426" id="Fill-459" fill="#212121"></path>
            <path d="M171.526,104.1426 C171.526,106.3586 169.73,108.1566 167.512,108.1566 C165.296,108.1566 163.498,106.3586 163.498,104.1426 C163.498,101.9266 165.296,100.1286 167.512,100.1286 C169.73,100.1286 171.526,101.9266 171.526,104.1426" id="Fill-461" fill="#212121"></path>
            <path d="M62.526,131.3926 C62.526,133.6086 60.73,135.4066 58.512,135.4066 C56.296,135.4066 54.498,133.6086 54.498,131.3926 C54.498,129.1766 56.296,127.3786 58.512,127.3786 C60.73,127.3786 62.526,129.1766 62.526,131.3926" id="Fill-467" fill="#212121"></path>
            <path d="M89.776,131.3926 C89.776,133.6086 87.98,135.4066 85.762,135.4066 C83.546,135.4066 81.748,133.6086 81.748,131.3926 C81.748,129.1766 83.546,127.3786 85.762,127.3786 C87.98,127.3786 89.776,129.1766 89.776,131.3926" id="Fill-469" fill="#212121"></path>
            <path d="M117.026,131.3926 C117.026,133.6086 115.23,135.4066 113.012,135.4066 C110.796,135.4066 108.998,133.6086 108.998,131.3926 C108.998,129.1766 110.796,127.3786 113.012,127.3786 C115.23,127.3786 117.026,129.1766 117.026,131.3926" id="Fill-471" fill="#212121"></path>
            <path d="M144.276,131.3926 C144.276,133.6086 142.48,135.4066 140.262,135.4066 C138.046,135.4066 136.248,133.6086 136.248,131.3926 C136.248,129.1766 138.046,127.3786 140.262,127.3786 C142.48,127.3786 144.276,129.1766 144.276,131.3926" id="Fill-473" fill="#212121"></path>
            <path d="M171.526,131.3926 C171.526,133.6086 169.73,135.4066 167.512,135.4066 C165.296,135.4066 163.498,133.6086 163.498,131.3926 C163.498,129.1766 165.296,127.3786 167.512,127.3786 C169.73,127.3786 171.526,129.1766 171.526,131.3926" id="Fill-475" fill="#212121"></path>
            <path d="M1181.0982,22.3936 C1181.0982,24.6096 1179.3022,26.4076 1177.0842,26.4076 C1174.8682,26.4076 1173.0702,24.6096 1173.0702,22.3936 C1173.0702,20.1776 1174.8682,18.3796 1177.0842,18.3796 C1179.3022,18.3796 1181.0982,20.1776 1181.0982,22.3936" id="Fill-477" fill="#212121"></path>
            <path d="M1208.3482,22.3936 C1208.3482,24.6096 1206.5522,26.4076 1204.3342,26.4076 C1202.1182,26.4076 1200.3202,24.6096 1200.3202,22.3936 C1200.3202,20.1776 1202.1182,18.3796 1204.3342,18.3796 C1206.5522,18.3796 1208.3482,20.1776 1208.3482,22.3936" id="Fill-479" fill="#212121"></path>
            <path d="M1235.5982,22.3936 C1235.5982,24.6096 1233.8022,26.4076 1231.5842,26.4076 C1229.3682,26.4076 1227.5702,24.6096 1227.5702,22.3936 C1227.5702,20.1776 1229.3682,18.3796 1231.5842,18.3796 C1233.8022,18.3796 1235.5982,20.1776 1235.5982,22.3936" id="Fill-481" fill="#212121"></path>
            <path d="M1262.8462,22.3936 C1262.8462,24.6096 1261.0502,26.4076 1258.8342,26.4076 C1256.6182,26.4076 1254.8202,24.6096 1254.8202,22.3936 C1254.8202,20.1776 1256.6182,18.3796 1258.8342,18.3796 C1261.0502,18.3796 1262.8462,20.1776 1262.8462,22.3936" id="Fill-483" fill="#212121"></path>
            <path d="M1290.0962,22.3936 C1290.0962,24.6096 1288.3002,26.4076 1286.0822,26.4076 C1283.8682,26.4076 1282.0682,24.6096 1282.0682,22.3936 C1282.0682,20.1776 1283.8682,18.3796 1286.0822,18.3796 C1288.3002,18.3796 1290.0962,20.1776 1290.0962,22.3936" id="Fill-485" fill="#212121"></path>
            <path d="M1317.3462,22.3936 C1317.3462,24.6096 1315.5502,26.4076 1313.3322,26.4076 C1311.1162,26.4076 1309.3182,24.6096 1309.3182,22.3936 C1309.3182,20.1776 1311.1162,18.3796 1313.3322,18.3796 C1315.5502,18.3796 1317.3462,20.1776 1317.3462,22.3936" id="Fill-487" fill="#212121"></path>
            <path d="M1344.5962,22.3936 C1344.5962,24.6096 1342.8002,26.4076 1340.5822,26.4076 C1338.3662,26.4076 1336.5682,24.6096 1336.5682,22.3936 C1336.5682,20.1776 1338.3662,18.3796 1340.5822,18.3796 C1342.8002,18.3796 1344.5962,20.1776 1344.5962,22.3936" id="Fill-489" fill="#212121"></path>
            <path d="M1208.3482,49.6436 C1208.3482,51.8596 1206.5522,53.6576 1204.3342,53.6576 C1202.1182,53.6576 1200.3202,51.8596 1200.3202,49.6436 C1200.3202,47.4276 1202.1182,45.6296 1204.3342,45.6296 C1206.5522,45.6296 1208.3482,47.4276 1208.3482,49.6436" id="Fill-491" fill="#212121"></path>
            <path d="M1235.5982,49.6436 C1235.5982,51.8596 1233.8022,53.6576 1231.5842,53.6576 C1229.3682,53.6576 1227.5702,51.8596 1227.5702,49.6436 C1227.5702,47.4276 1229.3682,45.6296 1231.5842,45.6296 C1233.8022,45.6296 1235.5982,47.4276 1235.5982,49.6436" id="Fill-493" fill="#212121"></path>
            <path d="M1262.8462,49.6436 C1262.8462,51.8596 1261.0502,53.6576 1258.8342,53.6576 C1256.6182,53.6576 1254.8202,51.8596 1254.8202,49.6436 C1254.8202,47.4276 1256.6182,45.6296 1258.8342,45.6296 C1261.0502,45.6296 1262.8462,47.4276 1262.8462,49.6436" id="Fill-495" fill="#212121"></path>
            <path d="M1290.0962,49.6436 C1290.0962,51.8596 1288.3002,53.6576 1286.0822,53.6576 C1283.8682,53.6576 1282.0682,51.8596 1282.0682,49.6436 C1282.0682,47.4276 1283.8682,45.6296 1286.0822,45.6296 C1288.3002,45.6296 1290.0962,47.4276 1290.0962,49.6436" id="Fill-497" fill="#212121"></path>
            <path d="M1317.3462,49.6436 C1317.3462,51.8596 1315.5502,53.6576 1313.3322,53.6576 C1311.1162,53.6576 1309.3182,51.8596 1309.3182,49.6436 C1309.3182,47.4276 1311.1162,45.6296 1313.3322,45.6296 C1315.5502,45.6296 1317.3462,47.4276 1317.3462,49.6436" id="Fill-499" fill="#212121"></path>
            <path d="M1344.5962,49.6436 C1344.5962,51.8596 1342.8002,53.6576 1340.5822,53.6576 C1338.3662,53.6576 1336.5682,51.8596 1336.5682,49.6436 C1336.5682,47.4276 1338.3662,45.6296 1340.5822,45.6296 C1342.8002,45.6296 1344.5962,47.4276 1344.5962,49.6436" id="Fill-501" fill="#212121"></path>
            <path d="M1371.8462,49.6436 C1371.8462,51.8596 1370.0502,53.6576 1367.8322,53.6576 C1365.6162,53.6576 1363.8182,51.8596 1363.8182,49.6436 C1363.8182,47.4276 1365.6162,45.6296 1367.8322,45.6296 C1370.0502,45.6296 1371.8462,47.4276 1371.8462,49.6436" id="Fill-503" fill="#212121"></path>
            <path d="M1076.0846,727.501 C1076.0846,730.279 1073.8306,732.533 1071.0526,732.533 C1068.2746,732.533 1066.0226,730.279 1066.0226,727.501 C1066.0226,724.721 1068.2746,722.469 1071.0526,722.469 C1073.8306,722.469 1076.0846,724.721 1076.0846,727.501 Z" id="Stroke-505" stroke="#212121" stroke-width="2"></path>
            <path d="M1110.2408,727.501 C1110.2408,730.279 1107.9868,732.533 1105.2088,732.533 C1102.4308,732.533 1100.1788,730.279 1100.1788,727.501 C1100.1788,724.721 1102.4308,722.469 1105.2088,722.469 C1107.9868,722.469 1110.2408,724.721 1110.2408,727.501 Z" id="Stroke-507" stroke="#212121" stroke-width="2"></path>
            <path d="M1144.397,727.501 C1144.397,730.279 1142.145,732.533 1139.365,732.533 C1136.587,732.533 1134.335,730.279 1134.335,727.501 C1134.335,724.721 1136.587,722.469 1139.365,722.469 C1142.145,722.469 1144.397,724.721 1144.397,727.501 Z" id="Stroke-509" stroke="#212121" stroke-width="2"></path>
            <path d="M1076.0846,761.6574 C1076.0846,764.4354 1073.8306,766.6894 1071.0526,766.6894 C1068.2746,766.6894 1066.0226,764.4354 1066.0226,761.6574 C1066.0226,758.8774 1068.2746,756.6254 1071.0526,756.6254 C1073.8306,756.6254 1076.0846,758.8774 1076.0846,761.6574 Z" id="Stroke-511" stroke="#212121" stroke-width="2"></path>
            <path d="M1110.2408,761.6574 C1110.2408,764.4354 1107.9868,766.6894 1105.2088,766.6894 C1102.4308,766.6894 1100.1788,764.4354 1100.1788,761.6574 C1100.1788,758.8774 1102.4308,756.6254 1105.2088,756.6254 C1107.9868,756.6254 1110.2408,758.8774 1110.2408,761.6574 Z" id="Stroke-513" stroke="#212121" stroke-width="2"></path>
            <path d="M1144.397,761.6574 C1144.397,764.4354 1142.145,766.6894 1139.365,766.6894 C1136.587,766.6894 1134.335,764.4354 1134.335,761.6574 C1134.335,758.8774 1136.587,756.6254 1139.365,756.6254 C1142.145,756.6254 1144.397,758.8774 1144.397,761.6574 Z" id="Stroke-515" stroke="#212121" stroke-width="2"></path>
            <path d="M454.2292,283.881 C454.2292,286.659 451.9772,288.913 449.1972,288.913 C446.4212,288.913 444.1692,286.659 444.1692,283.881 C444.1692,281.103 446.4212,278.849 449.1972,278.849 C451.9772,278.849 454.2292,281.103 454.2292,283.881 Z" id="Stroke-517" stroke="#212121" stroke-width="2"></path>
            <path d="M488.3854,283.881 C488.3854,286.659 486.1334,288.913 483.3534,288.913 C480.5774,288.913 478.3254,286.659 478.3254,283.881 C478.3254,281.103 480.5774,278.849 483.3534,278.849 C486.1334,278.849 488.3854,281.103 488.3854,283.881 Z" id="Stroke-519" stroke="#212121" stroke-width="2"></path>
            <path d="M522.5416,283.881 C522.5416,286.659 520.2896,288.913 517.5116,288.913 C514.7336,288.913 512.4816,286.659 512.4816,283.881 C512.4816,281.103 514.7336,278.849 517.5116,278.849 C520.2896,278.849 522.5416,281.103 522.5416,283.881 Z" id="Stroke-521" stroke="#212121" stroke-width="2"></path>
            <path d="M454.2292,318.0372 C454.2292,320.8152 451.9772,323.0692 449.1972,323.0692 C446.4212,323.0692 444.1692,320.8152 444.1692,318.0372 C444.1692,315.2592 446.4212,313.0052 449.1972,313.0052 C451.9772,313.0052 454.2292,315.2592 454.2292,318.0372 Z" id="Stroke-523" stroke="#212121" stroke-width="2"></path>
            <path d="M488.3854,318.0372 C488.3854,320.8152 486.1334,323.0692 483.3534,323.0692 C480.5774,323.0692 478.3254,320.8152 478.3254,318.0372 C478.3254,315.2592 480.5774,313.0052 483.3534,313.0052 C486.1334,313.0052 488.3854,315.2592 488.3854,318.0372 Z" id="Stroke-525" stroke="#212121" stroke-width="2"></path>
            <path d="M522.5416,318.0372 C522.5416,320.8152 520.2896,323.0692 517.5116,323.0692 C514.7336,323.0692 512.4816,320.8152 512.4816,318.0372 C512.4816,315.2592 514.7336,313.0052 517.5116,313.0052 C520.2896,313.0052 522.5416,315.2592 522.5416,318.0372 Z" id="Stroke-527" stroke="#212121" stroke-width="2"></path>
        </g>
    </g>
</svg>