<?xml version="1.0" encoding="UTF-8"?>
<svg width="319px" height="50px" viewBox="0 0 319 50" version="1.1" xmlns="http://www.w3.org/2000/svg" xmlns:xlink="http://www.w3.org/1999/xlink">
    <!-- Generator: Sketch 61 (89581) - https://sketch.com -->
    <title>logo</title>
    <desc>Created with Sketch.</desc>
    <defs>
        <polygon id="path-1" points="0 0 318.962231 0 318.962231 49.587 0 49.587"></polygon>
    </defs>
    <g id="logo" stroke="none" stroke-width="1" fill="none" fill-rule="evenodd">
        <g>
            <mask id="mask-2" fill="white">
                <use xlink:href="#path-1"></use>
            </mask>
            <g id="Clip-2"></g>
            <path d="M77.225625,29.0353125 L83.31,29.0353125 L83.31,23.87475 L77.225625,23.87475 L77.225625,29.0353125 Z M68.98125,17.1860625 L88.2675,17.1860625 L88.2675,13.409625 L68.98125,13.409625 L68.98125,17.1860625 Z M84.6650625,38.0585625 L83.31,38.0585625 L83.31,30.159375 L77.225625,30.159375 C77.03475,34.215 74.42925,36.88725 69.414,38.1744375 L68.7223125,36.964875 C73.33575,35.9064375 75.709125,33.6384375 75.843,30.159375 L69.3553125,30.159375 L69.3553125,29.0353125 L75.8716875,29.0353125 L75.8716875,23.87475 L70.797375,23.87475 L70.797375,22.778625 L76.590375,22.778625 C75.6511875,21.5683125 74.4766875,20.376 73.0745625,19.204125 L74.1418125,18.598875 C75.3530625,19.654875 76.65975,21.0481875 78.0620625,22.778625 L81.867,22.778625 C83.368125,21.472125 84.5776875,20.0206875 85.5013125,18.4258125 L86.682375,18.94425 C85.837125,20.3295 84.7704375,21.6058125 83.4815625,22.778625 L89.85525,22.778625 L89.85525,23.87475 L84.6650625,23.87475 L84.6650625,29.0353125 L91.4975625,29.0353125 L91.4975625,30.159375 L84.6650625,30.159375 L84.6650625,38.0585625 Z M68.98125,24.2488125 C68.98125,30.30375 67.8376875,34.9460625 65.5494375,38.1744375 L64.396125,37.4540625 C66.5105625,34.398 67.569,29.9975625 67.569,24.2488125 L67.569,12.28425 L89.623125,12.28425 L89.623125,18.31125 L68.98125,18.31125 L68.98125,24.2488125 Z" id="Fill-1" fill="#000000" mask="url(#mask-2)"></path>
            <path d="M111.227437,26.98725 L118.723312,26.98725 L118.723312,23.41275 L111.227437,23.41275 L111.227437,26.98725 Z M111.227437,22.2315 L118.723312,22.2315 L118.723312,19.1754375 L111.227437,19.1754375 L111.227437,22.2315 Z M102.087,26.9870625 L109.872562,26.9870625 L109.872562,23.4125625 L102.087,23.4125625 L102.087,26.9870625 Z M102.087,22.2316875 L109.872562,22.2316875 L109.872562,19.175625 L102.087,19.175625 L102.087,22.2316875 Z M109.151437,28.1715 C106.901437,31.4955 103.067813,34.3588125 97.647375,36.7621875 L96.9556875,35.5224375 C101.4345,33.7723125 105.018937,31.3231875 107.709,28.1715 L100.733625,28.1715 L100.733625,17.9938125 L109.872562,17.9938125 L109.872562,15.485625 L97.8489375,15.485625 L97.8489375,14.2726875 L109.872562,14.2726875 L109.872562,11.0158125 L111.227437,11.0158125 L111.227437,14.2726875 L123.3645,14.2726875 L123.3645,15.485625 L111.227437,15.485625 L111.227437,17.9938125 L120.105938,17.9938125 L120.105938,28.1715 L113.330625,28.1715 C117.098625,31.8605625 120.693938,34.3213125 124.114312,35.549625 L123.479812,36.8488125 C119.174813,35.079 115.330687,32.1871875 111.947813,28.1715 L111.227437,28.1715 L111.227437,38.1744375 L109.872562,38.1744375 L109.872562,28.1715 L109.151437,28.1715 Z" id="Fill-3" fill="#000000" mask="url(#mask-2)"></path>
            <path d="M152.840906,28.4882812 C154.360781,30.7750312 155.609719,33.0822187 156.588656,35.4064687 L155.522156,36.0983437 C154.446469,33.6000937 153.196219,31.2651562 151.774969,29.0918437 L152.840906,28.4882812 Z M149.699906,20.6170312 C149.680406,20.6170312 149.525906,20.6374687 149.237531,20.6747812 C147.103594,21.0015937 145.355906,21.2031562 143.992031,21.2802187 L143.759906,19.9815937 L145.143469,19.8966562 C146.719781,18.0704062 147.969469,16.2720937 148.891406,14.5047187 C146.527781,14.8313437 144.643594,15.0340312 143.241469,15.1107187 L143.010281,13.9290937 C147.275906,13.8514687 151.265531,13.1498437 154.975031,11.8242187 L155.349844,12.8020312 C153.696094,13.3793437 152.064094,13.8424687 150.449531,14.1885937 C149.467969,16.1667187 148.209469,18.0402187 146.671594,19.8109687 C147.652406,19.7316562 148.969781,19.5878437 150.622781,19.3780312 C151.448344,18.3775312 152.169656,17.3288437 152.785406,16.2344062 L153.793219,16.8111562 C151.870594,19.8295312 149.525906,22.8743437 146.758219,25.9500937 C149.179781,25.8357187 151.371656,25.6427812 153.332531,25.3742812 C152.677594,24.4716562 151.947469,23.5570312 151.140656,22.6332187 L151.976906,21.9719062 C153.591469,23.7784687 155.099906,25.7775937 156.502031,27.9681562 L155.609719,28.7187187 C154.629469,27.1039687 154.091344,26.2954687 153.994969,26.2954687 C153.111281,26.4882187 151.870594,26.6515312 150.275531,26.7846562 L150.275531,35.8965937 C150.275531,37.1845312 149.612531,37.8282187 148.286906,37.8282187 C147.729094,37.8282187 146.932031,37.7513437 145.894031,37.5960937 L145.835344,36.1857187 C146.949281,36.4551562 147.758719,36.5882812 148.258406,36.5882812 C148.757531,36.5882812 149.008219,36.3582187 149.008219,35.8965937 L149.008219,26.9022187 C146.336719,27.0754687 144.451781,27.1718437 143.356594,27.1889062 L143.183344,26.0072812 L145.202344,25.9793437 C146.777719,24.3263437 148.276406,22.5394687 149.699906,20.6170312 L149.699906,20.6170312 Z M147.394406,29.1203437 C146.317969,31.6962187 144.962156,34.0026562 143.326406,36.0402187 L142.289156,35.3504062 C143.923219,33.2742187 145.230844,31.0437187 146.210906,28.6598437 L147.394406,29.1203437 Z M140.647594,28.7472187 C141.528844,29.9779687 142.338094,31.3410937 143.068219,32.8414687 L142.087219,33.5624062 C141.320531,31.9086562 140.512031,30.5065312 139.665844,29.3522812 L140.647594,28.7472187 Z M135.659156,23.1846562 L141.049406,23.1846562 L141.049406,20.3294062 L135.659156,20.3294062 L135.659156,23.1846562 Z M135.659156,19.2602812 L141.049406,19.2602812 L141.049406,16.6371562 L135.659156,16.6371562 L135.659156,19.2602812 Z M135.659156,15.5427187 L141.049406,15.5427187 L141.049406,13.1785312 L135.659156,13.1785312 L135.659156,15.5427187 Z M134.533594,24.3070312 L142.174781,24.3070312 L142.174781,12.0546562 L134.533594,12.0546562 L134.533594,24.3070312 Z M131.103469,27.3629062 L131.103469,14.2727812 L132.227531,14.2727812 L132.227531,26.2382812 L142.030219,26.2382812 L142.030219,27.3629062 L137.935219,27.3629062 L137.935219,35.6678437 C137.935219,36.9934687 137.245219,37.6549687 135.860156,37.6549687 C135.149531,37.6549687 134.313281,37.5405937 133.351969,37.3086562 L133.294031,36.0117187 C134.254406,36.2813437 135.080906,36.4159687 135.774281,36.4159687 C136.388531,36.4159687 136.696406,36.1669687 136.696406,35.6678437 L136.696406,27.3629062 L131.103469,27.3629062 Z M134.562469,29.4675937 C133.623094,31.4864062 132.236344,33.4937812 130.411031,35.4938437 L129.432469,34.6855312 C131.181094,32.8215937 132.526969,30.9081562 133.467094,28.9480312 L134.562469,29.4675937 Z" id="Fill-4" fill="#000000" mask="url(#mask-2)"></path>
            <path d="M178.25265,18.830025 L177.7644,20.21265 C178.667588,23.92215 179.801963,26.912025 181.167525,29.179275 C182.9544,26.3167125 184.087088,22.86615 184.567463,18.830025 L178.25265,18.830025 Z M174.997275,26.4685875 L173.960025,25.9214625 C176.303775,21.980775 177.917775,17.05215 178.801463,11.13165 L179.984025,11.3065875 C179.677088,13.4587125 179.196713,15.5909625 178.541775,17.70465 L188.516963,17.70465 L188.516963,18.830025 L185.837213,18.830025 C185.144775,23.5765875 183.82815,27.3922125 181.885275,30.2752125 C181.885275,30.4679625 182.675025,31.4365875 184.24965,33.1867125 C185.828213,34.935525 187.413525,36.2902125 189.008588,37.251525 L188.201025,38.1744 C185.720588,36.8283375 183.375713,34.551525 181.167525,31.34115 C178.725338,34.4934 175.648838,36.7818375 171.939525,38.2038375 L171.335963,37.223025 C175.446338,35.5690875 178.474838,33.274275 180.417713,30.3325875 C179.090588,28.2564 177.974963,25.5089625 177.072525,22.0869 C176.340713,23.798025 175.648838,25.258275 174.997275,26.4685875 L174.997275,26.4685875 Z M168.972525,15.1964625 L162.772838,15.1964625 L162.772838,14.0718375 L175.545338,14.0718375 L175.545338,15.1964625 L170.2104,15.1964625 L170.2104,22.5768375 L174.303713,22.5768375 L174.303713,23.7024 L170.2104,23.7024 L170.2104,32.63865 C172.0734,32.0058375 173.890463,31.3034625 175.658775,30.5350875 L175.718213,31.80315 C170.892525,33.743775 166.501088,35.1772125 162.5409,36.0984 L162.108713,34.917525 L164.271525,34.42665 L164.271525,19.6074 L165.539025,19.6074 L165.539025,34.0803375 C167.1159,33.6189 168.260213,33.2628375 168.972525,33.0144 L168.972525,15.1964625 Z" id="Fill-5" fill="#000000" mask="url(#mask-2)"></path>
            <path d="M209.458763,25.8070687 C210.669075,27.3629437 211.715325,29.1310687 212.6007,31.1106937 L211.504575,31.7453812 C210.54495,29.6112562 209.525138,27.8153812 208.449263,26.3551312 L209.458763,25.8070687 Z M221.249513,22.0296937 L221.249513,23.1528187 L217.674825,23.1528187 L217.674825,35.1475687 C217.674825,36.9935062 216.743137,37.9130062 214.877513,37.9130062 C213.839513,37.9130062 212.61045,37.7995687 211.187888,37.5691312 L210.871575,36.0983812 C212.485575,36.4641937 213.791325,36.6470062 214.790888,36.6470062 C215.849513,36.6470062 216.377888,36.1375687 216.377888,35.1183188 L216.377888,23.1528187 L206.8632,23.1528187 L206.8632,22.0296937 L216.377888,22.0296937 L216.377888,16.9555687 L217.674825,16.9555687 L217.674825,22.0296937 L221.249513,22.0296937 Z M200.664638,29.5531312 L199.685325,28.6328812 C202.50945,25.0370062 204.567638,21.0391312 205.854638,16.6371937 L207.006263,16.9555687 C206.430637,18.9923812 205.623638,21.0301312 204.5847,23.0671312 L204.5847,38.1743812 L203.287763,38.1743812 L203.287763,25.4305687 C202.558388,26.8540687 201.6837,28.2260062 200.664638,29.5531312 L200.664638,29.5531312 Z M221.365575,14.5341937 L221.365575,15.7150687 L198.963263,15.7150687 L198.963263,24.0771937 C198.963263,29.8407562 197.837888,34.5228187 195.591263,38.1162562 L194.4657,37.3086937 C196.599075,33.7347562 197.666325,29.3320687 197.666325,24.1041937 L197.666325,14.5341937 L209.11245,14.5341937 C208.30395,13.5147562 207.4782,12.5920687 206.633888,11.7638812 L207.66945,11.0157562 C208.803825,12.0741937 209.784638,13.2462562 210.610388,14.5341937 L221.365575,14.5341937 Z" id="Fill-6" fill="#000000" mask="url(#mask-2)"></path>
            <path d="M237.809719,11.1024188 C239.042156,12.3324188 240.416719,13.8710438 241.931719,15.7151063 L240.694406,16.5515438 C239.560031,14.9750438 238.263094,13.4176688 236.802844,11.8822313 L237.809719,11.1024188 Z M246.430219,18.0230438 L234.581344,18.0230438 C235.408594,21.7685438 237.399094,25.4028563 240.549844,28.9211063 C243.644344,25.8258563 245.604469,22.1930438 246.430219,18.0230438 L246.430219,18.0230438 Z M227.691656,38.1744188 L226.856156,36.9069188 C232.180406,35.4269813 236.427094,33.0822938 239.598281,29.8711688 C236.427094,26.5844813 234.283969,22.6332938 233.170969,18.0230438 L227.634469,18.0230438 L227.634469,16.7261063 L253.321406,16.7261063 L253.321406,18.0230438 L247.900969,18.0230438 C247.555594,19.9636688 246.747844,22.1049188 245.480344,24.4503563 C244.229906,26.7944813 242.952656,28.6025438 241.645031,29.8711688 C245.144531,33.0618563 249.265781,35.3388563 254.013094,36.7051688 L253.263469,38.1744188 C251.535281,37.6548563 249.411094,36.7051688 246.893156,35.3191688 C244.374469,33.9177938 242.280469,32.4183563 240.607781,30.8225438 C237.148406,34.2821063 232.842656,36.7319813 227.691656,38.1744188 L227.691656,38.1744188 Z" id="Fill-7" fill="#000000" mask="url(#mask-2)"></path>
            <path d="M274.117144,33.1296375 C274.117144,34.9557 275.280019,35.868825 277.606894,35.868825 L281.585081,35.868825 C282.470269,35.868825 283.140769,35.5225125 283.604081,34.830825 C284.044894,34.1382 284.409206,32.581575 284.697581,30.1592625 L286.139644,30.76545 C285.795956,33.417825 285.303394,35.1477 284.670394,35.9545125 C284.016394,36.7622625 283.151456,37.164825 282.074269,37.164825 L276.857081,37.164825 C273.973331,37.164825 272.532769,35.8483875 272.532769,33.214575 L272.532769,11.276325 L274.117144,11.276325 L274.117144,23.3267625 C277.674769,21.7137 280.969144,19.541325 284.007394,16.8111375 L284.956519,18.0786375 C282.018769,20.63745 278.403956,22.91445 274.117144,24.9118875 L274.117144,33.1296375 Z M260.425144,27.33345 L259.298081,26.29545 C260.625956,24.8155125 262.230769,22.509075 264.115706,19.3780125 C265.997456,16.244325 267.420019,13.4586375 268.380581,11.0158875 L269.794144,11.505825 C269.024081,13.5231375 267.862894,15.9077625 266.306269,18.6552 L266.306269,38.174325 L264.747769,38.174325 L264.747769,20.9631375 C263.767894,22.8448875 262.327144,24.969825 260.425144,27.33345 L260.425144,27.33345 Z" id="Fill-8" fill="#000000" mask="url(#mask-2)"></path>
            <path d="M315.501919,33.533025 C313.888106,33.533025 313.080356,32.7442125 313.080356,31.1679 L313.080356,27.3922125 L309.706481,27.3922125 C309.706481,30.9082125 308.573794,33.330525 306.305044,34.6559625 L305.555231,33.7627125 C307.479356,32.6298375 308.438231,30.3798375 308.438231,27.0174 L308.438231,26.3249625 L314.291419,26.3249625 L314.291419,31.1679 C314.291419,32.0335875 314.725106,32.4648375 315.589294,32.4648375 L317.720794,32.4648375 L317.720794,33.533025 L315.501919,33.533025 Z M302.096606,32.17665 C303.248794,31.100025 304.229044,29.4774 305.035856,27.3048375 L300.194419,27.3048375 L299.732231,28.3143375 C300.366731,29.9103375 301.154044,31.1980875 302.096606,32.17665 L302.096606,32.17665 Z M306.621919,26.2383375 C305.894231,28.9105875 304.672294,31.1874 302.960419,33.0715875 C302.960419,33.37965 303.748669,33.926025 305.324981,34.7148375 C306.901294,35.50215 309.804544,35.8964625 314.032669,35.8964625 C315.780356,35.8964625 317.423606,35.8582125 318.962231,35.7813375 L318.673106,36.9354 C317.212856,37.011525 315.617044,37.049025 313.888106,37.049025 C309.832481,37.049025 307.083919,36.7435875 305.643356,36.1278375 C304.201856,35.5315875 303.047981,34.8014625 302.181544,33.9355875 C300.490856,35.62965 298.319231,37.040025 295.667419,38.1744 L295.062169,37.223025 C297.368606,36.3187125 299.473294,34.9263375 301.375294,33.0430875 C300.664856,32.2942125 299.924044,31.100025 299.155481,29.4674625 C298.520981,30.6393375 297.781856,31.696275 296.935669,32.63865 L296.185856,31.860525 C298.280794,29.6514 299.703544,26.62365 300.452419,22.778775 L301.577044,23.0384625 C301.404731,23.92215 301.087856,24.9895875 300.626419,26.2383375 L306.621919,26.2383375 Z M318.038419,16.49415 C317.769919,18.8407125 317.106731,20.6643375 316.050731,21.9719625 L314.983106,21.22215 C315.848231,20.2600875 316.376606,19.0619625 316.568419,17.618775 L304.922231,17.618775 L304.922231,19.9537125 L313.225669,19.3494 L313.282106,20.4723375 L304.922231,21.07665 L304.922231,21.65415 C304.922231,22.595775 305.411606,23.06715 306.393169,23.06715 L314.867231,23.06715 L314.867231,24.1908375 L306.621919,24.1908375 C304.661794,24.1908375 303.682669,23.34465 303.682669,21.65415 L303.682669,21.1364625 L297.482981,21.5969625 L297.455231,20.4723375 L303.682669,19.98165 L303.682669,17.618775 L296.359106,17.618775 L296.359106,25.77765 C296.359106,30.9858375 295.156106,35.1183375 292.754231,38.1744 L291.832294,37.2809625 C294.004669,34.762275 295.091794,30.9277125 295.091794,25.77765 L295.091794,16.49415 L304.085044,16.49415 L304.085044,11.015775 L305.324981,11.015775 L305.324981,13.3239 L315.127106,13.3239 L315.127106,14.44665 L305.324981,14.44665 L305.324981,16.49415 L318.038419,16.49415 Z" id="Fill-9" fill="#000000" mask="url(#mask-2)"></path>
            <path d="M24.7591688,-2.55920172e-05 C38.3825438,0.0189375 49.4748563,11.1645 49.4570652,24.8244375 C49.4390437,38.479875 38.3165438,49.60575 24.6937313,49.5870237 C11.0744813,49.569 -0.01876875,38.4193125 -4.24837292e-05,24.762375 C0.01554375,11.107125 11.1389813,-0.0195 24.7591688,-2.55920172e-05" id="Fill-10" fill="#FEFEFE" mask="url(#mask-2)"></path>
            <path d="M27.6037125,23.1086437 C35.23665,23.2916437 41.7817125,28.0112062 44.65815,34.6667062 C44.673525,34.6822687 44.673525,34.7000812 44.681775,34.7190187 L38.033025,32.5228312 C34.74015,38.3180812 28.51515,42.2441438 21.4074,42.2351592 C16.922775,42.2268937 12.79515,40.6588312 9.529275,38.0437687 C11.3814,38.6816437 13.3694625,39.0335813 15.42915,39.0367688 C22.0289625,39.0440812 27.8259,35.4988312 31.0248375,30.2107687 L24.7404,28.1338313 C20.7654,34.6691437 13.4184,37.9938937 6.22815,37.1666437 C6.2069625,37.1615812 6.1938375,37.1576437 6.1750875,37.1576437 L11.3954625,32.4810188 C8.032275,26.7275813 7.757775,19.3558312 11.3219625,13.1923312 C13.5663375,9.30151875 16.985775,6.50270625 20.879025,4.97626875 C19.39515,6.26495625 18.106275,7.81108125 17.069775,9.60133125 C13.7632125,15.3279563 13.927275,22.1375812 16.8984,27.5580187 L21.8313375,23.1348937 C18.1749,16.4124562 18.9768375,8.37114375 23.287275,2.54664375 C23.2979625,2.53276875 23.3062125,2.51870625 23.31915,2.50408125 L24.7477125,9.37426875 C31.4013375,9.33339375 37.904025,12.7781437 41.4502125,18.9508312 C43.6854,22.8530812 44.396025,27.2175187 43.7669625,31.3597687 C43.397025,29.4317062 42.7087125,27.5368312 41.677275,25.7433937 C38.382525,20.0094562 32.42565,16.7424562 26.251275,16.6149562 L27.6037125,23.1086437 Z" id="Fill-11" fill="#FEFEFE" mask="url(#mask-2)"></path>
            <path d="M44.6629125,34.7098313 C42.78135,38.5352063 39.78735,41.8642688 35.8401,44.1429563 C25.623225,50.0360813 12.6156,46.8665813 6.1866,37.1576437 C6.1866,37.1576437 6.2136,37.1615813 6.228225,37.1666437 C13.4182875,37.9938937 20.765475,34.6691438 24.7402875,28.1338313 L31.0249125,30.2107687 C27.8257875,35.4988313 22.02885,39.0440813 15.429225,39.0367688 C13.3695375,39.0335812 11.381475,38.6816437 9.5291625,38.0437687 C12.795225,40.6588313 16.92285,42.2268938 21.407475,42.2351437 C28.515225,42.2441437 34.7400375,38.3180813 38.0331,32.5228313 L44.6629125,34.7098313 Z" id="Fill-12" fill="#E50113" mask="url(#mask-2)"></path>
            <path d="M23.325825,2.5188 C31.5025125,2.0164875 39.6730125,6.069675 44.0267625,13.6504875 C47.8686375,20.3408625 47.84895,28.2286125 44.67345,34.6928625 C44.67345,34.6928625 44.66295,34.6756125 44.658075,34.6666125 C41.781825,28.0113 35.236575,23.29155 27.6036375,23.1087375 L26.2513875,16.61505 C32.425575,16.7423625 38.3826375,20.0093625 41.6772,25.7433 C42.7086375,27.536925 43.3971375,29.4316125 43.767075,31.359675 C44.39595,27.2176125 43.685325,22.8529875 41.4501375,18.950925 C37.90395,12.7782375 31.4012625,9.3334875 24.7476375,9.3743625 L23.325825,2.5188 Z" id="Fill-13" fill="#F9BE00" mask="url(#mask-2)"></path>
            <path d="M5.424525,35.9333437 C-0.69735,25.2754687 2.9849625,11.5761562 13.6128375,5.44003125 C16.67715,3.67040625 19.9929,2.72296875 23.3062125,2.51878125 C23.2979625,2.52946875 23.2949625,2.53846875 23.2874625,2.54671875 C18.9768375,8.37121875 18.1749,16.4125313 21.8313375,23.1347812 L16.8984,27.5580937 C13.927275,22.1376562 13.7632125,15.3278437 17.069775,9.60140625 C18.106275,7.81115625 19.39515,6.26503125 20.879025,4.97634375 C16.985775,6.50259375 13.5663375,9.30159375 11.3219625,13.1924062 C7.757775,19.3559062 8.032275,26.7274687 11.3954625,32.4810937 L6.1833375,37.1552812 C5.919525,36.7598438 5.662275,36.3522187 5.424525,35.9333437" id="Fill-14" fill="#191978" mask="url(#mask-2)"></path>
        </g>
    </g>
</svg>