<?xml version="1.0" encoding="UTF-8"?>
<svg width="180px" height="180px" viewBox="0 0 180 180" version="1.1" xmlns="http://www.w3.org/2000/svg" xmlns:xlink="http://www.w3.org/1999/xlink">
    <!-- Generator: Sketch 61 (89581) - https://sketch.com -->
    <title>btn_bg</title>
    <desc>Created with Sketch.</desc>
    <g id="Welcome" stroke="none" stroke-width="1" fill="none" fill-rule="evenodd">
        <g id="Desktop-HD" transform="translate(-1344.000000, -636.000000)" fill="#89D8DE">
            <g id="btn_bg" transform="translate(1344.000000, 636.000000)">
                <path d="M11.25,47.5 L47.5,11.25 C32.1932439,19.5664837 19.5660705,32.1924835 11.25,47.5" id="Fill-1"></path>
                <path d="M71.699452,2.47901119 L2.47901119,71.699452 C1.98017724,74.0183069 1.56809701,76.3678871 1.25,78.75 L78.75,1.25 C76.3696945,1.56809701 74.0183069,1.98017724 71.699452,2.47901119" id="Fill-3"></path>
                <path d="M93.343834,0 L0,93.3456283 C0.0735654844,95.1614398 0.193782252,96.9646913 0.375004542,98.75 L98.75,0.375004542 C96.962897,0.195576532 95.1596455,0.0735654844 93.343834,0" id="Fill-5"></path>
                <path d="M111.713245,2.5 L2.5,111.714973 C2.88331171,113.241045 3.30261513,114.754521 3.76330902,116.25 L116.25,3.7615294 C114.752745,3.30262783 113.241093,2.88151816 111.713245,2.5" id="Fill-7"></path>
                <path d="M127.330644,7.5 L7.5,127.328893 C8.10409085,128.652809 8.74073749,129.960448 9.40632262,131.25 L131.25,9.40629476 C129.962237,8.74071936 128.65458,8.10589065 127.330644,7.5" id="Fill-9"></path>
                <path d="M140.363124,15 L15,140.36132 C15.7849179,141.510728 16.5932932,142.640288 17.4269302,143.75 L143.75,17.4251258 C142.642093,16.5914888 141.512533,15.7831135 140.363124,15" id="Fill-11"></path>
                <path d="M152.105158,25 L25,152.10344 C25.9421723,153.090536 26.9077191,154.056056 27.8948424,155 L155,27.8965603 C154.057828,26.9094643 153.092281,25.9439442 152.105158,25" id="Fill-13"></path>
                <path d="M162.57307,36.25 L36.25,162.57307 C37.3579072,163.408511 38.4874672,164.215082 39.6368758,165 L165,39.6368758 C164.215082,38.4892716 163.406707,37.3597116 162.57307,36.25" id="Fill-15"></path>
                <path d="M170.593677,48.75 L48.75,170.593705 C50.0377625,171.259281 51.3436116,171.894109 52.6693559,172.5 L172.5,52.6692986 C171.895909,51.347191 171.259263,50.0395523 170.593677,48.75" id="Fill-17"></path>
                <path d="M176.238471,63.75 L63.75,176.236671 C65.2454792,176.697372 66.7589546,177.116682 68.2868268,177.5 L177.5,68.2850272 C177.116682,66.7571549 176.699172,65.2454792 176.238471,63.75" id="Fill-19"></path>
                <path d="M179.624995,81.25 L81.25,179.624995 C83.037103,179.804423 84.8403545,179.926435 86.656166,180 L180,86.6543717 C179.926435,84.8385602 179.806218,83.0353087 179.624995,81.25" id="Fill-21"></path>
                <path d="M177.520989,108.300548 C178.019823,105.981693 178.431903,103.632113 178.75,101.25 L101.25,178.75 C103.630306,178.431903 105.981693,178.019823 108.300548,177.520989 L177.520989,108.300548 Z" id="Fill-23"></path>
                <path d="M168.75,132.5 L132.5,168.75 C147.806756,160.433929 160.433929,147.806756 168.75,132.5" id="Fill-25"></path>
            </g>
        </g>
    </g>
</svg>