<?xml version="1.0" encoding="UTF-8"?>
<svg width="400px" height="56px" viewBox="0 0 400 56" version="1.1" xmlns="http://www.w3.org/2000/svg" xmlns:xlink="http://www.w3.org/1999/xlink">
    <!-- Generator: Sketch 61 (89581) - https://sketch.com -->
    <title>title2</title>
    <desc>Created with Sketch.</desc>
    <g id="title2" stroke="none" stroke-width="1" fill="none" fill-rule="evenodd">
        <path d="M11.872,52.024 L14.224,51.464 C15.288,49.112 16.632,46.648 17.808,44.072 C18.928,41.776 20.104,39.2 21.168,36.848 C22.288,34.496 23.632,32.144 25.312,29.848 L26.264,29.904 L29.176,33.376 C31.08,35.728 33.152,38.136 35.224,40.376 C37.352,42.616 39.592,44.688 41.944,46.536 C44.184,48.384 46.704,49.896 49.448,51.016 C49.952,51.296 50.568,50.96 51.016,50.4 L51.072,49.28 C49,46.928 46.984,44.52 44.856,42.056 C42.784,39.648 40.768,37.072 38.864,34.44 C37.072,31.92 34.944,29.456 33.152,26.824 L33.376,26.096 C34.888,25.816 41.496,25.872 43.176,25.928 C44.856,25.928 46.368,25.984 48.048,25.928 L49.448,24.584 L49.28,22.624 C48.328,22.008 47.264,21.56 45.92,21.224 C44.688,21 43.568,20.888 42.224,20.608 L31.752,19.936 C30.24,19.992 28.896,19.712 27.832,19.096 C27.944,17.752 28.28,16.296 28.896,15.008 C29.568,13.72 30.24,12.712 31.304,11.648 C32.312,10.808 33.152,9.744 33.768,8.68 L33.376,6.944 L28.112,3.696 L25.816,4.088 C25.312,5.936 24.808,7.56 24.136,9.184 C23.464,10.808 22.736,12.656 22.064,14.28 C21.336,15.96 20.664,17.752 19.88,19.432 C18.76,19.656 14,20.328 12.656,20.552 C11.368,20.72 10.248,21.056 9.072,21.168 L7.448,20.832 L6.104,20.72 L5.88,21.112 L7.616,25.592 L7.952,25.76 L10.584,25.984 L14.896,25.76 C15.68,25.648 16.408,25.872 16.968,26.32 C16.408,28.28 15.68,30.352 14.952,32.424 C14.056,34.384 13.384,36.176 12.656,38.248 C11.928,40.264 11.2,42.448 10.472,44.464 C10.36,45.584 10.024,46.76 9.968,47.88 C9.856,49 10.192,49.84 10.696,50.792 L11.872,52.024 Z M97.272,54.6 L98.336,54.432 C98.896,53.704 99.232,52.752 99.456,51.8 C99.456,50.848 99.68,49.728 99.848,48.832 L99.68,47.096 C99.848,46.2 99.848,45.08 100.072,43.96 C100.072,43.008 100.072,41.888 100.24,40.768 C100.24,39.816 100.52,38.696 100.744,37.744 C101.92,37.184 103.152,37.016 104.328,37.016 L105.784,35.672 L105.392,34.776 C104.664,33.656 103.712,32.872 102.424,32.704 C101.136,32.536 99.848,32.144 98.672,31.752 L98,30.632 C97.776,29.68 98,28.784 98.504,27.832 L101.36,26.544 C101.528,25.2 101.92,23.912 102.592,22.568 C103.32,21.448 103.768,20.16 103.936,18.816 L106.008,16.968 C106.008,16.016 105.616,15.12 105.112,14.56 C104.104,13.776 102.928,13.384 101.36,13.216 C99.96,13.216 98.672,13.048 97.272,12.824 C95.144,13.216 93.464,13.048 92.232,12.488 L92.848,10.584 L95.76,10.584 C97.272,10.584 98.56,10.416 99.568,9.856 L98.616,7.616 C97.776,6.832 96.824,6.496 95.592,6.496 C95.592,6.496 94.136,6.384 92.96,6.216 C92.4,5.656 92.176,4.928 92.176,3.976 C92.176,3.024 92.008,2.296 91.672,1.512 L87.584,0.84 L86.8,1.064 L87.864,3.136 L87.584,6.104 L81.928,6.832 L78.456,7.056 L78.456,7.784 C79.128,9.128 80.08,10.248 81.088,11.144 C81.76,11.368 82.6,11.144 86.968,10.808 L88.032,11.704 L87.864,13.216 L80.584,14.56 L79.464,14.336 L78.568,14.728 C79.128,15.848 79.52,16.968 79.8,18.256 C80.024,19.6 80.192,21.112 80.472,22.4 C80.472,23.688 80.864,25.032 81.424,26.152 C81.424,26.152 82.992,28.056 85.008,28.392 L92.232,28 C92.96,28.56 93.464,29.344 93.632,30.24 L93.464,31.976 C91.336,32.312 89.432,32.536 87.584,32.704 C85.568,32.872 83.72,33.096 81.76,33.264 C79.968,33.432 78.064,33.992 76.384,34.552 L75.936,36.848 C75.768,37.744 75.936,38.696 76.44,39.424 L78.792,40.04 L78.8279236,40.0395428 C79.0277895,40.0356565 80.0298947,39.9987368 81.032,39.648 C82.152,39.088 83.44,38.696 85.008,38.528 C86.184,38.528 87.584,38.304 88.816,38.136 C90.048,37.968 91.336,37.744 92.68,37.576 L94.248,37.744 L94.696,40.768 L94.696,44.128 L94.696,44.128 C94.696,45.416 94.528,46.536 93.688,47.488 L91.112,47.096 C91.112,47.096 86.184,47.376 85.4,48.048 L85.456,49.392 C86.464,49.952 87.92,50.68 89.152,51.408 C90.384,52.192 91.616,52.752 93.128,53.312 C94.528,53.872 95.872,54.264 97.272,54.6 Z M106.68,7.784 C106.68,6.832 106.4,5.936 106.232,4.984 C105.84,4.032 105.392,3.304 105.056,2.352 L102.592,1.232 C101.64,1.064 100.352,1.064 99.344,1.232 C98.336,1.4 97.384,1.624 96.656,1.96 L98.112,4.424 C99.064,5.376 100.128,6.104 101.192,6.664 C102.256,7.392 103.488,7.952 104.72,8.176 C105.504,8.344 106.176,8.176 106.68,7.784 Z M71.064,49.728 C71.624,48.832 72.016,47.88 72.24,46.536 C72.408,45.248 72.576,44.128 73.024,43.008 C73.416,41.888 73.584,40.768 73.808,39.424 C73.416,36.624 73.752,32.592 74.032,30.464 C73.864,29.288 74.2,28 74.2,27.104 C74.032,26.152 74.032,24.976 74.368,22.456 L77.728,21.504 C77.728,21.504 78.68,21.168 78.568,20.048 C78.568,19.096 77.448,18.2 77.448,18.2 L74.144,17.696 L73.08,16.24 C72.912,15.12 72.688,13.944 72.688,12.656 C72.464,11.536 72.072,10.584 71.288,9.688 C69.272,9.464 67.984,9.688 67.088,10.248 C67.48,11.144 67.648,12.096 67.872,13.048 C68.096,14.168 68.096,15.288 68.264,16.24 L68.096,17.36 L64.456,17.92 C63.504,18.088 62.664,18.256 61.936,18.816 C61.096,19.376 59.976,19.936 59.64,20.496 C59.864,22.176 63.896,23.352 63.896,23.352 L68.544,22.736 L68.488,29.68 L67.872,43.008 L67.872,45.64 L67.872,45.64 C67.872,46.536 68.096,47.488 68.432,48.272 L69.776,49.728 L71.064,49.728 Z M97.384,19.04 L92.904,18.76 L92.736,17.36 L93.52,17.136 C94.864,16.968 96.936,17.136 97.888,17.92 L97.384,19.04 Z M87.696,19.376 L85.288,19.04 L85.512,17.528 L86.352,17.36 L87.976,17.528 L87.696,19.376 Z M87.92,24.248 L85.792,24.192 L85.904,22.96 L86.856,22.792 L88.088,22.96 L88.48,23.52 L87.92,24.248 Z M93.184,23.912 L92.792,22.904 L97.272,22.96 L97.272,24.08 L96.488,24.248 C95.312,24.472 94.304,24.248 93.184,23.912 Z M84,45.808 L85.96,45.416 L88.984,45.64 C89.88,45.808 90.384,45.64 90.832,45.08 L90.552,44.128 C90.104,43.4 89.32,43.008 88.312,42.84 C87.192,42.616 86.072,42.448 85.232,41.888 L81.48,42.28 L81.088,42.448 L81.088,43.008 L84,45.808 Z M162.232,50.008 C163.52,47.376 164.248,44.352 164.248,40.992 C164.08,37.8 164.248,34.44 164.64,31.248 C165.032,28.056 165.368,25.088 165.928,21.896 C166.152,20.776 165.928,19.824 165.368,18.872 C163.688,17.976 161.84,17.192 159.768,16.632 C157.696,16.072 155.68,15.904 153.608,15.736 C151.536,15.736 149.464,15.344 147.616,14.616 L148.344,11.2 L148.344,8.4 L148.344,8.4 C148.344,7.448 148.176,6.72 147.616,5.992 L145.936,5.432 L144.032,5.6 C143.472,7.112 143.08,8.624 142.52,10.08 C141.96,11.592 141.4,13.104 140.84,14.392 C140.28,15.904 139.328,17.304 138.152,18.648 L137.256,17.136 C136.528,16.576 135.24,16.464 134.288,16.296 C133.168,16.296 132.216,16.072 131.32,15.904 C130.76,15.176 130.536,14.224 130.872,11.704 L130.872,8.736 L130.872,8.736 L129.528,7.224 C128.072,7.056 126.728,7.224 125.44,7.616 L125.216,7.952 L126.168,10.192 L126.056,15.344 L124.936,16.632 L123.648,16.072 L124.376,13.44 L123.816,10.304 C122.864,9.352 121.744,8.96 120.456,8.792 C119.504,8.624 118.776,8.792 117.992,9.184 L118.216,10.08 C118.216,11.76 117.992,13.44 117.432,14.952 C116.872,16.464 116.312,17.976 115.92,19.488 C115.36,20.944 115.024,22.456 114.8,24.136 C114.632,25.48 114.8,26.6 115.192,27.496 C115.584,28.616 116.144,29.736 116.704,30.688 L118.216,30.128 C119.112,29.008 119.896,27.72 120.456,26.376 C121.016,25.088 121.352,23.744 121.968,22.456 L123.424,21.728 C124.208,21.504 124.768,21.896 125.328,22.456 C125.496,23.576 124.768,27.888 124.544,28.84 C123.648,29.568 122.696,30.128 121.576,30.296 C120.456,30.688 119.336,31.08 118.384,31.472 C117.432,32.032 116.312,32.368 115.192,32.76 L113.904,34.44 L115.024,35.56 C116.536,36.12 117.656,36.904 118.776,37.464 C120.064,37.24 121.352,36.68 122.696,35.952 L123.648,36.12 L124.208,38.584 C124.544,40.04 124.208,41.552 123.76,42.728 C124.32,44.016 124.544,44.744 125.104,46.032 C125.664,47.376 126.448,48.496 127.176,49.784 L128.296,49.616 L129.64,46.592 C129.64,44.184 129.808,42.672 129.976,41.384 C129.976,40.04 129.976,38.584 130.2,37.072 C130.2,35.728 130.536,34.44 131.096,33.152 C132.048,32.368 133,31.808 133.952,31.248 C134.848,30.912 135.632,30.296 136.36,29.568 L136.92,29.736 L138.432,32.368 L139.16,32.2 L145.376,20.608 L146.104,20.776 C145.544,22.624 144.816,24.528 143.864,26.208 C142.912,28.056 141.792,29.96 140.84,31.64 C139.72,33.32 138.824,35.168 137.872,37.072 C137.872,38.024 138.04,38.92 138.208,39.872 C138.432,40.824 138.824,41.552 139.16,42.504 L141.232,41.16 C142.744,39.144 144.032,36.904 145.376,34.608 C146.664,32.368 147.784,30.128 149.072,27.888 C150.248,25.648 151.144,23.184 151.704,20.776 L152.656,20.776 L153.496,21.168 C152.936,23.408 152.264,26.04 151.536,28.056 C150.808,30.128 150.024,32.2 149.072,34.272 C148.176,36.344 147.224,38.36 146.104,40.264 L146.496,40.992 C147.616,40.432 148.736,39.872 149.632,39.144 C151.144,37.24 152.488,35.392 153.608,33.32 C154.504,31.248 155.456,29.176 156.016,26.936 C156.576,24.92 157.136,22.624 157.528,20.384 L158.48,20.384 L159.6,21.728 C159.6,23.744 159.6,25.816 159.376,27.888 C159.208,29.96 159.208,32.032 159.208,34.048 C159.04,36.12 158.816,38.192 158.48,40.04 C157.528,40.6 156.576,40.992 155.456,41.16 C154.336,41.384 153.216,41.384 152.096,41.384 C150.808,41.384 149.632,41.552 148.512,41.776 L151.144,45.304 C152.096,46.256 153.048,46.816 154.168,47.152 C155.288,47.544 156.408,48.104 157.36,48.664 C158.256,49.224 159.376,49.784 160.496,50.008 L162.232,50.008 Z M131.488,26.768 L131.936,21.56 C132.888,20.776 136.528,20.944 137.088,21.336 C136.92,22.288 136.752,23.016 136.528,23.968 C136.36,24.92 135.968,25.816 135.408,26.768 L133.392,27.328 C132.608,27.496 132.048,27.328 131.488,26.768 Z M193.48,52.36 L194.6,52.136 L195.552,50.456 C195.552,49.168 195.552,48.048 195.328,46.704 C195.16,45.584 194.6,44.464 194.04,43.344 C193.312,42.448 192.528,41.272 191.968,40.376 L190.12,39.256 L187.264,39.424 L187.88,40.152 L189.336,43.008 L188.776,43.904 C188.048,43.736 182.448,45.976 181.496,46.144 L179.984,45.976 C179.592,44.128 179.816,43.008 179.984,41.664 C180.152,40.544 180.544,39.424 180.936,38.304 C181.832,37.576 182.784,37.184 184.128,37.184 C185.416,37.352 187.152,37.688 188.104,37.128 C189.056,36.568 190.008,36.232 190.68,35.504 C191.8,34.552 192.528,33.264 192.696,31.92 C192.92,30.632 193.088,29.12 193.312,27.832 C193.088,26.88 192.92,26.152 192.696,25.2 C192.528,24.248 191.968,23.52 191.408,22.96 C190.848,22.4 190.12,22.008 189.168,21.84 C188.216,21.84 187.488,21.616 186.928,21.28 L187.264,17.528 C187.488,16.576 187.264,15.848 186.928,15.288 L184.296,14.336 C183.344,14.168 182.616,14.336 182.056,14.728 L183.176,18.816 L182.616,21.448 L179.032,22.008 C178.472,22.176 177.912,22.008 177.576,21.448 C178.136,20.16 180.376,15.456 180.936,14.168 C181.496,12.992 182.056,11.872 182.784,10.752 C184.128,11.312 185.248,12.264 186.368,13.216 C187.264,14.168 188.44,15.064 189.728,15.624 C191.016,16.408 192.136,17.136 193.48,17.696 L194.6,17.304 L195.328,15.624 C195.552,14.728 195.328,13.776 194.768,13.216 C193.872,12.096 192.696,11.144 191.576,10.416 C190.456,9.632 186.368,6.44 185.024,5.88 L184.128,4.984 L180.376,3.64 C179.592,3.472 178.864,3.64 178.304,4.032 C178.248,6.72 177.576,10.192 176.232,12.656 C174.944,15.064 173.6,17.696 172.312,20.16 C170.8,22.568 169.848,25.368 169.68,28.168 L170.072,31.192 C170.072,31.192 171.36,31.696 171.752,31.024 C172.312,30.408 174.16,28.448 174.944,27.048 L176.064,29.288 C176.232,31.024 176.064,32.48 175.84,33.992 C175.504,35.504 175.28,37.016 175.28,38.696 C175.28,40.376 175.112,41.888 174.944,43.344 C175.28,44.296 175.504,45.416 175.504,46.368 C175.504,47.488 175.672,48.44 176.064,49.336 L177.744,51.24 C179.424,51.408 180.936,51.24 182.448,50.68 C183.736,50.288 185.248,49.896 186.536,49.56 L190.4,47.152 C190.568,48.104 191.408,49.168 191.968,49.896 C192.36,50.848 192.92,51.576 193.48,52.36 Z M211.568,51.016 L216.216,49.896 C216.44,48.552 216.888,46.872 217.28,45.528 C217.448,44.24 218.008,42.056 218.176,40.712 L217.84,39.424 C216.888,38.696 215.768,38.136 214.648,37.912 C213.528,37.744 212.408,37.744 211.064,37.576 C209.776,37.352 208.656,37.184 207.088,36.904 L207.144,34.72 L210.168,34.72 L210.168,34.72 C211.064,34.944 211.848,34.72 212.576,34.552 C213.304,33.6 213.864,32.48 214.424,31.192 C214.816,30.072 215.376,28.952 215.936,27.832 C216.496,26.88 216.72,25.592 216.72,24.248 L218.176,24.808 L219.296,24.416 L220.976,21.056 L220.976,21.056 C221.592,20.16 221.928,18.984 222.152,17.696 C222.32,16.408 222.152,15.456 221.592,14.504 C220.248,13.552 218.96,13.216 217.448,12.992 C214.368,12.88 210.504,12.824 209.776,12.432 C210.336,11.704 210.728,10.752 210.896,9.856 C210.896,8.904 211.064,7.784 211.288,6.832 L211.288,5.712 C209.944,4.76 208.432,4.424 206.752,4.592 L206.024,4.76 L206.64,8.232 C206.64,9.632 206.304,10.752 205.968,12.712 C204.848,12.88 200.592,13.384 199.472,13.552 C198.352,13.776 197.232,14.336 196.28,14.896 C196.448,16.184 196.672,17.304 196.84,18.424 C197.008,19.768 197.232,20.888 197.4,22.176 C197.568,23.52 197.96,24.64 198.352,25.76 L199.864,27.44 L201.152,27.048 L201.712,25.2 L201.32,17.864 C202.664,17.528 204.12,17.304 205.856,17.304 L215.768,17.864 L216.888,20.16 L216.888,21.616 L215.544,22.568 C214.424,22.568 213.08,22.008 211.904,21.616 C210.952,21.448 207.312,20.888 206.416,20.72 C205.296,20.496 203.896,20.72 202.944,21.056 L203.112,25.928 C202.944,27.832 202.776,29.288 202.552,30.632 C202.384,31.92 202.216,33.432 202.216,34.72 C202.216,36.232 201.264,40.712 201.264,41.664 C201.096,43.848 201.264,44.8 200.984,48.384 C201.376,49.336 201.936,50.064 202.664,50.624 L211.568,51.016 Z M208.152,30.352 L206.864,29.456 C207.032,28.112 207.76,24.976 207.76,24.976 C208.712,25.144 210.336,25.032 211.064,25.76 C211.288,27.44 210.952,28.896 210.056,29.456 L208.152,30.352 Z M181.832,27.832 L182.392,26.712 C185.024,26.488 186.368,26.712 187.488,27.44 L187.096,28.168 C185.584,28.392 183.176,28.168 181.832,27.832 Z M181.44,33.152 L181.608,32.088 C183.456,31.752 187.656,32.144 188.44,32.704 L187.88,33.656 C185.808,33.992 182.224,33.488 181.44,33.152 Z M211.568,46.032 L206.304,45.472 L207.088,40.432 L211.848,41.104 L212.968,42.224 C213.08,44.128 212.688,44.688 212.128,45.64 L211.568,46.032 Z M251.664,26.6 L252.448,26.152 C253.456,24.472 254.576,22.96 255.864,21.28 C256.984,19.824 257.936,18.144 258.888,16.408 C259.784,14.728 260.848,13.272 262.416,11.816 C263.48,12.712 264.712,13.664 265.832,14.56 C266.784,15.512 267.904,16.464 269.024,17.416 C270.144,18.312 271.208,19.544 272.16,20.496 C273.392,21.168 274.344,22.4 275.408,22.12 C276.304,22.456 277.312,20.496 277.312,20.496 L276.864,18.2 C275.912,16.912 274.736,15.736 273.448,14.784 C272.104,13.832 270.984,12.936 269.696,11.984 C268.352,11.032 267.232,10.136 266.168,8.848 C266,7.224 265.776,5.824 264.824,4.816 C263.48,4.256 262.024,3.92 260.456,3.36 L259.448,3.696 C258.104,5.432 256.76,7.336 255.472,9.184 C254.128,11.088 252.84,12.936 251.72,14.84 C250.432,16.856 249.48,18.76 248.696,20.888 L248.696,23.688 C249.312,25.032 250.264,26.04 251.664,26.6 Z M240.016,12.264 L242.032,10.864 L241.584,8.848 C240.296,7.616 239.232,6.776 237.888,6.104 C236.544,5.488 235.592,5.096 234.024,5.096 C234.024,5.096 232.96,4.76 232.4,5.6 C231.504,6.832 232.624,8.12 232.624,8.12 C233.8,8.904 235.144,9.856 236.264,10.472 C237.44,11.144 238.56,11.816 240.016,12.264 Z M236.376,18.984 C237.664,18.984 243.488,18.592 243.488,18.592 C244.776,18.424 246.232,18.032 247.464,17.36 L247.072,15.456 C245.84,14.056 244.384,13.496 242.704,13.496 C241.248,13.496 239.736,13.496 238.392,13.664 C236.936,13.832 230.496,14.616 227.416,14.784 L227.136,15.4 L227.528,16.408 C228.368,17.08 231.56,19.152 232.624,19.376 C233.856,19.432 235.032,18.984 236.376,18.984 Z M256.704,33.04 C257.992,32.088 259,31.08 259.952,29.792 C260.68,28.672 261.576,27.552 262.752,26.6 C263.312,25.648 263.984,25.144 264.88,24.976 C265.888,24.808 266.616,24.416 267.456,23.8 C267.624,22.4 267.232,21.224 266.224,20.272 L261.52,18.592 C260.4,18.592 259.392,18.928 258.608,19.936 C258.048,20.888 257.264,21.784 256.704,22.736 C256.144,23.688 255.584,24.808 255.192,25.76 C254.632,26.656 254.296,27.776 253.904,28.952 L254.296,31.304 L255.864,33.04 L256.704,33.04 Z M235.48,24.696 C236.376,24.472 242.032,24.304 242.032,24.304 C243.152,24.304 244.16,24.08 245.224,23.408 L245.056,22.064 L242.032,20.496 L238,20.776 L232.4,21.168 L230.44,21.728 L230.72,22.512 C231.896,23.744 234.528,24.696 235.48,24.696 Z M234.584,31.08 C236.096,31.08 237.608,30.856 238.896,30.688 C240.24,30.464 241.696,30.296 243.208,30.128 C244.72,29.904 246.12,29.568 247.352,28.504 L247.352,27.72 L245.224,26.096 C243.376,26.096 241.696,26.32 240.016,26.488 C238.336,26.656 236.656,26.992 234.696,27.384 L234.66066,27.3954365 C234.323988,27.5038085 231.653935,28.3504516 229.768,28.56 L230.048,29.456 C231.504,30.464 232.904,31.08 234.584,31.08 Z M259.896,40.824 C260.848,39.816 261.968,38.864 262.864,37.968 C263.816,37.016 264.936,36.064 265.888,35.112 C266.84,34.272 267.96,33.712 269.304,33.152 L270.032,31.36 L269.864,29.4 C269.304,28.28 268.296,27.496 266.952,26.936 C266,26.936 264.992,27.104 264.432,27.664 C263.704,28.224 262.976,28.952 262.192,29.568 C261.408,30.52 260.68,31.472 259.784,32.424 C258.832,33.32 258.048,34.272 257.488,35.224 C256.928,36.344 256.536,37.52 256.368,38.808 L256.704,40.264 L258.496,40.824 L259.896,40.824 Z M255.192,52.584 L258.048,52.416 C261.184,49.728 264.432,47.992 265.944,46.368 C267.456,44.912 268.688,43.904 269.976,42.112 C270.984,40.544 271.824,39.816 272.496,39.032 C273.112,38.304 273.448,36.512 273.336,34.832 L271.488,33.656 C269.976,34.496 267.568,36.848 265.496,38.92 C263.424,40.992 261.352,42.896 259.504,44.912 C257.488,46.984 256.032,49.056 254.688,51.576 L255.192,52.584 Z M238.56,49.056 C239.848,48.496 241.472,48.552 242.76,48.16 C244.104,47.992 245.84,47.992 246.792,46.312 C247.576,45.36 248.136,44.408 248.304,43.176 C248.472,42.28 248.696,41.104 248.864,39.984 C249.032,38.864 249.256,37.744 249.256,36.624 L249.256,35.392 C249.256,35.392 247.688,33.544 246.568,33.768 L241.92,33.768 L241.92,33.768 C240.408,33.992 236.264,33.824 234.248,33.768 L231.224,33.768 L229.712,34.44 C229.712,35.896 229.712,37.016 229.88,38.304 C230.048,39.648 230.272,40.768 230.44,42.056 C230.608,43.4 231,44.632 231.56,45.528 C232.512,46.648 233.352,48.104 234.64,48.496 C235.872,49.056 237.216,48.832 238.56,49.056 Z M236.376,43.904 C235.928,42.728 235.76,41.496 235.928,38.64 L240.24,37.8 L242.592,37.968 L243.152,41.832 C243.376,42.28 243.152,42.728 242.872,43.288 C242.144,43.736 236.376,43.904 236.376,43.904 Z M288.568,52.92 L290.304,52.36 C291.76,49.168 293.104,45.976 294.224,42.616 C295.12,39.424 296.072,36.064 297.024,32.704 C297.752,29.288 299.656,19.04 300.216,18.088 C302.288,16.744 304.696,15.848 307.496,15.456 C310.128,15.288 312.76,14.896 319.144,14.504 C321.552,14.168 324.184,13.776 326.816,13.608 L327.936,11.872 L327.768,10.584 C326.984,10.192 326.256,10.024 325.304,9.856 C324.352,9.632 323.624,9.632 322.672,9.464 C320.376,9.52 319.312,9.52 313.432,9.464 L314.496,6.272 L313.768,4.592 C313.04,3.64 312.088,3.248 310.968,3.248 C309.624,3.248 308.728,3.08 307.776,2.52 L306.096,2.52 L304.976,4.032 C304.752,5.152 305.144,6.048 305.872,6.832 C306.656,7.728 307.72,10.024 307.72,10.024 L299.264,11.704 C297.584,11.704 296.296,11.312 294.952,10.584 C293.832,10.416 293.104,10.752 292.712,11.704 L293.104,13.608 L293.44,17.304 C293.44,19.04 293.44,20.72 293.272,22.4 C293.104,24.08 292.88,25.76 292.544,27.272 C292.152,28.952 291.76,30.464 291.424,32.144 C290.64,33.264 289.912,34.16 288.96,34.944 C288.008,35.672 286.888,36.456 285.992,37.184 C284.872,37.912 283.304,39.256 282.072,40.992 C283.192,41.888 283.696,42.784 285.04,43.344 C285.992,43.568 286.72,43.176 287.28,42.448 C287.84,41.664 288.4,41.104 289.52,40.712 C289.352,41.888 289.128,43.008 288.96,44.128 C288.232,48.608 287.672,49.728 287.112,50.68 L287.112,51.576 L288.568,52.92 Z M312.2,52.64 L313.992,52.248 C315.336,51.24 315.896,49.896 315.896,48.384 L315.728,42.056 C315.56,41.104 315.728,40.376 316.064,39.872 C316.064,39.872 320.096,40.432 321.104,39.144 C322.168,38.36 323.68,34.16 323.68,34.16 L325.976,35.504 C326.984,35.672 327.768,35.336 328.384,34.496 L328.384,33.488 L322.84,28.112 L323.008,27.72 L325.416,26.768 C326.704,26.208 328.048,25.312 329.28,24.248 L328.608,23.184 C327.208,23.184 325.752,23.184 324.408,23.352 C323.12,23.576 321.776,23.912 320.488,24.304 C318.976,24.528 317.744,24.304 316.792,23.576 L316.008,22.904 L323.736,21.56 L325.08,20.608 L324.856,18.648 L323.848,18.2 C322.28,17.976 318.528,18.256 314.944,18.648 L315.336,17.472 L314.72,15.904 C313.936,15.904 313.208,15.904 312.256,15.68 C311.304,15.68 310.52,15.904 309.904,16.296 C309.344,17.64 308.56,18.928 307.832,20.272 C307.832,20.272 306.264,20.496 302.512,20.776 C301.56,20.552 300.776,20.776 299.936,21.168 L299.936,22.792 L300.552,23.576 C301.896,24.36 303.24,24.752 304.808,24.92 C304.808,24.92 304.472,26.264 302.848,27.384 L300.608,27.272 L299.264,27.552 C299.264,27.552 298.536,28.28 298.648,29.456 C298.648,30.52 299.6,31.64 299.6,31.64 L301.616,32.088 L300.44,35.392 L300.608,36.68 L301.392,38.08 C302.456,37.856 303.352,37.072 304.136,36.12 L305.424,35.056 L306.544,37.744 L306.544,40.208 L308.112,40.992 L311.192,40.824 C311.36,42.224 311.192,45.696 310.8,46.48 L307.552,47.208 C307.776,48.832 308.672,50.456 310.408,51.632 L312.2,52.64 Z M288.232,29.68 L290.864,28.392 L291.592,26.712 L291.424,25.76 C290.472,25.368 289.52,25.2 288.4,25.2 C287.28,25.368 286.328,25.2 285.432,24.64 L283.528,25.032 C283.696,26.152 284.088,27.048 285.04,27.832 C285.992,28.728 286.888,29.512 288.232,29.68 Z M310.128,28.448 C310.408,27.328 310.856,26.096 312.368,25.256 L314.888,28.056 L310.128,28.448 Z M310.8,33.264 L310.52,32.032 L317.464,31.584 L317.296,32.872 C316.456,33.04 310.8,33.264 310.8,33.264 Z M310.968,37.016 L310.688,36.064 C311.584,35.728 315.952,35.616 315.952,35.616 L317.128,35.616 L317.296,36.736 L310.968,37.016 Z M301.504,50.792 C302.512,50.4 303.464,49.616 304.36,48.664 C305.144,47.712 305.872,46.984 306.712,46.2 L306.712,44.968 C306.32,44.24 305.76,43.512 305.144,42.896 C304.36,42.336 303.632,41.944 302.848,41.552 L301.84,41.776 L299.88,45.808 L300.104,49.784 L301.504,50.792 Z M326.816,49.168 L328.608,47.992 C328.776,46.984 328.44,45.976 327.824,45.416 C326.704,44.408 325.36,43.68 324.016,43.288 C322.672,43.12 321.272,42.728 319.872,42.392 L318.752,42.392 L321.496,45.528 C322.28,46.312 323.008,47.096 323.96,47.656 C324.912,48.384 325.808,48.944 326.816,49.168 Z M373.856,25.816 C375.256,25.816 376.6,25.648 378,25.256 C379.288,24.92 380.408,24.304 381.36,23.408 L385.448,14.952 C385.448,13.44 385,12.152 384.328,10.864 C382.928,10.304 381.696,9.744 380.296,9.352 C378.84,8.96 377.216,8.792 375.872,8.624 C374.808,8.792 373.576,8.792 372.344,8.792 C371.112,8.792 366.408,9.184 364.392,9.184 C363.608,8.4 363.384,7.672 363.384,6.72 C363.216,5.992 363.048,5.208 362.488,4.48 C361.816,3.752 361.312,3.192 360.528,2.968 C359.744,2.8 358.96,2.8 357.952,2.632 L354.76,2.8 L355.32,3.92 L357.952,10.08 L349.776,11.928 L344.064,11.032 L342.888,11.2 L343.112,12.32 C342.944,13.944 343.392,16.184 343.56,18.704 C343.728,21.224 343.84,22.344 344.4,23.464 L346.808,24.92 L347.704,24.584 L349.496,17.416 C351.904,16.856 354.144,16.296 356.384,15.904 C358.68,15.736 361.144,15.344 363.496,15.176 C365.736,14.952 368.2,14.952 370.72,14.952 L375.648,15.176 C376.656,14.952 377.552,15.176 378.336,15.736 C378.336,17.024 378.168,18.144 377.496,19.264 C376.88,20.216 376.264,21.168 375.424,21.896 C374.36,22.848 373.576,23.576 372.792,24.304 L373.856,25.816 Z M380.744,52.808 C381.976,52.36 382.928,51.128 383.096,50.008 L382.592,48.496 C381.024,47.6 379.4,47.04 377.496,46.424 C375.76,45.864 373.744,45.64 371.112,45.584 C368.592,45.528 365.288,45.024 365.288,45.024 C365.288,43.736 365.624,42.336 366.576,41.384 C367.696,40.824 368.816,40.6 370.104,40.824 C371.336,40.992 372.232,40.824 373.184,40.264 C373.464,39.144 373.296,38.36 372.792,37.8 C372.008,37.24 371.28,37.072 370.216,36.904 C369.264,36.904 368.144,36.904 367.08,36.68 L365.176,35.392 L365.848,32.76 C367.08,32.032 368.368,31.64 369.88,31.472 C371.28,31.64 373.352,34.216 375.48,35 C376.6,35.392 377.44,34.832 377.608,34.272 C377.776,32.928 377.832,31.584 377.104,30.632 C376.096,29.848 375.088,29.4 374.36,28.448 L369.432,25.256 C368.536,24.752 367.192,24.416 366.072,24.92 C365.176,25.424 365.064,26.768 364,27.72 C362.88,27.888 361.144,27.888 359.744,27.496 L360.192,26.936 C361.424,26.04 363.832,23.52 364.112,22.456 C367.696,22.904 368.76,21.728 369.656,21.168 C369.992,20.72 370.328,19.824 369.544,19.04 L363.832,18.536 C362.264,18.312 356.776,18.648 354.704,18.872 C352.968,19.096 351.624,19.488 350.56,20.216 C350.336,21.056 350.672,21.84 350.672,21.84 L353.304,22.904 C352.968,23.856 351.904,25.256 350.616,27.72 C350.392,29.4 350.784,30.912 351.568,32.2 C352.408,32.76 353.864,33.32 355.32,33.152 C356.44,33.152 358.12,32.872 359.464,33.432 L358.736,36.792 C357.336,37.352 354.928,38.024 353.472,38.192 C352.016,38.36 350.392,38.752 349.16,38.92 C349.048,40.32 351.176,40.824 352.184,40.992 C353.304,41.16 357.224,41.832 358.848,42.112 C358.568,43.68 357.616,45.304 357.616,45.304 L347.144,44.856 C346.192,44.688 343.28,45.64 342.552,46.648 C342.72,48.16 343.056,49.448 344.064,50.568 C344.848,51.128 345.8,51.52 346.752,51.52 C347.984,51.688 349.216,51.52 350.224,51.128 C352.072,51.128 353.136,50.904 354.368,50.736 C357.056,50.568 359.968,50.736 362.712,50.904 C365.344,51.128 368.704,51.576 370.776,51.856 C373.184,52.192 376.488,52.248 378.896,52.808 L380.744,52.808 Z" id="大博物館診療室" fill="#6FAEA4" fill-rule="nonzero"></path>
    </g>
</svg>